<svg width="16" height="16" viewBox="0 0 16 16" fill="none" xmlns="http://www.w3.org/2000/svg">
<path d="M5.99967 1.33333C4.903 1.33333 3.99967 2.23666 3.99967 3.33333C3.99967 3.5679 4.04897 3.79007 4.12467 4H1.33301V6.66667H1.99967V12.6667C1.99967 13.4 2.59967 14 3.33301 14H7.33301V6.66667H8.66634V14H12.6663C13.3997 14 13.9997 13.4 13.9997 12.6667V6.66667H14.6663V4H11.8747C11.9504 3.79007 11.9997 3.5679 11.9997 3.33333C11.9997 2.23666 11.0963 1.33333 9.99967 1.33333C9.48727 1.33333 9.02191 1.53609 8.66634 1.85807V1.84375L8.58821 1.92188L7.99967 2.51042L7.41113 1.92188L7.33301 1.84375V1.85807C6.97744 1.53609 6.51208 1.33333 5.99967 1.33333ZM5.99967 2.66667C6.37576 2.66667 6.66634 2.95725 6.66634 3.33333C6.66634 3.70942 6.37576 4 5.99967 4C5.62359 4 5.33301 3.70942 5.33301 3.33333C5.33301 2.95725 5.62359 2.66667 5.99967 2.66667ZM9.99967 2.66667C10.3758 2.66667 10.6663 2.95725 10.6663 3.33333C10.6663 3.70942 10.3758 4 9.99967 4C9.62359 4 9.33301 3.70942 9.33301 3.33333C9.33301 2.95725 9.62359 2.66667 9.99967 2.66667Z" fill="white" fill-opacity="0.87"/>
</svg>
