<svg width="657" height="111" viewBox="0 0 657 111" fill="none" xmlns="http://www.w3.org/2000/svg">
<rect x="44" width="575" height="24" rx="6" fill="url(#paint0_linear_17117_47028)"/>
<path d="M44 32L50.0622 42.5H37.9378L44 32Z" fill="#A8CBFF" fill-opacity="0.75"/>
<path d="M187 32L193.062 42.5H180.938L187 32Z" fill="#A8CBFF" fill-opacity="0.75"/>
<path d="M330 32L336.062 42.5H323.938L330 32Z" fill="#A8CBFF" fill-opacity="0.75"/>
<path d="M473 32L479.062 42.5H466.938L473 32Z" fill="#A8CBFF" fill-opacity="0.75"/>
<path d="M616 32L622.062 42.5H609.938L616 32Z" fill="#A8CBFF" fill-opacity="0.75"/>
<path d="M23.9873 69V60.15H20.5073V58.5H29.4173V60.15H25.9373V69H23.9873ZM33.4804 69.105C32.6604 69.105 31.9304 68.93 31.2904 68.58C30.6504 68.22 30.1454 67.73 29.7754 67.11C29.4054 66.49 29.2204 65.785 29.2204 64.995C29.2204 64.195 29.4054 63.49 29.7754 62.88C30.1454 62.26 30.6504 61.775 31.2904 61.425C31.9304 61.075 32.6604 60.9 33.4804 60.9C34.3104 60.9 35.0454 61.075 35.6854 61.425C36.3354 61.775 36.8404 62.255 37.2004 62.865C37.5704 63.475 37.7554 64.185 37.7554 64.995C37.7554 65.785 37.5704 66.49 37.2004 67.11C36.8404 67.73 36.3354 68.22 35.6854 68.58C35.0454 68.93 34.3104 69.105 33.4804 69.105ZM33.4804 67.5C33.9404 67.5 34.3504 67.4 34.7104 67.2C35.0704 67 35.3504 66.71 35.5504 66.33C35.7604 65.95 35.8654 65.505 35.8654 64.995C35.8654 64.475 35.7604 64.03 35.5504 63.66C35.3504 63.28 35.0704 62.99 34.7104 62.79C34.3504 62.59 33.9454 62.49 33.4954 62.49C33.0354 62.49 32.6254 62.59 32.2654 62.79C31.9154 62.99 31.6354 63.28 31.4254 63.66C31.2154 64.03 31.1104 64.475 31.1104 64.995C31.1104 65.505 31.2154 65.95 31.4254 66.33C31.6354 66.71 31.9154 67 32.2654 67.2C32.6254 67.4 33.0304 67.5 33.4804 67.5ZM43.9884 69.105C43.3384 69.105 42.7434 68.955 42.2034 68.655C41.6734 68.355 41.2484 67.905 40.9284 67.305C40.6184 66.695 40.4634 65.925 40.4634 64.995C40.4634 64.055 40.6134 63.285 40.9134 62.685C41.2234 62.085 41.6434 61.64 42.1734 61.35C42.7034 61.05 43.3084 60.9 43.9884 60.9C44.7784 60.9 45.4734 61.07 46.0734 61.41C46.6834 61.75 47.1634 62.225 47.5134 62.835C47.8734 63.445 48.0534 64.165 48.0534 64.995C48.0534 65.825 47.8734 66.55 47.5134 67.17C47.1634 67.78 46.6834 68.255 46.0734 68.595C45.4734 68.935 44.7784 69.105 43.9884 69.105ZM39.5484 71.91V60.99H41.3334V62.88L41.2734 65.01L41.4234 67.14V71.91H39.5484ZM43.7784 67.5C44.2284 67.5 44.6284 67.4 44.9784 67.2C45.3384 67 45.6234 66.71 45.8334 66.33C46.0434 65.95 46.1484 65.505 46.1484 64.995C46.1484 64.475 46.0434 64.03 45.8334 63.66C45.6234 63.28 45.3384 62.99 44.9784 62.79C44.6284 62.59 44.2284 62.49 43.7784 62.49C43.3284 62.49 42.9234 62.59 42.5634 62.79C42.2034 62.99 41.9184 63.28 41.7084 63.66C41.4984 64.03 41.3934 64.475 41.3934 64.995C41.3934 65.505 41.4984 65.95 41.7084 66.33C41.9184 66.71 42.2034 67 42.5634 67.2C42.9234 67.4 43.3284 67.5 43.7784 67.5ZM55.0871 69V59.25L55.9421 60.135H52.8671V58.5H57.0371V69H55.0871ZM63.5 69.15C62.67 69.15 61.92 68.94 61.25 68.52C60.59 68.1 60.07 67.49 59.69 66.69C59.31 65.88 59.12 64.9 59.12 63.75C59.12 62.6 59.31 61.625 59.69 60.825C60.07 60.015 60.59 59.4 61.25 58.98C61.92 58.56 62.67 58.35 63.5 58.35C64.34 58.35 65.09 58.56 65.75 58.98C66.41 59.4 66.93 60.015 67.31 60.825C67.7 61.625 67.895 62.6 67.895 63.75C67.895 64.9 67.7 65.88 67.31 66.69C66.93 67.49 66.41 68.1 65.75 68.52C65.09 68.94 64.34 69.15 63.5 69.15ZM63.5 67.455C63.99 67.455 64.415 67.325 64.775 67.065C65.135 66.795 65.415 66.385 65.615 65.835C65.825 65.285 65.93 64.59 65.93 63.75C65.93 62.9 65.825 62.205 65.615 61.665C65.415 61.115 65.135 60.71 64.775 60.45C64.415 60.18 63.99 60.045 63.5 60.045C63.03 60.045 62.61 60.18 62.24 60.45C61.88 60.71 61.595 61.115 61.385 61.665C61.185 62.205 61.085 62.9 61.085 63.75C61.085 64.59 61.185 65.285 61.385 65.835C61.595 66.385 61.88 66.795 62.24 67.065C62.61 67.325 63.03 67.455 63.5 67.455Z" fill="white"/>
<path d="M141.774 69V58.5H146.094C147.024 58.5 147.819 58.65 148.479 58.95C149.149 59.25 149.664 59.68 150.024 60.24C150.384 60.8 150.564 61.465 150.564 62.235C150.564 63.005 150.384 63.67 150.024 64.23C149.664 64.78 149.149 65.205 148.479 65.505C147.819 65.795 147.024 65.94 146.094 65.94H142.854L143.724 65.055V69H141.774ZM148.644 69L145.989 65.19H148.074L150.744 69H148.644ZM143.724 65.265L142.854 64.335H146.004C146.864 64.335 147.509 64.15 147.939 63.78C148.379 63.41 148.599 62.895 148.599 62.235C148.599 61.565 148.379 61.05 147.939 60.69C147.509 60.33 146.864 60.15 146.004 60.15H142.854L143.724 59.19V65.265ZM157.428 69V67.38L157.323 67.035V64.2C157.323 63.65 157.158 63.225 156.828 62.925C156.498 62.615 155.998 62.46 155.328 62.46C154.878 62.46 154.433 62.53 153.993 62.67C153.563 62.81 153.198 63.005 152.898 63.255L152.163 61.89C152.593 61.56 153.103 61.315 153.693 61.155C154.293 60.985 154.913 60.9 155.553 60.9C156.713 60.9 157.608 61.18 158.238 61.74C158.878 62.29 159.198 63.145 159.198 64.305V69H157.428ZM154.908 69.105C154.308 69.105 153.783 69.005 153.333 68.805C152.883 68.595 152.533 68.31 152.283 67.95C152.043 67.58 151.923 67.165 151.923 66.705C151.923 66.255 152.028 65.85 152.238 65.49C152.458 65.13 152.813 64.845 153.303 64.635C153.793 64.425 154.443 64.32 155.253 64.32H157.578V65.565H155.388C154.748 65.565 154.318 65.67 154.098 65.88C153.878 66.08 153.768 66.33 153.768 66.63C153.768 66.97 153.903 67.24 154.173 67.44C154.443 67.64 154.818 67.74 155.298 67.74C155.758 67.74 156.168 67.635 156.528 67.425C156.898 67.215 157.163 66.905 157.323 66.495L157.638 67.62C157.458 68.09 157.133 68.455 156.663 68.715C156.203 68.975 155.618 69.105 154.908 69.105ZM166.149 60.9C166.789 60.9 167.359 61.025 167.859 61.275C168.369 61.525 168.769 61.91 169.059 62.43C169.349 62.94 169.494 63.6 169.494 64.41V69H167.619V64.65C167.619 63.94 167.449 63.41 167.109 63.06C166.779 62.71 166.314 62.535 165.714 62.535C165.274 62.535 164.884 62.625 164.544 62.805C164.204 62.985 163.939 63.255 163.749 63.615C163.569 63.965 163.479 64.41 163.479 64.95V69H161.604V60.99H163.389V63.15L163.074 62.49C163.354 61.98 163.759 61.59 164.289 61.32C164.829 61.04 165.449 60.9 166.149 60.9ZM173.403 67.215L173.448 64.86L177.633 60.99H179.883L176.328 64.56L175.338 65.385L173.403 67.215ZM171.873 69V57.87H173.748V69H171.873ZM177.918 69L174.993 65.385L176.178 63.885L180.198 69H177.918ZM186.664 69V59.25L187.519 60.135H184.444V58.5H188.614V69H186.664ZM192.377 69V59.25L193.232 60.135H190.157V58.5H194.327V69H192.377ZM200.721 65.61V64.05H204.846V65.61H200.721ZM210.338 69V67.695L214.508 63.735C214.858 63.405 215.118 63.115 215.288 62.865C215.458 62.615 215.568 62.385 215.618 62.175C215.678 61.955 215.708 61.75 215.708 61.56C215.708 61.08 215.543 60.71 215.213 60.45C214.883 60.18 214.398 60.045 213.758 60.045C213.248 60.045 212.783 60.135 212.363 60.315C211.953 60.495 211.598 60.77 211.298 61.14L209.933 60.09C210.343 59.54 210.893 59.115 211.583 58.815C212.283 58.505 213.063 58.35 213.923 58.35C214.683 58.35 215.343 58.475 215.903 58.725C216.473 58.965 216.908 59.31 217.208 59.76C217.518 60.21 217.673 60.745 217.673 61.365C217.673 61.705 217.628 62.045 217.538 62.385C217.448 62.715 217.278 63.065 217.028 63.435C216.778 63.805 216.413 64.22 215.933 64.68L212.348 68.085L211.943 67.35H218.077V69H210.338ZM223.583 69.15C222.753 69.15 222.003 68.94 221.333 68.52C220.673 68.1 220.153 67.49 219.773 66.69C219.393 65.88 219.203 64.9 219.203 63.75C219.203 62.6 219.393 61.625 219.773 60.825C220.153 60.015 220.673 59.4 221.333 58.98C222.003 58.56 222.753 58.35 223.583 58.35C224.423 58.35 225.173 58.56 225.833 58.98C226.493 59.4 227.013 60.015 227.393 60.825C227.783 61.625 227.978 62.6 227.978 63.75C227.978 64.9 227.783 65.88 227.393 66.69C227.013 67.49 226.493 68.1 225.833 68.52C225.173 68.94 224.423 69.15 223.583 69.15ZM223.583 67.455C224.073 67.455 224.498 67.325 224.858 67.065C225.218 66.795 225.498 66.385 225.698 65.835C225.908 65.285 226.013 64.59 226.013 63.75C226.013 62.9 225.908 62.205 225.698 61.665C225.498 61.115 225.218 60.71 224.858 60.45C224.498 60.18 224.073 60.045 223.583 60.045C223.113 60.045 222.693 60.18 222.323 60.45C221.963 60.71 221.678 61.115 221.468 61.665C221.268 62.205 221.168 62.9 221.168 63.75C221.168 64.59 221.268 65.285 221.468 65.835C221.678 66.385 221.963 66.795 222.323 67.065C222.693 67.325 223.113 67.455 223.583 67.455Z" fill="white"/>
<path d="M285.765 69V58.5H290.085C291.015 58.5 291.81 58.65 292.47 58.95C293.14 59.25 293.655 59.68 294.015 60.24C294.375 60.8 294.555 61.465 294.555 62.235C294.555 63.005 294.375 63.67 294.015 64.23C293.655 64.78 293.14 65.205 292.47 65.505C291.81 65.795 291.015 65.94 290.085 65.94H286.845L287.715 65.055V69H285.765ZM292.635 69L289.98 65.19H292.065L294.735 69H292.635ZM287.715 65.265L286.845 64.335H289.995C290.855 64.335 291.5 64.15 291.93 63.78C292.37 63.41 292.59 62.895 292.59 62.235C292.59 61.565 292.37 61.05 291.93 60.69C291.5 60.33 290.855 60.15 289.995 60.15H286.845L287.715 59.19V65.265ZM301.419 69V67.38L301.314 67.035V64.2C301.314 63.65 301.149 63.225 300.819 62.925C300.489 62.615 299.989 62.46 299.319 62.46C298.869 62.46 298.424 62.53 297.984 62.67C297.554 62.81 297.189 63.005 296.889 63.255L296.154 61.89C296.584 61.56 297.094 61.315 297.684 61.155C298.284 60.985 298.904 60.9 299.544 60.9C300.704 60.9 301.599 61.18 302.229 61.74C302.869 62.29 303.189 63.145 303.189 64.305V69H301.419ZM298.899 69.105C298.299 69.105 297.774 69.005 297.324 68.805C296.874 68.595 296.524 68.31 296.274 67.95C296.034 67.58 295.914 67.165 295.914 66.705C295.914 66.255 296.019 65.85 296.229 65.49C296.449 65.13 296.804 64.845 297.294 64.635C297.784 64.425 298.434 64.32 299.244 64.32H301.569V65.565H299.379C298.739 65.565 298.309 65.67 298.089 65.88C297.869 66.08 297.759 66.33 297.759 66.63C297.759 66.97 297.894 67.24 298.164 67.44C298.434 67.64 298.809 67.74 299.289 67.74C299.749 67.74 300.159 67.635 300.519 67.425C300.889 67.215 301.154 66.905 301.314 66.495L301.629 67.62C301.449 68.09 301.124 68.455 300.654 68.715C300.194 68.975 299.609 69.105 298.899 69.105ZM310.14 60.9C310.78 60.9 311.35 61.025 311.85 61.275C312.36 61.525 312.76 61.91 313.05 62.43C313.34 62.94 313.485 63.6 313.485 64.41V69H311.61V64.65C311.61 63.94 311.44 63.41 311.1 63.06C310.77 62.71 310.305 62.535 309.705 62.535C309.265 62.535 308.875 62.625 308.535 62.805C308.195 62.985 307.93 63.255 307.74 63.615C307.56 63.965 307.47 64.41 307.47 64.95V69H305.595V60.99H307.38V63.15L307.065 62.49C307.345 61.98 307.75 61.59 308.28 61.32C308.82 61.04 309.44 60.9 310.14 60.9ZM317.394 67.215L317.439 64.86L321.624 60.99H323.874L320.319 64.56L319.329 65.385L317.394 67.215ZM315.864 69V57.87H317.739V69H315.864ZM321.909 69L318.984 65.385L320.169 63.885L324.189 69H321.909ZM328.84 69V67.695L333.01 63.735C333.36 63.405 333.62 63.115 333.79 62.865C333.96 62.615 334.07 62.385 334.12 62.175C334.18 61.955 334.21 61.75 334.21 61.56C334.21 61.08 334.045 60.71 333.715 60.45C333.385 60.18 332.9 60.045 332.26 60.045C331.75 60.045 331.285 60.135 330.865 60.315C330.455 60.495 330.1 60.77 329.8 61.14L328.435 60.09C328.845 59.54 329.395 59.115 330.085 58.815C330.785 58.505 331.565 58.35 332.425 58.35C333.185 58.35 333.845 58.475 334.405 58.725C334.975 58.965 335.41 59.31 335.71 59.76C336.02 60.21 336.175 60.745 336.175 61.365C336.175 61.705 336.13 62.045 336.04 62.385C335.95 62.715 335.78 63.065 335.53 63.435C335.28 63.805 334.915 64.22 334.435 64.68L330.85 68.085L330.445 67.35H336.58V69H328.84ZM339.386 69V59.25L340.241 60.135H337.166V58.5H341.336V69H339.386ZM347.729 65.61V64.05H351.854V65.61H347.729ZM360.781 69.15C360.041 69.15 359.316 69.045 358.606 68.835C357.906 68.615 357.316 68.315 356.836 67.935L357.676 66.42C358.056 66.73 358.516 66.98 359.056 67.17C359.596 67.36 360.161 67.455 360.751 67.455C361.451 67.455 361.996 67.315 362.386 67.035C362.776 66.745 362.971 66.355 362.971 65.865C362.971 65.385 362.791 65.005 362.431 64.725C362.071 64.445 361.491 64.305 360.691 64.305H359.731V62.97L362.731 59.4L362.986 60.135H357.346V58.5H364.501V59.805L361.501 63.375L360.481 62.775H361.066C362.356 62.775 363.321 63.065 363.961 63.645C364.611 64.215 364.936 64.95 364.936 65.85C364.936 66.44 364.786 66.985 364.486 67.485C364.186 67.985 363.726 68.39 363.106 68.7C362.496 69 361.721 69.15 360.781 69.15ZM370.592 69.15C369.762 69.15 369.012 68.94 368.342 68.52C367.682 68.1 367.162 67.49 366.782 66.69C366.402 65.88 366.212 64.9 366.212 63.75C366.212 62.6 366.402 61.625 366.782 60.825C367.162 60.015 367.682 59.4 368.342 58.98C369.012 58.56 369.762 58.35 370.592 58.35C371.432 58.35 372.182 58.56 372.842 58.98C373.502 59.4 374.022 60.015 374.402 60.825C374.792 61.625 374.987 62.6 374.987 63.75C374.987 64.9 374.792 65.88 374.402 66.69C374.022 67.49 373.502 68.1 372.842 68.52C372.182 68.94 371.432 69.15 370.592 69.15ZM370.592 67.455C371.082 67.455 371.507 67.325 371.867 67.065C372.227 66.795 372.507 66.385 372.707 65.835C372.917 65.285 373.022 64.59 373.022 63.75C373.022 62.9 372.917 62.205 372.707 61.665C372.507 61.115 372.227 60.71 371.867 60.45C371.507 60.18 371.082 60.045 370.592 60.045C370.122 60.045 369.702 60.18 369.332 60.45C368.972 60.71 368.687 61.115 368.477 61.665C368.277 62.205 368.177 62.9 368.177 63.75C368.177 64.59 368.277 65.285 368.477 65.835C368.687 66.385 368.972 66.795 369.332 67.065C369.702 67.325 370.122 67.455 370.592 67.455Z" fill="white"/>
<path d="M424.54 69V58.5H428.86C429.79 58.5 430.585 58.65 431.245 58.95C431.915 59.25 432.43 59.68 432.79 60.24C433.15 60.8 433.33 61.465 433.33 62.235C433.33 63.005 433.15 63.67 432.79 64.23C432.43 64.78 431.915 65.205 431.245 65.505C430.585 65.795 429.79 65.94 428.86 65.94H425.62L426.49 65.055V69H424.54ZM431.41 69L428.755 65.19H430.84L433.51 69H431.41ZM426.49 65.265L425.62 64.335H428.77C429.63 64.335 430.275 64.15 430.705 63.78C431.145 63.41 431.365 62.895 431.365 62.235C431.365 61.565 431.145 61.05 430.705 60.69C430.275 60.33 429.63 60.15 428.77 60.15H425.62L426.49 59.19V65.265ZM440.194 69V67.38L440.089 67.035V64.2C440.089 63.65 439.924 63.225 439.594 62.925C439.264 62.615 438.764 62.46 438.094 62.46C437.644 62.46 437.199 62.53 436.759 62.67C436.329 62.81 435.964 63.005 435.664 63.255L434.929 61.89C435.359 61.56 435.869 61.315 436.459 61.155C437.059 60.985 437.679 60.9 438.319 60.9C439.479 60.9 440.374 61.18 441.004 61.74C441.644 62.29 441.964 63.145 441.964 64.305V69H440.194ZM437.674 69.105C437.074 69.105 436.549 69.005 436.099 68.805C435.649 68.595 435.299 68.31 435.049 67.95C434.809 67.58 434.689 67.165 434.689 66.705C434.689 66.255 434.794 65.85 435.004 65.49C435.224 65.13 435.579 64.845 436.069 64.635C436.559 64.425 437.209 64.32 438.019 64.32H440.344V65.565H438.154C437.514 65.565 437.084 65.67 436.864 65.88C436.644 66.08 436.534 66.33 436.534 66.63C436.534 66.97 436.669 67.24 436.939 67.44C437.209 67.64 437.584 67.74 438.064 67.74C438.524 67.74 438.934 67.635 439.294 67.425C439.664 67.215 439.929 66.905 440.089 66.495L440.404 67.62C440.224 68.09 439.899 68.455 439.429 68.715C438.969 68.975 438.384 69.105 437.674 69.105ZM448.915 60.9C449.555 60.9 450.125 61.025 450.625 61.275C451.135 61.525 451.535 61.91 451.825 62.43C452.115 62.94 452.26 63.6 452.26 64.41V69H450.385V64.65C450.385 63.94 450.215 63.41 449.875 63.06C449.545 62.71 449.08 62.535 448.48 62.535C448.04 62.535 447.65 62.625 447.31 62.805C446.97 62.985 446.705 63.255 446.515 63.615C446.335 63.965 446.245 64.41 446.245 64.95V69H444.37V60.99H446.155V63.15L445.84 62.49C446.12 61.98 446.525 61.59 447.055 61.32C447.595 61.04 448.215 60.9 448.915 60.9ZM456.169 67.215L456.214 64.86L460.399 60.99H462.649L459.094 64.56L458.104 65.385L456.169 67.215ZM454.639 69V57.87H456.514V69H454.639ZM460.684 69L457.759 65.385L458.944 63.885L462.964 69H460.684ZM471.05 69.15C470.31 69.15 469.585 69.045 468.875 68.835C468.175 68.615 467.585 68.315 467.105 67.935L467.945 66.42C468.325 66.73 468.785 66.98 469.325 67.17C469.865 67.36 470.43 67.455 471.02 67.455C471.72 67.455 472.265 67.315 472.655 67.035C473.045 66.745 473.24 66.355 473.24 65.865C473.24 65.385 473.06 65.005 472.7 64.725C472.34 64.445 471.76 64.305 470.96 64.305H470V62.97L473 59.4L473.255 60.135H467.615V58.5H474.77V59.805L471.77 63.375L470.75 62.775H471.335C472.625 62.775 473.59 63.065 474.23 63.645C474.88 64.215 475.205 64.95 475.205 65.85C475.205 66.44 475.055 66.985 474.755 67.485C474.455 67.985 473.995 68.39 473.375 68.7C472.765 69 471.99 69.15 471.05 69.15ZM478.161 69V59.25L479.016 60.135H475.941V58.5H480.111V69H478.161ZM486.504 65.61V64.05H490.629V65.61H486.504ZM496.106 66.615V65.265L501.281 58.5H503.366L498.266 65.265L497.291 64.965H505.616V66.615H496.106ZM501.866 69V66.615L501.926 64.965V62.85H503.756V69H501.866ZM510.817 69.15C509.987 69.15 509.237 68.94 508.567 68.52C507.907 68.1 507.387 67.49 507.007 66.69C506.627 65.88 506.437 64.9 506.437 63.75C506.437 62.6 506.627 61.625 507.007 60.825C507.387 60.015 507.907 59.4 508.567 58.98C509.237 58.56 509.987 58.35 510.817 58.35C511.657 58.35 512.407 58.56 513.067 58.98C513.727 59.4 514.247 60.015 514.627 60.825C515.017 61.625 515.212 62.6 515.212 63.75C515.212 64.9 515.017 65.88 514.627 66.69C514.247 67.49 513.727 68.1 513.067 68.52C512.407 68.94 511.657 69.15 510.817 69.15ZM510.817 67.455C511.307 67.455 511.732 67.325 512.092 67.065C512.452 66.795 512.732 66.385 512.932 65.835C513.142 65.285 513.247 64.59 513.247 63.75C513.247 62.9 513.142 62.205 512.932 61.665C512.732 61.115 512.452 60.71 512.092 60.45C511.732 60.18 511.307 60.045 510.817 60.045C510.347 60.045 509.927 60.18 509.557 60.45C509.197 60.71 508.912 61.115 508.702 61.665C508.502 62.205 508.402 62.9 508.402 63.75C508.402 64.59 508.502 65.285 508.702 65.835C508.912 66.385 509.197 66.795 509.557 67.065C509.927 67.325 510.347 67.455 510.817 67.455Z" fill="white"/>
<path d="M573.862 69V58.5H578.182C579.112 58.5 579.907 58.65 580.567 58.95C581.237 59.25 581.752 59.68 582.112 60.24C582.472 60.8 582.652 61.465 582.652 62.235C582.652 63.005 582.472 63.67 582.112 64.23C581.752 64.78 581.237 65.205 580.567 65.505C579.907 65.795 579.112 65.94 578.182 65.94H574.942L575.812 65.055V69H573.862ZM580.732 69L578.077 65.19H580.162L582.832 69H580.732ZM575.812 65.265L574.942 64.335H578.092C578.952 64.335 579.597 64.15 580.027 63.78C580.467 63.41 580.687 62.895 580.687 62.235C580.687 61.565 580.467 61.05 580.027 60.69C579.597 60.33 578.952 60.15 578.092 60.15H574.942L575.812 59.19V65.265ZM589.515 69V67.38L589.41 67.035V64.2C589.41 63.65 589.245 63.225 588.915 62.925C588.585 62.615 588.085 62.46 587.415 62.46C586.965 62.46 586.52 62.53 586.08 62.67C585.65 62.81 585.285 63.005 584.985 63.255L584.25 61.89C584.68 61.56 585.19 61.315 585.78 61.155C586.38 60.985 587 60.9 587.64 60.9C588.8 60.9 589.695 61.18 590.325 61.74C590.965 62.29 591.285 63.145 591.285 64.305V69H589.515ZM586.995 69.105C586.395 69.105 585.87 69.005 585.42 68.805C584.97 68.595 584.62 68.31 584.37 67.95C584.13 67.58 584.01 67.165 584.01 66.705C584.01 66.255 584.115 65.85 584.325 65.49C584.545 65.13 584.9 64.845 585.39 64.635C585.88 64.425 586.53 64.32 587.34 64.32H589.665V65.565H587.475C586.835 65.565 586.405 65.67 586.185 65.88C585.965 66.08 585.855 66.33 585.855 66.63C585.855 66.97 585.99 67.24 586.26 67.44C586.53 67.64 586.905 67.74 587.385 67.74C587.845 67.74 588.255 67.635 588.615 67.425C588.985 67.215 589.25 66.905 589.41 66.495L589.725 67.62C589.545 68.09 589.22 68.455 588.75 68.715C588.29 68.975 587.705 69.105 586.995 69.105ZM598.236 60.9C598.876 60.9 599.446 61.025 599.946 61.275C600.456 61.525 600.856 61.91 601.146 62.43C601.436 62.94 601.581 63.6 601.581 64.41V69H599.706V64.65C599.706 63.94 599.536 63.41 599.196 63.06C598.866 62.71 598.401 62.535 597.801 62.535C597.361 62.535 596.971 62.625 596.631 62.805C596.291 62.985 596.026 63.255 595.836 63.615C595.656 63.965 595.566 64.41 595.566 64.95V69H593.691V60.99H595.476V63.15L595.161 62.49C595.441 61.98 595.846 61.59 596.376 61.32C596.916 61.04 597.536 60.9 598.236 60.9ZM605.49 67.215L605.535 64.86L609.72 60.99H611.97L608.415 64.56L607.425 65.385L605.49 67.215ZM603.96 69V57.87H605.835V69H603.96ZM610.005 69L607.08 65.385L608.265 63.885L612.285 69H610.005ZM616.922 66.615V65.265L622.097 58.5H624.182L619.082 65.265L618.107 64.965H626.432V66.615H616.922ZM622.682 69V66.615L622.742 64.965V62.85H624.572V69H622.682ZM628.551 69V59.25L629.406 60.135H626.331V58.5H630.501V69H628.551ZM632.749 65.61V64.05H636.874V65.61H632.749ZM641.836 69.15C641.096 69.15 640.371 69.045 639.661 68.835C638.961 68.615 638.371 68.315 637.891 67.935L638.716 66.42C639.096 66.73 639.556 66.98 640.096 67.17C640.646 67.36 641.216 67.455 641.806 67.455C642.496 67.455 643.036 67.31 643.426 67.02C643.826 66.73 644.026 66.34 644.026 65.85C644.026 65.52 643.941 65.23 643.771 64.98C643.611 64.73 643.321 64.54 642.901 64.41C642.491 64.28 641.926 64.215 641.206 64.215H638.671L639.211 58.5H645.376V60.135H639.931L640.951 59.205L640.546 63.48L639.526 62.565H641.641C642.681 62.565 643.516 62.705 644.146 62.985C644.786 63.255 645.251 63.635 645.541 64.125C645.841 64.605 645.991 65.155 645.991 65.775C645.991 66.385 645.841 66.945 645.541 67.455C645.241 67.965 644.781 68.375 644.161 68.685C643.551 68.995 642.776 69.15 641.836 69.15ZM651.496 69.15C650.666 69.15 649.916 68.94 649.246 68.52C648.586 68.1 648.066 67.49 647.686 66.69C647.306 65.88 647.116 64.9 647.116 63.75C647.116 62.6 647.306 61.625 647.686 60.825C648.066 60.015 648.586 59.4 649.246 58.98C649.916 58.56 650.666 58.35 651.496 58.35C652.336 58.35 653.086 58.56 653.746 58.98C654.406 59.4 654.926 60.015 655.306 60.825C655.696 61.625 655.891 62.6 655.891 63.75C655.891 64.9 655.696 65.88 655.306 66.69C654.926 67.49 654.406 68.1 653.746 68.52C653.086 68.94 652.336 69.15 651.496 69.15ZM651.496 67.455C651.986 67.455 652.411 67.325 652.771 67.065C653.131 66.795 653.411 66.385 653.611 65.835C653.821 65.285 653.926 64.59 653.926 63.75C653.926 62.9 653.821 62.205 653.611 61.665C653.411 61.115 653.131 60.71 652.771 60.45C652.411 60.18 651.986 60.045 651.496 60.045C651.026 60.045 650.606 60.18 650.236 60.45C649.876 60.71 649.591 61.115 649.381 61.665C649.181 62.205 649.081 62.9 649.081 63.75C649.081 64.59 649.181 65.285 649.381 65.835C649.591 66.385 649.876 66.795 650.236 67.065C650.606 67.325 651.026 67.455 651.496 67.455Z" fill="white"/>
<path d="M9.00647 90.636C8.84647 90.636 8.69447 90.596 8.55047 90.516C8.41447 90.436 8.30647 90.328 8.22647 90.192C8.14647 90.056 8.10647 89.896 8.10647 89.712C8.10647 89.544 8.14647 89.392 8.22647 89.256C8.30647 89.12 8.41447 89.012 8.55047 88.932C8.69447 88.852 8.84647 88.812 9.00647 88.812C9.16647 88.812 9.31447 88.852 9.45047 88.932C9.58647 89.012 9.69447 89.12 9.77447 89.256C9.86247 89.392 9.90647 89.544 9.90647 89.712C9.90647 89.896 9.86247 90.056 9.77447 90.192C9.69447 90.328 9.58647 90.436 9.45047 90.516C9.31447 90.596 9.16647 90.636 9.00647 90.636ZM18.228 93L20.892 89.544L20.88 89.964L18.348 86.7H19.308L21.384 89.4L21.024 89.388L23.1 86.7H24.036L21.48 90L21.492 89.544L24.18 93H23.208L21.012 90.12L21.348 90.168L19.188 93H18.228ZM24.6382 93L27.3022 89.544L27.2902 89.964L24.7582 86.7H25.7182L27.7942 89.4L27.4342 89.388L29.5102 86.7H30.4462L27.8902 90L27.9022 89.544L30.5902 93H29.6182L27.4222 90.12L27.7582 90.168L25.5982 93H24.6382ZM38.7129 93.072C37.6409 93.072 36.7969 92.764 36.1809 92.148C35.5649 91.532 35.2569 90.62 35.2569 89.412V84.6H36.1449V89.376C36.1449 90.368 36.3689 91.1 36.8169 91.572C37.2649 92.044 37.8969 92.28 38.7129 92.28C39.5369 92.28 40.1729 92.044 40.6209 91.572C41.0689 91.1 41.2929 90.368 41.2929 89.376V84.6H42.1569V89.412C42.1569 90.62 41.8489 91.532 41.2329 92.148C40.6249 92.764 39.7849 93.072 38.7129 93.072ZM47.1488 93.072C46.5248 93.072 45.9248 92.972 45.3488 92.772C44.7808 92.564 44.3408 92.3 44.0288 91.98L44.3768 91.296C44.6728 91.584 45.0688 91.828 45.5648 92.028C46.0688 92.22 46.5968 92.316 47.1488 92.316C47.6768 92.316 48.1048 92.252 48.4328 92.124C48.7688 91.988 49.0128 91.808 49.1648 91.584C49.3248 91.36 49.4048 91.112 49.4048 90.84C49.4048 90.512 49.3088 90.248 49.1168 90.048C48.9328 89.848 48.6888 89.692 48.3848 89.58C48.0808 89.46 47.7448 89.356 47.3768 89.268C47.0088 89.18 46.6408 89.088 46.2728 88.992C45.9048 88.888 45.5648 88.752 45.2528 88.584C44.9488 88.416 44.7008 88.196 44.5088 87.924C44.3248 87.644 44.2328 87.28 44.2328 86.832C44.2328 86.416 44.3408 86.036 44.5568 85.692C44.7808 85.34 45.1208 85.06 45.5768 84.852C46.0328 84.636 46.6168 84.528 47.3288 84.528C47.8008 84.528 48.2688 84.596 48.7328 84.732C49.1968 84.86 49.5968 85.04 49.9328 85.272L49.6328 85.98C49.2728 85.74 48.8888 85.564 48.4808 85.452C48.0808 85.34 47.6928 85.284 47.3168 85.284C46.8128 85.284 46.3968 85.352 46.0688 85.488C45.7408 85.624 45.4968 85.808 45.3368 86.04C45.1848 86.264 45.1088 86.52 45.1088 86.808C45.1088 87.136 45.2008 87.4 45.3848 87.6C45.5768 87.8 45.8248 87.956 46.1288 88.068C46.4408 88.18 46.7808 88.28 47.1488 88.368C47.5168 88.456 47.8808 88.552 48.2408 88.656C48.6088 88.76 48.9448 88.896 49.2488 89.064C49.5608 89.224 49.8088 89.44 49.9928 89.712C50.1848 89.984 50.2808 90.34 50.2808 90.78C50.2808 91.188 50.1688 91.568 49.9448 91.92C49.7208 92.264 49.3768 92.544 48.9128 92.76C48.4568 92.968 47.8688 93.072 47.1488 93.072ZM52.2157 93V84.6H55.6357C56.5317 84.6 57.3157 84.78 57.9877 85.14C58.6677 85.492 59.1957 85.984 59.5717 86.616C59.9477 87.248 60.1357 87.976 60.1357 88.8C60.1357 89.624 59.9477 90.352 59.5717 90.984C59.1957 91.616 58.6677 92.112 57.9877 92.472C57.3157 92.824 56.5317 93 55.6357 93H52.2157ZM53.1037 92.232H55.5877C56.3317 92.232 56.9757 92.088 57.5197 91.8C58.0717 91.504 58.4997 91.1 58.8037 90.588C59.1077 90.068 59.2597 89.472 59.2597 88.8C59.2597 88.12 59.1077 87.524 58.8037 87.012C58.4997 86.5 58.0717 86.1 57.5197 85.812C56.9757 85.516 56.3317 85.368 55.5877 85.368H53.1037V92.232ZM63.6445 93V85.368H60.6925V84.6H67.4845V85.368H64.5325V93H63.6445ZM9.00647 105.636C8.84647 105.636 8.69447 105.596 8.55047 105.516C8.41447 105.436 8.30647 105.328 8.22647 105.192C8.14647 105.056 8.10647 104.896 8.10647 104.712C8.10647 104.544 8.14647 104.392 8.22647 104.256C8.30647 104.12 8.41447 104.012 8.55047 103.932C8.69447 103.852 8.84647 103.812 9.00647 103.812C9.16647 103.812 9.31447 103.852 9.45047 103.932C9.58647 104.012 9.69447 104.12 9.77447 104.256C9.86247 104.392 9.90647 104.544 9.90647 104.712C9.90647 104.896 9.86247 105.056 9.77447 105.192C9.69447 105.328 9.58647 105.436 9.45047 105.516C9.31447 105.596 9.16647 105.636 9.00647 105.636ZM18.228 108L20.892 104.544L20.88 104.964L18.348 101.7H19.308L21.384 104.4L21.024 104.388L23.1 101.7H24.036L21.48 105L21.492 104.544L24.18 108H23.208L21.012 105.12L21.348 105.168L19.188 108H18.228ZM24.6382 108L27.3022 104.544L27.2902 104.964L24.7582 101.7H25.7182L27.7942 104.4L27.4342 104.388L29.5102 101.7H30.4462L27.8902 105L27.9022 104.544L30.5902 108H29.6182L27.4222 105.12L27.7582 105.168L25.5982 108H24.6382ZM36.9609 108V100.368H34.0089V99.6H40.8009V100.368H37.8489V108H36.9609ZM41.8755 108V101.7H42.6915V103.416L42.6075 103.116C42.7835 102.636 43.0795 102.272 43.4955 102.024C43.9115 101.768 44.4275 101.64 45.0435 101.64V102.468C45.0115 102.468 44.9795 102.468 44.9475 102.468C44.9155 102.46 44.8835 102.456 44.8515 102.456C44.1875 102.456 43.6675 102.66 43.2915 103.068C42.9155 103.468 42.7275 104.04 42.7275 104.784V108H41.8755ZM46.5982 108V101.7H47.4502V108H46.5982ZM47.0302 100.308C46.8542 100.308 46.7062 100.248 46.5862 100.128C46.4662 100.008 46.4062 99.864 46.4062 99.696C46.4062 99.528 46.4662 99.388 46.5862 99.276C46.7062 99.156 46.8542 99.096 47.0302 99.096C47.2062 99.096 47.3542 99.152 47.4742 99.264C47.5942 99.376 47.6542 99.516 47.6542 99.684C47.6542 99.86 47.5942 100.008 47.4742 100.128C47.3622 100.248 47.2142 100.308 47.0302 100.308ZM53.0728 108.06C52.5208 108.06 52.0248 107.936 51.5848 107.688C51.1448 107.432 50.7968 107.064 50.5408 106.584C50.2848 106.104 50.1568 105.524 50.1568 104.844C50.1568 104.156 50.2848 103.576 50.5408 103.104C50.8048 102.624 51.1568 102.26 51.5968 102.012C52.0368 101.764 52.5288 101.64 53.0728 101.64C53.6728 101.64 54.2088 101.776 54.6808 102.048C55.1608 102.312 55.5368 102.684 55.8088 103.164C56.0808 103.644 56.2168 104.204 56.2168 104.844C56.2168 105.476 56.0808 106.036 55.8088 106.524C55.5368 107.004 55.1608 107.38 54.6808 107.652C54.2088 107.924 53.6728 108.06 53.0728 108.06ZM49.8208 108V99.096H50.6728V103.56L50.5528 104.832L50.6368 106.104V108H49.8208ZM53.0128 107.304C53.4608 107.304 53.8608 107.204 54.2128 107.004C54.5648 106.796 54.8448 106.508 55.0528 106.14C55.2608 105.764 55.3648 105.332 55.3648 104.844C55.3648 104.348 55.2608 103.916 55.0528 103.548C54.8448 103.18 54.5648 102.896 54.2128 102.696C53.8608 102.488 53.4608 102.384 53.0128 102.384C52.5648 102.384 52.1608 102.488 51.8008 102.696C51.4488 102.896 51.1688 103.18 50.9608 103.548C50.7608 103.916 50.6608 104.348 50.6608 104.844C50.6608 105.332 50.7608 105.764 50.9608 106.14C51.1688 106.508 51.4488 106.796 51.8008 107.004C52.1608 107.204 52.5648 107.304 53.0128 107.304ZM60.6296 108.06C59.9736 108.06 59.3976 107.924 58.9016 107.652C58.4056 107.372 58.0176 106.992 57.7376 106.512C57.4576 106.024 57.3176 105.468 57.3176 104.844C57.3176 104.22 57.4496 103.668 57.7136 103.188C57.9856 102.708 58.3536 102.332 58.8176 102.06C59.2896 101.78 59.8176 101.64 60.4016 101.64C60.9936 101.64 61.5176 101.776 61.9736 102.048C62.4376 102.312 62.8016 102.688 63.0656 103.176C63.3296 103.656 63.4616 104.212 63.4616 104.844C63.4616 104.884 63.4576 104.928 63.4496 104.976C63.4496 105.016 63.4496 105.06 63.4496 105.108H57.9656V104.472H62.9936L62.6576 104.724C62.6576 104.268 62.5576 103.864 62.3576 103.512C62.1656 103.152 61.9016 102.872 61.5656 102.672C61.2296 102.472 60.8416 102.372 60.4016 102.372C59.9696 102.372 59.5816 102.472 59.2376 102.672C58.8936 102.872 58.6256 103.152 58.4336 103.512C58.2416 103.872 58.1456 104.284 58.1456 104.748V104.88C58.1456 105.36 58.2496 105.784 58.4576 106.152C58.6736 106.512 58.9696 106.796 59.3456 107.004C59.7296 107.204 60.1656 107.304 60.6536 107.304C61.0376 107.304 61.3936 107.236 61.7216 107.1C62.0576 106.964 62.3456 106.756 62.5856 106.476L63.0656 107.028C62.7856 107.364 62.4336 107.62 62.0096 107.796C61.5936 107.972 61.1336 108.06 60.6296 108.06ZM66.9054 108.072C66.2974 108.072 65.7214 107.976 65.1774 107.784C64.6414 107.584 64.2094 107.32 63.8814 106.992L64.3014 106.308C64.5734 106.588 64.9374 106.82 65.3934 107.004C65.8574 107.188 66.3614 107.28 66.9054 107.28C67.6014 107.28 68.1334 107.128 68.5014 106.824C68.8774 106.52 69.0654 106.112 69.0654 105.6C69.0654 105.088 68.8814 104.68 68.5134 104.376C68.1534 104.072 67.5814 103.92 66.7974 103.92H66.1974V103.284L68.7894 100.032L68.9094 100.368H64.2294V99.6H69.6294V100.212L67.0374 103.464L66.6174 103.188H66.9414C67.9494 103.188 68.7014 103.412 69.1974 103.86C69.7014 104.308 69.9534 104.884 69.9534 105.588C69.9534 106.06 69.8414 106.484 69.6174 106.86C69.3934 107.236 69.0534 107.532 68.5974 107.748C68.1494 107.964 67.5854 108.072 66.9054 108.072ZM75.0555 108V99.6H78.1995C78.9115 99.6 79.5235 99.716 80.0355 99.948C80.5475 100.172 80.9395 100.5 81.2115 100.932C81.4915 101.356 81.6315 101.872 81.6315 102.48C81.6315 103.072 81.4915 103.584 81.2115 104.016C80.9395 104.44 80.5475 104.768 80.0355 105C79.5235 105.232 78.9115 105.348 78.1995 105.348H75.5475L75.9435 104.928V108H75.0555ZM75.9435 105L75.5475 104.568H78.1755C79.0155 104.568 79.6515 104.388 80.0835 104.028C80.5235 103.66 80.7435 103.144 80.7435 102.48C80.7435 101.808 80.5235 101.288 80.0835 100.92C79.6515 100.552 79.0155 100.368 78.1755 100.368H75.5475L75.9435 99.948V105ZM85.5394 108.06C84.9474 108.06 84.4914 107.9 84.1714 107.58C83.8514 107.26 83.6914 106.808 83.6914 106.224V100.308H84.5434V106.176C84.5434 106.544 84.6354 106.828 84.8194 107.028C85.0114 107.228 85.2834 107.328 85.6354 107.328C86.0114 107.328 86.3234 107.22 86.5714 107.004L86.8714 107.616C86.7034 107.768 86.4994 107.88 86.2594 107.952C86.0274 108.024 85.7874 108.06 85.5394 108.06ZM82.5634 102.408V101.7H86.4634V102.408H82.5634ZM90.1144 108.06C89.5944 108.06 89.1024 107.988 88.6384 107.844C88.1744 107.692 87.8104 107.504 87.5464 107.28L87.9304 106.608C88.1864 106.8 88.5144 106.968 88.9144 107.112C89.3144 107.248 89.7344 107.316 90.1744 107.316C90.7744 107.316 91.2064 107.224 91.4704 107.04C91.7344 106.848 91.8664 106.596 91.8664 106.284C91.8664 106.052 91.7904 105.872 91.6384 105.744C91.4944 105.608 91.3024 105.508 91.0624 105.444C90.8224 105.372 90.5544 105.312 90.2584 105.264C89.9624 105.216 89.6664 105.16 89.3704 105.096C89.0824 105.032 88.8184 104.94 88.5784 104.82C88.3384 104.692 88.1424 104.52 87.9904 104.304C87.8464 104.088 87.7744 103.8 87.7744 103.44C87.7744 103.096 87.8704 102.788 88.0624 102.516C88.2544 102.244 88.5344 102.032 88.9024 101.88C89.2784 101.72 89.7344 101.64 90.2704 101.64C90.6784 101.64 91.0864 101.696 91.4944 101.808C91.9024 101.912 92.2384 102.052 92.5024 102.228L92.1304 102.912C91.8504 102.72 91.5504 102.584 91.2304 102.504C90.9104 102.416 90.5904 102.372 90.2704 102.372C89.7024 102.372 89.2824 102.472 89.0104 102.672C88.7464 102.864 88.6144 103.112 88.6144 103.416C88.6144 103.656 88.6864 103.844 88.8304 103.98C88.9824 104.116 89.1784 104.224 89.4184 104.304C89.6664 104.376 89.9344 104.436 90.2224 104.484C90.5184 104.532 90.8104 104.592 91.0984 104.664C91.3944 104.728 91.6624 104.82 91.9024 104.94C92.1504 105.052 92.3464 105.216 92.4904 105.432C92.6424 105.64 92.7184 105.916 92.7184 106.26C92.7184 106.628 92.6144 106.948 92.4064 107.22C92.2064 107.484 91.9104 107.692 91.5184 107.844C91.1344 107.988 90.6664 108.06 90.1144 108.06ZM94.3658 108.06C94.1898 108.06 94.0378 107.996 93.9098 107.868C93.7898 107.74 93.7298 107.584 93.7298 107.4C93.7298 107.208 93.7898 107.052 93.9098 106.932C94.0378 106.812 94.1898 106.752 94.3658 106.752C94.5418 106.752 94.6898 106.812 94.8098 106.932C94.9378 107.052 95.0018 107.208 95.0018 107.4C95.0018 107.584 94.9378 107.74 94.8098 107.868C94.6898 107.996 94.5418 108.06 94.3658 108.06Z" fill="white" fill-opacity="0.87"/>
<path d="M129.006 90.636C128.846 90.636 128.694 90.596 128.55 90.516C128.414 90.436 128.306 90.328 128.226 90.192C128.146 90.056 128.106 89.896 128.106 89.712C128.106 89.544 128.146 89.392 128.226 89.256C128.306 89.12 128.414 89.012 128.55 88.932C128.694 88.852 128.846 88.812 129.006 88.812C129.166 88.812 129.314 88.852 129.45 88.932C129.586 89.012 129.694 89.12 129.774 89.256C129.862 89.392 129.906 89.544 129.906 89.712C129.906 89.896 129.862 90.056 129.774 90.192C129.694 90.328 129.586 90.436 129.45 90.516C129.314 90.596 129.166 90.636 129.006 90.636ZM138.228 93L140.892 89.544L140.88 89.964L138.348 86.7H139.308L141.384 89.4L141.024 89.388L143.1 86.7H144.036L141.48 90L141.492 89.544L144.18 93H143.208L141.012 90.12L141.348 90.168L139.188 93H138.228ZM144.638 93L147.302 89.544L147.29 89.964L144.758 86.7H145.718L147.794 89.4L147.434 89.388L149.51 86.7H150.446L147.89 90L147.902 89.544L150.59 93H149.618L147.422 90.12L147.758 90.168L145.598 93H144.638ZM158.713 93.072C157.641 93.072 156.797 92.764 156.181 92.148C155.565 91.532 155.257 90.62 155.257 89.412V84.6H156.145V89.376C156.145 90.368 156.369 91.1 156.817 91.572C157.265 92.044 157.897 92.28 158.713 92.28C159.537 92.28 160.173 92.044 160.621 91.572C161.069 91.1 161.293 90.368 161.293 89.376V84.6H162.157V89.412C162.157 90.62 161.849 91.532 161.233 92.148C160.625 92.764 159.785 93.072 158.713 93.072ZM167.149 93.072C166.525 93.072 165.925 92.972 165.349 92.772C164.781 92.564 164.341 92.3 164.029 91.98L164.377 91.296C164.673 91.584 165.069 91.828 165.565 92.028C166.069 92.22 166.597 92.316 167.149 92.316C167.677 92.316 168.105 92.252 168.433 92.124C168.769 91.988 169.013 91.808 169.165 91.584C169.325 91.36 169.405 91.112 169.405 90.84C169.405 90.512 169.309 90.248 169.117 90.048C168.933 89.848 168.689 89.692 168.385 89.58C168.081 89.46 167.745 89.356 167.377 89.268C167.009 89.18 166.641 89.088 166.273 88.992C165.905 88.888 165.565 88.752 165.253 88.584C164.949 88.416 164.701 88.196 164.509 87.924C164.325 87.644 164.233 87.28 164.233 86.832C164.233 86.416 164.341 86.036 164.557 85.692C164.781 85.34 165.121 85.06 165.577 84.852C166.033 84.636 166.617 84.528 167.329 84.528C167.801 84.528 168.269 84.596 168.733 84.732C169.197 84.86 169.597 85.04 169.933 85.272L169.633 85.98C169.273 85.74 168.889 85.564 168.481 85.452C168.081 85.34 167.693 85.284 167.317 85.284C166.813 85.284 166.397 85.352 166.069 85.488C165.741 85.624 165.497 85.808 165.337 86.04C165.185 86.264 165.109 86.52 165.109 86.808C165.109 87.136 165.201 87.4 165.385 87.6C165.577 87.8 165.825 87.956 166.129 88.068C166.441 88.18 166.781 88.28 167.149 88.368C167.517 88.456 167.881 88.552 168.241 88.656C168.609 88.76 168.945 88.896 169.249 89.064C169.561 89.224 169.809 89.44 169.993 89.712C170.185 89.984 170.281 90.34 170.281 90.78C170.281 91.188 170.169 91.568 169.945 91.92C169.721 92.264 169.377 92.544 168.913 92.76C168.457 92.968 167.869 93.072 167.149 93.072ZM172.216 93V84.6H175.636C176.532 84.6 177.316 84.78 177.988 85.14C178.668 85.492 179.196 85.984 179.572 86.616C179.948 87.248 180.136 87.976 180.136 88.8C180.136 89.624 179.948 90.352 179.572 90.984C179.196 91.616 178.668 92.112 177.988 92.472C177.316 92.824 176.532 93 175.636 93H172.216ZM173.104 92.232H175.588C176.332 92.232 176.976 92.088 177.52 91.8C178.072 91.504 178.5 91.1 178.804 90.588C179.108 90.068 179.26 89.472 179.26 88.8C179.26 88.12 179.108 87.524 178.804 87.012C178.5 86.5 178.072 86.1 177.52 85.812C176.976 85.516 176.332 85.368 175.588 85.368H173.104V92.232ZM183.645 93V85.368H180.693V84.6H187.485V85.368H184.533V93H183.645ZM129.006 105.636C128.846 105.636 128.694 105.596 128.55 105.516C128.414 105.436 128.306 105.328 128.226 105.192C128.146 105.056 128.106 104.896 128.106 104.712C128.106 104.544 128.146 104.392 128.226 104.256C128.306 104.12 128.414 104.012 128.55 103.932C128.694 103.852 128.846 103.812 129.006 103.812C129.166 103.812 129.314 103.852 129.45 103.932C129.586 104.012 129.694 104.12 129.774 104.256C129.862 104.392 129.906 104.544 129.906 104.712C129.906 104.896 129.862 105.056 129.774 105.192C129.694 105.328 129.586 105.436 129.45 105.516C129.314 105.596 129.166 105.636 129.006 105.636ZM138.228 108L140.892 104.544L140.88 104.964L138.348 101.7H139.308L141.384 104.4L141.024 104.388L143.1 101.7H144.036L141.48 105L141.492 104.544L144.18 108H143.208L141.012 105.12L141.348 105.168L139.188 108H138.228ZM144.638 108L147.302 104.544L147.29 104.964L144.758 101.7H145.718L147.794 104.4L147.434 104.388L149.51 101.7H150.446L147.89 105L147.902 104.544L150.59 108H149.618L147.422 105.12L147.758 105.168L145.598 108H144.638ZM156.961 108V100.368H154.009V99.6H160.801V100.368H157.849V108H156.961ZM161.876 108V101.7H162.692V103.416L162.608 103.116C162.784 102.636 163.08 102.272 163.496 102.024C163.912 101.768 164.428 101.64 165.044 101.64V102.468C165.012 102.468 164.98 102.468 164.948 102.468C164.916 102.46 164.884 102.456 164.852 102.456C164.188 102.456 163.668 102.66 163.292 103.068C162.916 103.468 162.728 104.04 162.728 104.784V108H161.876ZM166.598 108V101.7H167.45V108H166.598ZM167.03 100.308C166.854 100.308 166.706 100.248 166.586 100.128C166.466 100.008 166.406 99.864 166.406 99.696C166.406 99.528 166.466 99.388 166.586 99.276C166.706 99.156 166.854 99.096 167.03 99.096C167.206 99.096 167.354 99.152 167.474 99.264C167.594 99.376 167.654 99.516 167.654 99.684C167.654 99.86 167.594 100.008 167.474 100.128C167.362 100.248 167.214 100.308 167.03 100.308ZM173.073 108.06C172.521 108.06 172.025 107.936 171.585 107.688C171.145 107.432 170.797 107.064 170.541 106.584C170.285 106.104 170.157 105.524 170.157 104.844C170.157 104.156 170.285 103.576 170.541 103.104C170.805 102.624 171.157 102.26 171.597 102.012C172.037 101.764 172.529 101.64 173.073 101.64C173.673 101.64 174.209 101.776 174.681 102.048C175.161 102.312 175.537 102.684 175.809 103.164C176.081 103.644 176.217 104.204 176.217 104.844C176.217 105.476 176.081 106.036 175.809 106.524C175.537 107.004 175.161 107.38 174.681 107.652C174.209 107.924 173.673 108.06 173.073 108.06ZM169.821 108V99.096H170.673V103.56L170.553 104.832L170.637 106.104V108H169.821ZM173.013 107.304C173.461 107.304 173.861 107.204 174.213 107.004C174.565 106.796 174.845 106.508 175.053 106.14C175.261 105.764 175.365 105.332 175.365 104.844C175.365 104.348 175.261 103.916 175.053 103.548C174.845 103.18 174.565 102.896 174.213 102.696C173.861 102.488 173.461 102.384 173.013 102.384C172.565 102.384 172.161 102.488 171.801 102.696C171.449 102.896 171.169 103.18 170.961 103.548C170.761 103.916 170.661 104.348 170.661 104.844C170.661 105.332 170.761 105.764 170.961 106.14C171.169 106.508 171.449 106.796 171.801 107.004C172.161 107.204 172.565 107.304 173.013 107.304ZM180.63 108.06C179.974 108.06 179.398 107.924 178.902 107.652C178.406 107.372 178.018 106.992 177.738 106.512C177.458 106.024 177.318 105.468 177.318 104.844C177.318 104.22 177.45 103.668 177.714 103.188C177.986 102.708 178.354 102.332 178.818 102.06C179.29 101.78 179.818 101.64 180.402 101.64C180.994 101.64 181.518 101.776 181.974 102.048C182.438 102.312 182.802 102.688 183.066 103.176C183.33 103.656 183.462 104.212 183.462 104.844C183.462 104.884 183.458 104.928 183.45 104.976C183.45 105.016 183.45 105.06 183.45 105.108H177.966V104.472H182.994L182.658 104.724C182.658 104.268 182.558 103.864 182.358 103.512C182.166 103.152 181.902 102.872 181.566 102.672C181.23 102.472 180.842 102.372 180.402 102.372C179.97 102.372 179.582 102.472 179.238 102.672C178.894 102.872 178.626 103.152 178.434 103.512C178.242 103.872 178.146 104.284 178.146 104.748V104.88C178.146 105.36 178.25 105.784 178.458 106.152C178.674 106.512 178.97 106.796 179.346 107.004C179.73 107.204 180.166 107.304 180.654 107.304C181.038 107.304 181.394 107.236 181.722 107.1C182.058 106.964 182.346 106.756 182.586 106.476L183.066 107.028C182.786 107.364 182.434 107.62 182.01 107.796C181.594 107.972 181.134 108.06 180.63 108.06ZM186.905 108.072C186.297 108.072 185.721 107.976 185.177 107.784C184.641 107.584 184.209 107.32 183.881 106.992L184.301 106.308C184.573 106.588 184.937 106.82 185.393 107.004C185.857 107.188 186.361 107.28 186.905 107.28C187.601 107.28 188.133 107.128 188.501 106.824C188.877 106.52 189.065 106.112 189.065 105.6C189.065 105.088 188.881 104.68 188.513 104.376C188.153 104.072 187.581 103.92 186.797 103.92H186.197V103.284L188.789 100.032L188.909 100.368H184.229V99.6H189.629V100.212L187.037 103.464L186.617 103.188H186.941C187.949 103.188 188.701 103.412 189.197 103.86C189.701 104.308 189.953 104.884 189.953 105.588C189.953 106.06 189.841 106.484 189.617 106.86C189.393 107.236 189.053 107.532 188.597 107.748C188.149 107.964 187.585 108.072 186.905 108.072ZM195.056 108V99.6H198.2C198.912 99.6 199.524 99.716 200.036 99.948C200.548 100.172 200.94 100.5 201.212 100.932C201.492 101.356 201.632 101.872 201.632 102.48C201.632 103.072 201.492 103.584 201.212 104.016C200.94 104.44 200.548 104.768 200.036 105C199.524 105.232 198.912 105.348 198.2 105.348H195.548L195.944 104.928V108H195.056ZM195.944 105L195.548 104.568H198.176C199.016 104.568 199.652 104.388 200.084 104.028C200.524 103.66 200.743 103.144 200.743 102.48C200.743 101.808 200.524 101.288 200.084 100.92C199.652 100.552 199.016 100.368 198.176 100.368H195.548L195.944 99.948V105ZM205.539 108.06C204.947 108.06 204.491 107.9 204.171 107.58C203.851 107.26 203.691 106.808 203.691 106.224V100.308H204.543V106.176C204.543 106.544 204.635 106.828 204.819 107.028C205.011 107.228 205.283 107.328 205.635 107.328C206.011 107.328 206.323 107.22 206.571 107.004L206.871 107.616C206.703 107.768 206.499 107.88 206.259 107.952C206.027 108.024 205.787 108.06 205.539 108.06ZM202.563 102.408V101.7H206.463V102.408H202.563ZM210.114 108.06C209.594 108.06 209.102 107.988 208.638 107.844C208.174 107.692 207.81 107.504 207.546 107.28L207.93 106.608C208.186 106.8 208.514 106.968 208.914 107.112C209.314 107.248 209.734 107.316 210.174 107.316C210.774 107.316 211.206 107.224 211.47 107.04C211.734 106.848 211.866 106.596 211.866 106.284C211.866 106.052 211.79 105.872 211.638 105.744C211.494 105.608 211.302 105.508 211.062 105.444C210.822 105.372 210.554 105.312 210.258 105.264C209.962 105.216 209.666 105.16 209.37 105.096C209.082 105.032 208.818 104.94 208.578 104.82C208.338 104.692 208.142 104.52 207.99 104.304C207.846 104.088 207.774 103.8 207.774 103.44C207.774 103.096 207.87 102.788 208.062 102.516C208.254 102.244 208.534 102.032 208.902 101.88C209.278 101.72 209.734 101.64 210.27 101.64C210.678 101.64 211.086 101.696 211.494 101.808C211.902 101.912 212.238 102.052 212.502 102.228L212.13 102.912C211.85 102.72 211.55 102.584 211.23 102.504C210.91 102.416 210.59 102.372 210.27 102.372C209.702 102.372 209.282 102.472 209.01 102.672C208.746 102.864 208.614 103.112 208.614 103.416C208.614 103.656 208.686 103.844 208.83 103.98C208.982 104.116 209.178 104.224 209.418 104.304C209.666 104.376 209.934 104.436 210.222 104.484C210.518 104.532 210.81 104.592 211.098 104.664C211.394 104.728 211.662 104.82 211.902 104.94C212.15 105.052 212.346 105.216 212.49 105.432C212.642 105.64 212.718 105.916 212.718 106.26C212.718 106.628 212.614 106.948 212.406 107.22C212.206 107.484 211.91 107.692 211.518 107.844C211.134 107.988 210.666 108.06 210.114 108.06ZM214.366 108.06C214.19 108.06 214.038 107.996 213.91 107.868C213.79 107.74 213.73 107.584 213.73 107.4C213.73 107.208 213.79 107.052 213.91 106.932C214.038 106.812 214.19 106.752 214.366 106.752C214.542 106.752 214.69 106.812 214.81 106.932C214.938 107.052 215.002 107.208 215.002 107.4C215.002 107.584 214.938 107.74 214.81 107.868C214.69 107.996 214.542 108.06 214.366 108.06Z" fill="white" fill-opacity="0.87"/>
<path d="M272.006 90.636C271.846 90.636 271.694 90.596 271.55 90.516C271.414 90.436 271.306 90.328 271.226 90.192C271.146 90.056 271.106 89.896 271.106 89.712C271.106 89.544 271.146 89.392 271.226 89.256C271.306 89.12 271.414 89.012 271.55 88.932C271.694 88.852 271.846 88.812 272.006 88.812C272.166 88.812 272.314 88.852 272.45 88.932C272.586 89.012 272.694 89.12 272.774 89.256C272.862 89.392 272.906 89.544 272.906 89.712C272.906 89.896 272.862 90.056 272.774 90.192C272.694 90.328 272.586 90.436 272.45 90.516C272.314 90.596 272.166 90.636 272.006 90.636ZM281.228 93L283.892 89.544L283.88 89.964L281.348 86.7H282.308L284.384 89.4L284.024 89.388L286.1 86.7H287.036L284.48 90L284.492 89.544L287.18 93H286.208L284.012 90.12L284.348 90.168L282.188 93H281.228ZM287.638 93L290.302 89.544L290.29 89.964L287.758 86.7H288.718L290.794 89.4L290.434 89.388L292.51 86.7H293.446L290.89 90L290.902 89.544L293.59 93H292.618L290.422 90.12L290.758 90.168L288.598 93H287.638ZM301.713 93.072C300.641 93.072 299.797 92.764 299.181 92.148C298.565 91.532 298.257 90.62 298.257 89.412V84.6H299.145V89.376C299.145 90.368 299.369 91.1 299.817 91.572C300.265 92.044 300.897 92.28 301.713 92.28C302.537 92.28 303.173 92.044 303.621 91.572C304.069 91.1 304.293 90.368 304.293 89.376V84.6H305.157V89.412C305.157 90.62 304.849 91.532 304.233 92.148C303.625 92.764 302.785 93.072 301.713 93.072ZM310.149 93.072C309.525 93.072 308.925 92.972 308.349 92.772C307.781 92.564 307.341 92.3 307.029 91.98L307.377 91.296C307.673 91.584 308.069 91.828 308.565 92.028C309.069 92.22 309.597 92.316 310.149 92.316C310.677 92.316 311.105 92.252 311.433 92.124C311.769 91.988 312.013 91.808 312.165 91.584C312.325 91.36 312.405 91.112 312.405 90.84C312.405 90.512 312.309 90.248 312.117 90.048C311.933 89.848 311.689 89.692 311.385 89.58C311.081 89.46 310.745 89.356 310.377 89.268C310.009 89.18 309.641 89.088 309.273 88.992C308.905 88.888 308.565 88.752 308.253 88.584C307.949 88.416 307.701 88.196 307.509 87.924C307.325 87.644 307.233 87.28 307.233 86.832C307.233 86.416 307.341 86.036 307.557 85.692C307.781 85.34 308.121 85.06 308.577 84.852C309.033 84.636 309.617 84.528 310.329 84.528C310.801 84.528 311.269 84.596 311.733 84.732C312.197 84.86 312.597 85.04 312.933 85.272L312.633 85.98C312.273 85.74 311.889 85.564 311.481 85.452C311.081 85.34 310.693 85.284 310.317 85.284C309.813 85.284 309.397 85.352 309.069 85.488C308.741 85.624 308.497 85.808 308.337 86.04C308.185 86.264 308.109 86.52 308.109 86.808C308.109 87.136 308.201 87.4 308.385 87.6C308.577 87.8 308.825 87.956 309.129 88.068C309.441 88.18 309.781 88.28 310.149 88.368C310.517 88.456 310.881 88.552 311.241 88.656C311.609 88.76 311.945 88.896 312.249 89.064C312.561 89.224 312.809 89.44 312.993 89.712C313.185 89.984 313.281 90.34 313.281 90.78C313.281 91.188 313.169 91.568 312.945 91.92C312.721 92.264 312.377 92.544 311.913 92.76C311.457 92.968 310.869 93.072 310.149 93.072ZM315.216 93V84.6H318.636C319.532 84.6 320.316 84.78 320.988 85.14C321.668 85.492 322.196 85.984 322.572 86.616C322.948 87.248 323.136 87.976 323.136 88.8C323.136 89.624 322.948 90.352 322.572 90.984C322.196 91.616 321.668 92.112 320.988 92.472C320.316 92.824 319.532 93 318.636 93H315.216ZM316.104 92.232H318.588C319.332 92.232 319.976 92.088 320.52 91.8C321.072 91.504 321.5 91.1 321.804 90.588C322.108 90.068 322.26 89.472 322.26 88.8C322.26 88.12 322.108 87.524 321.804 87.012C321.5 86.5 321.072 86.1 320.52 85.812C319.976 85.516 319.332 85.368 318.588 85.368H316.104V92.232ZM326.645 93V85.368H323.693V84.6H330.485V85.368H327.533V93H326.645ZM272.006 105.636C271.846 105.636 271.694 105.596 271.55 105.516C271.414 105.436 271.306 105.328 271.226 105.192C271.146 105.056 271.106 104.896 271.106 104.712C271.106 104.544 271.146 104.392 271.226 104.256C271.306 104.12 271.414 104.012 271.55 103.932C271.694 103.852 271.846 103.812 272.006 103.812C272.166 103.812 272.314 103.852 272.45 103.932C272.586 104.012 272.694 104.12 272.774 104.256C272.862 104.392 272.906 104.544 272.906 104.712C272.906 104.896 272.862 105.056 272.774 105.192C272.694 105.328 272.586 105.436 272.45 105.516C272.314 105.596 272.166 105.636 272.006 105.636ZM281.228 108L283.892 104.544L283.88 104.964L281.348 101.7H282.308L284.384 104.4L284.024 104.388L286.1 101.7H287.036L284.48 105L284.492 104.544L287.18 108H286.208L284.012 105.12L284.348 105.168L282.188 108H281.228ZM287.638 108L290.302 104.544L290.29 104.964L287.758 101.7H288.718L290.794 104.4L290.434 104.388L292.51 101.7H293.446L290.89 105L290.902 104.544L293.59 108H292.618L290.422 105.12L290.758 105.168L288.598 108H287.638ZM299.961 108V100.368H297.009V99.6H303.801V100.368H300.849V108H299.961ZM304.876 108V101.7H305.692V103.416L305.608 103.116C305.784 102.636 306.08 102.272 306.496 102.024C306.912 101.768 307.428 101.64 308.044 101.64V102.468C308.012 102.468 307.98 102.468 307.948 102.468C307.916 102.46 307.884 102.456 307.852 102.456C307.188 102.456 306.668 102.66 306.292 103.068C305.916 103.468 305.728 104.04 305.728 104.784V108H304.876ZM309.598 108V101.7H310.45V108H309.598ZM310.03 100.308C309.854 100.308 309.706 100.248 309.586 100.128C309.466 100.008 309.406 99.864 309.406 99.696C309.406 99.528 309.466 99.388 309.586 99.276C309.706 99.156 309.854 99.096 310.03 99.096C310.206 99.096 310.354 99.152 310.474 99.264C310.594 99.376 310.654 99.516 310.654 99.684C310.654 99.86 310.594 100.008 310.474 100.128C310.362 100.248 310.214 100.308 310.03 100.308ZM316.073 108.06C315.521 108.06 315.025 107.936 314.585 107.688C314.145 107.432 313.797 107.064 313.541 106.584C313.285 106.104 313.157 105.524 313.157 104.844C313.157 104.156 313.285 103.576 313.541 103.104C313.805 102.624 314.157 102.26 314.597 102.012C315.037 101.764 315.529 101.64 316.073 101.64C316.673 101.64 317.209 101.776 317.681 102.048C318.161 102.312 318.537 102.684 318.809 103.164C319.081 103.644 319.217 104.204 319.217 104.844C319.217 105.476 319.081 106.036 318.809 106.524C318.537 107.004 318.161 107.38 317.681 107.652C317.209 107.924 316.673 108.06 316.073 108.06ZM312.821 108V99.096H313.673V103.56L313.553 104.832L313.637 106.104V108H312.821ZM316.013 107.304C316.461 107.304 316.861 107.204 317.213 107.004C317.565 106.796 317.845 106.508 318.053 106.14C318.261 105.764 318.365 105.332 318.365 104.844C318.365 104.348 318.261 103.916 318.053 103.548C317.845 103.18 317.565 102.896 317.213 102.696C316.861 102.488 316.461 102.384 316.013 102.384C315.565 102.384 315.161 102.488 314.801 102.696C314.449 102.896 314.169 103.18 313.961 103.548C313.761 103.916 313.661 104.348 313.661 104.844C313.661 105.332 313.761 105.764 313.961 106.14C314.169 106.508 314.449 106.796 314.801 107.004C315.161 107.204 315.565 107.304 316.013 107.304ZM323.63 108.06C322.974 108.06 322.398 107.924 321.902 107.652C321.406 107.372 321.018 106.992 320.738 106.512C320.458 106.024 320.318 105.468 320.318 104.844C320.318 104.22 320.45 103.668 320.714 103.188C320.986 102.708 321.354 102.332 321.818 102.06C322.29 101.78 322.818 101.64 323.402 101.64C323.994 101.64 324.518 101.776 324.974 102.048C325.438 102.312 325.802 102.688 326.066 103.176C326.33 103.656 326.462 104.212 326.462 104.844C326.462 104.884 326.458 104.928 326.45 104.976C326.45 105.016 326.45 105.06 326.45 105.108H320.966V104.472H325.994L325.658 104.724C325.658 104.268 325.558 103.864 325.358 103.512C325.166 103.152 324.902 102.872 324.566 102.672C324.23 102.472 323.842 102.372 323.402 102.372C322.97 102.372 322.582 102.472 322.238 102.672C321.894 102.872 321.626 103.152 321.434 103.512C321.242 103.872 321.146 104.284 321.146 104.748V104.88C321.146 105.36 321.25 105.784 321.458 106.152C321.674 106.512 321.97 106.796 322.346 107.004C322.73 107.204 323.166 107.304 323.654 107.304C324.038 107.304 324.394 107.236 324.722 107.1C325.058 106.964 325.346 106.756 325.586 106.476L326.066 107.028C325.786 107.364 325.434 107.62 325.01 107.796C324.594 107.972 324.134 108.06 323.63 108.06ZM329.905 108.072C329.297 108.072 328.721 107.976 328.177 107.784C327.641 107.584 327.209 107.32 326.881 106.992L327.301 106.308C327.573 106.588 327.937 106.82 328.393 107.004C328.857 107.188 329.361 107.28 329.905 107.28C330.601 107.28 331.133 107.128 331.501 106.824C331.877 106.52 332.065 106.112 332.065 105.6C332.065 105.088 331.881 104.68 331.513 104.376C331.153 104.072 330.581 103.92 329.797 103.92H329.197V103.284L331.789 100.032L331.909 100.368H327.229V99.6H332.629V100.212L330.037 103.464L329.617 103.188H329.941C330.949 103.188 331.701 103.412 332.197 103.86C332.701 104.308 332.953 104.884 332.953 105.588C332.953 106.06 332.841 106.484 332.617 106.86C332.393 107.236 332.053 107.532 331.597 107.748C331.149 107.964 330.585 108.072 329.905 108.072ZM338.056 108V99.6H341.2C341.912 99.6 342.524 99.716 343.036 99.948C343.548 100.172 343.94 100.5 344.212 100.932C344.492 101.356 344.632 101.872 344.632 102.48C344.632 103.072 344.492 103.584 344.212 104.016C343.94 104.44 343.548 104.768 343.036 105C342.524 105.232 341.912 105.348 341.2 105.348H338.548L338.944 104.928V108H338.056ZM338.944 105L338.548 104.568H341.176C342.016 104.568 342.652 104.388 343.084 104.028C343.524 103.66 343.743 103.144 343.743 102.48C343.743 101.808 343.524 101.288 343.084 100.92C342.652 100.552 342.016 100.368 341.176 100.368H338.548L338.944 99.948V105ZM348.539 108.06C347.947 108.06 347.491 107.9 347.171 107.58C346.851 107.26 346.691 106.808 346.691 106.224V100.308H347.543V106.176C347.543 106.544 347.635 106.828 347.819 107.028C348.011 107.228 348.283 107.328 348.635 107.328C349.011 107.328 349.323 107.22 349.571 107.004L349.871 107.616C349.703 107.768 349.499 107.88 349.259 107.952C349.027 108.024 348.787 108.06 348.539 108.06ZM345.563 102.408V101.7H349.463V102.408H345.563ZM353.114 108.06C352.594 108.06 352.102 107.988 351.638 107.844C351.174 107.692 350.81 107.504 350.546 107.28L350.93 106.608C351.186 106.8 351.514 106.968 351.914 107.112C352.314 107.248 352.734 107.316 353.174 107.316C353.774 107.316 354.206 107.224 354.47 107.04C354.734 106.848 354.866 106.596 354.866 106.284C354.866 106.052 354.79 105.872 354.638 105.744C354.494 105.608 354.302 105.508 354.062 105.444C353.822 105.372 353.554 105.312 353.258 105.264C352.962 105.216 352.666 105.16 352.37 105.096C352.082 105.032 351.818 104.94 351.578 104.82C351.338 104.692 351.142 104.52 350.99 104.304C350.846 104.088 350.774 103.8 350.774 103.44C350.774 103.096 350.87 102.788 351.062 102.516C351.254 102.244 351.534 102.032 351.902 101.88C352.278 101.72 352.734 101.64 353.27 101.64C353.678 101.64 354.086 101.696 354.494 101.808C354.902 101.912 355.238 102.052 355.502 102.228L355.13 102.912C354.85 102.72 354.55 102.584 354.23 102.504C353.91 102.416 353.59 102.372 353.27 102.372C352.702 102.372 352.282 102.472 352.01 102.672C351.746 102.864 351.614 103.112 351.614 103.416C351.614 103.656 351.686 103.844 351.83 103.98C351.982 104.116 352.178 104.224 352.418 104.304C352.666 104.376 352.934 104.436 353.222 104.484C353.518 104.532 353.81 104.592 354.098 104.664C354.394 104.728 354.662 104.82 354.902 104.94C355.15 105.052 355.346 105.216 355.49 105.432C355.642 105.64 355.718 105.916 355.718 106.26C355.718 106.628 355.614 106.948 355.406 107.22C355.206 107.484 354.91 107.692 354.518 107.844C354.134 107.988 353.666 108.06 353.114 108.06ZM357.366 108.06C357.19 108.06 357.038 107.996 356.91 107.868C356.79 107.74 356.73 107.584 356.73 107.4C356.73 107.208 356.79 107.052 356.91 106.932C357.038 106.812 357.19 106.752 357.366 106.752C357.542 106.752 357.69 106.812 357.81 106.932C357.938 107.052 358.002 107.208 358.002 107.4C358.002 107.584 357.938 107.74 357.81 107.868C357.69 107.996 357.542 108.06 357.366 108.06Z" fill="white" fill-opacity="0.87"/>
<path d="M411.006 90.636C410.846 90.636 410.694 90.596 410.55 90.516C410.414 90.436 410.306 90.328 410.226 90.192C410.146 90.056 410.106 89.896 410.106 89.712C410.106 89.544 410.146 89.392 410.226 89.256C410.306 89.12 410.414 89.012 410.55 88.932C410.694 88.852 410.846 88.812 411.006 88.812C411.166 88.812 411.314 88.852 411.45 88.932C411.586 89.012 411.694 89.12 411.774 89.256C411.862 89.392 411.906 89.544 411.906 89.712C411.906 89.896 411.862 90.056 411.774 90.192C411.694 90.328 411.586 90.436 411.45 90.516C411.314 90.596 411.166 90.636 411.006 90.636ZM420.228 93L422.892 89.544L422.88 89.964L420.348 86.7H421.308L423.384 89.4L423.024 89.388L425.1 86.7H426.036L423.48 90L423.492 89.544L426.18 93H425.208L423.012 90.12L423.348 90.168L421.188 93H420.228ZM426.638 93L429.302 89.544L429.29 89.964L426.758 86.7H427.718L429.794 89.4L429.434 89.388L431.51 86.7H432.446L429.89 90L429.902 89.544L432.59 93H431.618L429.422 90.12L429.758 90.168L427.598 93H426.638ZM440.713 93.072C439.641 93.072 438.797 92.764 438.181 92.148C437.565 91.532 437.257 90.62 437.257 89.412V84.6H438.145V89.376C438.145 90.368 438.369 91.1 438.817 91.572C439.265 92.044 439.897 92.28 440.713 92.28C441.537 92.28 442.173 92.044 442.621 91.572C443.069 91.1 443.293 90.368 443.293 89.376V84.6H444.157V89.412C444.157 90.62 443.849 91.532 443.233 92.148C442.625 92.764 441.785 93.072 440.713 93.072ZM449.149 93.072C448.525 93.072 447.925 92.972 447.349 92.772C446.781 92.564 446.341 92.3 446.029 91.98L446.377 91.296C446.673 91.584 447.069 91.828 447.565 92.028C448.069 92.22 448.597 92.316 449.149 92.316C449.677 92.316 450.105 92.252 450.433 92.124C450.769 91.988 451.013 91.808 451.165 91.584C451.325 91.36 451.405 91.112 451.405 90.84C451.405 90.512 451.309 90.248 451.117 90.048C450.933 89.848 450.689 89.692 450.385 89.58C450.081 89.46 449.745 89.356 449.377 89.268C449.009 89.18 448.641 89.088 448.273 88.992C447.905 88.888 447.565 88.752 447.253 88.584C446.949 88.416 446.701 88.196 446.509 87.924C446.325 87.644 446.233 87.28 446.233 86.832C446.233 86.416 446.341 86.036 446.557 85.692C446.781 85.34 447.121 85.06 447.577 84.852C448.033 84.636 448.617 84.528 449.329 84.528C449.801 84.528 450.269 84.596 450.733 84.732C451.197 84.86 451.597 85.04 451.933 85.272L451.633 85.98C451.273 85.74 450.889 85.564 450.481 85.452C450.081 85.34 449.693 85.284 449.317 85.284C448.813 85.284 448.397 85.352 448.069 85.488C447.741 85.624 447.497 85.808 447.337 86.04C447.185 86.264 447.109 86.52 447.109 86.808C447.109 87.136 447.201 87.4 447.385 87.6C447.577 87.8 447.825 87.956 448.129 88.068C448.441 88.18 448.781 88.28 449.149 88.368C449.517 88.456 449.881 88.552 450.241 88.656C450.609 88.76 450.945 88.896 451.249 89.064C451.561 89.224 451.809 89.44 451.993 89.712C452.185 89.984 452.281 90.34 452.281 90.78C452.281 91.188 452.169 91.568 451.945 91.92C451.721 92.264 451.377 92.544 450.913 92.76C450.457 92.968 449.869 93.072 449.149 93.072ZM454.216 93V84.6H457.636C458.532 84.6 459.316 84.78 459.988 85.14C460.668 85.492 461.196 85.984 461.572 86.616C461.948 87.248 462.136 87.976 462.136 88.8C462.136 89.624 461.948 90.352 461.572 90.984C461.196 91.616 460.668 92.112 459.988 92.472C459.316 92.824 458.532 93 457.636 93H454.216ZM455.104 92.232H457.588C458.332 92.232 458.976 92.088 459.52 91.8C460.072 91.504 460.5 91.1 460.804 90.588C461.108 90.068 461.26 89.472 461.26 88.8C461.26 88.12 461.108 87.524 460.804 87.012C460.5 86.5 460.072 86.1 459.52 85.812C458.976 85.516 458.332 85.368 457.588 85.368H455.104V92.232ZM465.645 93V85.368H462.693V84.6H469.485V85.368H466.533V93H465.645ZM411.006 105.636C410.846 105.636 410.694 105.596 410.55 105.516C410.414 105.436 410.306 105.328 410.226 105.192C410.146 105.056 410.106 104.896 410.106 104.712C410.106 104.544 410.146 104.392 410.226 104.256C410.306 104.12 410.414 104.012 410.55 103.932C410.694 103.852 410.846 103.812 411.006 103.812C411.166 103.812 411.314 103.852 411.45 103.932C411.586 104.012 411.694 104.12 411.774 104.256C411.862 104.392 411.906 104.544 411.906 104.712C411.906 104.896 411.862 105.056 411.774 105.192C411.694 105.328 411.586 105.436 411.45 105.516C411.314 105.596 411.166 105.636 411.006 105.636ZM420.228 108L422.892 104.544L422.88 104.964L420.348 101.7H421.308L423.384 104.4L423.024 104.388L425.1 101.7H426.036L423.48 105L423.492 104.544L426.18 108H425.208L423.012 105.12L423.348 105.168L421.188 108H420.228ZM426.638 108L429.302 104.544L429.29 104.964L426.758 101.7H427.718L429.794 104.4L429.434 104.388L431.51 101.7H432.446L429.89 105L429.902 104.544L432.59 108H431.618L429.422 105.12L429.758 105.168L427.598 108H426.638ZM438.961 108V100.368H436.009V99.6H442.801V100.368H439.849V108H438.961ZM443.876 108V101.7H444.692V103.416L444.608 103.116C444.784 102.636 445.08 102.272 445.496 102.024C445.912 101.768 446.428 101.64 447.044 101.64V102.468C447.012 102.468 446.98 102.468 446.948 102.468C446.916 102.46 446.884 102.456 446.852 102.456C446.188 102.456 445.668 102.66 445.292 103.068C444.916 103.468 444.728 104.04 444.728 104.784V108H443.876ZM448.598 108V101.7H449.45V108H448.598ZM449.03 100.308C448.854 100.308 448.706 100.248 448.586 100.128C448.466 100.008 448.406 99.864 448.406 99.696C448.406 99.528 448.466 99.388 448.586 99.276C448.706 99.156 448.854 99.096 449.03 99.096C449.206 99.096 449.354 99.152 449.474 99.264C449.594 99.376 449.654 99.516 449.654 99.684C449.654 99.86 449.594 100.008 449.474 100.128C449.362 100.248 449.214 100.308 449.03 100.308ZM455.073 108.06C454.521 108.06 454.025 107.936 453.585 107.688C453.145 107.432 452.797 107.064 452.541 106.584C452.285 106.104 452.157 105.524 452.157 104.844C452.157 104.156 452.285 103.576 452.541 103.104C452.805 102.624 453.157 102.26 453.597 102.012C454.037 101.764 454.529 101.64 455.073 101.64C455.673 101.64 456.209 101.776 456.681 102.048C457.161 102.312 457.537 102.684 457.809 103.164C458.081 103.644 458.217 104.204 458.217 104.844C458.217 105.476 458.081 106.036 457.809 106.524C457.537 107.004 457.161 107.38 456.681 107.652C456.209 107.924 455.673 108.06 455.073 108.06ZM451.821 108V99.096H452.673V103.56L452.553 104.832L452.637 106.104V108H451.821ZM455.013 107.304C455.461 107.304 455.861 107.204 456.213 107.004C456.565 106.796 456.845 106.508 457.053 106.14C457.261 105.764 457.365 105.332 457.365 104.844C457.365 104.348 457.261 103.916 457.053 103.548C456.845 103.18 456.565 102.896 456.213 102.696C455.861 102.488 455.461 102.384 455.013 102.384C454.565 102.384 454.161 102.488 453.801 102.696C453.449 102.896 453.169 103.18 452.961 103.548C452.761 103.916 452.661 104.348 452.661 104.844C452.661 105.332 452.761 105.764 452.961 106.14C453.169 106.508 453.449 106.796 453.801 107.004C454.161 107.204 454.565 107.304 455.013 107.304ZM462.63 108.06C461.974 108.06 461.398 107.924 460.902 107.652C460.406 107.372 460.018 106.992 459.738 106.512C459.458 106.024 459.318 105.468 459.318 104.844C459.318 104.22 459.45 103.668 459.714 103.188C459.986 102.708 460.354 102.332 460.818 102.06C461.29 101.78 461.818 101.64 462.402 101.64C462.994 101.64 463.518 101.776 463.974 102.048C464.438 102.312 464.802 102.688 465.066 103.176C465.33 103.656 465.462 104.212 465.462 104.844C465.462 104.884 465.458 104.928 465.45 104.976C465.45 105.016 465.45 105.06 465.45 105.108H459.966V104.472H464.994L464.658 104.724C464.658 104.268 464.558 103.864 464.358 103.512C464.166 103.152 463.902 102.872 463.566 102.672C463.23 102.472 462.842 102.372 462.402 102.372C461.97 102.372 461.582 102.472 461.238 102.672C460.894 102.872 460.626 103.152 460.434 103.512C460.242 103.872 460.146 104.284 460.146 104.748V104.88C460.146 105.36 460.25 105.784 460.458 106.152C460.674 106.512 460.97 106.796 461.346 107.004C461.73 107.204 462.166 107.304 462.654 107.304C463.038 107.304 463.394 107.236 463.722 107.1C464.058 106.964 464.346 106.756 464.586 106.476L465.066 107.028C464.786 107.364 464.434 107.62 464.01 107.796C463.594 107.972 463.134 108.06 462.63 108.06ZM468.905 108.072C468.297 108.072 467.721 107.976 467.177 107.784C466.641 107.584 466.209 107.32 465.881 106.992L466.301 106.308C466.573 106.588 466.937 106.82 467.393 107.004C467.857 107.188 468.361 107.28 468.905 107.28C469.601 107.28 470.133 107.128 470.501 106.824C470.877 106.52 471.065 106.112 471.065 105.6C471.065 105.088 470.881 104.68 470.513 104.376C470.153 104.072 469.581 103.92 468.797 103.92H468.197V103.284L470.789 100.032L470.909 100.368H466.229V99.6H471.629V100.212L469.037 103.464L468.617 103.188H468.941C469.949 103.188 470.701 103.412 471.197 103.86C471.701 104.308 471.953 104.884 471.953 105.588C471.953 106.06 471.841 106.484 471.617 106.86C471.393 107.236 471.053 107.532 470.597 107.748C470.149 107.964 469.585 108.072 468.905 108.072ZM477.056 108V99.6H480.2C480.912 99.6 481.524 99.716 482.036 99.948C482.548 100.172 482.94 100.5 483.212 100.932C483.492 101.356 483.632 101.872 483.632 102.48C483.632 103.072 483.492 103.584 483.212 104.016C482.94 104.44 482.548 104.768 482.036 105C481.524 105.232 480.912 105.348 480.2 105.348H477.548L477.944 104.928V108H477.056ZM477.944 105L477.548 104.568H480.176C481.016 104.568 481.652 104.388 482.084 104.028C482.524 103.66 482.743 103.144 482.743 102.48C482.743 101.808 482.524 101.288 482.084 100.92C481.652 100.552 481.016 100.368 480.176 100.368H477.548L477.944 99.948V105ZM487.539 108.06C486.947 108.06 486.491 107.9 486.171 107.58C485.851 107.26 485.691 106.808 485.691 106.224V100.308H486.543V106.176C486.543 106.544 486.635 106.828 486.819 107.028C487.011 107.228 487.283 107.328 487.635 107.328C488.011 107.328 488.323 107.22 488.571 107.004L488.871 107.616C488.703 107.768 488.499 107.88 488.259 107.952C488.027 108.024 487.787 108.06 487.539 108.06ZM484.563 102.408V101.7H488.463V102.408H484.563ZM492.114 108.06C491.594 108.06 491.102 107.988 490.638 107.844C490.174 107.692 489.81 107.504 489.546 107.28L489.93 106.608C490.186 106.8 490.514 106.968 490.914 107.112C491.314 107.248 491.734 107.316 492.174 107.316C492.774 107.316 493.206 107.224 493.47 107.04C493.734 106.848 493.866 106.596 493.866 106.284C493.866 106.052 493.79 105.872 493.638 105.744C493.494 105.608 493.302 105.508 493.062 105.444C492.822 105.372 492.554 105.312 492.258 105.264C491.962 105.216 491.666 105.16 491.37 105.096C491.082 105.032 490.818 104.94 490.578 104.82C490.338 104.692 490.142 104.52 489.99 104.304C489.846 104.088 489.774 103.8 489.774 103.44C489.774 103.096 489.87 102.788 490.062 102.516C490.254 102.244 490.534 102.032 490.902 101.88C491.278 101.72 491.734 101.64 492.27 101.64C492.678 101.64 493.086 101.696 493.494 101.808C493.902 101.912 494.238 102.052 494.502 102.228L494.13 102.912C493.85 102.72 493.55 102.584 493.23 102.504C492.91 102.416 492.59 102.372 492.27 102.372C491.702 102.372 491.282 102.472 491.01 102.672C490.746 102.864 490.614 103.112 490.614 103.416C490.614 103.656 490.686 103.844 490.83 103.98C490.982 104.116 491.178 104.224 491.418 104.304C491.666 104.376 491.934 104.436 492.222 104.484C492.518 104.532 492.81 104.592 493.098 104.664C493.394 104.728 493.662 104.82 493.902 104.94C494.15 105.052 494.346 105.216 494.49 105.432C494.642 105.64 494.718 105.916 494.718 106.26C494.718 106.628 494.614 106.948 494.406 107.22C494.206 107.484 493.91 107.692 493.518 107.844C493.134 107.988 492.666 108.06 492.114 108.06ZM496.366 108.06C496.19 108.06 496.038 107.996 495.91 107.868C495.79 107.74 495.73 107.584 495.73 107.4C495.73 107.208 495.79 107.052 495.91 106.932C496.038 106.812 496.19 106.752 496.366 106.752C496.542 106.752 496.69 106.812 496.81 106.932C496.938 107.052 497.002 107.208 497.002 107.4C497.002 107.584 496.938 107.74 496.81 107.868C496.69 107.996 496.542 108.06 496.366 108.06Z" fill="white" fill-opacity="0.87"/>
<path d="M560.006 90.636C559.846 90.636 559.694 90.596 559.55 90.516C559.414 90.436 559.306 90.328 559.226 90.192C559.146 90.056 559.106 89.896 559.106 89.712C559.106 89.544 559.146 89.392 559.226 89.256C559.306 89.12 559.414 89.012 559.55 88.932C559.694 88.852 559.846 88.812 560.006 88.812C560.166 88.812 560.314 88.852 560.45 88.932C560.586 89.012 560.694 89.12 560.774 89.256C560.862 89.392 560.906 89.544 560.906 89.712C560.906 89.896 560.862 90.056 560.774 90.192C560.694 90.328 560.586 90.436 560.45 90.516C560.314 90.596 560.166 90.636 560.006 90.636ZM569.228 93L571.892 89.544L571.88 89.964L569.348 86.7H570.308L572.384 89.4L572.024 89.388L574.1 86.7H575.036L572.48 90L572.492 89.544L575.18 93H574.208L572.012 90.12L572.348 90.168L570.188 93H569.228ZM575.638 93L578.302 89.544L578.29 89.964L575.758 86.7H576.718L578.794 89.4L578.434 89.388L580.51 86.7H581.446L578.89 90L578.902 89.544L581.59 93H580.618L578.422 90.12L578.758 90.168L576.598 93H575.638ZM589.713 93.072C588.641 93.072 587.797 92.764 587.181 92.148C586.565 91.532 586.257 90.62 586.257 89.412V84.6H587.145V89.376C587.145 90.368 587.369 91.1 587.817 91.572C588.265 92.044 588.897 92.28 589.713 92.28C590.537 92.28 591.173 92.044 591.621 91.572C592.069 91.1 592.293 90.368 592.293 89.376V84.6H593.157V89.412C593.157 90.62 592.849 91.532 592.233 92.148C591.625 92.764 590.785 93.072 589.713 93.072ZM598.149 93.072C597.525 93.072 596.925 92.972 596.349 92.772C595.781 92.564 595.341 92.3 595.029 91.98L595.377 91.296C595.673 91.584 596.069 91.828 596.565 92.028C597.069 92.22 597.597 92.316 598.149 92.316C598.677 92.316 599.105 92.252 599.433 92.124C599.769 91.988 600.013 91.808 600.165 91.584C600.325 91.36 600.405 91.112 600.405 90.84C600.405 90.512 600.309 90.248 600.117 90.048C599.933 89.848 599.689 89.692 599.385 89.58C599.081 89.46 598.745 89.356 598.377 89.268C598.009 89.18 597.641 89.088 597.273 88.992C596.905 88.888 596.565 88.752 596.253 88.584C595.949 88.416 595.701 88.196 595.509 87.924C595.325 87.644 595.233 87.28 595.233 86.832C595.233 86.416 595.341 86.036 595.557 85.692C595.781 85.34 596.121 85.06 596.577 84.852C597.033 84.636 597.617 84.528 598.329 84.528C598.801 84.528 599.269 84.596 599.733 84.732C600.197 84.86 600.597 85.04 600.933 85.272L600.633 85.98C600.273 85.74 599.889 85.564 599.481 85.452C599.081 85.34 598.693 85.284 598.317 85.284C597.813 85.284 597.397 85.352 597.069 85.488C596.741 85.624 596.497 85.808 596.337 86.04C596.185 86.264 596.109 86.52 596.109 86.808C596.109 87.136 596.201 87.4 596.385 87.6C596.577 87.8 596.825 87.956 597.129 88.068C597.441 88.18 597.781 88.28 598.149 88.368C598.517 88.456 598.881 88.552 599.241 88.656C599.609 88.76 599.945 88.896 600.249 89.064C600.561 89.224 600.809 89.44 600.993 89.712C601.185 89.984 601.281 90.34 601.281 90.78C601.281 91.188 601.169 91.568 600.945 91.92C600.721 92.264 600.377 92.544 599.913 92.76C599.457 92.968 598.869 93.072 598.149 93.072ZM603.216 93V84.6H606.636C607.532 84.6 608.316 84.78 608.988 85.14C609.668 85.492 610.196 85.984 610.572 86.616C610.948 87.248 611.136 87.976 611.136 88.8C611.136 89.624 610.948 90.352 610.572 90.984C610.196 91.616 609.668 92.112 608.988 92.472C608.316 92.824 607.532 93 606.636 93H603.216ZM604.104 92.232H606.588C607.332 92.232 607.976 92.088 608.52 91.8C609.072 91.504 609.5 91.1 609.804 90.588C610.108 90.068 610.26 89.472 610.26 88.8C610.26 88.12 610.108 87.524 609.804 87.012C609.5 86.5 609.072 86.1 608.52 85.812C607.976 85.516 607.332 85.368 606.588 85.368H604.104V92.232ZM614.645 93V85.368H611.693V84.6H618.485V85.368H615.533V93H614.645ZM560.006 105.636C559.846 105.636 559.694 105.596 559.55 105.516C559.414 105.436 559.306 105.328 559.226 105.192C559.146 105.056 559.106 104.896 559.106 104.712C559.106 104.544 559.146 104.392 559.226 104.256C559.306 104.12 559.414 104.012 559.55 103.932C559.694 103.852 559.846 103.812 560.006 103.812C560.166 103.812 560.314 103.852 560.45 103.932C560.586 104.012 560.694 104.12 560.774 104.256C560.862 104.392 560.906 104.544 560.906 104.712C560.906 104.896 560.862 105.056 560.774 105.192C560.694 105.328 560.586 105.436 560.45 105.516C560.314 105.596 560.166 105.636 560.006 105.636ZM569.228 108L571.892 104.544L571.88 104.964L569.348 101.7H570.308L572.384 104.4L572.024 104.388L574.1 101.7H575.036L572.48 105L572.492 104.544L575.18 108H574.208L572.012 105.12L572.348 105.168L570.188 108H569.228ZM575.638 108L578.302 104.544L578.29 104.964L575.758 101.7H576.718L578.794 104.4L578.434 104.388L580.51 101.7H581.446L578.89 105L578.902 104.544L581.59 108H580.618L578.422 105.12L578.758 105.168L576.598 108H575.638ZM587.961 108V100.368H585.009V99.6H591.801V100.368H588.849V108H587.961ZM592.876 108V101.7H593.692V103.416L593.608 103.116C593.784 102.636 594.08 102.272 594.496 102.024C594.912 101.768 595.428 101.64 596.044 101.64V102.468C596.012 102.468 595.98 102.468 595.948 102.468C595.916 102.46 595.884 102.456 595.852 102.456C595.188 102.456 594.668 102.66 594.292 103.068C593.916 103.468 593.728 104.04 593.728 104.784V108H592.876ZM597.598 108V101.7H598.45V108H597.598ZM598.03 100.308C597.854 100.308 597.706 100.248 597.586 100.128C597.466 100.008 597.406 99.864 597.406 99.696C597.406 99.528 597.466 99.388 597.586 99.276C597.706 99.156 597.854 99.096 598.03 99.096C598.206 99.096 598.354 99.152 598.474 99.264C598.594 99.376 598.654 99.516 598.654 99.684C598.654 99.86 598.594 100.008 598.474 100.128C598.362 100.248 598.214 100.308 598.03 100.308ZM604.073 108.06C603.521 108.06 603.025 107.936 602.585 107.688C602.145 107.432 601.797 107.064 601.541 106.584C601.285 106.104 601.157 105.524 601.157 104.844C601.157 104.156 601.285 103.576 601.541 103.104C601.805 102.624 602.157 102.26 602.597 102.012C603.037 101.764 603.529 101.64 604.073 101.64C604.673 101.64 605.209 101.776 605.681 102.048C606.161 102.312 606.537 102.684 606.809 103.164C607.081 103.644 607.217 104.204 607.217 104.844C607.217 105.476 607.081 106.036 606.809 106.524C606.537 107.004 606.161 107.38 605.681 107.652C605.209 107.924 604.673 108.06 604.073 108.06ZM600.821 108V99.096H601.673V103.56L601.553 104.832L601.637 106.104V108H600.821ZM604.013 107.304C604.461 107.304 604.861 107.204 605.213 107.004C605.565 106.796 605.845 106.508 606.053 106.14C606.261 105.764 606.365 105.332 606.365 104.844C606.365 104.348 606.261 103.916 606.053 103.548C605.845 103.18 605.565 102.896 605.213 102.696C604.861 102.488 604.461 102.384 604.013 102.384C603.565 102.384 603.161 102.488 602.801 102.696C602.449 102.896 602.169 103.18 601.961 103.548C601.761 103.916 601.661 104.348 601.661 104.844C601.661 105.332 601.761 105.764 601.961 106.14C602.169 106.508 602.449 106.796 602.801 107.004C603.161 107.204 603.565 107.304 604.013 107.304ZM611.63 108.06C610.974 108.06 610.398 107.924 609.902 107.652C609.406 107.372 609.018 106.992 608.738 106.512C608.458 106.024 608.318 105.468 608.318 104.844C608.318 104.22 608.45 103.668 608.714 103.188C608.986 102.708 609.354 102.332 609.818 102.06C610.29 101.78 610.818 101.64 611.402 101.64C611.994 101.64 612.518 101.776 612.974 102.048C613.438 102.312 613.802 102.688 614.066 103.176C614.33 103.656 614.462 104.212 614.462 104.844C614.462 104.884 614.458 104.928 614.45 104.976C614.45 105.016 614.45 105.06 614.45 105.108H608.966V104.472H613.994L613.658 104.724C613.658 104.268 613.558 103.864 613.358 103.512C613.166 103.152 612.902 102.872 612.566 102.672C612.23 102.472 611.842 102.372 611.402 102.372C610.97 102.372 610.582 102.472 610.238 102.672C609.894 102.872 609.626 103.152 609.434 103.512C609.242 103.872 609.146 104.284 609.146 104.748V104.88C609.146 105.36 609.25 105.784 609.458 106.152C609.674 106.512 609.97 106.796 610.346 107.004C610.73 107.204 611.166 107.304 611.654 107.304C612.038 107.304 612.394 107.236 612.722 107.1C613.058 106.964 613.346 106.756 613.586 106.476L614.066 107.028C613.786 107.364 613.434 107.62 613.01 107.796C612.594 107.972 612.134 108.06 611.63 108.06ZM617.905 108.072C617.297 108.072 616.721 107.976 616.177 107.784C615.641 107.584 615.209 107.32 614.881 106.992L615.301 106.308C615.573 106.588 615.937 106.82 616.393 107.004C616.857 107.188 617.361 107.28 617.905 107.28C618.601 107.28 619.133 107.128 619.501 106.824C619.877 106.52 620.065 106.112 620.065 105.6C620.065 105.088 619.881 104.68 619.513 104.376C619.153 104.072 618.581 103.92 617.797 103.92H617.197V103.284L619.789 100.032L619.909 100.368H615.229V99.6H620.629V100.212L618.037 103.464L617.617 103.188H617.941C618.949 103.188 619.701 103.412 620.197 103.86C620.701 104.308 620.953 104.884 620.953 105.588C620.953 106.06 620.841 106.484 620.617 106.86C620.393 107.236 620.053 107.532 619.597 107.748C619.149 107.964 618.585 108.072 617.905 108.072ZM626.056 108V99.6H629.2C629.912 99.6 630.524 99.716 631.036 99.948C631.548 100.172 631.94 100.5 632.212 100.932C632.492 101.356 632.632 101.872 632.632 102.48C632.632 103.072 632.492 103.584 632.212 104.016C631.94 104.44 631.548 104.768 631.036 105C630.524 105.232 629.912 105.348 629.2 105.348H626.548L626.944 104.928V108H626.056ZM626.944 105L626.548 104.568H629.176C630.016 104.568 630.652 104.388 631.084 104.028C631.524 103.66 631.743 103.144 631.743 102.48C631.743 101.808 631.524 101.288 631.084 100.92C630.652 100.552 630.016 100.368 629.176 100.368H626.548L626.944 99.948V105ZM636.539 108.06C635.947 108.06 635.491 107.9 635.171 107.58C634.851 107.26 634.691 106.808 634.691 106.224V100.308H635.543V106.176C635.543 106.544 635.635 106.828 635.819 107.028C636.011 107.228 636.283 107.328 636.635 107.328C637.011 107.328 637.323 107.22 637.571 107.004L637.871 107.616C637.703 107.768 637.499 107.88 637.259 107.952C637.027 108.024 636.787 108.06 636.539 108.06ZM633.563 102.408V101.7H637.463V102.408H633.563ZM641.114 108.06C640.594 108.06 640.102 107.988 639.638 107.844C639.174 107.692 638.81 107.504 638.546 107.28L638.93 106.608C639.186 106.8 639.514 106.968 639.914 107.112C640.314 107.248 640.734 107.316 641.174 107.316C641.774 107.316 642.206 107.224 642.47 107.04C642.734 106.848 642.866 106.596 642.866 106.284C642.866 106.052 642.79 105.872 642.638 105.744C642.494 105.608 642.302 105.508 642.062 105.444C641.822 105.372 641.554 105.312 641.258 105.264C640.962 105.216 640.666 105.16 640.37 105.096C640.082 105.032 639.818 104.94 639.578 104.82C639.338 104.692 639.142 104.52 638.99 104.304C638.846 104.088 638.774 103.8 638.774 103.44C638.774 103.096 638.87 102.788 639.062 102.516C639.254 102.244 639.534 102.032 639.902 101.88C640.278 101.72 640.734 101.64 641.27 101.64C641.678 101.64 642.086 101.696 642.494 101.808C642.902 101.912 643.238 102.052 643.502 102.228L643.13 102.912C642.85 102.72 642.55 102.584 642.23 102.504C641.91 102.416 641.59 102.372 641.27 102.372C640.702 102.372 640.282 102.472 640.01 102.672C639.746 102.864 639.614 103.112 639.614 103.416C639.614 103.656 639.686 103.844 639.83 103.98C639.982 104.116 640.178 104.224 640.418 104.304C640.666 104.376 640.934 104.436 641.222 104.484C641.518 104.532 641.81 104.592 642.098 104.664C642.394 104.728 642.662 104.82 642.902 104.94C643.15 105.052 643.346 105.216 643.49 105.432C643.642 105.64 643.718 105.916 643.718 106.26C643.718 106.628 643.614 106.948 643.406 107.22C643.206 107.484 642.91 107.692 642.518 107.844C642.134 107.988 641.666 108.06 641.114 108.06ZM645.366 108.06C645.19 108.06 645.038 107.996 644.91 107.868C644.79 107.74 644.73 107.584 644.73 107.4C644.73 107.208 644.79 107.052 644.91 106.932C645.038 106.812 645.19 106.752 645.366 106.752C645.542 106.752 645.69 106.812 645.81 106.932C645.938 107.052 646.002 107.208 646.002 107.4C646.002 107.584 645.938 107.74 645.81 107.868C645.69 107.996 645.542 108.06 645.366 108.06Z" fill="white" fill-opacity="0.87"/>
<path d="M187 2V22" stroke="#202020" stroke-width="3"/>
<path d="M330 2V22" stroke="#202020" stroke-width="3"/>
<path d="M473 2V22" stroke="#202020" stroke-width="3"/>
<defs>
<linearGradient id="paint0_linear_17117_47028" x1="710.424" y1="12" x2="565.853" y2="312.822" gradientUnits="userSpaceOnUse">
<stop stop-color="#F703D9"/>
<stop offset="0.427083" stop-color="#795AF4"/>
<stop offset="0.921875" stop-color="#04AEFC"/>
</linearGradient>
</defs>
</svg>
