<svg width="386" height="28" viewBox="0 0 386 28" fill="none" xmlns="http://www.w3.org/2000/svg">
<path d="M4.99502 23V2.52L7.23502 4.76H0.515016V0.599998H10.179V23H4.99502ZM14.2623 27.928L16.3743 20.248L17.0783 23.128C16.1609 23.128 15.4036 22.8613 14.8063 22.328C14.2303 21.7947 13.9423 21.0587 13.9423 20.12C13.9423 19.1813 14.2409 18.4347 14.8383 17.88C15.4356 17.3253 16.1716 17.048 17.0463 17.048C17.9423 17.048 18.6783 17.336 19.2543 17.912C19.8303 18.4667 20.1183 19.2027 20.1183 20.12C20.1183 20.3973 20.0969 20.6747 20.0543 20.952C20.0116 21.208 19.9263 21.528 19.7983 21.912C19.6916 22.2747 19.5103 22.744 19.2543 23.32L17.4303 27.928H14.2623ZM31.639 23.384C29.8043 23.384 28.1617 22.936 26.711 22.04C25.2603 21.1227 24.119 19.8 23.287 18.072C22.455 16.344 22.039 14.2533 22.039 11.8C22.039 9.34667 22.455 7.256 23.287 5.528C24.119 3.8 25.2603 2.488 26.711 1.592C28.1617 0.674666 29.8043 0.216 31.639 0.216C33.495 0.216 35.1377 0.674666 36.567 1.592C38.0177 2.488 39.159 3.8 39.991 5.528C40.823 7.256 41.239 9.34667 41.239 11.8C41.239 14.2533 40.823 16.344 39.991 18.072C39.159 19.8 38.0177 21.1227 36.567 22.04C35.1377 22.936 33.495 23.384 31.639 23.384ZM31.639 19C32.5137 19 33.271 18.7547 33.911 18.264C34.5723 17.7733 35.0843 16.9947 35.447 15.928C35.831 14.8613 36.023 13.4853 36.023 11.8C36.023 10.1147 35.831 8.73867 35.447 7.672C35.0843 6.60533 34.5723 5.82667 33.911 5.336C33.271 4.84533 32.5137 4.6 31.639 4.6C30.7857 4.6 30.0283 4.84533 29.367 5.336C28.727 5.82667 28.215 6.60533 27.831 7.672C27.4683 8.73867 27.287 10.1147 27.287 11.8C27.287 13.4853 27.4683 14.8613 27.831 15.928C28.215 16.9947 28.727 17.7733 29.367 18.264C30.0283 18.7547 30.7857 19 31.639 19ZM53.3578 23.384C51.5231 23.384 49.8804 22.936 48.4298 22.04C46.9791 21.1227 45.8378 19.8 45.0058 18.072C44.1738 16.344 43.7578 14.2533 43.7578 11.8C43.7578 9.34667 44.1738 7.256 45.0058 5.528C45.8378 3.8 46.9791 2.488 48.4298 1.592C49.8804 0.674666 51.5231 0.216 53.3578 0.216C55.2138 0.216 56.8564 0.674666 58.2858 1.592C59.7364 2.488 60.8778 3.8 61.7098 5.528C62.5418 7.256 62.9578 9.34667 62.9578 11.8C62.9578 14.2533 62.5418 16.344 61.7098 18.072C60.8778 19.8 59.7364 21.1227 58.2858 22.04C56.8564 22.936 55.2138 23.384 53.3578 23.384ZM53.3578 19C54.2324 19 54.9898 18.7547 55.6298 18.264C56.2911 17.7733 56.8031 16.9947 57.1658 15.928C57.5498 14.8613 57.7418 13.4853 57.7418 11.8C57.7418 10.1147 57.5498 8.73867 57.1658 7.672C56.8031 6.60533 56.2911 5.82667 55.6298 5.336C54.9898 4.84533 54.2324 4.6 53.3578 4.6C52.5044 4.6 51.7471 4.84533 51.0858 5.336C50.4458 5.82667 49.9338 6.60533 49.5498 7.672C49.1871 8.73867 49.0058 10.1147 49.0058 11.8C49.0058 13.4853 49.1871 14.8613 49.5498 15.928C49.9338 16.9947 50.4458 17.7733 51.0858 18.264C51.7471 18.7547 52.5044 19 53.3578 19ZM75.0765 23.384C73.2418 23.384 71.5992 22.936 70.1485 22.04C68.6978 21.1227 67.5565 19.8 66.7245 18.072C65.8925 16.344 65.4765 14.2533 65.4765 11.8C65.4765 9.34667 65.8925 7.256 66.7245 5.528C67.5565 3.8 68.6978 2.488 70.1485 1.592C71.5992 0.674666 73.2418 0.216 75.0765 0.216C76.9325 0.216 78.5752 0.674666 80.0045 1.592C81.4552 2.488 82.5965 3.8 83.4285 5.528C84.2605 7.256 84.6765 9.34667 84.6765 11.8C84.6765 14.2533 84.2605 16.344 83.4285 18.072C82.5965 19.8 81.4552 21.1227 80.0045 22.04C78.5752 22.936 76.9325 23.384 75.0765 23.384ZM75.0765 19C75.9512 19 76.7085 18.7547 77.3485 18.264C78.0098 17.7733 78.5218 16.9947 78.8845 15.928C79.2685 14.8613 79.4605 13.4853 79.4605 11.8C79.4605 10.1147 79.2685 8.73867 78.8845 7.672C78.5218 6.60533 78.0098 5.82667 77.3485 5.336C76.7085 4.84533 75.9512 4.6 75.0765 4.6C74.2232 4.6 73.4658 4.84533 72.8045 5.336C72.1645 5.82667 71.6525 6.60533 71.2685 7.672C70.9058 8.73867 70.7245 10.1147 70.7245 11.8C70.7245 13.4853 70.9058 14.8613 71.2685 15.928C71.6525 16.9947 72.1645 17.7733 72.8045 18.264C73.4658 18.7547 74.2232 19 75.0765 19Z" fill="#FFC24B" fill-opacity="0.87"/>
<path d="M99.3746 23.2C97.4546 23.2 95.9479 22.66 94.8546 21.58C93.7746 20.5 93.2346 18.94 93.2346 16.9V9H95.8346V16.8C95.8346 18.24 96.1413 19.2867 96.7546 19.94C97.3813 20.5933 98.2613 20.92 99.3946 20.92C100.528 20.92 101.401 20.5933 102.015 19.94C102.628 19.2867 102.935 18.24 102.935 16.8V9H105.495V16.9C105.495 18.94 104.948 20.5 103.855 21.58C102.775 22.66 101.281 23.2 99.3746 23.2ZM113.476 23.2C112.383 23.2 111.336 23.0467 110.336 22.74C109.336 22.42 108.543 22.0133 107.956 21.52L108.856 19.5C109.416 19.94 110.109 20.3067 110.936 20.6C111.763 20.8933 112.609 21.04 113.476 21.04C114.209 21.04 114.803 20.96 115.256 20.8C115.709 20.64 116.043 20.4267 116.256 20.16C116.469 19.88 116.576 19.5667 116.576 19.22C116.576 18.7933 116.423 18.4533 116.116 18.2C115.809 17.9333 115.409 17.7267 114.916 17.58C114.436 17.42 113.896 17.2733 113.296 17.14C112.709 17.0067 112.116 16.8533 111.516 16.68C110.929 16.4933 110.389 16.26 109.896 15.98C109.416 15.6867 109.023 15.3 108.716 14.82C108.409 14.34 108.256 13.7267 108.256 12.98C108.256 12.22 108.456 11.5267 108.856 10.9C109.269 10.26 109.889 9.75333 110.716 9.38C111.556 8.99333 112.616 8.8 113.896 8.8C114.736 8.8 115.569 8.90667 116.396 9.12C117.223 9.33333 117.943 9.64 118.556 10.04L117.736 12.06C117.109 11.6867 116.463 11.4133 115.796 11.24C115.129 11.0533 114.489 10.96 113.876 10.96C113.156 10.96 112.569 11.0467 112.116 11.22C111.676 11.3933 111.349 11.62 111.136 11.9C110.936 12.18 110.836 12.5 110.836 12.86C110.836 13.2867 110.983 13.6333 111.276 13.9C111.583 14.1533 111.976 14.3533 112.456 14.5C112.949 14.6467 113.496 14.7933 114.096 14.94C114.696 15.0733 115.289 15.2267 115.876 15.4C116.476 15.5733 117.016 15.8 117.496 16.08C117.989 16.36 118.383 16.74 118.676 17.22C118.983 17.7 119.136 18.3067 119.136 19.04C119.136 19.7867 118.929 20.48 118.516 21.12C118.116 21.7467 117.496 22.2533 116.656 22.64C115.816 23.0133 114.756 23.2 113.476 23.2ZM121.714 23V9H127.834C129.354 9 130.687 9.29333 131.834 9.88C132.981 10.4667 133.874 11.28 134.514 12.32C135.154 13.36 135.474 14.5867 135.474 16C135.474 17.4 135.154 18.6267 134.514 19.68C133.874 20.72 132.981 21.5333 131.834 22.12C130.687 22.7067 129.354 23 127.834 23H121.714ZM124.314 20.8H127.714C128.767 20.8 129.674 20.6 130.434 20.2C131.207 19.8 131.801 19.24 132.214 18.52C132.641 17.8 132.854 16.96 132.854 16C132.854 15.0267 132.641 14.1867 132.214 13.48C131.801 12.76 131.207 12.2 130.434 11.8C129.674 11.4 128.767 11.2 127.714 11.2H124.314V20.8ZM140.882 23V11.2H136.242V9H148.122V11.2H143.482V23H140.882ZM158.561 20.5V11.5H160.701V20.5H158.561ZM155.021 17V15H164.241V17H155.021ZM288.261 23V11.2H283.621V9H295.501V11.2H290.861V23H288.261ZM296.958 23V12.32H299.338V15.26L299.058 14.4C299.378 13.68 299.878 13.1333 300.558 12.76C301.252 12.3867 302.112 12.2 303.138 12.2V14.58C303.032 14.5533 302.932 14.54 302.838 14.54C302.745 14.5267 302.652 14.52 302.558 14.52C301.612 14.52 300.858 14.8 300.298 15.36C299.738 15.9067 299.458 16.7267 299.458 17.82V23H296.958ZM305.259 23V12.32H307.759V23H305.259ZM306.519 10.56C306.052 10.56 305.666 10.4133 305.359 10.12C305.066 9.82667 304.919 9.47333 304.919 9.06C304.919 8.63333 305.066 8.28 305.359 8C305.666 7.70667 306.052 7.56 306.519 7.56C306.986 7.56 307.366 7.7 307.659 7.98C307.966 8.24667 308.119 8.58667 308.119 9C308.119 9.44 307.972 9.81333 307.679 10.12C307.386 10.4133 306.999 10.56 306.519 10.56ZM316.96 23.14C316.054 23.14 315.247 22.94 314.54 22.54C313.834 22.14 313.274 21.54 312.86 20.74C312.46 19.9267 312.26 18.9 312.26 17.66C312.26 16.4067 312.467 15.38 312.88 14.58C313.307 13.78 313.874 13.1867 314.58 12.8C315.3 12.4 316.094 12.2 316.96 12.2C318.014 12.2 318.94 12.4267 319.74 12.88C320.554 13.3333 321.194 13.9667 321.66 14.78C322.14 15.5933 322.38 16.5533 322.38 17.66C322.38 18.7667 322.14 19.7267 321.66 20.54C321.194 21.3533 320.554 21.9933 319.74 22.46C318.94 22.9133 318.014 23.14 316.96 23.14ZM311.04 23V8.16H313.54V14.8L313.34 17.64L313.42 20.48V23H311.04ZM316.68 21C317.28 21 317.814 20.8667 318.28 20.6C318.76 20.3333 319.14 19.9467 319.42 19.44C319.7 18.9333 319.84 18.34 319.84 17.66C319.84 16.9667 319.7 16.3733 319.42 15.88C319.14 15.3733 318.76 14.9867 318.28 14.72C317.814 14.4533 317.28 14.32 316.68 14.32C316.08 14.32 315.54 14.4533 315.06 14.72C314.58 14.9867 314.2 15.3733 313.92 15.88C313.64 16.3733 313.5 16.9667 313.5 17.66C313.5 18.34 313.64 18.9333 313.92 19.44C314.2 19.9467 314.58 20.3333 315.06 20.6C315.54 20.8667 316.08 21 316.68 21ZM329.771 23.14C328.585 23.14 327.545 22.9067 326.651 22.44C325.771 21.96 325.085 21.3067 324.591 20.48C324.111 19.6533 323.871 18.7133 323.871 17.66C323.871 16.5933 324.105 15.6533 324.571 14.84C325.051 14.0133 325.705 13.3667 326.531 12.9C327.371 12.4333 328.325 12.2 329.391 12.2C330.431 12.2 331.358 12.4267 332.171 12.88C332.985 13.3333 333.625 13.9733 334.091 14.8C334.558 15.6267 334.791 16.6 334.791 17.72C334.791 17.8267 334.785 17.9467 334.771 18.08C334.771 18.2133 334.765 18.34 334.751 18.46H325.851V16.8H333.431L332.451 17.32C332.465 16.7067 332.338 16.1667 332.071 15.7C331.805 15.2333 331.438 14.8667 330.971 14.6C330.518 14.3333 329.991 14.2 329.391 14.2C328.778 14.2 328.238 14.3333 327.771 14.6C327.318 14.8667 326.958 15.24 326.691 15.72C326.438 16.1867 326.311 16.74 326.311 17.38V17.78C326.311 18.42 326.458 18.9867 326.751 19.48C327.045 19.9733 327.458 20.3533 327.991 20.62C328.525 20.8867 329.138 21.02 329.831 21.02C330.431 21.02 330.971 20.9267 331.451 20.74C331.931 20.5533 332.358 20.26 332.731 19.86L334.071 21.4C333.591 21.96 332.985 22.3933 332.251 22.7C331.531 22.9933 330.705 23.14 329.771 23.14ZM340.442 23.2C339.455 23.2 338.489 23.06 337.542 22.78C336.609 22.4867 335.822 22.0867 335.182 21.58L336.302 19.56C336.809 19.9733 337.422 20.3067 338.142 20.56C338.862 20.8133 339.615 20.94 340.402 20.94C341.335 20.94 342.062 20.7533 342.582 20.38C343.102 19.9933 343.362 19.4733 343.362 18.82C343.362 18.18 343.122 17.6733 342.642 17.3C342.162 16.9267 341.389 16.74 340.322 16.74H339.042V14.96L343.042 10.2L343.382 11.18H335.862V9H345.402V10.74L341.402 15.5L340.042 14.7H340.822C342.542 14.7 343.829 15.0867 344.682 15.86C345.549 16.62 345.982 17.6 345.982 18.8C345.982 19.5867 345.782 20.3133 345.382 20.98C344.982 21.6467 344.369 22.1867 343.542 22.6C342.729 23 341.695 23.2 340.442 23.2ZM354.21 23V9H359.97C361.21 9 362.27 9.2 363.15 9.6C364.043 10 364.73 10.5733 365.21 11.32C365.69 12.0667 365.93 12.9533 365.93 13.98C365.93 15.0067 365.69 15.8933 365.21 16.64C364.73 17.3867 364.043 17.96 363.15 18.36C362.27 18.76 361.21 18.96 359.97 18.96H355.65L356.81 17.74V23H354.21ZM356.81 18.02L355.65 16.76H359.85C360.997 16.76 361.857 16.52 362.43 16.04C363.017 15.5467 363.31 14.86 363.31 13.98C363.31 13.0867 363.017 12.4 362.43 11.92C361.857 11.44 360.997 11.2 359.85 11.2H355.65L356.81 9.92V18.02ZM372.599 23.14C371.426 23.14 370.519 22.84 369.879 22.24C369.239 21.6267 368.919 20.7267 368.919 19.54V9.96H371.419V19.48C371.419 19.9867 371.546 20.38 371.799 20.66C372.066 20.94 372.433 21.08 372.899 21.08C373.459 21.08 373.926 20.9333 374.299 20.64L374.999 22.42C374.706 22.66 374.346 22.84 373.919 22.96C373.493 23.08 373.053 23.14 372.599 23.14ZM367.159 14.4V12.4H374.279V14.4H367.159ZM380.356 23.14C379.463 23.14 378.603 23.0267 377.776 22.8C376.963 22.56 376.316 22.2733 375.836 21.94L376.796 20.04C377.276 20.3467 377.849 20.6 378.516 20.8C379.183 21 379.849 21.1 380.516 21.1C381.303 21.1 381.869 20.9933 382.216 20.78C382.576 20.5667 382.756 20.28 382.756 19.92C382.756 19.6267 382.636 19.4067 382.396 19.26C382.156 19.1 381.843 18.98 381.456 18.9C381.069 18.82 380.636 18.7467 380.156 18.68C379.689 18.6133 379.216 18.5267 378.736 18.42C378.269 18.3 377.843 18.1333 377.456 17.92C377.069 17.6933 376.756 17.3933 376.516 17.02C376.276 16.6467 376.156 16.1533 376.156 15.54C376.156 14.86 376.349 14.2733 376.736 13.78C377.123 13.2733 377.663 12.8867 378.356 12.62C379.063 12.34 379.896 12.2 380.856 12.2C381.576 12.2 382.303 12.28 383.036 12.44C383.769 12.6 384.376 12.8267 384.856 13.12L383.896 15.02C383.389 14.7133 382.876 14.5067 382.356 14.4C381.849 14.28 381.343 14.22 380.836 14.22C380.076 14.22 379.509 14.3333 379.136 14.56C378.776 14.7867 378.596 15.0733 378.596 15.42C378.596 15.74 378.716 15.98 378.956 16.14C379.196 16.3 379.509 16.4267 379.896 16.52C380.283 16.6133 380.709 16.6933 381.176 16.76C381.656 16.8133 382.129 16.9 382.596 17.02C383.063 17.14 383.489 17.3067 383.876 17.52C384.276 17.72 384.596 18.0067 384.836 18.38C385.076 18.7533 385.196 19.24 385.196 19.84C385.196 20.5067 384.996 21.0867 384.596 21.58C384.209 22.0733 383.656 22.46 382.936 22.74C382.216 23.0067 381.356 23.14 380.356 23.14Z" fill="white"/>
<path d="M175.749 23V2.52L177.989 4.76H171.269V0.599998H180.933V23H175.749ZM194.424 23.384C192.59 23.384 190.947 22.936 189.496 22.04C188.046 21.1227 186.904 19.8 186.072 18.072C185.24 16.344 184.824 14.2533 184.824 11.8C184.824 9.34667 185.24 7.256 186.072 5.528C186.904 3.8 188.046 2.488 189.496 1.592C190.947 0.674666 192.59 0.216 194.424 0.216C196.28 0.216 197.923 0.674666 199.352 1.592C200.803 2.488 201.944 3.8 202.776 5.528C203.608 7.256 204.024 9.34667 204.024 11.8C204.024 14.2533 203.608 16.344 202.776 18.072C201.944 19.8 200.803 21.1227 199.352 22.04C197.923 22.936 196.28 23.384 194.424 23.384ZM194.424 19C195.299 19 196.056 18.7547 196.696 18.264C197.358 17.7733 197.87 16.9947 198.232 15.928C198.616 14.8613 198.808 13.4853 198.808 11.8C198.808 10.1147 198.616 8.73867 198.232 7.672C197.87 6.60533 197.358 5.82667 196.696 5.336C196.056 4.84533 195.299 4.6 194.424 4.6C193.571 4.6 192.814 4.84533 192.152 5.336C191.512 5.82667 191 6.60533 190.616 7.672C190.254 8.73867 190.072 10.1147 190.072 11.8C190.072 13.4853 190.254 14.8613 190.616 15.928C191 16.9947 191.512 17.7733 192.152 18.264C192.814 18.7547 193.571 19 194.424 19ZM206.329 27.928L208.441 20.248L209.145 23.128C208.227 23.128 207.47 22.8613 206.873 22.328C206.297 21.7947 206.009 21.0587 206.009 20.12C206.009 19.1813 206.307 18.4347 206.905 17.88C207.502 17.3253 208.238 17.048 209.113 17.048C210.009 17.048 210.745 17.336 211.321 17.912C211.897 18.4667 212.185 19.2027 212.185 20.12C212.185 20.3973 212.163 20.6747 212.121 20.952C212.078 21.208 211.993 21.528 211.865 21.912C211.758 22.2747 211.577 22.744 211.321 23.32L209.497 27.928H206.329ZM223.705 23.384C221.871 23.384 220.228 22.936 218.777 22.04C217.327 21.1227 216.185 19.8 215.353 18.072C214.521 16.344 214.105 14.2533 214.105 11.8C214.105 9.34667 214.521 7.256 215.353 5.528C216.185 3.8 217.327 2.488 218.777 1.592C220.228 0.674666 221.871 0.216 223.705 0.216C225.561 0.216 227.204 0.674666 228.633 1.592C230.084 2.488 231.225 3.8 232.057 5.528C232.889 7.256 233.305 9.34667 233.305 11.8C233.305 14.2533 232.889 16.344 232.057 18.072C231.225 19.8 230.084 21.1227 228.633 22.04C227.204 22.936 225.561 23.384 223.705 23.384ZM223.705 19C224.58 19 225.337 18.7547 225.977 18.264C226.639 17.7733 227.151 16.9947 227.513 15.928C227.897 14.8613 228.089 13.4853 228.089 11.8C228.089 10.1147 227.897 8.73867 227.513 7.672C227.151 6.60533 226.639 5.82667 225.977 5.336C225.337 4.84533 224.58 4.6 223.705 4.6C222.852 4.6 222.095 4.84533 221.433 5.336C220.793 5.82667 220.281 6.60533 219.897 7.672C219.535 8.73867 219.353 10.1147 219.353 11.8C219.353 13.4853 219.535 14.8613 219.897 15.928C220.281 16.9947 220.793 17.7733 221.433 18.264C222.095 18.7547 222.852 19 223.705 19ZM245.424 23.384C243.59 23.384 241.947 22.936 240.496 22.04C239.046 21.1227 237.904 19.8 237.072 18.072C236.24 16.344 235.824 14.2533 235.824 11.8C235.824 9.34667 236.24 7.256 237.072 5.528C237.904 3.8 239.046 2.488 240.496 1.592C241.947 0.674666 243.59 0.216 245.424 0.216C247.28 0.216 248.923 0.674666 250.352 1.592C251.803 2.488 252.944 3.8 253.776 5.528C254.608 7.256 255.024 9.34667 255.024 11.8C255.024 14.2533 254.608 16.344 253.776 18.072C252.944 19.8 251.803 21.1227 250.352 22.04C248.923 22.936 247.28 23.384 245.424 23.384ZM245.424 19C246.299 19 247.056 18.7547 247.696 18.264C248.358 17.7733 248.87 16.9947 249.232 15.928C249.616 14.8613 249.808 13.4853 249.808 11.8C249.808 10.1147 249.616 8.73867 249.232 7.672C248.87 6.60533 248.358 5.82667 247.696 5.336C247.056 4.84533 246.299 4.6 245.424 4.6C244.571 4.6 243.814 4.84533 243.152 5.336C242.512 5.82667 242 6.60533 241.616 7.672C241.254 8.73867 241.072 10.1147 241.072 11.8C241.072 13.4853 241.254 14.8613 241.616 15.928C242 16.9947 242.512 17.7733 243.152 18.264C243.814 18.7547 244.571 19 245.424 19ZM267.143 23.384C265.308 23.384 263.666 22.936 262.215 22.04C260.764 21.1227 259.623 19.8 258.791 18.072C257.959 16.344 257.543 14.2533 257.543 11.8C257.543 9.34667 257.959 7.256 258.791 5.528C259.623 3.8 260.764 2.488 262.215 1.592C263.666 0.674666 265.308 0.216 267.143 0.216C268.999 0.216 270.642 0.674666 272.071 1.592C273.522 2.488 274.663 3.8 275.495 5.528C276.327 7.256 276.743 9.34667 276.743 11.8C276.743 14.2533 276.327 16.344 275.495 18.072C274.663 19.8 273.522 21.1227 272.071 22.04C270.642 22.936 268.999 23.384 267.143 23.384ZM267.143 19C268.018 19 268.775 18.7547 269.415 18.264C270.076 17.7733 270.588 16.9947 270.951 15.928C271.335 14.8613 271.527 13.4853 271.527 11.8C271.527 10.1147 271.335 8.73867 270.951 7.672C270.588 6.60533 270.076 5.82667 269.415 5.336C268.775 4.84533 268.018 4.6 267.143 4.6C266.29 4.6 265.532 4.84533 264.871 5.336C264.231 5.82667 263.719 6.60533 263.335 7.672C262.972 8.73867 262.791 10.1147 262.791 11.8C262.791 13.4853 262.972 14.8613 263.335 15.928C263.719 16.9947 264.231 17.7733 264.871 18.264C265.532 18.7547 266.29 19 267.143 19Z" fill="#D0FF4B"/>
</svg>
