<svg width="188" height="85" viewBox="0 0 188 85" fill="none" xmlns="http://www.w3.org/2000/svg">
<path d="M30.0751 23V2.52L32.3151 4.76H25.5951V0.599998H35.2591V23H30.0751ZM39.3423 27.928L41.4543 20.248L42.1583 23.128C41.241 23.128 40.4837 22.8613 39.8863 22.328C39.3103 21.7947 39.0223 21.0587 39.0223 20.12C39.0223 19.1813 39.321 18.4347 39.9183 17.88C40.5157 17.3253 41.2517 17.048 42.1263 17.048C43.0223 17.048 43.7583 17.336 44.3343 17.912C44.9103 18.4667 45.1983 19.2027 45.1983 20.12C45.1983 20.3973 45.177 20.6747 45.1343 20.952C45.0917 21.208 45.0063 21.528 44.8783 21.912C44.7717 22.2747 44.5903 22.744 44.3343 23.32L42.5103 27.928H39.3423ZM56.7191 23.384C54.8844 23.384 53.2418 22.936 51.7911 22.04C50.3404 21.1227 49.1991 19.8 48.3671 18.072C47.5351 16.344 47.1191 14.2533 47.1191 11.8C47.1191 9.34667 47.5351 7.256 48.3671 5.528C49.1991 3.8 50.3404 2.488 51.7911 1.592C53.2418 0.674666 54.8844 0.216 56.7191 0.216C58.5751 0.216 60.2178 0.674666 61.6471 1.592C63.0978 2.488 64.2391 3.8 65.0711 5.528C65.9031 7.256 66.3191 9.34667 66.3191 11.8C66.3191 14.2533 65.9031 16.344 65.0711 18.072C64.2391 19.8 63.0978 21.1227 61.6471 22.04C60.2178 22.936 58.5751 23.384 56.7191 23.384ZM56.7191 19C57.5938 19 58.3511 18.7547 58.9911 18.264C59.6524 17.7733 60.1644 16.9947 60.5271 15.928C60.9111 14.8613 61.1031 13.4853 61.1031 11.8C61.1031 10.1147 60.9111 8.73867 60.5271 7.672C60.1644 6.60533 59.6524 5.82667 58.9911 5.336C58.3511 4.84533 57.5938 4.6 56.7191 4.6C55.8658 4.6 55.1084 4.84533 54.4471 5.336C53.8071 5.82667 53.2951 6.60533 52.9111 7.672C52.5484 8.73867 52.3671 10.1147 52.3671 11.8C52.3671 13.4853 52.5484 14.8613 52.9111 15.928C53.2951 16.9947 53.8071 17.7733 54.4471 18.264C55.1084 18.7547 55.8658 19 56.7191 19ZM78.4378 23.384C76.6032 23.384 74.9605 22.936 73.5098 22.04C72.0592 21.1227 70.9178 19.8 70.0858 18.072C69.2538 16.344 68.8378 14.2533 68.8378 11.8C68.8378 9.34667 69.2538 7.256 70.0858 5.528C70.9178 3.8 72.0592 2.488 73.5098 1.592C74.9605 0.674666 76.6032 0.216 78.4378 0.216C80.2938 0.216 81.9365 0.674666 83.3658 1.592C84.8165 2.488 85.9578 3.8 86.7898 5.528C87.6218 7.256 88.0378 9.34667 88.0378 11.8C88.0378 14.2533 87.6218 16.344 86.7898 18.072C85.9578 19.8 84.8165 21.1227 83.3658 22.04C81.9365 22.936 80.2938 23.384 78.4378 23.384ZM78.4378 19C79.3125 19 80.0698 18.7547 80.7098 18.264C81.3712 17.7733 81.8832 16.9947 82.2458 15.928C82.6298 14.8613 82.8218 13.4853 82.8218 11.8C82.8218 10.1147 82.6298 8.73867 82.2458 7.672C81.8832 6.60533 81.3712 5.82667 80.7098 5.336C80.0698 4.84533 79.3125 4.6 78.4378 4.6C77.5845 4.6 76.8272 4.84533 76.1658 5.336C75.5258 5.82667 75.0138 6.60533 74.6298 7.672C74.2672 8.73867 74.0858 10.1147 74.0858 11.8C74.0858 13.4853 74.2672 14.8613 74.6298 15.928C75.0138 16.9947 75.5258 17.7733 76.1658 18.264C76.8272 18.7547 77.5845 19 78.4378 19ZM100.157 23.384C98.3219 23.384 96.6793 22.936 95.2286 22.04C93.7779 21.1227 92.6366 19.8 91.8046 18.072C90.9726 16.344 90.5566 14.2533 90.5566 11.8C90.5566 9.34667 90.9726 7.256 91.8046 5.528C92.6366 3.8 93.7779 2.488 95.2286 1.592C96.6793 0.674666 98.3219 0.216 100.157 0.216C102.013 0.216 103.655 0.674666 105.085 1.592C106.535 2.488 107.677 3.8 108.509 5.528C109.341 7.256 109.757 9.34667 109.757 11.8C109.757 14.2533 109.341 16.344 108.509 18.072C107.677 19.8 106.535 21.1227 105.085 22.04C103.655 22.936 102.013 23.384 100.157 23.384ZM100.157 19C101.031 19 101.789 18.7547 102.429 18.264C103.09 17.7733 103.602 16.9947 103.965 15.928C104.349 14.8613 104.541 13.4853 104.541 11.8C104.541 10.1147 104.349 8.73867 103.965 7.672C103.602 6.60533 103.09 5.82667 102.429 5.336C101.789 4.84533 101.031 4.6 100.157 4.6C99.3033 4.6 98.5459 4.84533 97.8846 5.336C97.2446 5.82667 96.7326 6.60533 96.3486 7.672C95.9859 8.73867 95.8046 10.1147 95.8046 11.8C95.8046 13.4853 95.9859 14.8613 96.3486 15.928C96.7326 16.9947 97.2446 17.7733 97.8846 18.264C98.5459 18.7547 99.3033 19 100.157 19Z" fill="#FFC24B"/>
<path d="M126.015 23.15C124.575 23.15 123.445 22.745 122.625 21.935C121.815 21.125 121.41 19.955 121.41 18.425V12.5H123.36V18.35C123.36 19.43 123.59 20.215 124.05 20.705C124.52 21.195 125.18 21.44 126.03 21.44C126.88 21.44 127.535 21.195 127.995 20.705C128.455 20.215 128.685 19.43 128.685 18.35V12.5H130.605V18.425C130.605 19.955 130.195 21.125 129.375 21.935C128.565 22.745 127.445 23.15 126.015 23.15ZM136.591 23.15C135.771 23.15 134.986 23.035 134.236 22.805C133.486 22.565 132.891 22.26 132.451 21.89L133.126 20.375C133.546 20.705 134.066 20.98 134.686 21.2C135.306 21.42 135.941 21.53 136.591 21.53C137.141 21.53 137.586 21.47 137.926 21.35C138.266 21.23 138.516 21.07 138.676 20.87C138.836 20.66 138.916 20.425 138.916 20.165C138.916 19.845 138.801 19.59 138.571 19.4C138.341 19.2 138.041 19.045 137.671 18.935C137.311 18.815 136.906 18.705 136.456 18.605C136.016 18.505 135.571 18.39 135.121 18.26C134.681 18.12 134.276 17.945 133.906 17.735C133.546 17.515 133.251 17.225 133.021 16.865C132.791 16.505 132.676 16.045 132.676 15.485C132.676 14.915 132.826 14.395 133.126 13.925C133.436 13.445 133.901 13.065 134.521 12.785C135.151 12.495 135.946 12.35 136.906 12.35C137.536 12.35 138.161 12.43 138.781 12.59C139.401 12.75 139.941 12.98 140.401 13.28L139.786 14.795C139.316 14.515 138.831 14.31 138.331 14.18C137.831 14.04 137.351 13.97 136.891 13.97C136.351 13.97 135.911 14.035 135.571 14.165C135.241 14.295 134.996 14.465 134.836 14.675C134.686 14.885 134.611 15.125 134.611 15.395C134.611 15.715 134.721 15.975 134.941 16.175C135.171 16.365 135.466 16.515 135.826 16.625C136.196 16.735 136.606 16.845 137.056 16.955C137.506 17.055 137.951 17.17 138.391 17.3C138.841 17.43 139.246 17.6 139.606 17.81C139.976 18.02 140.271 18.305 140.491 18.665C140.721 19.025 140.836 19.48 140.836 20.03C140.836 20.59 140.681 21.11 140.371 21.59C140.071 22.06 139.606 22.44 138.976 22.73C138.346 23.01 137.551 23.15 136.591 23.15ZM142.769 23V12.5H147.359C148.499 12.5 149.499 12.72 150.359 13.16C151.219 13.6 151.889 14.21 152.369 14.99C152.849 15.77 153.089 16.69 153.089 17.75C153.089 18.8 152.849 19.72 152.369 20.51C151.889 21.29 151.219 21.9 150.359 22.34C149.499 22.78 148.499 23 147.359 23H142.769ZM144.719 21.35H147.269C148.059 21.35 148.739 21.2 149.309 20.9C149.889 20.6 150.334 20.18 150.644 19.64C150.964 19.1 151.124 18.47 151.124 17.75C151.124 17.02 150.964 16.39 150.644 15.86C150.334 15.32 149.889 14.9 149.309 14.6C148.739 14.3 148.059 14.15 147.269 14.15H144.719V21.35ZM157.145 23V14.15H153.665V12.5H162.575V14.15H159.095V23H157.145ZM93.2062 39.125V32.375H94.8112V39.125H93.2062ZM90.5512 36.5V35H97.4662V36.5H90.5512ZM114.922 80V71.15H111.442V69.5H120.352V71.15H116.872V80H114.922ZM121.445 80V71.99H123.23V74.195L123.02 73.55C123.26 73.01 123.635 72.6 124.145 72.32C124.665 72.04 125.31 71.9 126.08 71.9V73.685C126 73.665 125.925 73.655 125.855 73.655C125.785 73.645 125.715 73.64 125.645 73.64C124.935 73.64 124.37 73.85 123.95 74.27C123.53 74.68 123.32 75.295 123.32 76.115V80H121.445ZM127.671 80V71.99H129.546V80H127.671ZM128.616 70.67C128.266 70.67 127.976 70.56 127.746 70.34C127.526 70.12 127.416 69.855 127.416 69.545C127.416 69.225 127.526 68.96 127.746 68.75C127.976 68.53 128.266 68.42 128.616 68.42C128.966 68.42 129.251 68.525 129.471 68.735C129.701 68.935 129.816 69.19 129.816 69.5C129.816 69.83 129.706 70.11 129.486 70.34C129.266 70.56 128.976 70.67 128.616 70.67ZM136.447 80.105C135.767 80.105 135.162 79.955 134.632 79.655C134.102 79.355 133.682 78.905 133.372 78.305C133.072 77.695 132.922 76.925 132.922 75.995C132.922 75.055 133.077 74.285 133.387 73.685C133.707 73.085 134.132 72.64 134.662 72.35C135.202 72.05 135.797 71.9 136.447 71.9C137.237 71.9 137.932 72.07 138.532 72.41C139.142 72.75 139.622 73.225 139.972 73.835C140.332 74.445 140.512 75.165 140.512 75.995C140.512 76.825 140.332 77.545 139.972 78.155C139.622 78.765 139.142 79.245 138.532 79.595C137.932 79.935 137.237 80.105 136.447 80.105ZM132.007 80V68.87H133.882V73.85L133.732 75.98L133.792 78.11V80H132.007ZM136.237 78.5C136.687 78.5 137.087 78.4 137.437 78.2C137.797 78 138.082 77.71 138.292 77.33C138.502 76.95 138.607 76.505 138.607 75.995C138.607 75.475 138.502 75.03 138.292 74.66C138.082 74.28 137.797 73.99 137.437 73.79C137.087 73.59 136.687 73.49 136.237 73.49C135.787 73.49 135.382 73.59 135.022 73.79C134.662 73.99 134.377 74.28 134.167 74.66C133.957 75.03 133.852 75.475 133.852 75.995C133.852 76.505 133.957 76.95 134.167 77.33C134.377 77.71 134.662 78 135.022 78.2C135.382 78.4 135.787 78.5 136.237 78.5ZM146.055 80.105C145.165 80.105 144.385 79.93 143.715 79.58C143.055 79.22 142.54 78.73 142.17 78.11C141.81 77.49 141.63 76.785 141.63 75.995C141.63 75.195 141.805 74.49 142.155 73.88C142.515 73.26 143.005 72.775 143.625 72.425C144.255 72.075 144.97 71.9 145.77 71.9C146.55 71.9 147.245 72.07 147.855 72.41C148.465 72.75 148.945 73.23 149.295 73.85C149.645 74.47 149.82 75.2 149.82 76.04C149.82 76.12 149.815 76.21 149.805 76.31C149.805 76.41 149.8 76.505 149.79 76.595H143.115V75.35H148.8L148.065 75.74C148.075 75.28 147.98 74.875 147.78 74.525C147.58 74.175 147.305 73.9 146.955 73.7C146.615 73.5 146.22 73.4 145.77 73.4C145.31 73.4 144.905 73.5 144.555 73.7C144.215 73.9 143.945 74.18 143.745 74.54C143.555 74.89 143.46 75.305 143.46 75.785V76.085C143.46 76.565 143.57 76.99 143.79 77.36C144.01 77.73 144.32 78.015 144.72 78.215C145.12 78.415 145.58 78.515 146.1 78.515C146.55 78.515 146.955 78.445 147.315 78.305C147.675 78.165 147.995 77.945 148.275 77.645L149.28 78.8C148.92 79.22 148.465 79.545 147.915 79.775C147.375 79.995 146.755 80.105 146.055 80.105ZM154.058 80.15C153.318 80.15 152.593 80.045 151.883 79.835C151.183 79.615 150.593 79.315 150.113 78.935L150.953 77.42C151.333 77.73 151.793 77.98 152.333 78.17C152.873 78.36 153.438 78.455 154.028 78.455C154.728 78.455 155.273 78.315 155.663 78.035C156.053 77.745 156.248 77.355 156.248 76.865C156.248 76.385 156.068 76.005 155.708 75.725C155.348 75.445 154.768 75.305 153.968 75.305H153.008V73.97L156.008 70.4L156.263 71.135H150.623V69.5H157.778V70.805L154.778 74.375L153.758 73.775H154.343C155.633 73.775 156.598 74.065 157.238 74.645C157.888 75.215 158.213 75.95 158.213 76.85C158.213 77.44 158.063 77.985 157.763 78.485C157.463 78.985 157.003 79.39 156.383 79.7C155.773 80 154.998 80.15 154.058 80.15ZM164.384 80V69.5H168.704C169.634 69.5 170.429 69.65 171.089 69.95C171.759 70.25 172.274 70.68 172.634 71.24C172.994 71.8 173.174 72.465 173.174 73.235C173.174 74.005 172.994 74.67 172.634 75.23C172.274 75.79 171.759 76.22 171.089 76.52C170.429 76.82 169.634 76.97 168.704 76.97H165.464L166.334 76.055V80H164.384ZM166.334 76.265L165.464 75.32H168.614C169.474 75.32 170.119 75.14 170.549 74.78C170.989 74.41 171.209 73.895 171.209 73.235C171.209 72.565 170.989 72.05 170.549 71.69C170.119 71.33 169.474 71.15 168.614 71.15H165.464L166.334 70.19V76.265ZM178.176 80.105C177.296 80.105 176.616 79.88 176.136 79.43C175.656 78.97 175.416 78.295 175.416 77.405V70.22H177.291V77.36C177.291 77.74 177.386 78.035 177.576 78.245C177.776 78.455 178.051 78.56 178.401 78.56C178.821 78.56 179.171 78.45 179.451 78.23L179.976 79.565C179.756 79.745 179.486 79.88 179.166 79.97C178.846 80.06 178.516 80.105 178.176 80.105ZM174.096 73.55V72.05H179.436V73.55H174.096ZM183.994 80.105C183.324 80.105 182.679 80.02 182.059 79.85C181.449 79.67 180.964 79.455 180.604 79.205L181.324 77.78C181.684 78.01 182.114 78.2 182.614 78.35C183.114 78.5 183.614 78.575 184.114 78.575C184.704 78.575 185.129 78.495 185.389 78.335C185.659 78.175 185.794 77.96 185.794 77.69C185.794 77.47 185.704 77.305 185.524 77.195C185.344 77.075 185.109 76.985 184.819 76.925C184.529 76.865 184.204 76.81 183.844 76.76C183.494 76.71 183.139 76.645 182.779 76.565C182.429 76.475 182.109 76.35 181.819 76.19C181.529 76.02 181.294 75.795 181.114 75.515C180.934 75.235 180.844 74.865 180.844 74.405C180.844 73.895 180.989 73.455 181.279 73.085C181.569 72.705 181.974 72.415 182.494 72.215C183.024 72.005 183.649 71.9 184.369 71.9C184.909 71.9 185.454 71.96 186.004 72.08C186.554 72.2 187.009 72.37 187.369 72.59L186.649 74.015C186.269 73.785 185.884 73.63 185.494 73.55C185.114 73.46 184.734 73.415 184.354 73.415C183.784 73.415 183.359 73.5 183.079 73.67C182.809 73.84 182.674 74.055 182.674 74.315C182.674 74.555 182.764 74.735 182.944 74.855C183.124 74.975 183.359 75.07 183.649 75.14C183.939 75.21 184.259 75.27 184.609 75.32C184.969 75.36 185.324 75.425 185.674 75.515C186.024 75.605 186.344 75.73 186.634 75.89C186.934 76.04 187.174 76.255 187.354 76.535C187.534 76.815 187.624 77.18 187.624 77.63C187.624 78.13 187.474 78.565 187.174 78.935C186.884 79.305 186.469 79.595 185.929 79.805C185.389 80.005 184.744 80.105 183.994 80.105Z" fill="white"/>
<path d="M4.6957 80V59.52L6.9357 61.76H0.215699V57.6H9.8797V80H4.6957ZM23.3709 80.384C21.5363 80.384 19.8936 79.936 18.4429 79.04C16.9923 78.1227 15.8509 76.8 15.0189 75.072C14.1869 73.344 13.7709 71.2533 13.7709 68.8C13.7709 66.3467 14.1869 64.256 15.0189 62.528C15.8509 60.8 16.9923 59.488 18.4429 58.592C19.8936 57.6747 21.5363 57.216 23.3709 57.216C25.227 57.216 26.8696 57.6747 28.299 58.592C29.7496 59.488 30.891 60.8 31.7229 62.528C32.555 64.256 32.971 66.3467 32.971 68.8C32.971 71.2533 32.555 73.344 31.7229 75.072C30.891 76.8 29.7496 78.1227 28.299 79.04C26.8696 79.936 25.227 80.384 23.3709 80.384ZM23.3709 76C24.2456 76 25.003 75.7547 25.643 75.264C26.3043 74.7733 26.8163 73.9947 27.179 72.928C27.5629 71.8613 27.7549 70.4853 27.7549 68.8C27.7549 67.1147 27.5629 65.7387 27.179 64.672C26.8163 63.6053 26.3043 62.8267 25.643 62.336C25.003 61.8453 24.2456 61.6 23.3709 61.6C22.5176 61.6 21.7603 61.8453 21.0989 62.336C20.4589 62.8267 19.9469 63.6053 19.5629 64.672C19.2003 65.7387 19.0189 67.1147 19.0189 68.8C19.0189 70.4853 19.2003 71.8613 19.5629 72.928C19.9469 73.9947 20.4589 74.7733 21.0989 75.264C21.7603 75.7547 22.5176 76 23.3709 76ZM35.2754 84.928L37.3874 77.248L38.0914 80.128C37.1741 80.128 36.4168 79.8613 35.8194 79.328C35.2434 78.7947 34.9554 78.0587 34.9554 77.12C34.9554 76.1813 35.2541 75.4347 35.8514 74.88C36.4488 74.3253 37.1848 74.048 38.0594 74.048C38.9554 74.048 39.6914 74.336 40.2674 74.912C40.8434 75.4667 41.1314 76.2027 41.1314 77.12C41.1314 77.3973 41.1101 77.6747 41.0674 77.952C41.0248 78.208 40.9394 78.528 40.8114 78.912C40.7048 79.2747 40.5234 79.744 40.2674 80.32L38.4434 84.928H35.2754ZM52.6522 80.384C50.8175 80.384 49.1749 79.936 47.7242 79.04C46.2735 78.1227 45.1322 76.8 44.3002 75.072C43.4682 73.344 43.0522 71.2533 43.0522 68.8C43.0522 66.3467 43.4682 64.256 44.3002 62.528C45.1322 60.8 46.2735 59.488 47.7242 58.592C49.1749 57.6747 50.8175 57.216 52.6522 57.216C54.5082 57.216 56.1509 57.6747 57.5802 58.592C59.0309 59.488 60.1722 60.8 61.0042 62.528C61.8362 64.256 62.2522 66.3467 62.2522 68.8C62.2522 71.2533 61.8362 73.344 61.0042 75.072C60.1722 76.8 59.0309 78.1227 57.5802 79.04C56.1509 79.936 54.5082 80.384 52.6522 80.384ZM52.6522 76C53.5269 76 54.2842 75.7547 54.9242 75.264C55.5855 74.7733 56.0975 73.9947 56.4602 72.928C56.8442 71.8613 57.0362 70.4853 57.0362 68.8C57.0362 67.1147 56.8442 65.7387 56.4602 64.672C56.0975 63.6053 55.5855 62.8267 54.9242 62.336C54.2842 61.8453 53.5269 61.6 52.6522 61.6C51.7989 61.6 51.0415 61.8453 50.3802 62.336C49.7402 62.8267 49.2282 63.6053 48.8442 64.672C48.4815 65.7387 48.3002 67.1147 48.3002 68.8C48.3002 70.4853 48.4815 71.8613 48.8442 72.928C49.2282 73.9947 49.7402 74.7733 50.3802 75.264C51.0415 75.7547 51.7989 76 52.6522 76ZM74.3709 80.384C72.5363 80.384 70.8936 79.936 69.4429 79.04C67.9923 78.1227 66.8509 76.8 66.0189 75.072C65.1869 73.344 64.7709 71.2533 64.7709 68.8C64.7709 66.3467 65.1869 64.256 66.0189 62.528C66.8509 60.8 67.9923 59.488 69.4429 58.592C70.8936 57.6747 72.5363 57.216 74.3709 57.216C76.227 57.216 77.8696 57.6747 79.299 58.592C80.7496 59.488 81.891 60.8 82.7229 62.528C83.555 64.256 83.971 66.3467 83.971 68.8C83.971 71.2533 83.555 73.344 82.7229 75.072C81.891 76.8 80.7496 78.1227 79.299 79.04C77.8696 79.936 76.227 80.384 74.3709 80.384ZM74.3709 76C75.2456 76 76.003 75.7547 76.643 75.264C77.3043 74.7733 77.8163 73.9947 78.179 72.928C78.5629 71.8613 78.7549 70.4853 78.7549 68.8C78.7549 67.1147 78.5629 65.7387 78.179 64.672C77.8163 63.6053 77.3043 62.8267 76.643 62.336C76.003 61.8453 75.2456 61.6 74.3709 61.6C73.5176 61.6 72.7603 61.8453 72.0989 62.336C71.4589 62.8267 70.9469 63.6053 70.5629 64.672C70.2003 65.7387 70.0189 67.1147 70.0189 68.8C70.0189 70.4853 70.2003 71.8613 70.5629 72.928C70.9469 73.9947 71.4589 74.7733 72.0989 75.264C72.7603 75.7547 73.5176 76 74.3709 76ZM96.0897 80.384C94.255 80.384 92.6124 79.936 91.1617 79.04C89.711 78.1227 88.5697 76.8 87.7377 75.072C86.9057 73.344 86.4897 71.2533 86.4897 68.8C86.4897 66.3467 86.9057 64.256 87.7377 62.528C88.5697 60.8 89.711 59.488 91.1617 58.592C92.6124 57.6747 94.255 57.216 96.0897 57.216C97.9457 57.216 99.5884 57.6747 101.018 58.592C102.468 59.488 103.61 60.8 104.442 62.528C105.274 64.256 105.69 66.3467 105.69 68.8C105.69 71.2533 105.274 73.344 104.442 75.072C103.61 76.8 102.468 78.1227 101.018 79.04C99.5884 79.936 97.9457 80.384 96.0897 80.384ZM96.0897 76C96.9644 76 97.7217 75.7547 98.3617 75.264C99.023 74.7733 99.535 73.9947 99.8977 72.928C100.282 71.8613 100.474 70.4853 100.474 68.8C100.474 67.1147 100.282 65.7387 99.8977 64.672C99.535 63.6053 99.023 62.8267 98.3617 62.336C97.7217 61.8453 96.9644 61.6 96.0897 61.6C95.2364 61.6 94.479 61.8453 93.8177 62.336C93.1777 62.8267 92.6657 63.6053 92.2817 64.672C91.919 65.7387 91.7377 67.1147 91.7377 68.8C91.7377 70.4853 91.919 71.8613 92.2817 72.928C92.6657 73.9947 93.1777 74.7733 93.8177 75.264C94.479 75.7547 95.2364 76 96.0897 76Z" fill="#D0FF4B"/>
</svg>
