<svg width="16" height="16" viewBox="0 0 16 16" fill="none" xmlns="http://www.w3.org/2000/svg">
<g filter="url(#filter0_d_12707_189080)">
<path d="M6.93329 1.06689C6.79184 1.06689 6.65619 1.12308 6.55617 1.2231C6.45615 1.32312 6.39996 1.45878 6.39996 1.60023C6.39996 4.29729 2.66663 6.40023 2.66663 10.1336C2.66663 12.9697 5.74049 14.8034 6.82288 14.9221C6.85918 14.9298 6.89619 14.9336 6.93329 14.9336C7.07474 14.9336 7.2104 14.8774 7.31042 14.7774C7.41044 14.6773 7.46663 14.5417 7.46663 14.4002C7.46659 14.321 7.4489 14.2428 7.41484 14.1712C7.38079 14.0997 7.33122 14.0367 7.26975 13.9867V13.9856C6.78442 13.592 5.86663 12.4502 5.86663 11.4075C5.86663 9.69605 7.46663 9.06689 7.46663 9.06689C6.55409 11.6482 9.54419 11.9601 10.1458 14.5159H10.1468C10.1731 14.6342 10.2389 14.74 10.3334 14.816C10.4279 14.8919 10.5454 14.9334 10.6666 14.9336C10.7789 14.9333 10.8883 14.8976 10.9791 14.8315C10.9887 14.8245 10.9981 14.8172 11.0073 14.8096C11.0941 14.7532 13.3333 13.2722 13.3333 10.1336C13.3333 8.85217 12.6924 6.65116 12.2312 5.67627L12.2302 5.67314L12.2291 5.67106C12.1899 5.57157 12.1216 5.48619 12.0332 5.426C11.9447 5.36582 11.8403 5.33361 11.7333 5.33356C11.6087 5.33368 11.4881 5.37739 11.3924 5.45711C11.2967 5.53683 11.232 5.64753 11.2093 5.77002V5.7721C11.208 5.77793 10.9631 6.86584 10.1333 7.4669C10.1333 4.95402 8.31909 2.35842 7.36246 1.2846C7.3481 1.26516 7.33244 1.24671 7.31559 1.22939C7.26597 1.17811 7.20658 1.13731 7.14091 1.1094C7.07524 1.08148 7.00465 1.06703 6.93329 1.06689Z" fill="#FFC224"/>
</g>
<defs>
<filter id="filter0_d_12707_189080" x="-4.33337" y="-5.93311" width="24.6666" height="27.8667" filterUnits="userSpaceOnUse" color-interpolation-filters="sRGB">
<feFlood flood-opacity="0" result="BackgroundImageFix"/>
<feColorMatrix in="SourceAlpha" type="matrix" values="0 0 0 0 0 0 0 0 0 0 0 0 0 0 0 0 0 0 127 0" result="hardAlpha"/>
<feOffset/>
<feGaussianBlur stdDeviation="3.5"/>
<feComposite in2="hardAlpha" operator="out"/>
<feColorMatrix type="matrix" values="0 0 0 0 1 0 0 0 0 0.648333 0 0 0 0 0.120833 0 0 0 0.8 0"/>
<feBlend mode="normal" in2="BackgroundImageFix" result="effect1_dropShadow_12707_189080"/>
<feBlend mode="normal" in="SourceGraphic" in2="effect1_dropShadow_12707_189080" result="shape"/>
</filter>
</defs>
</svg>
