<svg width="25" height="25" viewBox="0 0 25 25" fill="none" xmlns="http://www.w3.org/2000/svg">
<circle cx="12.5" cy="12.5" r="11.5" stroke="#FFDD85" stroke-width="2"/>
<path d="M13.28 18.98C13.28 19.2733 13.1867 19.52 13 19.72C12.8133 19.9067 12.5733 20 12.28 20C12 20 11.76 19.9067 11.56 19.72C11.3733 19.52 11.28 19.2733 11.28 18.98V10.42C11.28 10.1267 11.3733 9.88667 11.56 9.7C11.76 9.5 12 9.4 12.28 9.4C12.5733 9.4 12.8133 9.5 13 9.7C13.1867 9.88667 13.28 10.1267 13.28 10.42V18.98ZM12.26 8.08C11.8733 8.08 11.5933 8.01333 11.42 7.88C11.2467 7.73333 11.16 7.49333 11.16 7.16V6.84C11.16 6.50667 11.2533 6.27333 11.44 6.14C11.6267 6.00667 11.9067 5.94 12.28 5.94C12.68 5.94 12.9667 6.01333 13.14 6.16C13.3133 6.29333 13.4 6.52 13.4 6.84V7.16C13.4 7.50667 13.3067 7.74667 13.12 7.88C12.9467 8.01333 12.66 8.08 12.26 8.08Z" fill="#FFDD85"/>
</svg>
