<svg width="28" height="28" viewBox="0 0 28 28" fill="none" xmlns="http://www.w3.org/2000/svg">
<path fill-rule="evenodd" clip-rule="evenodd" d="M13.125 23.0417V18.0833C13.125 17.6003 13.517 17.2083 14 17.2083C14.483 17.2083 14.875 17.6003 14.875 18.0833V23.0417H19.1952C19.5977 23.0417 19.9477 22.7687 20.0445 22.379C21.5588 16.3135 23.3263 7.67667 14.4958 1.61234C14.1972 1.407 13.8052 1.407 13.5065 1.61117C4.62815 7.67434 6.47615 16.31 7.95432 22.3743C8.04998 22.7663 8.40115 23.0417 8.80482 23.0417H13.125ZM14 7.29167C11.907 7.29167 10.2083 8.99034 10.2083 11.0833C10.2083 13.1763 11.907 14.875 14 14.875C16.093 14.875 17.7917 13.1763 17.7917 11.0833C17.7917 8.99034 16.093 7.29167 14 7.29167ZM19.1532 24.2083H8.84682L9.77199 26.0575C9.92015 26.3538 10.2235 26.5417 10.5548 26.5417H17.4452C17.7765 26.5417 18.0798 26.3538 18.228 26.0575L19.1532 24.2083ZM5.58248 15.3463L5.13682 15.792C3.88848 17.0403 3.30982 18.809 3.57815 20.5532C3.92115 22.7815 4.38549 25.7997 4.38549 25.7997C4.44032 26.1613 4.71565 26.4495 5.07382 26.5242C5.43199 26.5977 5.79832 26.4402 5.99199 26.1298L7.49232 23.73C7.16798 23.4582 6.92649 23.0848 6.82149 22.6497C6.28599 20.4575 5.72248 17.9515 5.58248 15.3463ZM22.4221 15.3522C22.288 17.9597 21.7245 20.4668 21.1762 22.6613C21.0688 23.0907 20.8297 23.4605 20.5077 23.73L22.008 26.1298C22.2017 26.4402 22.568 26.5977 22.9261 26.5242C23.2843 26.4495 23.5597 26.1613 23.6145 25.7997C23.6145 25.7997 24.0788 22.7815 24.4218 20.5532C24.6902 18.809 24.1115 17.0403 22.8631 15.792L22.4221 15.3522Z" fill="white" fill-opacity="0.87"/>
</svg>
