<svg width="16" height="16" viewBox="0 0 16 16" fill="none" xmlns="http://www.w3.org/2000/svg">
<g id="icons8-fire 1" clip-path="url(#clip0_16993_18134)">
<g id="Vector" filter="url(#filter0_d_16993_18134)">
<path d="M6.93335 1.06665C6.79191 1.06665 6.65625 1.12284 6.55623 1.22286C6.45621 1.32288 6.40002 1.45853 6.40002 1.59998C6.40002 4.29705 2.66669 6.39998 2.66669 10.1333C2.66669 12.9695 5.74055 14.8032 6.82294 14.9219C6.85924 14.9295 6.89625 14.9333 6.93335 14.9333C7.0748 14.9333 7.21046 14.8771 7.31048 14.7771C7.4105 14.6771 7.46669 14.5414 7.46669 14.4C7.46665 14.3208 7.44896 14.2425 7.4149 14.171C7.38085 14.0995 7.33128 14.0364 7.26981 13.9864V13.9854C6.78448 13.5918 5.86669 12.4499 5.86669 11.4073C5.86669 9.69581 7.46669 9.06665 7.46669 9.06665C6.55415 11.648 9.54425 11.9599 10.1459 14.5156H10.1469C10.1732 14.6339 10.239 14.7398 10.3335 14.8157C10.4279 14.8916 10.5455 14.9331 10.6667 14.9333C10.779 14.933 10.8884 14.8973 10.9792 14.8312C10.9888 14.8243 10.9982 14.817 11.0073 14.8094C11.0941 14.753 13.3334 13.272 13.3334 10.1333C13.3334 8.85192 12.6925 6.65092 12.2313 5.67603L12.2302 5.6729L12.2292 5.67082C12.1899 5.57133 12.1216 5.48595 12.0332 5.42576C11.9448 5.36557 11.8403 5.33337 11.7334 5.33332C11.6088 5.33343 11.4882 5.37714 11.3925 5.45687C11.2968 5.53659 11.232 5.64729 11.2094 5.76978V5.77186C11.2081 5.77769 10.9631 6.8656 10.1334 7.46665C10.1334 4.95378 8.31915 2.35818 7.36252 1.28436C7.34817 1.26492 7.3325 1.24647 7.31565 1.22915C7.26603 1.17787 7.20664 1.13706 7.14097 1.10915C7.07531 1.08124 7.00471 1.06679 6.93335 1.06665Z" fill="#D0FF4B"/>
</g>
</g>
<defs>
<filter id="filter0_d_16993_18134" x="-4.33331" y="-5.93335" width="24.6667" height="27.8666" filterUnits="userSpaceOnUse" color-interpolation-filters="sRGB">
<feFlood flood-opacity="0" result="BackgroundImageFix"/>
<feColorMatrix in="SourceAlpha" type="matrix" values="0 0 0 0 0 0 0 0 0 0 0 0 0 0 0 0 0 0 127 0" result="hardAlpha"/>
<feOffset/>
<feGaussianBlur stdDeviation="3.5"/>
<feComposite in2="hardAlpha" operator="out"/>
<feColorMatrix type="matrix" values="0 0 0 0 0.507667 0 0 0 0 1 0 0 0 0 0.120833 0 0 0 0.8 0"/>
<feBlend mode="normal" in2="BackgroundImageFix" result="effect1_dropShadow_16993_18134"/>
<feBlend mode="normal" in="SourceGraphic" in2="effect1_dropShadow_16993_18134" result="shape"/>
</filter>
<clipPath id="clip0_16993_18134">
<rect width="16" height="16" fill="white"/>
</clipPath>
</defs>
</svg>
