<svg width="13" height="15" viewBox="0 0 13 15" fill="none" xmlns="http://www.w3.org/2000/svg">
<path d="M6.48958 0.8243C6.313 0.82706 6.14473 0.899767 6.02169 1.02646C5.89866 1.15316 5.83092 1.32349 5.83333 1.50008V2.20581C2.83839 2.53904 0.5 5.08385 0.5 8.16675C0.5 11.4754 3.192 14.1667 6.5 14.1667C9.808 14.1667 12.5 11.4754 12.5 8.16675C12.5 5.08385 10.1616 2.53904 7.16667 2.20581V1.50008C7.16789 1.41089 7.1512 1.32236 7.11759 1.23973C7.08398 1.1571 7.03413 1.08206 6.97099 1.01905C6.90786 0.956033 6.83272 0.906328 6.75003 0.872877C6.66734 0.839425 6.57877 0.822907 6.48958 0.8243ZM6.5 4.16675C6.868 4.16675 7.16667 4.46541 7.16667 4.83342V7.89071L8.79427 9.51831C9.05427 9.77831 9.05427 10.201 8.79427 10.461C8.53427 10.7217 8.11223 10.7217 7.85156 10.461L6.02865 8.6381C5.90331 8.51277 5.83333 8.34341 5.83333 8.16675V4.83342C5.83333 4.46541 6.132 4.16675 6.5 4.16675Z" fill="white" fill-opacity="0.87"/>
</svg>
