<svg width="16" height="16" viewBox="0 0 16 16" fill="none" xmlns="http://www.w3.org/2000/svg">
<path d="M3.5 1.99999C2.71488 1.99999 2.06881 2.61913 2.01107 3.39061C2.00337 3.42655 1.99966 3.46323 2 3.49999V4.49999V4.99999V12.5C2 13.3225 2.6775 14 3.5 14H12.5C13.3225 14 14 13.3225 14 12.5V5.49999C14 4.67749 13.3225 3.99999 12.5 3.99999H3.5C3.21783 3.99999 3 3.78216 3 3.49999C3 3.21782 3.21783 2.99999 3.5 2.99999H11.8333C11.8996 3.00093 11.9654 2.98869 12.0269 2.96398C12.0883 2.93927 12.1443 2.90259 12.1915 2.85607C12.2387 2.80955 12.2761 2.75411 12.3017 2.69298C12.3273 2.63185 12.3405 2.56625 12.3405 2.49999C12.3405 2.43373 12.3273 2.36812 12.3017 2.307C12.2761 2.24587 12.2387 2.19043 12.1915 2.14391C12.1443 2.09739 12.0883 2.06071 12.0269 2.036C11.9654 2.01129 11.8996 1.99905 11.8333 1.99999H3.5ZM3 4.99999H3.5H12.5C12.7822 4.99999 13 5.21782 13 5.49999V12.5C13 12.7822 12.7822 13 12.5 13H3.5C3.21783 13 3 12.7822 3 12.5V4.99999ZM11.1667 7.99999C10.9457 7.99999 10.7337 8.08779 10.5774 8.24407C10.4211 8.40035 10.3333 8.61231 10.3333 8.83332C10.3333 9.05434 10.4211 9.2663 10.5774 9.42258C10.7337 9.57886 10.9457 9.66666 11.1667 9.66666C11.3877 9.66666 11.5996 9.57886 11.7559 9.42258C11.9122 9.2663 12 9.05434 12 8.83332C12 8.61231 11.9122 8.40035 11.7559 8.24407C11.5996 8.08779 11.3877 7.99999 11.1667 7.99999Z" fill="white" fill-opacity="0.87"/>
</svg>
