<svg width="16" height="16" viewBox="0 0 16 16" fill="none" xmlns="http://www.w3.org/2000/svg">
<path fill-rule="evenodd" clip-rule="evenodd" d="M4.58974 9.21098H2.25641C1.56359 9.21098 1 9.75953 1 10.4338V14.2771C1 14.9515 1.56359 15.5 2.25641 15.5H4.58974V9.21098ZM9.07692 7.46404H6.92308C6.23026 7.46404 5.66667 8.01258 5.66667 8.6869V15.5H10.3333V8.6869C10.3333 8.01258 9.76974 7.46404 9.07692 7.46404ZM13.7436 10.9579H11.4103V15.5H13.7436C14.4364 15.5 15 14.9515 15 14.2771V12.1808C15 11.5065 14.4364 10.9579 13.7436 10.9579ZM11.1116 2.676C11.0484 2.48663 10.8797 2.34757 10.6772 2.31892L9.16092 2.1051L8.48318 0.768331C8.30226 0.410556 7.69846 0.410556 7.51754 0.768331L6.83979 2.1051L5.32349 2.31892C5.12103 2.34757 4.95231 2.48663 4.88913 2.676C4.82595 2.86537 4.87836 3.0736 5.02554 3.21336L6.12256 4.25384L5.86338 5.72268C5.82892 5.91973 5.91149 6.11889 6.07733 6.23558C6.24318 6.35368 6.46287 6.36835 6.64451 6.27541L8.00072 5.58152L9.35621 6.27541C9.43518 6.31594 9.52062 6.33551 9.60677 6.33551C9.71805 6.33551 9.82933 6.30197 9.92338 6.23558C10.0892 6.11889 10.1718 5.91973 10.1373 5.72268L9.87815 4.25384L10.9752 3.21336C11.1224 3.0736 11.1748 2.86537 11.1116 2.676Z" fill="url(#paint0_linear_14691_232575)"/>
<defs>
<linearGradient id="paint0_linear_14691_232575" x1="17.226" y1="8" x2="-1.41206" y2="9.51081" gradientUnits="userSpaceOnUse">
<stop stop-color="#F703D9"/>
<stop offset="0.427083" stop-color="#795AF4"/>
<stop offset="0.921875" stop-color="#04AEFC"/>
</linearGradient>
</defs>
</svg>
