<svg width="16" height="16" viewBox="0 0 16 16" fill="none" xmlns="http://www.w3.org/2000/svg">
<path d="M3.9974 1.33325C3.26406 1.33325 2.66406 1.93325 2.66406 2.66659V13.3333C2.66406 14.0666 3.26406 14.6666 3.9974 14.6666H7.67708C7.36375 14.2666 7.1237 13.8199 6.95703 13.3333H3.9974V2.66659H11.9974V6.68612L13.3307 6.95955V2.66659C13.3307 1.93325 12.7307 1.33325 11.9974 1.33325H3.9974ZM5.33073 4.66659V5.99992H10.6641V4.66659H5.33073ZM5.33073 7.33325V8.66658H7.67708C8.07708 8.11992 8.59026 7.66658 9.18359 7.33325H5.33073ZM11.6641 7.99992C10.7981 7.99992 9.99314 8.3029 9.36458 8.81632C8.52746 9.48526 7.9974 10.5188 7.9974 11.6666C7.9974 11.8039 8.00554 11.9416 8.02214 12.0767C8.22689 13.9061 9.78316 15.3333 11.6641 15.3333C12.4337 15.3333 13.1485 15.0931 13.7396 14.6848L15.026 15.9713L15.9688 15.0286L14.6823 13.7421C15.0906 13.151 15.3307 12.4363 15.3307 11.6666C15.3307 9.64782 13.6828 7.99992 11.6641 7.99992ZM11.9974 9.3658C13.1357 9.52592 13.9974 10.4797 13.9974 11.6666C13.9974 12.9678 12.9653 13.9999 11.6641 13.9999C10.4791 13.9999 9.52499 13.132 9.36198 11.9999H11.9974V9.3658ZM5.33073 9.99992V11.3333H6.68359C6.70359 10.8666 6.79703 10.4199 6.95703 9.99992H5.33073Z" fill="url(#paint0_linear_14691_232560)"/>
<defs>
<linearGradient id="paint0_linear_14691_232560" x1="18.0842" y1="8.65226" x2="0.365821" y2="10.0509" gradientUnits="userSpaceOnUse">
<stop stop-color="#F703D9"/>
<stop offset="0.427083" stop-color="#795AF4"/>
<stop offset="0.921875" stop-color="#04AEFC"/>
</linearGradient>
</defs>
</svg>
