<svg width="16" height="16" viewBox="0 0 16 16" fill="none" xmlns="http://www.w3.org/2000/svg">
<g clip-path="url(#clip0_14691_232565)">
<path fill-rule="evenodd" clip-rule="evenodd" d="M3.48956 5.83405C4.92496 5.83405 6.08859 4.67042 6.08859 3.23502C6.08859 1.79961 4.92496 0.635986 3.48956 0.635986C2.05415 0.635986 0.890527 1.79961 0.890527 3.23502C0.890527 4.67042 2.05415 5.83405 3.48956 5.83405ZM3.48956 6.77156C2.57069 6.77156 1.73262 6.41922 1.10316 5.84266C0.424625 6.47966 0 7.38419 0 8.38613V8.85488H6.97916V8.38613C6.97916 7.38419 6.55456 6.47966 5.876 5.84263C5.24653 6.41919 4.40847 6.77156 3.48956 6.77156ZM11.3997 12.1675C12.4347 12.1675 13.3857 11.8016 14.1306 11.1926C15.2652 12.0317 16.0024 13.3789 16.0024 14.8953V15.364H6.79688V14.8953C6.79688 13.3789 7.53406 12.0317 8.66869 11.1926C9.41363 11.8016 10.3647 12.1675 11.3997 12.1675ZM13.787 10.2387C15.1083 8.91736 15.1083 6.77502 13.787 5.45366C12.4656 4.1323 10.3233 4.1323 9.00191 5.45366C7.68055 6.77502 7.68055 8.91736 9.00191 10.2387C10.3233 11.5601 12.4656 11.5601 13.787 10.2387ZM3.97423 13.045L3.43381 12.4599L4.03436 11.8097L5.6 13.5048L4.03436 15.2L3.43381 14.5497L3.97423 13.9646H0V10.4H0.849308V13.045H3.97423Z" fill="url(#paint0_linear_14691_232565)"/>
</g>
<defs>
<linearGradient id="paint0_linear_14691_232565" x1="18.5468" y1="7.99999" x2="-2.70778" y2="10.0057" gradientUnits="userSpaceOnUse">
<stop stop-color="#F703D9"/>
<stop offset="0.427083" stop-color="#795AF4"/>
<stop offset="0.921875" stop-color="#04AEFC"/>
</linearGradient>
<clipPath id="clip0_14691_232565">
<rect width="16" height="16" fill="white"/>
</clipPath>
</defs>
</svg>
