<svg width="16" height="16" viewBox="0 0 16 16" fill="none" xmlns="http://www.w3.org/2000/svg">
<path d="M12.0026 10V4C12.0026 2.89533 11.1073 2 10.0026 2H3.33594C2.23127 2 1.33594 2.89533 1.33594 4V5.33333C1.33594 5.70133 1.6346 6 2.0026 6H3.33594V12C3.33594 13.1047 4.23127 14 5.33594 14H12.6693C13.7739 14 14.6693 13.1047 14.6693 12V10.6667C14.6693 10.2987 14.3706 10 14.0026 10H12.0026ZM10.0026 8C10.0026 8.368 9.70394 8.66667 9.33594 8.66667H6.0026C5.6346 8.66667 5.33594 8.368 5.33594 8C5.33594 7.632 5.6346 7.33333 6.0026 7.33333H9.33594C9.70394 7.33333 10.0026 7.632 10.0026 8ZM10.0026 10.6667C10.0026 11.0347 9.70394 11.3333 9.33594 11.3333H6.0026C5.6346 11.3333 5.33594 11.0347 5.33594 10.6667C5.33594 10.2987 5.6346 10 6.0026 10H9.33594C9.70394 10 10.0026 10.2987 10.0026 10.6667ZM2.66927 4C2.66927 3.632 2.9686 3.33333 3.33594 3.33333H8.1166C8.04327 3.542 8.0026 3.766 8.0026 4V4.66667H2.66927V4ZM13.3359 12C13.3359 12.368 13.0366 12.6667 12.6693 12.6667C12.3019 12.6667 12.0026 12.368 12.0026 12V11.3333H13.3359V12Z" fill="url(#paint0_linear_14691_232580)"/>
<defs>
<linearGradient id="paint0_linear_14691_232580" x1="16.7892" y1="8" x2="-0.913051" y2="9.70828" gradientUnits="userSpaceOnUse">
<stop stop-color="#F703D9"/>
<stop offset="0.427083" stop-color="#795AF4"/>
<stop offset="0.921875" stop-color="#04AEFC"/>
</linearGradient>
</defs>
</svg>
