<svg width="24" height="24" viewBox="0 0 24 24" fill="none" xmlns="http://www.w3.org/2000/svg">
<path d="M5.00003 0C4.84903 0 4.69804 0.0625469 4.60354 0.185547L3.14065 2.08594C2.40465 3.04194 2.00003 4.23245 2.00003 5.43945V8.28125L0.732449 9.55078C0.260449 10.0228 2.66276e-05 10.6504 2.66276e-05 11.3184V12.4883C2.66276e-05 12.7643 0.224027 12.9883 0.500027 12.9883H1.50003V13.9883C1.50003 14.5403 1.94703 14.9883 2.50003 14.9883C3.05303 14.9883 3.50003 14.5413 3.50003 13.9883V12.9883H6.50003V13.9883C6.50003 14.5403 6.94703 14.9883 7.50003 14.9883C8.05303 14.9883 8.50003 14.5413 8.50003 13.9883V12.9883H9.50003C9.77603 12.9883 10 12.7653 10 12.4883V11.3184C10 10.6504 9.7396 10.0228 9.2676 9.55078L8.00003 8.28125V5.43945C8.00003 4.23245 7.5944 3.04289 6.8594 2.08789L5.39651 0.185547C5.30201 0.0625469 5.15103 0 5.00003 0ZM21.6582 4.00586C21.6456 4.00744 21.6337 4.01534 21.6211 4.01758C21.5071 4.03267 21.4028 4.07836 21.3086 4.14062L18.7774 5.60156C18.5144 5.75256 18.3682 6.04766 18.4082 6.34766C18.4472 6.64866 18.6641 6.89561 18.9571 6.97461L20.0684 7.27148C18.141 11.8151 14.6132 15.0739 9.53714 16.9688C4.97514 18.6717 0.813558 18.5801 0.769558 18.5801C0.344558 18.5591 0.0120266 18.8955 2.66276e-05 19.3105C-0.0109734 19.7235 0.314542 20.0681 0.728542 20.0801C0.736542 20.0801 0.779495 20.0801 0.855495 20.0801C2.3535 20.0801 16.5229 19.7435 21.5313 7.66406L23.0567 8.07227C23.1207 8.08927 23.186 8.09766 23.25 8.09766C23.479 8.09766 23.7007 7.99269 23.8457 7.80469C24.0297 7.56369 24.0524 7.23566 23.9004 6.97266L22.4004 4.375C22.2452 4.10575 21.9479 3.96967 21.6582 4.00586ZM21.75 10C21.198 10 20.75 10.448 20.75 11V23C20.75 23.552 21.198 24 21.75 24C22.302 24 22.75 23.552 22.75 23V11C22.75 10.448 22.302 10 21.75 10ZM15.75 17C15.198 17 14.75 17.448 14.75 18V23C14.75 23.552 15.198 24 15.75 24C16.302 24 16.75 23.552 16.75 23V18C16.75 17.448 16.302 17 15.75 17ZM9.75003 20C9.19803 20 8.75003 20.448 8.75003 21V23C8.75003 23.552 9.19803 24 9.75003 24C10.302 24 10.75 23.552 10.75 23V21C10.75 20.448 10.302 20 9.75003 20ZM3.75003 21.5C3.19803 21.5 2.75003 21.948 2.75003 22.5V23C2.75003 23.552 3.19803 24 3.75003 24C4.30203 24 4.75003 23.552 4.75003 23V22.5C4.75003 21.948 4.30203 21.5 3.75003 21.5Z" fill="url(#paint0_linear_12714_189436)"/>
<defs>
<linearGradient id="paint0_linear_12714_189436" x1="27.8168" y1="12" x2="-4.10453" y2="14.7725" gradientUnits="userSpaceOnUse">
<stop stop-color="#F703D9"/>
<stop offset="0.427083" stop-color="#795AF4"/>
<stop offset="0.921875" stop-color="#04AEFC"/>
</linearGradient>
</defs>
</svg>
