<svg width="24" height="24" viewBox="0 0 24 24" fill="none" xmlns="http://www.w3.org/2000/svg">
<path d="M21.1538 3C21.6199 3 22 3.37435 22 3.83333V21.1667C22 21.6257 21.6199 22 21.1538 22H18.9103C18.4442 22 18.0641 21.6257 18.0641 21.1667V3.83333C18.0641 3.37435 18.4442 3 18.9103 3H21.1538ZM13.6218 9.66667C14.0878 9.66667 14.4679 10.041 14.4679 10.5V21.1667C14.4679 21.6257 14.0878 22 13.6218 22H11.3782C10.9122 22 10.5321 21.6257 10.5321 21.1667V10.5C10.5321 10.041 10.9122 9.66667 11.3782 9.66667H13.6218ZM6.08974 13.8333C6.55579 13.8333 6.9359 14.2077 6.9359 14.6667V21.1667C6.9359 21.6257 6.55579 22 6.08974 22H3.84615C3.38011 22 3 21.6257 3 21.1667V14.6667C3 14.2077 3.38011 13.8333 3.84615 13.8333H6.08974Z" fill="#78F363"/>
<path d="M2.84619 6.05241L4.48561 7.66699L7.81734 4.38574L9.56254 6.10449V1.07845H4.45917L6.17792 2.77116L2.84619 6.05241Z" fill="#78F363"/>
</svg>
