<svg width="20" height="21" viewBox="0 0 20 21" fill="none" xmlns="http://www.w3.org/2000/svg">
<path d="M0.846154 2C0.380108 2 0 2.37435 0 2.83333V20.1667C0 20.6257 0.380108 21 0.846154 21H3.08974C3.55579 21 3.9359 20.6257 3.9359 20.1667V2.83333C3.9359 2.37435 3.55579 2 3.08974 2H0.846154ZM14.0769 0.078125L12.4375 1.69271L15.7692 4.97396L14.0505 6.66667H19.1538V1.64062L17.4087 3.35938L14.0769 0.078125ZM8.37821 8.66667C7.91216 8.66667 7.53205 9.04102 7.53205 9.5V20.1667C7.53205 20.6257 7.91216 21 8.37821 21H10.6218C11.0878 21 11.4679 20.6257 11.4679 20.1667V9.5C11.4679 9.04102 11.0878 8.66667 10.6218 8.66667H8.37821ZM15.9103 12.8333C15.4442 12.8333 15.0641 13.2077 15.0641 13.6667V20.1667C15.0641 20.6257 15.4442 21 15.9103 21H18.1538C18.6199 21 19 20.6257 19 20.1667V13.6667C19 13.2077 18.6199 12.8333 18.1538 12.8333H15.9103Z" fill="#FF5656"/>
</svg>
