<svg width="16" height="16" viewBox="0 0 16 16" fill="none" xmlns="http://www.w3.org/2000/svg">
<g clip-path="url(#clip0_13096_212180)">
<path d="M3.33325 0C3.23258 0 3.13192 0.0416979 3.06892 0.123698L2.09366 1.39062C1.603 2.02796 1.33325 2.82164 1.33325 3.6263V5.52083L0.488195 6.36719C0.173528 6.68185 -8.65167e-05 7.10024 -8.65167e-05 7.54557V8.32552C-8.65167e-05 8.50952 0.149247 8.65885 0.333247 8.65885H0.999913V9.32552C0.999913 9.69352 1.29791 9.99219 1.66658 9.99219C2.03525 9.99219 2.33325 9.69419 2.33325 9.32552V8.65885H4.33325V9.32552C4.33325 9.69352 4.63125 9.99219 4.99991 9.99219C5.36858 9.99219 5.66658 9.69419 5.66658 9.32552V8.65885H6.33325C6.51725 8.65885 6.66658 8.51019 6.66658 8.32552V7.54557C6.66658 7.10024 6.49297 6.68185 6.1783 6.36719L5.33325 5.52083V3.6263C5.33325 2.82164 5.06283 2.02859 4.57283 1.39193L3.59757 0.123698C3.53457 0.0416979 3.43391 0 3.33325 0ZM14.4387 2.67057C14.4303 2.67163 14.4224 2.67689 14.414 2.67839C14.3379 2.68845 14.2684 2.7189 14.2056 2.76042L12.5181 3.73438C12.3428 3.83504 12.2454 4.03177 12.272 4.23177C12.298 4.43244 12.4426 4.59707 12.6379 4.64974L13.3788 4.84766C12.0939 7.87672 9.74206 10.0493 6.35799 11.3125C3.31665 12.4478 0.542268 12.3867 0.512934 12.3867C0.229601 12.3727 0.00791348 12.597 -8.65167e-05 12.8737C-0.00741985 13.149 0.209591 13.3787 0.485591 13.3867C0.490924 13.3867 0.519559 13.3867 0.570226 13.3867C1.5689 13.3867 11.0152 13.1623 14.3541 5.10938L15.371 5.38151C15.4137 5.39284 15.4572 5.39844 15.4999 5.39844C15.6526 5.39844 15.8004 5.32846 15.897 5.20312C16.0197 5.04246 16.0348 4.82377 15.9335 4.64844L14.9335 2.91667C14.83 2.73717 14.6318 2.64645 14.4387 2.67057ZM14.4999 6.66667C14.1319 6.66667 13.8332 6.96533 13.8332 7.33333V15.3333C13.8332 15.7013 14.1319 16 14.4999 16C14.8679 16 15.1666 15.7013 15.1666 15.3333V7.33333C15.1666 6.96533 14.8679 6.66667 14.4999 6.66667ZM10.4999 11.3333C10.1319 11.3333 9.83325 11.632 9.83325 12V15.3333C9.83325 15.7013 10.1319 16 10.4999 16C10.8679 16 11.1666 15.7013 11.1666 15.3333V12C11.1666 11.632 10.8679 11.3333 10.4999 11.3333ZM6.49991 13.3333C6.13191 13.3333 5.83325 13.632 5.83325 14V15.3333C5.83325 15.7013 6.13191 16 6.49991 16C6.86791 16 7.16658 15.7013 7.16658 15.3333V14C7.16658 13.632 6.86791 13.3333 6.49991 13.3333ZM2.49991 14.3333C2.13191 14.3333 1.83325 14.632 1.83325 15V15.3333C1.83325 15.7013 2.13191 16 2.49991 16C2.86791 16 3.16658 15.7013 3.16658 15.3333V15C3.16658 14.632 2.86791 14.3333 2.49991 14.3333Z" fill="url(#paint0_linear_13096_212180)"/>
</g>
<defs>
<linearGradient id="paint0_linear_13096_212180" x1="18.5445" y1="8" x2="-2.73646" y2="9.84833" gradientUnits="userSpaceOnUse">
<stop stop-color="#F703D9"/>
<stop offset="0.427083" stop-color="#795AF4"/>
<stop offset="0.921875" stop-color="#04AEFC"/>
</linearGradient>
<clipPath id="clip0_13096_212180">
<rect width="16" height="16" fill="white"/>
</clipPath>
</defs>
</svg>
