<svg width="16" height="16" viewBox="0 0 16 16" fill="none" xmlns="http://www.w3.org/2000/svg">
<path fill-rule="evenodd" clip-rule="evenodd" d="M2.99041 5.11111L1.89746 4.03472L4.11861 1.84722L2.97278 0.71875H6.37502V4.06944L5.21156 2.92361L2.99041 5.11111ZM14.6667 2.55534C14.6667 2.24935 14.4133 1.99978 14.1026 1.99978H12.6068C12.2961 1.99978 12.0427 2.24935 12.0427 2.55534V14.1109C12.0427 14.4169 12.2961 14.6665 12.6068 14.6665H14.1026C14.4133 14.6665 14.6667 14.4169 14.6667 14.1109V2.55534ZM9.64529 6.99978C9.64529 6.69379 9.39188 6.44423 9.08119 6.44423H7.58546C7.27476 6.44423 7.02136 6.69379 7.02136 6.99978V14.1109C7.02136 14.4169 7.27476 14.6665 7.58546 14.6665H9.08119C9.39188 14.6665 9.64529 14.4169 9.64529 14.1109V6.99978ZM4.62392 9.77756C4.62392 9.47157 4.37051 9.222 4.05982 9.222H2.56409C2.2534 9.222 1.99999 9.47157 1.99999 9.77756V14.1109C1.99999 14.4169 2.2534 14.6665 2.56409 14.6665H4.05982C4.37051 14.6665 4.62392 14.4169 4.62392 14.1109V9.77756Z" fill="url(#paint0_linear_13096_212185)"/>
<defs>
<linearGradient id="paint0_linear_13096_212185" x1="-0.132812" y1="7.6926" x2="16.8709" y2="9.0446" gradientUnits="userSpaceOnUse">
<stop stop-color="#F703D9"/>
<stop offset="0.427083" stop-color="#795AF4"/>
<stop offset="0.921875" stop-color="#04AEFC"/>
</linearGradient>
</defs>
</svg>
