<svg width="16" height="16" viewBox="0 0 16 16" fill="none" xmlns="http://www.w3.org/2000/svg">
<path d="M1.89744 2C1.58674 2 1.33334 2.24957 1.33334 2.55556V14.1111C1.33334 14.4171 1.58674 14.6667 1.89744 14.6667H3.39316C3.70386 14.6667 3.95727 14.4171 3.95727 14.1111V2.55556C3.95727 2.24957 3.70386 2 3.39316 2H1.89744ZM10.718 0.71875L9.625 1.79514L11.8462 3.98264L10.7003 5.11111H14.1026V1.76042L12.9391 2.90625L10.718 0.71875ZM6.91881 6.44444C6.60811 6.44444 6.3547 6.69401 6.3547 7V14.1111C6.3547 14.4171 6.60811 14.6667 6.91881 14.6667H8.41453C8.72523 14.6667 8.97863 14.4171 8.97863 14.1111V7C8.97863 6.69401 8.72523 6.44444 8.41453 6.44444H6.91881ZM11.9402 9.22222C11.6295 9.22222 11.3761 9.47179 11.3761 9.77778V14.1111C11.3761 14.4171 11.6295 14.6667 11.9402 14.6667H13.4359C13.7466 14.6667 14 14.4171 14 14.1111V9.77778C14 9.47179 13.7466 9.22222 13.4359 9.22222H11.9402Z" fill="url(#paint0_linear_13096_212197)"/>
<defs>
<linearGradient id="paint0_linear_13096_212197" x1="16.1328" y1="7.69271" x2="-0.870881" y2="9.04469" gradientUnits="userSpaceOnUse">
<stop stop-color="#F703D9"/>
<stop offset="0.427083" stop-color="#795AF4"/>
<stop offset="0.921875" stop-color="#04AEFC"/>
</linearGradient>
</defs>
</svg>
