<svg width="19" height="20" viewBox="0 0 19 20" fill="none" xmlns="http://www.w3.org/2000/svg">
<path d="M18.027 10.5408C17.4324 10.4504 16.9043 10.8579 16.8191 11.439C16.6049 12.8985 15.9313 14.2302 14.871 15.2905C12.1724 17.9891 7.78466 17.987 5.0871 15.2905C2.39007 12.5929 2.39007 8.20359 5.0871 5.50657C6.10164 4.49256 7.3824 3.83142 8.8158 3.59075C9.43223 3.47377 10.095 3.45354 10.7826 3.53146C11.7268 3.64014 12.6056 3.95341 13.4076 4.41337L12.0217 4.65C11.4428 4.74931 11.0529 5.29921 11.1527 5.8787C11.2411 6.39742 11.6912 6.7638 12.2006 6.7638C12.2599 6.7638 12.3201 6.75912 12.3814 6.74869L16.0966 6.11352C16.3741 6.06573 16.6226 5.90979 16.7859 5.67901C16.949 5.44877 17.0135 5.16285 16.9656 4.88428L16.3294 1.16963C16.2317 0.590671 15.689 0.202887 15.1007 0.300073C14.5217 0.399387 14.1318 0.94982 14.2317 1.52931L14.3991 2.50702C13.3688 1.92902 12.2323 1.55507 11.0248 1.41605C10.1204 1.31312 9.24308 1.34176 8.44005 1.49557C6.59129 1.80533 4.91146 2.6718 3.58184 4.00131C0.0547501 7.52841 0.0547501 13.2676 3.58184 16.7956C5.34534 18.5596 7.66246 19.4412 9.97904 19.4412C12.2962 19.4412 14.6121 18.5597 16.3762 16.7956C17.762 15.4099 18.6434 13.6646 18.9251 11.7488C19.0105 11.1666 18.6081 10.626 18.027 10.5408Z" fill="#2574FB"/>
</svg>
