<svg width="14" height="13" viewBox="0 0 14 13" fill="none" xmlns="http://www.w3.org/2000/svg">
<path d="M11 8.5V2.5C11 1.39533 10.1047 0.5 9.00004 0.5H2.33337C1.22871 0.5 0.333374 1.39533 0.333374 2.5V3.83333C0.333374 4.20133 0.632041 4.5 1.00004 4.5H2.33337V10.5C2.33337 11.6047 3.22871 12.5 4.33337 12.5H11.6667C12.7714 12.5 13.6667 11.6047 13.6667 10.5V9.16667C13.6667 8.79867 13.368 8.5 13 8.5H11ZM9.00004 6.5C9.00004 6.868 8.70137 7.16667 8.33337 7.16667H5.00004C4.63204 7.16667 4.33337 6.868 4.33337 6.5C4.33337 6.132 4.63204 5.83333 5.00004 5.83333H8.33337C8.70137 5.83333 9.00004 6.132 9.00004 6.5ZM9.00004 9.16667C9.00004 9.53467 8.70137 9.83333 8.33337 9.83333H5.00004C4.63204 9.83333 4.33337 9.53467 4.33337 9.16667C4.33337 8.79867 4.63204 8.5 5.00004 8.5H8.33337C8.70137 8.5 9.00004 8.79867 9.00004 9.16667ZM1.66671 2.5C1.66671 2.132 1.96604 1.83333 2.33337 1.83333H7.11404C7.04071 2.042 7.00004 2.266 7.00004 2.5V3.16667H1.66671V2.5ZM12.3334 10.5C12.3334 10.868 12.034 11.1667 11.6667 11.1667C11.2994 11.1667 11 10.868 11 10.5V9.83333H12.3334V10.5Z" fill="white" fill-opacity="0.87"/>
</svg>
