<svg width="14" height="18" viewBox="0 0 14 18" fill="none" xmlns="http://www.w3.org/2000/svg">
<path d="M6.99992 0.666992C5.89485 0.666992 4.83504 1.10598 4.05364 1.88738C3.27224 2.66878 2.83325 3.72859 2.83325 4.83366C2.83325 5.93873 3.27224 6.99854 4.05364 7.77994C4.83504 8.56134 5.89485 9.00033 6.99992 9.00033C8.10499 9.00033 9.16479 8.56134 9.9462 7.77994C10.7276 6.99854 11.1666 5.93873 11.1666 4.83366C11.1666 3.72859 10.7276 2.66878 9.9462 1.88738C9.16479 1.10598 8.10499 0.666992 6.99992 0.666992ZM12.0087 10.667H1.99117C1.077 10.667 0.333252 11.4107 0.333252 12.3249V12.9587C0.333252 14.3387 1.11867 15.532 2.5445 16.3182C3.73075 16.9732 5.31325 17.3337 6.99992 17.3337C10.2108 17.3337 13.6666 15.9645 13.6666 12.9587V12.3249C13.6666 11.4107 12.9228 10.667 12.0087 10.667Z" fill="url(#paint0_linear_12919_1557)"/>
<defs>
<linearGradient id="paint0_linear_12919_1557" x1="15.7866" y1="9.00032" x2="-1.99475" y2="10.2358" gradientUnits="userSpaceOnUse">
<stop stop-color="#F703D9"/>
<stop offset="0.427083" stop-color="#795AF4"/>
<stop offset="0.921875" stop-color="#04AEFC"/>
</linearGradient>
</defs>
</svg>
