<svg width="49" height="28" viewBox="0 0 49 28" fill="none" xmlns="http://www.w3.org/2000/svg">
<g clip-path="url(#clip0_10321_70)">
<path d="M11.3265 12.2287C6.73859 11.4202 3.64926 7.10523 4.32865 2.52541L18.8471 5.08404L17.3994 13.2989L11.3265 12.2287Z" fill="url(#paint0_linear_10321_70)" stroke="url(#paint1_linear_10321_70)" stroke-width="0.474963"/>
<path d="M37.651 12.2287C42.2389 11.4202 45.3283 7.10523 44.6489 2.52541L30.1304 5.08404L31.5782 13.2989L37.651 12.2287Z" fill="url(#paint2_linear_10321_70)" stroke="url(#paint3_linear_10321_70)" stroke-width="0.474963"/>
<path d="M12.4388 14.8866C9.64736 14.3947 7.75991 11.7877 8.13401 9.00417L19.8496 11.0688L18.9738 16.0383L12.4388 14.8866Z" fill="url(#paint4_linear_10321_70)" stroke="url(#paint5_linear_10321_70)" stroke-width="0.4375"/>
<path d="M16.7348 18.7267C14.7949 19.1575 12.8726 17.9757 12.3677 16.0725L20.5096 14.2647L21.2764 17.7183L16.7348 18.7267Z" fill="url(#paint6_linear_10321_70)" stroke="url(#paint7_linear_10321_70)" stroke-width="0.306727"/>
<path d="M36.5388 14.8866C39.3302 14.3947 41.2176 11.7877 40.8435 9.00417L29.128 11.0688L30.0038 16.0383L36.5388 14.8866Z" fill="url(#paint8_linear_10321_70)" stroke="url(#paint9_linear_10321_70)" stroke-width="0.4375"/>
<path d="M32.0646 18.7265C33.9535 19.3436 35.9815 18.3541 36.6689 16.5089L28.7409 13.919L27.6424 17.2818L32.0646 18.7265Z" fill="url(#paint10_linear_10321_70)" stroke="url(#paint11_linear_10321_70)" stroke-width="0.306727"/>
<path d="M29.4219 18.4253H19.5781C19.1251 18.4253 18.7578 18.7926 18.7578 19.2456V27.1797C18.7578 27.4823 18.9243 27.7602 19.191 27.903C19.4578 28.0458 19.7814 28.0301 20.0331 27.8623L24.5 24.8844L28.9669 27.8623C29.2189 28.0303 29.5427 28.0455 29.809 27.903C30.0757 27.7602 30.2422 27.4823 30.2422 27.1797V19.2456C30.2422 18.7926 29.8749 18.4253 29.4219 18.4253Z" fill="url(#paint12_linear_10321_70)"/>
<path d="M24.5 21.0572C18.7996 21.0572 14.1615 16.4191 14.1615 10.7188C14.1615 4.98664 18.8012 0.325581 24.5 0.325581C30.1988 0.325581 34.8385 4.98664 34.8385 10.7188C34.8385 16.4191 30.2004 21.0572 24.5 21.0572Z" fill="url(#paint13_linear_10321_70)" stroke="url(#paint14_linear_10321_70)" stroke-width="0.651163"/>
<path d="M23.7025 16.4797V8.28811L24.8095 9.35601H22.0095V7.36346H26.2811V16.4797H23.7025Z" fill="#935C0A"/>
<g filter="url(#filter0_d_10321_70)">
<path d="M22.8275 15.6047V7.41311L23.9345 8.48101H21.1345V6.48846H25.4061V15.6047H22.8275Z" fill="white"/>
</g>
</g>
<defs>
<filter id="filter0_d_10321_70" x="20.2598" y="6.48846" width="7.77148" height="12.6163" filterUnits="userSpaceOnUse" color-interpolation-filters="sRGB">
<feFlood flood-opacity="0" result="BackgroundImageFix"/>
<feColorMatrix in="SourceAlpha" type="matrix" values="0 0 0 0 0 0 0 0 0 0 0 0 0 0 0 0 0 0 127 0" result="hardAlpha"/>
<feOffset dx="0.875" dy="1.75"/>
<feGaussianBlur stdDeviation="0.875"/>
<feComposite in2="hardAlpha" operator="out"/>
<feColorMatrix type="matrix" values="0 0 0 0 0 0 0 0 0 0 0 0 0 0 0 0 0 0 0.5 0"/>
<feBlend mode="normal" in2="BackgroundImageFix" result="effect1_dropShadow_10321_70"/>
<feBlend mode="normal" in="SourceGraphic" in2="effect1_dropShadow_10321_70" result="shape"/>
</filter>
<linearGradient id="paint0_linear_10321_70" x1="11.6275" y1="3.57057" x2="10.0973" y2="12.2532" gradientUnits="userSpaceOnUse">
<stop stop-color="#E2180B"/>
<stop offset="1" stop-color="#FFB7C8" stop-opacity="0"/>
</linearGradient>
<linearGradient id="paint1_linear_10321_70" x1="11.6275" y1="3.57057" x2="10.0973" y2="12.2532" gradientUnits="userSpaceOnUse">
<stop stop-color="#FFEDE6"/>
<stop offset="1" stop-color="#E06029" stop-opacity="0"/>
</linearGradient>
<linearGradient id="paint2_linear_10321_70" x1="37.35" y1="3.57057" x2="38.8802" y2="12.2532" gradientUnits="userSpaceOnUse">
<stop stop-color="#E2180B"/>
<stop offset="1" stop-color="#FFB7C8" stop-opacity="0"/>
</linearGradient>
<linearGradient id="paint3_linear_10321_70" x1="37.35" y1="3.57057" x2="38.8802" y2="12.2532" gradientUnits="userSpaceOnUse">
<stop stop-color="#FFEDE6"/>
<stop offset="1" stop-color="#E06029" stop-opacity="0"/>
</linearGradient>
<linearGradient id="paint4_linear_10321_70" x1="14.0276" y1="9.82069" x2="13.0758" y2="15.221" gradientUnits="userSpaceOnUse">
<stop stop-color="#E33610"/>
<stop offset="1" stop-color="#FFB7C8" stop-opacity="0"/>
</linearGradient>
<linearGradient id="paint5_linear_10321_70" x1="14.0276" y1="9.82069" x2="13.0758" y2="15.221" gradientUnits="userSpaceOnUse">
<stop stop-color="#FFEDE6"/>
<stop offset="1" stop-color="#E06029" stop-opacity="0"/>
</linearGradient>
<linearGradient id="paint6_linear_10321_70" x1="16.4039" y1="15.0192" x2="17.2372" y2="18.7723" gradientUnits="userSpaceOnUse">
<stop stop-color="#C23819"/>
<stop offset="1" stop-color="#FFB7C8" stop-opacity="0"/>
</linearGradient>
<linearGradient id="paint7_linear_10321_70" x1="16.4039" y1="15.0192" x2="17.2372" y2="18.7723" gradientUnits="userSpaceOnUse">
<stop stop-color="#FFEDE6"/>
<stop offset="1" stop-color="#E06029" stop-opacity="0"/>
</linearGradient>
<linearGradient id="paint8_linear_10321_70" x1="34.95" y1="9.82069" x2="35.9017" y2="15.221" gradientUnits="userSpaceOnUse">
<stop stop-color="#E33610"/>
<stop offset="1" stop-color="#FFB7C8" stop-opacity="0"/>
</linearGradient>
<linearGradient id="paint9_linear_10321_70" x1="34.95" y1="9.82069" x2="35.9017" y2="15.221" gradientUnits="userSpaceOnUse">
<stop stop-color="#FFEDE6"/>
<stop offset="1" stop-color="#E06029" stop-opacity="0"/>
</linearGradient>
<linearGradient id="paint10_linear_10321_70" x1="32.754" y1="15.0686" x2="31.5602" y2="18.723" gradientUnits="userSpaceOnUse">
<stop stop-color="#C23819"/>
<stop offset="1" stop-color="#FFB7C8" stop-opacity="0"/>
</linearGradient>
<linearGradient id="paint11_linear_10321_70" x1="32.754" y1="15.0686" x2="31.5602" y2="18.723" gradientUnits="userSpaceOnUse">
<stop stop-color="#FFEDE6"/>
<stop offset="1" stop-color="#E06029" stop-opacity="0"/>
</linearGradient>
<linearGradient id="paint12_linear_10321_70" x1="24.5" y1="28" x2="24.5" y2="18.4253" gradientUnits="userSpaceOnUse">
<stop stop-color="#BE2D0D"/>
<stop offset="1" stop-color="#FF9D66"/>
</linearGradient>
<linearGradient id="paint13_linear_10321_70" x1="24.5" y1="21.3828" x2="24.5" y2="0" gradientUnits="userSpaceOnUse">
<stop stop-color="#FFE177"/>
<stop offset="1" stop-color="#F0B110"/>
</linearGradient>
<linearGradient id="paint14_linear_10321_70" x1="30.625" y1="-8.96362e-07" x2="19.25" y2="21" gradientUnits="userSpaceOnUse">
<stop stop-color="#863B10"/>
<stop offset="0.119792" stop-color="#DAC7B0"/>
<stop offset="0.239583" stop-color="#F9E2C7"/>
<stop offset="0.354167" stop-color="#863B10"/>
<stop offset="0.458333" stop-color="#FFE7CB"/>
<stop offset="0.604167" stop-color="#DAC7B0"/>
<stop offset="0.682292" stop-color="#863B10"/>
<stop offset="0.770833" stop-color="#F9EBDC"/>
<stop offset="0.9375" stop-color="#DAC7B0"/>
<stop offset="1" stop-color="#863B10"/>
</linearGradient>
<clipPath id="clip0_10321_70">
<rect width="49" height="28" fill="white"/>
</clipPath>
</defs>
</svg>
