<svg width="48" height="48" viewBox="0 0 48 48" fill="none" xmlns="http://www.w3.org/2000/svg">
<circle cx="24" cy="24" r="20" fill="url(#paint0_linear_13613_8086)" fill-opacity="0.3"/>
<path d="M33.1774 16.4237C31.5591 15.7586 29.8287 15.2752 28.0197 15C27.7975 15.3529 27.538 15.8274 27.359 16.205C25.4359 15.9509 23.5306 15.9509 21.6429 16.205C21.4639 15.8274 21.1985 15.3529 20.9743 15C19.1633 15.2752 17.431 15.7604 15.8127 16.4273C12.5486 20.7602 11.6637 24.9855 12.1062 29.1508C14.2711 30.571 16.3692 31.4337 18.4318 31.9983C18.9411 31.3825 19.3953 30.728 19.7866 30.0382C19.0414 29.7895 18.3276 29.4825 17.6532 29.1261C17.8321 29.0097 18.0071 28.8879 18.1762 28.7627C22.2898 30.4528 26.7593 30.4528 30.8237 28.7627C30.9948 28.8879 31.1697 29.0097 31.3467 29.1261C30.6703 29.4842 29.9546 29.7912 29.2093 30.04C29.6006 30.728 30.0529 31.3843 30.5641 32C32.6288 31.4355 34.7288 30.5728 36.8937 29.1508C37.4129 24.3221 36.0069 20.1356 33.1774 16.4237ZM20.3471 26.5892C19.1122 26.5892 18.0995 25.5765 18.0995 24.3433C18.0995 23.1101 19.0906 22.0957 20.3471 22.0957C21.6036 22.0957 22.6162 23.1083 22.5946 24.3433C22.5965 25.5765 21.6036 26.5892 20.3471 26.5892ZM28.6529 26.5892C27.418 26.5892 26.4053 25.5765 26.4053 24.3433C26.4053 23.1101 27.3963 22.0957 28.6529 22.0957C29.9093 22.0957 30.922 23.1083 30.9004 24.3433C30.9004 25.5765 29.9093 26.5892 28.6529 26.5892Z" fill="url(#paint1_linear_13613_8086)"/>
<defs>
<linearGradient id="paint0_linear_13613_8086" x1="42.5903" y1="5.36364" x2="7.62247" y2="6.86587" gradientUnits="userSpaceOnUse">
<stop stop-color="#F703D9"/>
<stop offset="0.427083" stop-color="#795AF4"/>
<stop offset="0.921875" stop-color="#04AEFC"/>
</linearGradient>
<linearGradient id="paint1_linear_13613_8086" x1="40.9749" y1="23.5" x2="8.01177" y2="27.7101" gradientUnits="userSpaceOnUse">
<stop stop-color="#F703D9"/>
<stop offset="0.427083" stop-color="#795AF4"/>
<stop offset="0.921875" stop-color="#04AEFC"/>
</linearGradient>
</defs>
</svg>
