<svg width="30" height="30" viewBox="0 0 30 30" fill="none" xmlns="http://www.w3.org/2000/svg">
<path d="M15 30C23.2843 30 30 23.2843 30 15C30 6.71573 23.2843 0 15 0C6.71573 0 0 6.71573 0 15C0 23.2843 6.71573 30 15 30Z" fill="#2775CA"/>
<path d="M18.5092 16.3642C18.5092 14.4403 17.3618 13.7807 15.0671 13.5059C13.4281 13.286 13.1002 12.8463 13.1002 12.0766C13.1002 11.3069 13.6466 10.8123 14.7393 10.8123C15.7227 10.8123 16.2691 11.1422 16.5423 11.9667C16.597 12.1316 16.7609 12.2415 16.9248 12.2415H17.7988C18.0174 12.2415 18.1813 12.0766 18.1813 11.8568V11.8018C17.9628 10.5924 16.9793 9.658 15.7227 9.5481V8.22882C15.7227 8.00889 15.5588 7.84398 15.2857 7.78897H14.4662C14.2476 7.78897 14.0837 7.95388 14.029 8.22882V9.49307C12.3899 9.713 11.352 10.8123 11.352 12.1866C11.352 14.0006 12.4446 14.7151 14.7393 14.9901C16.2691 15.2649 16.7609 15.5947 16.7609 16.4742C16.7609 17.3538 15.9959 17.9584 14.9579 17.9584C13.5373 17.9584 13.0456 17.3537 12.8817 16.5291C12.8271 16.3093 12.6632 16.1993 12.4993 16.1993H11.5704C11.352 16.1993 11.188 16.3642 11.188 16.5841V16.6392C11.4065 18.0133 12.2807 19.0028 14.0837 19.2777V20.597C14.0837 20.8168 14.2476 20.9817 14.5207 21.0367H15.3403C15.5588 21.0367 15.7227 20.8718 15.7774 20.597V19.2777C17.4165 19.0028 18.5092 17.8484 18.5092 16.3642Z" fill="white"/>
<path d="M12.097 22.1879C7.82197 20.6504 5.6296 15.8729 7.21912 11.6445C8.04124 9.33808 9.84991 7.58089 12.097 6.75719C12.3163 6.64741 12.4258 6.48267 12.4258 6.20801V5.43926C12.4258 5.21957 12.3163 5.05483 12.097 5C12.0421 5 11.9326 5 11.8777 5.05483C6.671 6.70223 3.82094 12.2486 5.46518 17.4653C6.45172 20.5404 8.80851 22.9018 11.8777 23.8902C12.097 24 12.3163 23.8902 12.371 23.6705C12.4258 23.6157 12.4258 23.5607 12.4258 23.451V22.6821C12.4258 22.5173 12.2614 22.2978 12.097 22.1879ZM17.9067 5.05483C17.6874 4.94504 17.4681 5.05483 17.4134 5.27452C17.3586 5.32948 17.3586 5.38431 17.3586 5.49422V6.26297C17.3586 6.48267 17.523 6.70223 17.6874 6.81215C21.9624 8.34964 24.1548 13.1271 22.5653 17.3555C21.7432 19.6619 19.9345 21.4191 17.6874 22.2428C17.4681 22.3526 17.3586 22.5173 17.3586 22.792V23.5607C17.3586 23.7804 17.4681 23.9452 17.6874 24C17.7423 24 17.8518 24 17.9067 23.9452C23.1134 22.2978 25.9635 16.7514 24.3192 11.5347C23.3327 8.4046 20.921 6.04327 17.9067 5.05483Z" fill="white"/>
</svg>
