<svg width="16" height="16" viewBox="0 0 16 16" fill="none" xmlns="http://www.w3.org/2000/svg">
<path d="M7.01794 7.00195L10.8906 4.39363C11.0742 4.27097 11.1242 4.02294 11.0015 3.83894C10.8781 3.65417 10.6289 3.60614 10.4468 3.72801L6.57418 6.33633C6.39058 6.45899 6.34058 6.70702 6.46325 6.89102C6.58703 7.07606 6.83533 7.12369 7.01794 7.00195ZM10.8906 11.6064L7.01791 8.99803C6.83511 8.87617 6.58666 8.92499 6.46322 9.10897C6.34055 9.29294 6.39055 9.54099 6.57415 9.66366L10.4468 12.272C10.6291 12.3935 10.8775 12.3464 11.0015 12.161C11.1242 11.9771 11.0742 11.729 10.8906 11.6064Z" fill="#7B8FD7"/>
<path d="M4.8 5.20001C3.25624 5.20001 2 6.45625 2 8.00001C2 9.54377 3.25624 10.8 4.8 10.8C6.34376 10.8 7.6 9.54377 7.6 8.00001C7.6 6.45625 6.34376 5.20001 4.8 5.20001ZM12 5.17334C13.1031 5.17334 14 4.27609 14 3.17334C14 2.07059 13.1031 1.17334 12 1.17334C10.8969 1.17334 10 2.07059 10 3.17334C10 4.27609 10.8969 5.17334 12 5.17334ZM12 10.8267C10.8969 10.8267 10 11.7239 10 12.8267C10 13.9294 10.8969 14.8267 12 14.8267C13.1031 14.8267 14 13.9294 14 12.8267C14 11.7239 13.1031 10.8267 12 10.8267Z" fill="url(#paint0_linear_8839_152988)"/>
<defs>
<linearGradient id="paint0_linear_8839_152988" x1="15.908" y1="8" x2="-0.0793" y2="9.22037" gradientUnits="userSpaceOnUse">
<stop stop-color="#F703D9"/>
<stop offset="0.427083" stop-color="#795AF4"/>
<stop offset="0.921875" stop-color="#04AEFC"/>
</linearGradient>
</defs>
</svg>
