<svg width="20" height="20" viewBox="0 0 20 20" fill="none" xmlns="http://www.w3.org/2000/svg">
<circle cx="10" cy="10" r="10" fill="url(#paint0_linear_8782_152157)"/>
<path d="M8.94192 5.2381C8.36358 5.2381 7.88372 5.6927 7.88372 6.2406V7.24311H5.76732C5.47526 7.24311 5.23822 7.46767 5.23822 7.74436V13.7594C5.23822 14.3133 5.71177 14.7619 6.29642 14.7619H13.7038C14.2885 14.7619 14.762 14.3133 14.762 13.7594V7.74436C14.762 7.46767 14.525 7.24311 14.2329 7.24311H12.1165V6.2406C12.1165 5.6927 11.6367 5.2381 11.0583 5.2381H8.94192ZM8.94192 6.2406H11.0583V7.24311H8.94192V6.2406ZM8.41282 8.24562C8.70489 8.24562 8.94192 8.47018 8.94192 8.74687C8.94192 9.02356 8.70489 9.24812 8.41282 9.24812C8.12076 9.24812 7.88372 9.02356 7.88372 8.74687C7.88372 8.47018 8.12076 8.24562 8.41282 8.24562ZM11.5874 8.24562C11.8795 8.24562 12.1165 8.47018 12.1165 8.74687C12.1165 9.02356 11.8795 9.24812 11.5874 9.24812C11.2954 9.24812 11.0583 9.02356 11.0583 8.74687C11.0583 8.47018 11.2954 8.24562 11.5874 8.24562Z" fill="white"/>
<defs>
<linearGradient id="paint0_linear_8782_152157" x1="4.16667" y1="-0.833333" x2="9.15303" y2="22.2748" gradientUnits="userSpaceOnUse">
<stop stop-color="#179214"/>
<stop offset="1" stop-color="#2ECD2B"/>
</linearGradient>
</defs>
</svg>
