<svg width="417" height="32" viewBox="0 0 417 32" fill="none" xmlns="http://www.w3.org/2000/svg">
<rect width="417" height="32" fill="url(#paint0_linear_12735_190905)" fill-opacity="0.5"/>
<path d="M55 25H41C40.45 25 40 24.55 40 24V14H56V24C56 24.55 55.55 25 55 25Z" fill="#D32F2F"/>
<path d="M57 14H39V11C39 10.45 39.45 10 40 10H56C56.55 10 57 10.45 57 11V14Z" fill="#F44336"/>
<path d="M47 14H49V25H47V14ZM52 7H50L47 10H49L52 7Z" fill="#FF8F00"/>
<path d="M46 7H44L47 10V14H49V10L46 7Z" fill="#FFC107"/>
<path d="M67.368 20.5V12.1H70.512C71.224 12.1 71.836 12.216 72.348 12.448C72.86 12.672 73.252 13 73.524 13.432C73.804 13.856 73.944 14.372 73.944 14.98C73.944 15.572 73.804 16.084 73.524 16.516C73.252 16.94 72.86 17.268 72.348 17.5C71.836 17.732 71.224 17.848 70.512 17.848H67.86L68.256 17.428V20.5H67.368ZM68.256 17.5L67.86 17.068H70.488C71.328 17.068 71.964 16.888 72.396 16.528C72.836 16.16 73.056 15.644 73.056 14.98C73.056 14.308 72.836 13.788 72.396 13.42C71.964 13.052 71.328 12.868 70.488 12.868H67.86L68.256 12.448V17.5ZM75.5318 20.5V14.2H76.3478V15.916L76.2638 15.616C76.4398 15.136 76.7358 14.772 77.1518 14.524C77.5678 14.268 78.0838 14.14 78.6998 14.14V14.968C78.6678 14.968 78.6358 14.968 78.6038 14.968C78.5718 14.96 78.5398 14.956 78.5078 14.956C77.8438 14.956 77.3238 15.16 76.9478 15.568C76.5718 15.968 76.3838 16.54 76.3838 17.284V20.5H75.5318ZM80.2544 20.5V14.2H81.1064V20.5H80.2544ZM80.6864 12.808C80.5104 12.808 80.3624 12.748 80.2424 12.628C80.1224 12.508 80.0624 12.364 80.0624 12.196C80.0624 12.028 80.1224 11.888 80.2424 11.776C80.3624 11.656 80.5104 11.596 80.6864 11.596C80.8624 11.596 81.0104 11.652 81.1304 11.764C81.2504 11.876 81.3104 12.016 81.3104 12.184C81.3104 12.36 81.2504 12.508 81.1304 12.628C81.0184 12.748 80.8704 12.808 80.6864 12.808ZM82.7931 20.5V19.936L86.9931 14.62L87.1731 14.908H82.8651V14.2H87.8451V14.752L83.6571 20.08L83.4411 19.792H87.9291V20.5H82.7931ZM92.1765 20.56C91.5205 20.56 90.9445 20.424 90.4485 20.152C89.9525 19.872 89.5645 19.492 89.2845 19.012C89.0045 18.524 88.8645 17.968 88.8645 17.344C88.8645 16.72 88.9965 16.168 89.2605 15.688C89.5325 15.208 89.9005 14.832 90.3645 14.56C90.8365 14.28 91.3645 14.14 91.9485 14.14C92.5405 14.14 93.0645 14.276 93.5205 14.548C93.9845 14.812 94.3485 15.188 94.6125 15.676C94.8765 16.156 95.0085 16.712 95.0085 17.344C95.0085 17.384 95.0045 17.428 94.9965 17.476C94.9965 17.516 94.9965 17.56 94.9965 17.608H89.5125V16.972H94.5405L94.2045 17.224C94.2045 16.768 94.1045 16.364 93.9045 16.012C93.7125 15.652 93.4485 15.372 93.1125 15.172C92.7765 14.972 92.3885 14.872 91.9485 14.872C91.5165 14.872 91.1285 14.972 90.7845 15.172C90.4405 15.372 90.1725 15.652 89.9805 16.012C89.7885 16.372 89.6925 16.784 89.6925 17.248V17.38C89.6925 17.86 89.7965 18.284 90.0045 18.652C90.2205 19.012 90.5165 19.296 90.8925 19.504C91.2765 19.704 91.7125 19.804 92.2005 19.804C92.5845 19.804 92.9405 19.736 93.2685 19.6C93.6045 19.464 93.8925 19.256 94.1325 18.976L94.6125 19.528C94.3325 19.864 93.9805 20.12 93.5565 20.296C93.1405 20.472 92.6805 20.56 92.1765 20.56ZM100.063 20.5V12.1H103.207C103.919 12.1 104.531 12.216 105.043 12.448C105.555 12.672 105.947 13 106.219 13.432C106.499 13.856 106.639 14.372 106.639 14.98C106.639 15.572 106.499 16.084 106.219 16.516C105.947 16.94 105.555 17.268 105.043 17.5C104.531 17.732 103.919 17.848 103.207 17.848H100.555L100.951 17.428V20.5H100.063ZM100.951 17.5L100.555 17.068H103.183C104.023 17.068 104.659 16.888 105.091 16.528C105.531 16.16 105.751 15.644 105.751 14.98C105.751 14.308 105.531 13.788 105.091 13.42C104.659 13.052 104.023 12.868 103.183 12.868H100.555L100.951 12.448V17.5ZM110.912 20.56C110.304 20.56 109.756 20.424 109.268 20.152C108.788 19.872 108.408 19.492 108.128 19.012C107.848 18.524 107.708 17.968 107.708 17.344C107.708 16.712 107.848 16.156 108.128 15.676C108.408 15.196 108.788 14.82 109.268 14.548C109.748 14.276 110.296 14.14 110.912 14.14C111.536 14.14 112.088 14.276 112.568 14.548C113.056 14.82 113.436 15.196 113.708 15.676C113.988 16.156 114.128 16.712 114.128 17.344C114.128 17.968 113.988 18.524 113.708 19.012C113.436 19.492 113.056 19.872 112.568 20.152C112.08 20.424 111.528 20.56 110.912 20.56ZM110.912 19.804C111.368 19.804 111.772 19.704 112.124 19.504C112.476 19.296 112.752 19.008 112.952 18.64C113.16 18.264 113.264 17.832 113.264 17.344C113.264 16.848 113.16 16.416 112.952 16.048C112.752 15.68 112.476 15.396 112.124 15.196C111.772 14.988 111.372 14.884 110.924 14.884C110.476 14.884 110.076 14.988 109.724 15.196C109.372 15.396 109.092 15.68 108.884 16.048C108.676 16.416 108.572 16.848 108.572 17.344C108.572 17.832 108.676 18.264 108.884 18.64C109.092 19.008 109.372 19.296 109.724 19.504C110.076 19.704 110.472 19.804 110.912 19.804ZM118.436 20.56C117.828 20.56 117.28 20.424 116.792 20.152C116.312 19.872 115.932 19.492 115.652 19.012C115.372 18.524 115.232 17.968 115.232 17.344C115.232 16.712 115.372 16.156 115.652 15.676C115.932 15.196 116.312 14.82 116.792 14.548C117.272 14.276 117.82 14.14 118.436 14.14C119.06 14.14 119.612 14.276 120.092 14.548C120.58 14.82 120.96 15.196 121.232 15.676C121.512 16.156 121.652 16.712 121.652 17.344C121.652 17.968 121.512 18.524 121.232 19.012C120.96 19.492 120.58 19.872 120.092 20.152C119.604 20.424 119.052 20.56 118.436 20.56ZM118.436 19.804C118.892 19.804 119.296 19.704 119.648 19.504C120 19.296 120.276 19.008 120.476 18.64C120.684 18.264 120.788 17.832 120.788 17.344C120.788 16.848 120.684 16.416 120.476 16.048C120.276 15.68 120 15.396 119.648 15.196C119.296 14.988 118.896 14.884 118.448 14.884C118 14.884 117.6 14.988 117.248 15.196C116.896 15.396 116.616 15.68 116.408 16.048C116.2 16.416 116.096 16.848 116.096 17.344C116.096 17.832 116.2 18.264 116.408 18.64C116.616 19.008 116.896 19.296 117.248 19.504C117.6 19.704 117.996 19.804 118.436 19.804ZM123.391 20.5V11.596H124.243V20.5H123.391ZM126.698 15.448C126.522 15.448 126.37 15.384 126.242 15.256C126.122 15.128 126.062 14.972 126.062 14.788C126.062 14.596 126.122 14.44 126.242 14.32C126.37 14.2 126.522 14.14 126.698 14.14C126.874 14.14 127.022 14.2 127.142 14.32C127.27 14.44 127.334 14.596 127.334 14.788C127.334 14.972 127.27 15.128 127.142 15.256C127.022 15.384 126.874 15.448 126.698 15.448ZM126.698 20.56C126.522 20.56 126.37 20.496 126.242 20.368C126.122 20.24 126.062 20.084 126.062 19.9C126.062 19.708 126.122 19.552 126.242 19.432C126.37 19.312 126.522 19.252 126.698 19.252C126.874 19.252 127.022 19.312 127.142 19.432C127.27 19.552 127.334 19.708 127.334 19.9C127.334 20.084 127.27 20.24 127.142 20.368C127.022 20.496 126.874 20.56 126.698 20.56ZM134.421 20.62C133.829 20.62 133.249 20.536 132.681 20.368C132.121 20.192 131.649 19.952 131.265 19.648L131.925 18.436C132.229 18.684 132.597 18.884 133.029 19.036C133.469 19.188 133.925 19.264 134.397 19.264C134.949 19.264 135.381 19.148 135.693 18.916C136.013 18.684 136.173 18.372 136.173 17.98C136.173 17.716 136.105 17.484 135.969 17.284C135.841 17.084 135.609 16.932 135.273 16.828C134.945 16.724 134.493 16.672 133.917 16.672H131.889L132.321 12.1H137.253V13.408H132.897L133.713 12.664L133.389 16.084L132.573 15.352H134.265C135.097 15.352 135.765 15.464 136.269 15.688C136.781 15.904 137.153 16.208 137.385 16.6C137.625 16.984 137.745 17.424 137.745 17.92C137.745 18.408 137.625 18.856 137.385 19.264C137.145 19.672 136.777 20 136.281 20.248C135.793 20.496 135.173 20.62 134.421 20.62ZM142.149 20.62C141.485 20.62 140.885 20.452 140.349 20.116C139.821 19.78 139.405 19.292 139.101 18.652C138.797 18.004 138.645 17.22 138.645 16.3C138.645 15.38 138.797 14.6 139.101 13.96C139.405 13.312 139.821 12.82 140.349 12.484C140.885 12.148 141.485 11.98 142.149 11.98C142.821 11.98 143.421 12.148 143.949 12.484C144.477 12.82 144.893 13.312 145.197 13.96C145.509 14.6 145.665 15.38 145.665 16.3C145.665 17.22 145.509 18.004 145.197 18.652C144.893 19.292 144.477 19.78 143.949 20.116C143.421 20.452 142.821 20.62 142.149 20.62ZM142.149 19.264C142.541 19.264 142.881 19.16 143.169 18.952C143.457 18.736 143.681 18.408 143.841 17.968C144.009 17.528 144.093 16.972 144.093 16.3C144.093 15.62 144.009 15.064 143.841 14.632C143.681 14.192 143.457 13.868 143.169 13.66C142.881 13.444 142.541 13.336 142.149 13.336C141.773 13.336 141.437 13.444 141.141 13.66C140.853 13.868 140.625 14.192 140.457 14.632C140.297 15.064 140.217 15.62 140.217 16.3C140.217 16.972 140.297 17.528 140.457 17.968C140.625 18.408 140.853 18.736 141.141 18.952C141.437 19.16 141.773 19.264 142.149 19.264ZM150.223 20.62C149.559 20.62 148.959 20.452 148.423 20.116C147.895 19.78 147.479 19.292 147.175 18.652C146.871 18.004 146.719 17.22 146.719 16.3C146.719 15.38 146.871 14.6 147.175 13.96C147.479 13.312 147.895 12.82 148.423 12.484C148.959 12.148 149.559 11.98 150.223 11.98C150.895 11.98 151.495 12.148 152.023 12.484C152.551 12.82 152.967 13.312 153.271 13.96C153.583 14.6 153.739 15.38 153.739 16.3C153.739 17.22 153.583 18.004 153.271 18.652C152.967 19.292 152.551 19.78 152.023 20.116C151.495 20.452 150.895 20.62 150.223 20.62ZM150.223 19.264C150.615 19.264 150.955 19.16 151.243 18.952C151.531 18.736 151.755 18.408 151.915 17.968C152.083 17.528 152.167 16.972 152.167 16.3C152.167 15.62 152.083 15.064 151.915 14.632C151.755 14.192 151.531 13.868 151.243 13.66C150.955 13.444 150.615 13.336 150.223 13.336C149.847 13.336 149.511 13.444 149.215 13.66C148.927 13.868 148.699 14.192 148.531 14.632C148.371 15.064 148.291 15.62 148.291 16.3C148.291 16.972 148.371 17.528 148.531 17.968C148.699 18.408 148.927 18.736 149.215 18.952C149.511 19.16 149.847 19.264 150.223 19.264ZM162.322 20.62C161.17 20.62 160.266 20.296 159.61 19.648C158.962 19 158.638 18.064 158.638 16.84V12.1H160.198V16.78C160.198 17.644 160.382 18.272 160.75 18.664C161.126 19.056 161.654 19.252 162.334 19.252C163.014 19.252 163.538 19.056 163.906 18.664C164.274 18.272 164.458 17.644 164.458 16.78V12.1H165.994V16.84C165.994 18.064 165.666 19 165.01 19.648C164.362 20.296 163.466 20.62 162.322 20.62ZM170.783 20.62C170.127 20.62 169.499 20.528 168.899 20.344C168.299 20.152 167.823 19.908 167.471 19.612L168.011 18.4C168.347 18.664 168.763 18.884 169.259 19.06C169.755 19.236 170.263 19.324 170.783 19.324C171.223 19.324 171.579 19.276 171.851 19.18C172.123 19.084 172.323 18.956 172.451 18.796C172.579 18.628 172.643 18.44 172.643 18.232C172.643 17.976 172.551 17.772 172.367 17.62C172.183 17.46 171.943 17.336 171.647 17.248C171.359 17.152 171.035 17.064 170.675 16.984C170.323 16.904 169.967 16.812 169.607 16.708C169.255 16.596 168.931 16.456 168.635 16.288C168.347 16.112 168.111 15.88 167.927 15.592C167.743 15.304 167.651 14.936 167.651 14.488C167.651 14.032 167.771 13.616 168.011 13.24C168.259 12.856 168.631 12.552 169.127 12.328C169.631 12.096 170.267 11.98 171.035 11.98C171.539 11.98 172.039 12.044 172.535 12.172C173.031 12.3 173.463 12.484 173.831 12.724L173.339 13.936C172.963 13.712 172.575 13.548 172.175 13.444C171.775 13.332 171.391 13.276 171.023 13.276C170.591 13.276 170.239 13.328 169.967 13.432C169.703 13.536 169.507 13.672 169.379 13.84C169.259 14.008 169.199 14.2 169.199 14.416C169.199 14.672 169.287 14.88 169.463 15.04C169.647 15.192 169.883 15.312 170.171 15.4C170.467 15.488 170.795 15.576 171.155 15.664C171.515 15.744 171.871 15.836 172.223 15.94C172.583 16.044 172.907 16.18 173.195 16.348C173.491 16.516 173.727 16.744 173.903 17.032C174.087 17.32 174.179 17.684 174.179 18.124C174.179 18.572 174.055 18.988 173.807 19.372C173.567 19.748 173.195 20.052 172.691 20.284C172.187 20.508 171.551 20.62 170.783 20.62ZM175.726 20.5V12.1H179.398C180.31 12.1 181.11 12.276 181.798 12.628C182.486 12.98 183.022 13.468 183.406 14.092C183.79 14.716 183.982 15.452 183.982 16.3C183.982 17.14 183.79 17.876 183.406 18.508C183.022 19.132 182.486 19.62 181.798 19.972C181.11 20.324 180.31 20.5 179.398 20.5H175.726ZM177.286 19.18H179.326C179.958 19.18 180.502 19.06 180.958 18.82C181.422 18.58 181.778 18.244 182.026 17.812C182.282 17.38 182.41 16.876 182.41 16.3C182.41 15.716 182.282 15.212 182.026 14.788C181.778 14.356 181.422 14.02 180.958 13.78C180.502 13.54 179.958 13.42 179.326 13.42H177.286V19.18ZM187.227 20.5V13.42H184.443V12.1H191.571V13.42H188.787V20.5H187.227ZM197.826 18.844V13.756H198.582V18.844H197.826ZM195.594 16.66V15.952H200.814V16.66H195.594ZM208.109 20.62C207.517 20.62 206.937 20.536 206.369 20.368C205.809 20.192 205.337 19.952 204.953 19.648L205.613 18.436C205.917 18.684 206.285 18.884 206.717 19.036C207.157 19.188 207.613 19.264 208.085 19.264C208.637 19.264 209.069 19.148 209.381 18.916C209.701 18.684 209.861 18.372 209.861 17.98C209.861 17.716 209.793 17.484 209.657 17.284C209.529 17.084 209.297 16.932 208.961 16.828C208.633 16.724 208.181 16.672 207.605 16.672H205.577L206.009 12.1H210.941V13.408H206.585L207.401 12.664L207.077 16.084L206.261 15.352H207.953C208.785 15.352 209.453 15.464 209.957 15.688C210.469 15.904 210.841 16.208 211.073 16.6C211.313 16.984 211.433 17.424 211.433 17.92C211.433 18.408 211.313 18.856 211.073 19.264C210.833 19.672 210.465 20 209.969 20.248C209.481 20.496 208.861 20.62 208.109 20.62ZM215.837 20.62C215.173 20.62 214.573 20.452 214.037 20.116C213.509 19.78 213.093 19.292 212.789 18.652C212.485 18.004 212.333 17.22 212.333 16.3C212.333 15.38 212.485 14.6 212.789 13.96C213.093 13.312 213.509 12.82 214.037 12.484C214.573 12.148 215.173 11.98 215.837 11.98C216.509 11.98 217.109 12.148 217.637 12.484C218.165 12.82 218.581 13.312 218.885 13.96C219.197 14.6 219.353 15.38 219.353 16.3C219.353 17.22 219.197 18.004 218.885 18.652C218.581 19.292 218.165 19.78 217.637 20.116C217.109 20.452 216.509 20.62 215.837 20.62ZM215.837 19.264C216.229 19.264 216.569 19.16 216.857 18.952C217.145 18.736 217.369 18.408 217.529 17.968C217.697 17.528 217.781 16.972 217.781 16.3C217.781 15.62 217.697 15.064 217.529 14.632C217.369 14.192 217.145 13.868 216.857 13.66C216.569 13.444 216.229 13.336 215.837 13.336C215.461 13.336 215.125 13.444 214.829 13.66C214.541 13.868 214.313 14.192 214.145 14.632C213.985 15.064 213.905 15.62 213.905 16.3C213.905 16.972 213.985 17.528 214.145 17.968C214.313 18.408 214.541 18.736 214.829 18.952C215.125 19.16 215.461 19.264 215.837 19.264ZM223.911 20.62C223.247 20.62 222.647 20.452 222.111 20.116C221.583 19.78 221.167 19.292 220.863 18.652C220.559 18.004 220.407 17.22 220.407 16.3C220.407 15.38 220.559 14.6 220.863 13.96C221.167 13.312 221.583 12.82 222.111 12.484C222.647 12.148 223.247 11.98 223.911 11.98C224.583 11.98 225.183 12.148 225.711 12.484C226.239 12.82 226.655 13.312 226.959 13.96C227.271 14.6 227.427 15.38 227.427 16.3C227.427 17.22 227.271 18.004 226.959 18.652C226.655 19.292 226.239 19.78 225.711 20.116C225.183 20.452 224.583 20.62 223.911 20.62ZM223.911 19.264C224.303 19.264 224.643 19.16 224.931 18.952C225.219 18.736 225.443 18.408 225.603 17.968C225.771 17.528 225.855 16.972 225.855 16.3C225.855 15.62 225.771 15.064 225.603 14.632C225.443 14.192 225.219 13.868 224.931 13.66C224.643 13.444 224.303 13.336 223.911 13.336C223.535 13.336 223.199 13.444 222.903 13.66C222.615 13.868 222.387 14.192 222.219 14.632C222.059 15.064 221.979 15.62 221.979 16.3C221.979 16.972 222.059 17.528 222.219 17.968C222.387 18.408 222.615 18.736 222.903 18.952C223.199 19.16 223.535 19.264 223.911 19.264ZM231.985 20.62C231.321 20.62 230.721 20.452 230.185 20.116C229.657 19.78 229.241 19.292 228.937 18.652C228.633 18.004 228.481 17.22 228.481 16.3C228.481 15.38 228.633 14.6 228.937 13.96C229.241 13.312 229.657 12.82 230.185 12.484C230.721 12.148 231.321 11.98 231.985 11.98C232.657 11.98 233.257 12.148 233.785 12.484C234.313 12.82 234.729 13.312 235.033 13.96C235.345 14.6 235.501 15.38 235.501 16.3C235.501 17.22 235.345 18.004 235.033 18.652C234.729 19.292 234.313 19.78 233.785 20.116C233.257 20.452 232.657 20.62 231.985 20.62ZM231.985 19.264C232.377 19.264 232.717 19.16 233.005 18.952C233.293 18.736 233.517 18.408 233.677 17.968C233.845 17.528 233.929 16.972 233.929 16.3C233.929 15.62 233.845 15.064 233.677 14.632C233.517 14.192 233.293 13.868 233.005 13.66C232.717 13.444 232.377 13.336 231.985 13.336C231.609 13.336 231.273 13.444 230.977 13.66C230.689 13.868 230.461 14.192 230.293 14.632C230.133 15.064 230.053 15.62 230.053 16.3C230.053 16.972 230.133 17.528 230.293 17.968C230.461 18.408 230.689 18.736 230.977 18.952C231.273 19.16 231.609 19.264 231.985 19.264ZM242.176 20.5V13.42H239.392V12.1H246.52V13.42H243.736V20.5H242.176ZM247.394 20.5V14.092H248.822V15.856L248.654 15.34C248.846 14.908 249.146 14.58 249.554 14.356C249.97 14.132 250.486 14.02 251.102 14.02V15.448C251.038 15.432 250.978 15.424 250.922 15.424C250.866 15.416 250.81 15.412 250.754 15.412C250.186 15.412 249.734 15.58 249.398 15.916C249.062 16.244 248.894 16.736 248.894 17.392V20.5H247.394ZM252.375 20.5V14.092H253.875V20.5H252.375ZM253.131 13.036C252.851 13.036 252.619 12.948 252.435 12.772C252.259 12.596 252.171 12.384 252.171 12.136C252.171 11.88 252.259 11.668 252.435 11.5C252.619 11.324 252.851 11.236 253.131 11.236C253.411 11.236 253.639 11.32 253.815 11.488C253.999 11.648 254.091 11.852 254.091 12.1C254.091 12.364 254.003 12.588 253.827 12.772C253.651 12.948 253.419 13.036 253.131 13.036ZM259.395 20.584C258.851 20.584 258.367 20.464 257.943 20.224C257.519 19.984 257.183 19.624 256.935 19.144C256.695 18.656 256.575 18.04 256.575 17.296C256.575 16.544 256.699 15.928 256.947 15.448C257.203 14.968 257.543 14.612 257.967 14.38C258.399 14.14 258.875 14.02 259.395 14.02C260.027 14.02 260.583 14.156 261.063 14.428C261.551 14.7 261.935 15.08 262.215 15.568C262.503 16.056 262.647 16.632 262.647 17.296C262.647 17.96 262.503 18.536 262.215 19.024C261.935 19.512 261.551 19.896 261.063 20.176C260.583 20.448 260.027 20.584 259.395 20.584ZM255.843 20.5V11.596H257.343V15.58L257.223 17.284L257.271 18.988V20.5H255.843ZM259.227 19.3C259.587 19.3 259.907 19.22 260.187 19.06C260.475 18.9 260.703 18.668 260.871 18.364C261.039 18.06 261.123 17.704 261.123 17.296C261.123 16.88 261.039 16.524 260.871 16.228C260.703 15.924 260.475 15.692 260.187 15.532C259.907 15.372 259.587 15.292 259.227 15.292C258.867 15.292 258.543 15.372 258.255 15.532C257.967 15.692 257.739 15.924 257.571 16.228C257.403 16.524 257.319 16.88 257.319 17.296C257.319 17.704 257.403 18.06 257.571 18.364C257.739 18.668 257.967 18.9 258.255 19.06C258.543 19.22 258.867 19.3 259.227 19.3ZM267.082 20.584C266.37 20.584 265.746 20.444 265.21 20.164C264.682 19.876 264.27 19.484 263.974 18.988C263.686 18.492 263.542 17.928 263.542 17.296C263.542 16.656 263.682 16.092 263.962 15.604C264.25 15.108 264.642 14.72 265.138 14.44C265.642 14.16 266.214 14.02 266.854 14.02C267.478 14.02 268.034 14.156 268.522 14.428C269.01 14.7 269.394 15.084 269.674 15.58C269.954 16.076 270.094 16.66 270.094 17.332C270.094 17.396 270.09 17.468 270.082 17.548C270.082 17.628 270.078 17.704 270.07 17.776H264.73V16.78H269.278L268.69 17.092C268.698 16.724 268.622 16.4 268.462 16.12C268.302 15.84 268.082 15.62 267.802 15.46C267.53 15.3 267.214 15.22 266.854 15.22C266.486 15.22 266.162 15.3 265.882 15.46C265.61 15.62 265.394 15.844 265.234 16.132C265.082 16.412 265.006 16.744 265.006 17.128V17.368C265.006 17.752 265.094 18.092 265.27 18.388C265.446 18.684 265.694 18.912 266.014 19.072C266.334 19.232 266.702 19.312 267.118 19.312C267.478 19.312 267.802 19.256 268.09 19.144C268.378 19.032 268.634 18.856 268.858 18.616L269.662 19.54C269.374 19.876 269.01 20.136 268.57 20.32C268.138 20.496 267.642 20.584 267.082 20.584ZM273.484 20.62C272.892 20.62 272.312 20.536 271.744 20.368C271.184 20.192 270.712 19.952 270.328 19.648L271 18.436C271.304 18.684 271.672 18.884 272.104 19.036C272.536 19.188 272.988 19.264 273.46 19.264C274.02 19.264 274.456 19.152 274.768 18.928C275.08 18.696 275.236 18.384 275.236 17.992C275.236 17.608 275.092 17.304 274.804 17.08C274.516 16.856 274.052 16.744 273.412 16.744H272.644V15.676L275.044 12.82L275.248 13.408H270.736V12.1H276.46V13.144L274.06 16L273.244 15.52H273.712C274.744 15.52 275.516 15.752 276.028 16.216C276.548 16.672 276.808 17.26 276.808 17.98C276.808 18.452 276.688 18.888 276.448 19.288C276.208 19.688 275.84 20.012 275.344 20.26C274.856 20.5 274.236 20.62 273.484 20.62ZM281.745 20.5V12.1H285.201C285.945 12.1 286.581 12.22 287.109 12.46C287.645 12.7 288.057 13.044 288.345 13.492C288.633 13.94 288.777 14.472 288.777 15.088C288.777 15.704 288.633 16.236 288.345 16.684C288.057 17.132 287.645 17.476 287.109 17.716C286.581 17.956 285.945 18.076 285.201 18.076H282.609L283.305 17.344V20.5H281.745ZM283.305 17.512L282.609 16.756H285.129C285.817 16.756 286.333 16.612 286.677 16.324C287.029 16.028 287.205 15.616 287.205 15.088C287.205 14.552 287.029 14.14 286.677 13.852C286.333 13.564 285.817 13.42 285.129 13.42H282.609L283.305 12.652V17.512ZM293.048 20.584C292.392 20.584 291.808 20.444 291.296 20.164C290.784 19.876 290.38 19.484 290.084 18.988C289.788 18.492 289.64 17.928 289.64 17.296C289.64 16.656 289.788 16.092 290.084 15.604C290.38 15.108 290.784 14.72 291.296 14.44C291.808 14.16 292.392 14.02 293.048 14.02C293.712 14.02 294.3 14.16 294.812 14.44C295.332 14.72 295.736 15.104 296.024 15.592C296.32 16.08 296.468 16.648 296.468 17.296C296.468 17.928 296.32 18.492 296.024 18.988C295.736 19.484 295.332 19.876 294.812 20.164C294.3 20.444 293.712 20.584 293.048 20.584ZM293.048 19.3C293.416 19.3 293.744 19.22 294.032 19.06C294.32 18.9 294.544 18.668 294.704 18.364C294.872 18.06 294.956 17.704 294.956 17.296C294.956 16.88 294.872 16.524 294.704 16.228C294.544 15.924 294.32 15.692 294.032 15.532C293.744 15.372 293.42 15.292 293.06 15.292C292.692 15.292 292.364 15.372 292.076 15.532C291.796 15.692 291.572 15.924 291.404 16.228C291.236 16.524 291.152 16.88 291.152 17.296C291.152 17.704 291.236 18.06 291.404 18.364C291.572 18.668 291.796 18.9 292.076 19.06C292.364 19.22 292.688 19.3 293.048 19.3ZM297.902 20.5V14.092H299.402V20.5H297.902ZM298.658 13.036C298.378 13.036 298.146 12.948 297.962 12.772C297.786 12.596 297.698 12.384 297.698 12.136C297.698 11.88 297.786 11.668 297.962 11.5C298.146 11.324 298.378 11.236 298.658 11.236C298.938 11.236 299.166 11.32 299.342 11.488C299.526 11.648 299.618 11.852 299.618 12.1C299.618 12.364 299.53 12.588 299.354 12.772C299.178 12.948 298.946 13.036 298.658 13.036ZM305.007 14.02C305.519 14.02 305.975 14.12 306.375 14.32C306.783 14.52 307.103 14.828 307.335 15.244C307.567 15.652 307.683 16.18 307.683 16.828V20.5H306.183V17.02C306.183 16.452 306.047 16.028 305.775 15.748C305.511 15.468 305.139 15.328 304.659 15.328C304.307 15.328 303.995 15.4 303.723 15.544C303.451 15.688 303.239 15.904 303.087 16.192C302.943 16.472 302.871 16.828 302.871 17.26V20.5H301.371V14.092H302.799V15.82L302.547 15.292C302.771 14.884 303.095 14.572 303.519 14.356C303.951 14.132 304.447 14.02 305.007 14.02ZM311.998 20.584C311.294 20.584 310.75 20.404 310.366 20.044C309.982 19.676 309.79 19.136 309.79 18.424V12.676H311.29V18.388C311.29 18.692 311.366 18.928 311.518 19.096C311.678 19.264 311.898 19.348 312.178 19.348C312.514 19.348 312.794 19.26 313.018 19.084L313.438 20.152C313.262 20.296 313.046 20.404 312.79 20.476C312.534 20.548 312.27 20.584 311.998 20.584ZM308.734 15.34V14.14H313.006V15.34H308.734ZM316.652 20.584C316.116 20.584 315.6 20.516 315.104 20.38C314.616 20.236 314.228 20.064 313.94 19.864L314.516 18.724C314.804 18.908 315.148 19.06 315.548 19.18C315.948 19.3 316.348 19.36 316.748 19.36C317.22 19.36 317.56 19.296 317.768 19.168C317.984 19.04 318.092 18.868 318.092 18.652C318.092 18.476 318.02 18.344 317.876 18.256C317.732 18.16 317.544 18.088 317.312 18.04C317.08 17.992 316.82 17.948 316.532 17.908C316.252 17.868 315.968 17.816 315.68 17.752C315.4 17.68 315.144 17.58 314.912 17.452C314.68 17.316 314.492 17.136 314.348 16.912C314.204 16.688 314.132 16.392 314.132 16.024C314.132 15.616 314.248 15.264 314.479 14.968C314.712 14.664 315.036 14.432 315.451 14.272C315.876 14.104 316.376 14.02 316.952 14.02C317.384 14.02 317.82 14.068 318.26 14.164C318.7 14.26 319.064 14.396 319.352 14.572L318.776 15.712C318.472 15.528 318.164 15.404 317.852 15.34C317.548 15.268 317.244 15.232 316.94 15.232C316.484 15.232 316.144 15.3 315.92 15.436C315.704 15.572 315.596 15.744 315.596 15.952C315.596 16.144 315.668 16.288 315.812 16.384C315.956 16.48 316.144 16.556 316.376 16.612C316.608 16.668 316.864 16.716 317.144 16.756C317.432 16.788 317.716 16.84 317.996 16.912C318.276 16.984 318.532 17.084 318.764 17.212C319.004 17.332 319.196 17.504 319.34 17.728C319.484 17.952 319.556 18.244 319.556 18.604C319.556 19.004 319.436 19.352 319.196 19.648C318.964 19.944 318.632 20.176 318.2 20.344C317.768 20.504 317.252 20.584 316.652 20.584ZM321.135 20.56C320.959 20.56 320.807 20.496 320.679 20.368C320.559 20.24 320.499 20.084 320.499 19.9C320.499 19.708 320.559 19.552 320.679 19.432C320.807 19.312 320.959 19.252 321.135 19.252C321.311 19.252 321.459 19.312 321.579 19.432C321.707 19.552 321.771 19.708 321.771 19.9C321.771 20.084 321.707 20.24 321.579 20.368C321.459 20.496 321.311 20.56 321.135 20.56Z" fill="url(#paint1_linear_12735_190905)"/>
<rect y="31" width="417" height="1" fill="url(#paint2_linear_12735_190905)"/>
<rect width="417" height="1" fill="url(#paint3_linear_12735_190905)"/>
<defs>
<linearGradient id="paint0_linear_12735_190905" x1="417" y1="16" x2="-1.62919e-09" y2="16" gradientUnits="userSpaceOnUse">
<stop stop-color="#56DCFA" stop-opacity="0.2"/>
<stop offset="0.510417" stop-color="#56DCFA" stop-opacity="0.5"/>
<stop offset="1" stop-color="#56DCFA" stop-opacity="0.2"/>
</linearGradient>
<linearGradient id="paint1_linear_12735_190905" x1="194.5" y1="11.163" x2="194.5" y2="20.4874" gradientUnits="userSpaceOnUse">
<stop stop-color="#F0A45D"/>
<stop offset="1" stop-color="white"/>
</linearGradient>
<linearGradient id="paint2_linear_12735_190905" x1="5.17006e-06" y1="32.0007" x2="416.984" y2="28.8521" gradientUnits="userSpaceOnUse">
<stop stop-color="#D9D9D9" stop-opacity="0"/>
<stop offset="0.505208" stop-color="#D9D9D9" stop-opacity="0.51"/>
<stop offset="1" stop-color="#D9D9D9" stop-opacity="0"/>
</linearGradient>
<linearGradient id="paint3_linear_12735_190905" x1="5.17006e-06" y1="1.00068" x2="416.984" y2="-2.14793" gradientUnits="userSpaceOnUse">
<stop stop-color="#D9D9D9" stop-opacity="0"/>
<stop offset="0.505208" stop-color="#D9D9D9" stop-opacity="0.51"/>
<stop offset="1" stop-color="#D9D9D9" stop-opacity="0"/>
</linearGradient>
</defs>
</svg>
