<svg width="417" height="32" viewBox="0 0 417 32" fill="none" xmlns="http://www.w3.org/2000/svg">
<rect width="417" height="32" fill="url(#paint0_linear_12735_190873)" fill-opacity="0.5"/>
<path d="M55 25H41C40.45 25 40 24.55 40 24V14H56V24C56 24.55 55.55 25 55 25Z" fill="#D32F2F"/>
<path d="M57 14H39V11C39 10.45 39.45 10 40 10H56C56.55 10 57 10.45 57 11V14Z" fill="#F44336"/>
<path d="M47 14H49V25H47V14ZM52 7H50L47 10H49L52 7Z" fill="#FF8F00"/>
<path d="M46 7H44L47 10V14H49V10L46 7Z" fill="#FFC107"/>
<path d="M67.368 20.5V12.1H70.512C71.224 12.1 71.836 12.216 72.348 12.448C72.86 12.672 73.252 13 73.524 13.432C73.804 13.856 73.944 14.372 73.944 14.98C73.944 15.572 73.804 16.084 73.524 16.516C73.252 16.94 72.86 17.268 72.348 17.5C71.836 17.732 71.224 17.848 70.512 17.848H67.86L68.256 17.428V20.5H67.368ZM68.256 17.5L67.86 17.068H70.488C71.328 17.068 71.964 16.888 72.396 16.528C72.836 16.16 73.056 15.644 73.056 14.98C73.056 14.308 72.836 13.788 72.396 13.42C71.964 13.052 71.328 12.868 70.488 12.868H67.86L68.256 12.448V17.5ZM75.5318 20.5V14.2H76.3478V15.916L76.2638 15.616C76.4398 15.136 76.7358 14.772 77.1518 14.524C77.5678 14.268 78.0838 14.14 78.6998 14.14V14.968C78.6678 14.968 78.6358 14.968 78.6038 14.968C78.5718 14.96 78.5398 14.956 78.5078 14.956C77.8438 14.956 77.3238 15.16 76.9478 15.568C76.5718 15.968 76.3838 16.54 76.3838 17.284V20.5H75.5318ZM80.2544 20.5V14.2H81.1064V20.5H80.2544ZM80.6864 12.808C80.5104 12.808 80.3624 12.748 80.2424 12.628C80.1224 12.508 80.0624 12.364 80.0624 12.196C80.0624 12.028 80.1224 11.888 80.2424 11.776C80.3624 11.656 80.5104 11.596 80.6864 11.596C80.8624 11.596 81.0104 11.652 81.1304 11.764C81.2504 11.876 81.3104 12.016 81.3104 12.184C81.3104 12.36 81.2504 12.508 81.1304 12.628C81.0184 12.748 80.8704 12.808 80.6864 12.808ZM82.7931 20.5V19.936L86.9931 14.62L87.1731 14.908H82.8651V14.2H87.8451V14.752L83.6571 20.08L83.4411 19.792H87.9291V20.5H82.7931ZM92.1765 20.56C91.5205 20.56 90.9445 20.424 90.4485 20.152C89.9525 19.872 89.5645 19.492 89.2845 19.012C89.0045 18.524 88.8645 17.968 88.8645 17.344C88.8645 16.72 88.9965 16.168 89.2605 15.688C89.5325 15.208 89.9005 14.832 90.3645 14.56C90.8365 14.28 91.3645 14.14 91.9485 14.14C92.5405 14.14 93.0645 14.276 93.5205 14.548C93.9845 14.812 94.3485 15.188 94.6125 15.676C94.8765 16.156 95.0085 16.712 95.0085 17.344C95.0085 17.384 95.0045 17.428 94.9965 17.476C94.9965 17.516 94.9965 17.56 94.9965 17.608H89.5125V16.972H94.5405L94.2045 17.224C94.2045 16.768 94.1045 16.364 93.9045 16.012C93.7125 15.652 93.4485 15.372 93.1125 15.172C92.7765 14.972 92.3885 14.872 91.9485 14.872C91.5165 14.872 91.1285 14.972 90.7845 15.172C90.4405 15.372 90.1725 15.652 89.9805 16.012C89.7885 16.372 89.6925 16.784 89.6925 17.248V17.38C89.6925 17.86 89.7965 18.284 90.0045 18.652C90.2205 19.012 90.5165 19.296 90.8925 19.504C91.2765 19.704 91.7125 19.804 92.2005 19.804C92.5845 19.804 92.9405 19.736 93.2685 19.6C93.6045 19.464 93.8925 19.256 94.1325 18.976L94.6125 19.528C94.3325 19.864 93.9805 20.12 93.5565 20.296C93.1405 20.472 92.6805 20.56 92.1765 20.56ZM100.063 20.5V12.1H103.207C103.919 12.1 104.531 12.216 105.043 12.448C105.555 12.672 105.947 13 106.219 13.432C106.499 13.856 106.639 14.372 106.639 14.98C106.639 15.572 106.499 16.084 106.219 16.516C105.947 16.94 105.555 17.268 105.043 17.5C104.531 17.732 103.919 17.848 103.207 17.848H100.555L100.951 17.428V20.5H100.063ZM100.951 17.5L100.555 17.068H103.183C104.023 17.068 104.659 16.888 105.091 16.528C105.531 16.16 105.751 15.644 105.751 14.98C105.751 14.308 105.531 13.788 105.091 13.42C104.659 13.052 104.023 12.868 103.183 12.868H100.555L100.951 12.448V17.5ZM110.912 20.56C110.304 20.56 109.756 20.424 109.268 20.152C108.788 19.872 108.408 19.492 108.128 19.012C107.848 18.524 107.708 17.968 107.708 17.344C107.708 16.712 107.848 16.156 108.128 15.676C108.408 15.196 108.788 14.82 109.268 14.548C109.748 14.276 110.296 14.14 110.912 14.14C111.536 14.14 112.088 14.276 112.568 14.548C113.056 14.82 113.436 15.196 113.708 15.676C113.988 16.156 114.128 16.712 114.128 17.344C114.128 17.968 113.988 18.524 113.708 19.012C113.436 19.492 113.056 19.872 112.568 20.152C112.08 20.424 111.528 20.56 110.912 20.56ZM110.912 19.804C111.368 19.804 111.772 19.704 112.124 19.504C112.476 19.296 112.752 19.008 112.952 18.64C113.16 18.264 113.264 17.832 113.264 17.344C113.264 16.848 113.16 16.416 112.952 16.048C112.752 15.68 112.476 15.396 112.124 15.196C111.772 14.988 111.372 14.884 110.924 14.884C110.476 14.884 110.076 14.988 109.724 15.196C109.372 15.396 109.092 15.68 108.884 16.048C108.676 16.416 108.572 16.848 108.572 17.344C108.572 17.832 108.676 18.264 108.884 18.64C109.092 19.008 109.372 19.296 109.724 19.504C110.076 19.704 110.472 19.804 110.912 19.804ZM118.436 20.56C117.828 20.56 117.28 20.424 116.792 20.152C116.312 19.872 115.932 19.492 115.652 19.012C115.372 18.524 115.232 17.968 115.232 17.344C115.232 16.712 115.372 16.156 115.652 15.676C115.932 15.196 116.312 14.82 116.792 14.548C117.272 14.276 117.82 14.14 118.436 14.14C119.06 14.14 119.612 14.276 120.092 14.548C120.58 14.82 120.96 15.196 121.232 15.676C121.512 16.156 121.652 16.712 121.652 17.344C121.652 17.968 121.512 18.524 121.232 19.012C120.96 19.492 120.58 19.872 120.092 20.152C119.604 20.424 119.052 20.56 118.436 20.56ZM118.436 19.804C118.892 19.804 119.296 19.704 119.648 19.504C120 19.296 120.276 19.008 120.476 18.64C120.684 18.264 120.788 17.832 120.788 17.344C120.788 16.848 120.684 16.416 120.476 16.048C120.276 15.68 120 15.396 119.648 15.196C119.296 14.988 118.896 14.884 118.448 14.884C118 14.884 117.6 14.988 117.248 15.196C116.896 15.396 116.616 15.68 116.408 16.048C116.2 16.416 116.096 16.848 116.096 17.344C116.096 17.832 116.2 18.264 116.408 18.64C116.616 19.008 116.896 19.296 117.248 19.504C117.6 19.704 117.996 19.804 118.436 19.804ZM123.391 20.5V11.596H124.243V20.5H123.391ZM126.698 15.448C126.522 15.448 126.37 15.384 126.242 15.256C126.122 15.128 126.062 14.972 126.062 14.788C126.062 14.596 126.122 14.44 126.242 14.32C126.37 14.2 126.522 14.14 126.698 14.14C126.874 14.14 127.022 14.2 127.142 14.32C127.27 14.44 127.334 14.596 127.334 14.788C127.334 14.972 127.27 15.128 127.142 15.256C127.022 15.384 126.874 15.448 126.698 15.448ZM126.698 20.56C126.522 20.56 126.37 20.496 126.242 20.368C126.122 20.24 126.062 20.084 126.062 19.9C126.062 19.708 126.122 19.552 126.242 19.432C126.37 19.312 126.522 19.252 126.698 19.252C126.874 19.252 127.022 19.312 127.142 19.432C127.27 19.552 127.334 19.708 127.334 19.9C127.334 20.084 127.27 20.24 127.142 20.368C127.022 20.496 126.874 20.56 126.698 20.56ZM132.981 20.5V12.7L133.665 13.408H131.205V12.1H134.541V20.5H132.981ZM139.712 20.62C139.048 20.62 138.448 20.452 137.912 20.116C137.384 19.78 136.968 19.292 136.664 18.652C136.36 18.004 136.208 17.22 136.208 16.3C136.208 15.38 136.36 14.6 136.664 13.96C136.968 13.312 137.384 12.82 137.912 12.484C138.448 12.148 139.048 11.98 139.712 11.98C140.384 11.98 140.984 12.148 141.512 12.484C142.04 12.82 142.456 13.312 142.76 13.96C143.072 14.6 143.228 15.38 143.228 16.3C143.228 17.22 143.072 18.004 142.76 18.652C142.456 19.292 142.04 19.78 141.512 20.116C140.984 20.452 140.384 20.62 139.712 20.62ZM139.712 19.264C140.104 19.264 140.444 19.16 140.732 18.952C141.02 18.736 141.244 18.408 141.404 17.968C141.572 17.528 141.656 16.972 141.656 16.3C141.656 15.62 141.572 15.064 141.404 14.632C141.244 14.192 141.02 13.868 140.732 13.66C140.444 13.444 140.104 13.336 139.712 13.336C139.336 13.336 139 13.444 138.704 13.66C138.416 13.868 138.188 14.192 138.02 14.632C137.86 15.064 137.78 15.62 137.78 16.3C137.78 16.972 137.86 17.528 138.02 17.968C138.188 18.408 138.416 18.736 138.704 18.952C139 19.16 139.336 19.264 139.712 19.264ZM147.786 20.62C147.122 20.62 146.522 20.452 145.986 20.116C145.458 19.78 145.042 19.292 144.738 18.652C144.434 18.004 144.282 17.22 144.282 16.3C144.282 15.38 144.434 14.6 144.738 13.96C145.042 13.312 145.458 12.82 145.986 12.484C146.522 12.148 147.122 11.98 147.786 11.98C148.458 11.98 149.058 12.148 149.586 12.484C150.114 12.82 150.53 13.312 150.834 13.96C151.146 14.6 151.302 15.38 151.302 16.3C151.302 17.22 151.146 18.004 150.834 18.652C150.53 19.292 150.114 19.78 149.586 20.116C149.058 20.452 148.458 20.62 147.786 20.62ZM147.786 19.264C148.178 19.264 148.518 19.16 148.806 18.952C149.094 18.736 149.318 18.408 149.478 17.968C149.646 17.528 149.73 16.972 149.73 16.3C149.73 15.62 149.646 15.064 149.478 14.632C149.318 14.192 149.094 13.868 148.806 13.66C148.518 13.444 148.178 13.336 147.786 13.336C147.41 13.336 147.074 13.444 146.778 13.66C146.49 13.868 146.262 14.192 146.094 14.632C145.934 15.064 145.854 15.62 145.854 16.3C145.854 16.972 145.934 17.528 146.094 17.968C146.262 18.408 146.49 18.736 146.778 18.952C147.074 19.16 147.41 19.264 147.786 19.264ZM155.86 20.62C155.196 20.62 154.596 20.452 154.06 20.116C153.532 19.78 153.116 19.292 152.812 18.652C152.508 18.004 152.356 17.22 152.356 16.3C152.356 15.38 152.508 14.6 152.812 13.96C153.116 13.312 153.532 12.82 154.06 12.484C154.596 12.148 155.196 11.98 155.86 11.98C156.532 11.98 157.132 12.148 157.66 12.484C158.188 12.82 158.604 13.312 158.908 13.96C159.22 14.6 159.376 15.38 159.376 16.3C159.376 17.22 159.22 18.004 158.908 18.652C158.604 19.292 158.188 19.78 157.66 20.116C157.132 20.452 156.532 20.62 155.86 20.62ZM155.86 19.264C156.252 19.264 156.592 19.16 156.88 18.952C157.168 18.736 157.392 18.408 157.552 17.968C157.72 17.528 157.804 16.972 157.804 16.3C157.804 15.62 157.72 15.064 157.552 14.632C157.392 14.192 157.168 13.868 156.88 13.66C156.592 13.444 156.252 13.336 155.86 13.336C155.484 13.336 155.148 13.444 154.852 13.66C154.564 13.868 154.336 14.192 154.168 14.632C154.008 15.064 153.928 15.62 153.928 16.3C153.928 16.972 154.008 17.528 154.168 17.968C154.336 18.408 154.564 18.736 154.852 18.952C155.148 19.16 155.484 19.264 155.86 19.264ZM167.959 20.62C166.807 20.62 165.903 20.296 165.247 19.648C164.599 19 164.275 18.064 164.275 16.84V12.1H165.835V16.78C165.835 17.644 166.019 18.272 166.387 18.664C166.763 19.056 167.291 19.252 167.971 19.252C168.651 19.252 169.175 19.056 169.543 18.664C169.911 18.272 170.095 17.644 170.095 16.78V12.1H171.631V16.84C171.631 18.064 171.303 19 170.647 19.648C169.999 20.296 169.103 20.62 167.959 20.62ZM176.42 20.62C175.764 20.62 175.136 20.528 174.536 20.344C173.936 20.152 173.46 19.908 173.108 19.612L173.648 18.4C173.984 18.664 174.4 18.884 174.896 19.06C175.392 19.236 175.9 19.324 176.42 19.324C176.86 19.324 177.216 19.276 177.488 19.18C177.76 19.084 177.96 18.956 178.088 18.796C178.216 18.628 178.28 18.44 178.28 18.232C178.28 17.976 178.188 17.772 178.004 17.62C177.82 17.46 177.58 17.336 177.284 17.248C176.996 17.152 176.672 17.064 176.312 16.984C175.96 16.904 175.604 16.812 175.244 16.708C174.892 16.596 174.568 16.456 174.271 16.288C173.984 16.112 173.748 15.88 173.564 15.592C173.38 15.304 173.288 14.936 173.288 14.488C173.288 14.032 173.408 13.616 173.648 13.24C173.896 12.856 174.268 12.552 174.764 12.328C175.268 12.096 175.904 11.98 176.672 11.98C177.176 11.98 177.676 12.044 178.172 12.172C178.668 12.3 179.1 12.484 179.467 12.724L178.976 13.936C178.6 13.712 178.212 13.548 177.812 13.444C177.412 13.332 177.028 13.276 176.66 13.276C176.228 13.276 175.876 13.328 175.604 13.432C175.34 13.536 175.144 13.672 175.016 13.84C174.896 14.008 174.836 14.2 174.836 14.416C174.836 14.672 174.924 14.88 175.1 15.04C175.284 15.192 175.52 15.312 175.808 15.4C176.104 15.488 176.432 15.576 176.792 15.664C177.152 15.744 177.508 15.836 177.86 15.94C178.22 16.044 178.544 16.18 178.832 16.348C179.128 16.516 179.364 16.744 179.54 17.032C179.724 17.32 179.816 17.684 179.816 18.124C179.816 18.572 179.692 18.988 179.444 19.372C179.204 19.748 178.832 20.052 178.328 20.284C177.824 20.508 177.188 20.62 176.42 20.62ZM181.362 20.5V12.1H185.034C185.946 12.1 186.746 12.276 187.434 12.628C188.122 12.98 188.658 13.468 189.042 14.092C189.426 14.716 189.618 15.452 189.618 16.3C189.618 17.14 189.426 17.876 189.042 18.508C188.658 19.132 188.122 19.62 187.434 19.972C186.746 20.324 185.946 20.5 185.034 20.5H181.362ZM182.922 19.18H184.962C185.594 19.18 186.138 19.06 186.594 18.82C187.058 18.58 187.414 18.244 187.662 17.812C187.918 17.38 188.046 16.876 188.046 16.3C188.046 15.716 187.918 15.212 187.662 14.788C187.414 14.356 187.058 14.02 186.594 13.78C186.138 13.54 185.594 13.42 184.962 13.42H182.922V19.18ZM192.863 20.5V13.42H190.079V12.1H197.207V13.42H194.423V20.5H192.863ZM203.463 18.844V13.756H204.219V18.844H203.463ZM201.231 16.66V15.952H206.451V16.66H201.231ZM210.842 18.592V17.512L214.982 12.1H216.65L212.57 17.512L211.79 17.272H218.45V18.592H210.842ZM215.45 20.5V18.592L215.498 17.272V15.58H216.962V20.5H215.45ZM222.742 20.62C221.982 20.62 221.33 20.46 220.786 20.14C220.242 19.812 219.826 19.34 219.538 18.724C219.25 18.108 219.106 17.348 219.106 16.444C219.106 15.484 219.278 14.672 219.622 14.008C219.974 13.344 220.458 12.84 221.074 12.496C221.698 12.152 222.414 11.98 223.222 11.98C223.646 11.98 224.05 12.024 224.434 12.112C224.826 12.2 225.158 12.336 225.43 12.52L224.854 13.696C224.622 13.544 224.37 13.44 224.098 13.384C223.834 13.32 223.554 13.288 223.258 13.288C222.466 13.288 221.838 13.532 221.374 14.02C220.91 14.508 220.678 15.228 220.678 16.18C220.678 16.332 220.682 16.512 220.69 16.72C220.698 16.92 220.726 17.124 220.774 17.332L220.294 16.804C220.438 16.476 220.634 16.204 220.882 15.988C221.138 15.764 221.438 15.596 221.782 15.484C222.134 15.372 222.514 15.316 222.922 15.316C223.474 15.316 223.966 15.424 224.398 15.64C224.83 15.848 225.174 16.148 225.43 16.54C225.686 16.924 225.814 17.376 225.814 17.896C225.814 18.448 225.678 18.928 225.406 19.336C225.134 19.744 224.766 20.06 224.302 20.284C223.838 20.508 223.318 20.62 222.742 20.62ZM222.658 19.396C222.978 19.396 223.262 19.34 223.51 19.228C223.758 19.108 223.95 18.94 224.086 18.724C224.23 18.508 224.302 18.256 224.302 17.968C224.302 17.528 224.15 17.18 223.846 16.924C223.542 16.668 223.134 16.54 222.622 16.54C222.286 16.54 221.99 16.604 221.734 16.732C221.486 16.852 221.286 17.02 221.134 17.236C220.99 17.452 220.918 17.7 220.918 17.98C220.918 18.236 220.986 18.472 221.122 18.688C221.258 18.904 221.454 19.076 221.71 19.204C221.974 19.332 222.29 19.396 222.658 19.396ZM230.134 20.62C229.47 20.62 228.87 20.452 228.334 20.116C227.806 19.78 227.39 19.292 227.086 18.652C226.782 18.004 226.63 17.22 226.63 16.3C226.63 15.38 226.782 14.6 227.086 13.96C227.39 13.312 227.806 12.82 228.334 12.484C228.87 12.148 229.47 11.98 230.134 11.98C230.806 11.98 231.406 12.148 231.934 12.484C232.462 12.82 232.878 13.312 233.182 13.96C233.494 14.6 233.65 15.38 233.65 16.3C233.65 17.22 233.494 18.004 233.182 18.652C232.878 19.292 232.462 19.78 231.934 20.116C231.406 20.452 230.806 20.62 230.134 20.62ZM230.134 19.264C230.526 19.264 230.866 19.16 231.154 18.952C231.442 18.736 231.666 18.408 231.826 17.968C231.994 17.528 232.078 16.972 232.078 16.3C232.078 15.62 231.994 15.064 231.826 14.632C231.666 14.192 231.442 13.868 231.154 13.66C230.866 13.444 230.526 13.336 230.134 13.336C229.758 13.336 229.422 13.444 229.126 13.66C228.838 13.868 228.61 14.192 228.442 14.632C228.282 15.064 228.202 15.62 228.202 16.3C228.202 16.972 228.282 17.528 228.442 17.968C228.61 18.408 228.838 18.736 229.126 18.952C229.422 19.16 229.758 19.264 230.134 19.264ZM238.208 20.62C237.544 20.62 236.944 20.452 236.408 20.116C235.88 19.78 235.464 19.292 235.16 18.652C234.856 18.004 234.704 17.22 234.704 16.3C234.704 15.38 234.856 14.6 235.16 13.96C235.464 13.312 235.88 12.82 236.408 12.484C236.944 12.148 237.544 11.98 238.208 11.98C238.88 11.98 239.48 12.148 240.008 12.484C240.536 12.82 240.952 13.312 241.256 13.96C241.568 14.6 241.724 15.38 241.724 16.3C241.724 17.22 241.568 18.004 241.256 18.652C240.952 19.292 240.536 19.78 240.008 20.116C239.48 20.452 238.88 20.62 238.208 20.62ZM238.208 19.264C238.6 19.264 238.94 19.16 239.228 18.952C239.516 18.736 239.74 18.408 239.9 17.968C240.068 17.528 240.152 16.972 240.152 16.3C240.152 15.62 240.068 15.064 239.9 14.632C239.74 14.192 239.516 13.868 239.228 13.66C238.94 13.444 238.6 13.336 238.208 13.336C237.832 13.336 237.496 13.444 237.2 13.66C236.912 13.868 236.684 14.192 236.516 14.632C236.356 15.064 236.276 15.62 236.276 16.3C236.276 16.972 236.356 17.528 236.516 17.968C236.684 18.408 236.912 18.736 237.2 18.952C237.496 19.16 237.832 19.264 238.208 19.264ZM248.398 20.5V13.42H245.614V12.1H252.742V13.42H249.958V20.5H248.398ZM253.617 20.5V14.092H255.045V15.856L254.877 15.34C255.069 14.908 255.369 14.58 255.777 14.356C256.193 14.132 256.709 14.02 257.325 14.02V15.448C257.261 15.432 257.201 15.424 257.145 15.424C257.089 15.416 257.033 15.412 256.977 15.412C256.409 15.412 255.957 15.58 255.621 15.916C255.285 16.244 255.117 16.736 255.117 17.392V20.5H253.617ZM258.597 20.5V14.092H260.097V20.5H258.597ZM259.353 13.036C259.073 13.036 258.841 12.948 258.657 12.772C258.481 12.596 258.393 12.384 258.393 12.136C258.393 11.88 258.481 11.668 258.657 11.5C258.841 11.324 259.073 11.236 259.353 11.236C259.633 11.236 259.861 11.32 260.037 11.488C260.221 11.648 260.313 11.852 260.313 12.1C260.313 12.364 260.225 12.588 260.049 12.772C259.873 12.948 259.641 13.036 259.353 13.036ZM265.618 20.584C265.074 20.584 264.59 20.464 264.166 20.224C263.742 19.984 263.406 19.624 263.158 19.144C262.918 18.656 262.798 18.04 262.798 17.296C262.798 16.544 262.922 15.928 263.17 15.448C263.426 14.968 263.766 14.612 264.19 14.38C264.622 14.14 265.098 14.02 265.618 14.02C266.25 14.02 266.806 14.156 267.286 14.428C267.774 14.7 268.158 15.08 268.438 15.568C268.726 16.056 268.87 16.632 268.87 17.296C268.87 17.96 268.726 18.536 268.438 19.024C268.158 19.512 267.774 19.896 267.286 20.176C266.806 20.448 266.25 20.584 265.618 20.584ZM262.066 20.5V11.596H263.566V15.58L263.446 17.284L263.494 18.988V20.5H262.066ZM265.45 19.3C265.81 19.3 266.13 19.22 266.41 19.06C266.698 18.9 266.926 18.668 267.094 18.364C267.262 18.06 267.346 17.704 267.346 17.296C267.346 16.88 267.262 16.524 267.094 16.228C266.926 15.924 266.698 15.692 266.41 15.532C266.13 15.372 265.81 15.292 265.45 15.292C265.09 15.292 264.766 15.372 264.478 15.532C264.19 15.692 263.962 15.924 263.794 16.228C263.626 16.524 263.542 16.88 263.542 17.296C263.542 17.704 263.626 18.06 263.794 18.364C263.962 18.668 264.19 18.9 264.478 19.06C264.766 19.22 265.09 19.3 265.45 19.3ZM273.305 20.584C272.593 20.584 271.969 20.444 271.433 20.164C270.905 19.876 270.493 19.484 270.197 18.988C269.909 18.492 269.765 17.928 269.765 17.296C269.765 16.656 269.905 16.092 270.185 15.604C270.473 15.108 270.865 14.72 271.361 14.44C271.865 14.16 272.437 14.02 273.077 14.02C273.701 14.02 274.257 14.156 274.745 14.428C275.233 14.7 275.617 15.084 275.897 15.58C276.177 16.076 276.317 16.66 276.317 17.332C276.317 17.396 276.313 17.468 276.305 17.548C276.305 17.628 276.301 17.704 276.293 17.776H270.953V16.78H275.501L274.913 17.092C274.921 16.724 274.845 16.4 274.685 16.12C274.525 15.84 274.305 15.62 274.025 15.46C273.753 15.3 273.437 15.22 273.077 15.22C272.709 15.22 272.385 15.3 272.105 15.46C271.833 15.62 271.617 15.844 271.457 16.132C271.305 16.412 271.229 16.744 271.229 17.128V17.368C271.229 17.752 271.317 18.092 271.493 18.388C271.669 18.684 271.917 18.912 272.237 19.072C272.557 19.232 272.925 19.312 273.341 19.312C273.701 19.312 274.025 19.256 274.313 19.144C274.601 19.032 274.857 18.856 275.081 18.616L275.885 19.54C275.597 19.876 275.233 20.136 274.793 20.32C274.361 20.496 273.865 20.584 273.305 20.584ZM279.707 20.62C279.115 20.62 278.535 20.536 277.967 20.368C277.407 20.192 276.935 19.952 276.551 19.648L277.223 18.436C277.527 18.684 277.895 18.884 278.327 19.036C278.759 19.188 279.211 19.264 279.683 19.264C280.243 19.264 280.679 19.152 280.991 18.928C281.303 18.696 281.459 18.384 281.459 17.992C281.459 17.608 281.315 17.304 281.027 17.08C280.739 16.856 280.275 16.744 279.635 16.744H278.867V15.676L281.267 12.82L281.471 13.408H276.959V12.1H282.683V13.144L280.283 16L279.467 15.52H279.935C280.967 15.52 281.739 15.752 282.251 16.216C282.771 16.672 283.031 17.26 283.031 17.98C283.031 18.452 282.911 18.888 282.671 19.288C282.431 19.688 282.063 20.012 281.567 20.26C281.079 20.5 280.459 20.62 279.707 20.62ZM287.968 20.5V12.1H291.424C292.168 12.1 292.804 12.22 293.332 12.46C293.868 12.7 294.28 13.044 294.568 13.492C294.856 13.94 295 14.472 295 15.088C295 15.704 294.856 16.236 294.568 16.684C294.28 17.132 293.868 17.476 293.332 17.716C292.804 17.956 292.168 18.076 291.424 18.076H288.832L289.528 17.344V20.5H287.968ZM289.528 17.512L288.832 16.756H291.352C292.04 16.756 292.556 16.612 292.9 16.324C293.252 16.028 293.428 15.616 293.428 15.088C293.428 14.552 293.252 14.14 292.9 13.852C292.556 13.564 292.04 13.42 291.352 13.42H288.832L289.528 12.652V17.512ZM299.27 20.584C298.614 20.584 298.03 20.444 297.518 20.164C297.006 19.876 296.602 19.484 296.306 18.988C296.01 18.492 295.862 17.928 295.862 17.296C295.862 16.656 296.01 16.092 296.306 15.604C296.602 15.108 297.006 14.72 297.518 14.44C298.03 14.16 298.614 14.02 299.27 14.02C299.934 14.02 300.522 14.16 301.034 14.44C301.554 14.72 301.958 15.104 302.246 15.592C302.542 16.08 302.69 16.648 302.69 17.296C302.69 17.928 302.542 18.492 302.246 18.988C301.958 19.484 301.554 19.876 301.034 20.164C300.522 20.444 299.934 20.584 299.27 20.584ZM299.27 19.3C299.638 19.3 299.966 19.22 300.254 19.06C300.542 18.9 300.766 18.668 300.926 18.364C301.094 18.06 301.178 17.704 301.178 17.296C301.178 16.88 301.094 16.524 300.926 16.228C300.766 15.924 300.542 15.692 300.254 15.532C299.966 15.372 299.642 15.292 299.282 15.292C298.914 15.292 298.586 15.372 298.298 15.532C298.018 15.692 297.794 15.924 297.626 16.228C297.458 16.524 297.374 16.88 297.374 17.296C297.374 17.704 297.458 18.06 297.626 18.364C297.794 18.668 298.018 18.9 298.298 19.06C298.586 19.22 298.91 19.3 299.27 19.3ZM304.125 20.5V14.092H305.625V20.5H304.125ZM304.881 13.036C304.601 13.036 304.369 12.948 304.185 12.772C304.009 12.596 303.921 12.384 303.921 12.136C303.921 11.88 304.009 11.668 304.185 11.5C304.369 11.324 304.601 11.236 304.881 11.236C305.161 11.236 305.389 11.32 305.565 11.488C305.749 11.648 305.841 11.852 305.841 12.1C305.841 12.364 305.753 12.588 305.577 12.772C305.401 12.948 305.169 13.036 304.881 13.036ZM311.229 14.02C311.741 14.02 312.197 14.12 312.597 14.32C313.005 14.52 313.325 14.828 313.557 15.244C313.789 15.652 313.905 16.18 313.905 16.828V20.5H312.405V17.02C312.405 16.452 312.269 16.028 311.997 15.748C311.733 15.468 311.361 15.328 310.881 15.328C310.529 15.328 310.217 15.4 309.945 15.544C309.673 15.688 309.461 15.904 309.309 16.192C309.165 16.472 309.093 16.828 309.093 17.26V20.5H307.593V14.092H309.021V15.82L308.769 15.292C308.993 14.884 309.317 14.572 309.741 14.356C310.173 14.132 310.669 14.02 311.229 14.02ZM318.22 20.584C317.516 20.584 316.972 20.404 316.588 20.044C316.204 19.676 316.012 19.136 316.012 18.424V12.676H317.512V18.388C317.512 18.692 317.588 18.928 317.74 19.096C317.9 19.264 318.12 19.348 318.4 19.348C318.736 19.348 319.016 19.26 319.24 19.084L319.66 20.152C319.484 20.296 319.268 20.404 319.012 20.476C318.756 20.548 318.492 20.584 318.22 20.584ZM314.956 15.34V14.14H319.228V15.34H314.956ZM322.874 20.584C322.338 20.584 321.822 20.516 321.326 20.38C320.838 20.236 320.45 20.064 320.162 19.864L320.738 18.724C321.026 18.908 321.37 19.06 321.77 19.18C322.17 19.3 322.57 19.36 322.97 19.36C323.442 19.36 323.782 19.296 323.99 19.168C324.206 19.04 324.314 18.868 324.314 18.652C324.314 18.476 324.242 18.344 324.098 18.256C323.954 18.16 323.766 18.088 323.534 18.04C323.302 17.992 323.042 17.948 322.754 17.908C322.474 17.868 322.19 17.816 321.902 17.752C321.622 17.68 321.366 17.58 321.134 17.452C320.902 17.316 320.714 17.136 320.57 16.912C320.426 16.688 320.354 16.392 320.354 16.024C320.354 15.616 320.47 15.264 320.702 14.968C320.934 14.664 321.258 14.432 321.674 14.272C322.098 14.104 322.598 14.02 323.174 14.02C323.606 14.02 324.042 14.068 324.482 14.164C324.922 14.26 325.286 14.396 325.574 14.572L324.998 15.712C324.694 15.528 324.386 15.404 324.074 15.34C323.77 15.268 323.466 15.232 323.162 15.232C322.706 15.232 322.366 15.3 322.142 15.436C321.926 15.572 321.818 15.744 321.818 15.952C321.818 16.144 321.89 16.288 322.034 16.384C322.178 16.48 322.366 16.556 322.598 16.612C322.83 16.668 323.086 16.716 323.366 16.756C323.654 16.788 323.938 16.84 324.218 16.912C324.498 16.984 324.754 17.084 324.986 17.212C325.226 17.332 325.418 17.504 325.562 17.728C325.706 17.952 325.778 18.244 325.778 18.604C325.778 19.004 325.658 19.352 325.418 19.648C325.186 19.944 324.854 20.176 324.422 20.344C323.99 20.504 323.474 20.584 322.874 20.584ZM327.358 20.56C327.182 20.56 327.03 20.496 326.902 20.368C326.782 20.24 326.722 20.084 326.722 19.9C326.722 19.708 326.782 19.552 326.902 19.432C327.03 19.312 327.182 19.252 327.358 19.252C327.534 19.252 327.682 19.312 327.802 19.432C327.93 19.552 327.994 19.708 327.994 19.9C327.994 20.084 327.93 20.24 327.802 20.368C327.682 20.496 327.534 20.56 327.358 20.56Z" fill="url(#paint1_linear_12735_190873)"/>
<rect y="31" width="417" height="1" fill="url(#paint2_linear_12735_190873)"/>
<rect width="417" height="1" fill="url(#paint3_linear_12735_190873)"/>
<defs>
<linearGradient id="paint0_linear_12735_190873" x1="417" y1="16" x2="-1.62919e-09" y2="16" gradientUnits="userSpaceOnUse">
<stop stop-color="#9AE84C" stop-opacity="0.2"/>
<stop offset="0.510417" stop-color="#9AE84C" stop-opacity="0.5"/>
<stop offset="1" stop-color="#9AE84C" stop-opacity="0.2"/>
</linearGradient>
<linearGradient id="paint1_linear_12735_190873" x1="197.5" y1="11.163" x2="197.5" y2="20.4874" gradientUnits="userSpaceOnUse">
<stop stop-color="#F0A45D"/>
<stop offset="1" stop-color="white"/>
</linearGradient>
<linearGradient id="paint2_linear_12735_190873" x1="5.17006e-06" y1="32.0007" x2="416.984" y2="28.8521" gradientUnits="userSpaceOnUse">
<stop stop-color="#D9D9D9" stop-opacity="0"/>
<stop offset="0.505208" stop-color="#D9D9D9" stop-opacity="0.51"/>
<stop offset="1" stop-color="#D9D9D9" stop-opacity="0"/>
</linearGradient>
<linearGradient id="paint3_linear_12735_190873" x1="5.17006e-06" y1="1.00068" x2="416.984" y2="-2.14793" gradientUnits="userSpaceOnUse">
<stop stop-color="#D9D9D9" stop-opacity="0"/>
<stop offset="0.505208" stop-color="#D9D9D9" stop-opacity="0.51"/>
<stop offset="1" stop-color="#D9D9D9" stop-opacity="0"/>
</linearGradient>
</defs>
</svg>
