<svg width="417" height="32" viewBox="0 0 417 32" fill="none" xmlns="http://www.w3.org/2000/svg">
<rect width="417" height="32" fill="url(#paint0_linear_12735_191015)" fill-opacity="0.5"/>
<path d="M55 25H41C40.45 25 40 24.55 40 24V14H56V24C56 24.55 55.55 25 55 25Z" fill="#D32F2F"/>
<path d="M57 14H39V11C39 10.45 39.45 10 40 10H56C56.55 10 57 10.45 57 11V14Z" fill="#F44336"/>
<path d="M47 14H49V25H47V14ZM52 7H50L47 10H49L52 7Z" fill="#FF8F00"/>
<path d="M46 7H44L47 10V14H49V10L46 7Z" fill="#FFC107"/>
<path d="M67.368 20.5V12.1H70.512C71.224 12.1 71.836 12.216 72.348 12.448C72.86 12.672 73.252 13 73.524 13.432C73.804 13.856 73.944 14.372 73.944 14.98C73.944 15.572 73.804 16.084 73.524 16.516C73.252 16.94 72.86 17.268 72.348 17.5C71.836 17.732 71.224 17.848 70.512 17.848H67.86L68.256 17.428V20.5H67.368ZM68.256 17.5L67.86 17.068H70.488C71.328 17.068 71.964 16.888 72.396 16.528C72.836 16.16 73.056 15.644 73.056 14.98C73.056 14.308 72.836 13.788 72.396 13.42C71.964 13.052 71.328 12.868 70.488 12.868H67.86L68.256 12.448V17.5ZM75.5318 20.5V14.2H76.3478V15.916L76.2638 15.616C76.4398 15.136 76.7358 14.772 77.1518 14.524C77.5678 14.268 78.0838 14.14 78.6998 14.14V14.968C78.6678 14.968 78.6358 14.968 78.6038 14.968C78.5718 14.96 78.5398 14.956 78.5078 14.956C77.8438 14.956 77.3238 15.16 76.9478 15.568C76.5718 15.968 76.3838 16.54 76.3838 17.284V20.5H75.5318ZM80.2544 20.5V14.2H81.1064V20.5H80.2544ZM80.6864 12.808C80.5104 12.808 80.3624 12.748 80.2424 12.628C80.1224 12.508 80.0624 12.364 80.0624 12.196C80.0624 12.028 80.1224 11.888 80.2424 11.776C80.3624 11.656 80.5104 11.596 80.6864 11.596C80.8624 11.596 81.0104 11.652 81.1304 11.764C81.2504 11.876 81.3104 12.016 81.3104 12.184C81.3104 12.36 81.2504 12.508 81.1304 12.628C81.0184 12.748 80.8704 12.808 80.6864 12.808ZM82.7931 20.5V19.936L86.9931 14.62L87.1731 14.908H82.8651V14.2H87.8451V14.752L83.6571 20.08L83.4411 19.792H87.9291V20.5H82.7931ZM92.1765 20.56C91.5205 20.56 90.9445 20.424 90.4485 20.152C89.9525 19.872 89.5645 19.492 89.2845 19.012C89.0045 18.524 88.8645 17.968 88.8645 17.344C88.8645 16.72 88.9965 16.168 89.2605 15.688C89.5325 15.208 89.9005 14.832 90.3645 14.56C90.8365 14.28 91.3645 14.14 91.9485 14.14C92.5405 14.14 93.0645 14.276 93.5205 14.548C93.9845 14.812 94.3485 15.188 94.6125 15.676C94.8765 16.156 95.0085 16.712 95.0085 17.344C95.0085 17.384 95.0045 17.428 94.9965 17.476C94.9965 17.516 94.9965 17.56 94.9965 17.608H89.5125V16.972H94.5405L94.2045 17.224C94.2045 16.768 94.1045 16.364 93.9045 16.012C93.7125 15.652 93.4485 15.372 93.1125 15.172C92.7765 14.972 92.3885 14.872 91.9485 14.872C91.5165 14.872 91.1285 14.972 90.7845 15.172C90.4405 15.372 90.1725 15.652 89.9805 16.012C89.7885 16.372 89.6925 16.784 89.6925 17.248V17.38C89.6925 17.86 89.7965 18.284 90.0045 18.652C90.2205 19.012 90.5165 19.296 90.8925 19.504C91.2765 19.704 91.7125 19.804 92.2005 19.804C92.5845 19.804 92.9405 19.736 93.2685 19.6C93.6045 19.464 93.8925 19.256 94.1325 18.976L94.6125 19.528C94.3325 19.864 93.9805 20.12 93.5565 20.296C93.1405 20.472 92.6805 20.56 92.1765 20.56ZM100.063 20.5V12.1H103.207C103.919 12.1 104.531 12.216 105.043 12.448C105.555 12.672 105.947 13 106.219 13.432C106.499 13.856 106.639 14.372 106.639 14.98C106.639 15.572 106.499 16.084 106.219 16.516C105.947 16.94 105.555 17.268 105.043 17.5C104.531 17.732 103.919 17.848 103.207 17.848H100.555L100.951 17.428V20.5H100.063ZM100.951 17.5L100.555 17.068H103.183C104.023 17.068 104.659 16.888 105.091 16.528C105.531 16.16 105.751 15.644 105.751 14.98C105.751 14.308 105.531 13.788 105.091 13.42C104.659 13.052 104.023 12.868 103.183 12.868H100.555L100.951 12.448V17.5ZM110.912 20.56C110.304 20.56 109.756 20.424 109.268 20.152C108.788 19.872 108.408 19.492 108.128 19.012C107.848 18.524 107.708 17.968 107.708 17.344C107.708 16.712 107.848 16.156 108.128 15.676C108.408 15.196 108.788 14.82 109.268 14.548C109.748 14.276 110.296 14.14 110.912 14.14C111.536 14.14 112.088 14.276 112.568 14.548C113.056 14.82 113.436 15.196 113.708 15.676C113.988 16.156 114.128 16.712 114.128 17.344C114.128 17.968 113.988 18.524 113.708 19.012C113.436 19.492 113.056 19.872 112.568 20.152C112.08 20.424 111.528 20.56 110.912 20.56ZM110.912 19.804C111.368 19.804 111.772 19.704 112.124 19.504C112.476 19.296 112.752 19.008 112.952 18.64C113.16 18.264 113.264 17.832 113.264 17.344C113.264 16.848 113.16 16.416 112.952 16.048C112.752 15.68 112.476 15.396 112.124 15.196C111.772 14.988 111.372 14.884 110.924 14.884C110.476 14.884 110.076 14.988 109.724 15.196C109.372 15.396 109.092 15.68 108.884 16.048C108.676 16.416 108.572 16.848 108.572 17.344C108.572 17.832 108.676 18.264 108.884 18.64C109.092 19.008 109.372 19.296 109.724 19.504C110.076 19.704 110.472 19.804 110.912 19.804ZM118.436 20.56C117.828 20.56 117.28 20.424 116.792 20.152C116.312 19.872 115.932 19.492 115.652 19.012C115.372 18.524 115.232 17.968 115.232 17.344C115.232 16.712 115.372 16.156 115.652 15.676C115.932 15.196 116.312 14.82 116.792 14.548C117.272 14.276 117.82 14.14 118.436 14.14C119.06 14.14 119.612 14.276 120.092 14.548C120.58 14.82 120.96 15.196 121.232 15.676C121.512 16.156 121.652 16.712 121.652 17.344C121.652 17.968 121.512 18.524 121.232 19.012C120.96 19.492 120.58 19.872 120.092 20.152C119.604 20.424 119.052 20.56 118.436 20.56ZM118.436 19.804C118.892 19.804 119.296 19.704 119.648 19.504C120 19.296 120.276 19.008 120.476 18.64C120.684 18.264 120.788 17.832 120.788 17.344C120.788 16.848 120.684 16.416 120.476 16.048C120.276 15.68 120 15.396 119.648 15.196C119.296 14.988 118.896 14.884 118.448 14.884C118 14.884 117.6 14.988 117.248 15.196C116.896 15.396 116.616 15.68 116.408 16.048C116.2 16.416 116.096 16.848 116.096 17.344C116.096 17.832 116.2 18.264 116.408 18.64C116.616 19.008 116.896 19.296 117.248 19.504C117.6 19.704 117.996 19.804 118.436 19.804ZM123.391 20.5V11.596H124.243V20.5H123.391ZM126.698 15.448C126.522 15.448 126.37 15.384 126.242 15.256C126.122 15.128 126.062 14.972 126.062 14.788C126.062 14.596 126.122 14.44 126.242 14.32C126.37 14.2 126.522 14.14 126.698 14.14C126.874 14.14 127.022 14.2 127.142 14.32C127.27 14.44 127.334 14.596 127.334 14.788C127.334 14.972 127.27 15.128 127.142 15.256C127.022 15.384 126.874 15.448 126.698 15.448ZM126.698 20.56C126.522 20.56 126.37 20.496 126.242 20.368C126.122 20.24 126.062 20.084 126.062 19.9C126.062 19.708 126.122 19.552 126.242 19.432C126.37 19.312 126.522 19.252 126.698 19.252C126.874 19.252 127.022 19.312 127.142 19.432C127.27 19.552 127.334 19.708 127.334 19.9C127.334 20.084 127.27 20.24 127.142 20.368C127.022 20.496 126.874 20.56 126.698 20.56ZM132.237 20.5V12.1H133.521L137.193 18.232H136.521L140.133 12.1H141.417L141.429 20.5H139.953L139.941 14.416H140.253L137.181 19.54H136.485L133.365 14.416H133.725V20.5H132.237ZM147.502 20.5V19.204L147.418 18.928V16.66C147.418 16.22 147.286 15.88 147.022 15.64C146.758 15.392 146.358 15.268 145.822 15.268C145.462 15.268 145.106 15.324 144.754 15.436C144.41 15.548 144.118 15.704 143.878 15.904L143.29 14.812C143.634 14.548 144.042 14.352 144.514 14.224C144.994 14.088 145.49 14.02 146.002 14.02C146.93 14.02 147.646 14.244 148.15 14.692C148.662 15.132 148.918 15.816 148.918 16.744V20.5H147.502ZM145.486 20.584C145.006 20.584 144.586 20.504 144.226 20.344C143.866 20.176 143.586 19.948 143.386 19.66C143.194 19.364 143.098 19.032 143.098 18.664C143.098 18.304 143.182 17.98 143.35 17.692C143.526 17.404 143.81 17.176 144.202 17.008C144.594 16.84 145.114 16.756 145.762 16.756H147.622V17.752H145.87C145.358 17.752 145.014 17.836 144.838 18.004C144.662 18.164 144.574 18.364 144.574 18.604C144.574 18.876 144.682 19.092 144.898 19.252C145.114 19.412 145.414 19.492 145.798 19.492C146.166 19.492 146.494 19.408 146.782 19.24C147.078 19.072 147.29 18.824 147.418 18.496L147.67 19.396C147.526 19.772 147.266 20.064 146.89 20.272C146.522 20.48 146.054 20.584 145.486 20.584ZM149.967 20.5L152.787 16.828L152.763 17.632L150.075 14.092H151.743L153.627 16.612H152.991L154.887 14.092H156.507L153.795 17.632L153.807 16.828L156.615 20.5H154.923L152.943 17.824L153.567 17.908L151.623 20.5H149.967ZM161.927 20.5V12.7L162.611 13.408H160.151V12.1H163.487V20.5H161.927ZM166.089 20.584C165.817 20.584 165.585 20.492 165.393 20.308C165.201 20.116 165.105 19.876 165.105 19.588C165.105 19.284 165.201 19.044 165.393 18.868C165.585 18.684 165.817 18.592 166.089 18.592C166.361 18.592 166.593 18.684 166.785 18.868C166.977 19.044 167.073 19.284 167.073 19.588C167.073 19.876 166.977 20.116 166.785 20.308C166.593 20.492 166.361 20.584 166.089 20.584ZM170.867 20.62C170.275 20.62 169.695 20.536 169.127 20.368C168.567 20.192 168.095 19.952 167.711 19.648L168.371 18.436C168.675 18.684 169.043 18.884 169.475 19.036C169.915 19.188 170.371 19.264 170.843 19.264C171.395 19.264 171.827 19.148 172.139 18.916C172.459 18.684 172.619 18.372 172.619 17.98C172.619 17.716 172.551 17.484 172.415 17.284C172.287 17.084 172.055 16.932 171.719 16.828C171.391 16.724 170.939 16.672 170.363 16.672H168.335L168.767 12.1H173.699V13.408H169.343L170.159 12.664L169.835 16.084L169.019 15.352H170.711C171.543 15.352 172.211 15.464 172.715 15.688C173.227 15.904 173.599 16.208 173.831 16.6C174.071 16.984 174.191 17.424 174.191 17.92C174.191 18.408 174.071 18.856 173.831 19.264C173.591 19.672 173.223 20 172.727 20.248C172.239 20.496 171.619 20.62 170.867 20.62ZM174.53 20.5L178.07 15.628V16.804L174.698 12.1H176.462L178.97 15.58L178.25 15.592L180.734 12.1H182.426L179.078 16.72V15.592L182.642 20.5H180.842L178.202 16.804H178.91L176.306 20.5H174.53ZM187.187 20.5V12.1H188.471L192.143 18.232H191.471L195.083 12.1H196.367L196.379 20.5H194.903L194.891 14.416H195.203L192.131 19.54H191.435L188.315 14.416H188.675V20.5H187.187ZM201.216 20.584C200.672 20.584 200.192 20.484 199.776 20.284C199.36 20.076 199.036 19.764 198.804 19.348C198.572 18.924 198.456 18.392 198.456 17.752V14.092H199.956V17.548C199.956 18.124 200.084 18.556 200.34 18.844C200.604 19.124 200.976 19.264 201.456 19.264C201.808 19.264 202.112 19.192 202.368 19.048C202.632 18.904 202.836 18.688 202.98 18.4C203.132 18.112 203.208 17.756 203.208 17.332V14.092H204.708V20.5H203.28V18.772L203.532 19.3C203.316 19.716 203 20.036 202.584 20.26C202.168 20.476 201.712 20.584 201.216 20.584ZM206.672 20.5V11.596H208.172V20.5H206.672ZM212.869 20.584C212.165 20.584 211.621 20.404 211.237 20.044C210.853 19.676 210.661 19.136 210.661 18.424V12.676H212.161V18.388C212.161 18.692 212.237 18.928 212.389 19.096C212.549 19.264 212.769 19.348 213.049 19.348C213.385 19.348 213.665 19.26 213.889 19.084L214.309 20.152C214.133 20.296 213.917 20.404 213.661 20.476C213.405 20.548 213.141 20.584 212.869 20.584ZM209.605 15.34V14.14H213.877V15.34H209.605ZM215.543 20.5V14.092H217.043V20.5H215.543ZM216.299 13.036C216.019 13.036 215.787 12.948 215.603 12.772C215.427 12.596 215.339 12.384 215.339 12.136C215.339 11.88 215.427 11.668 215.603 11.5C215.787 11.324 216.019 11.236 216.299 11.236C216.579 11.236 216.807 11.32 216.983 11.488C217.167 11.648 217.259 11.852 217.259 12.1C217.259 12.364 217.171 12.588 216.995 12.772C216.819 12.948 216.587 13.036 216.299 13.036ZM222.563 20.584C222.043 20.584 221.567 20.464 221.135 20.224C220.711 19.984 220.371 19.624 220.115 19.144C219.867 18.656 219.743 18.04 219.743 17.296C219.743 16.544 219.863 15.928 220.103 15.448C220.351 14.968 220.687 14.612 221.111 14.38C221.535 14.14 222.019 14.02 222.563 14.02C223.195 14.02 223.751 14.156 224.231 14.428C224.719 14.7 225.103 15.08 225.383 15.568C225.671 16.056 225.815 16.632 225.815 17.296C225.815 17.96 225.671 18.54 225.383 19.036C225.103 19.524 224.719 19.904 224.231 20.176C223.751 20.448 223.195 20.584 222.563 20.584ZM219.011 22.828V14.092H220.439V15.604L220.391 17.308L220.511 19.012V22.828H219.011ZM222.395 19.3C222.755 19.3 223.075 19.22 223.355 19.06C223.643 18.9 223.871 18.668 224.039 18.364C224.207 18.06 224.291 17.704 224.291 17.296C224.291 16.88 224.207 16.524 224.039 16.228C223.871 15.924 223.643 15.692 223.355 15.532C223.075 15.372 222.755 15.292 222.395 15.292C222.035 15.292 221.711 15.372 221.423 15.532C221.135 15.692 220.907 15.924 220.739 16.228C220.571 16.524 220.487 16.88 220.487 17.296C220.487 17.704 220.571 18.06 220.739 18.364C220.907 18.668 221.135 18.9 221.423 19.06C221.711 19.22 222.035 19.3 222.395 19.3ZM227.238 20.5V11.596H228.738V20.5H227.238ZM230.707 20.5V14.092H232.207V20.5H230.707ZM231.463 13.036C231.183 13.036 230.951 12.948 230.767 12.772C230.591 12.596 230.503 12.384 230.503 12.136C230.503 11.88 230.591 11.668 230.767 11.5C230.951 11.324 231.183 11.236 231.463 11.236C231.743 11.236 231.971 11.32 232.147 11.488C232.331 11.648 232.423 11.852 232.423 12.1C232.423 12.364 232.335 12.588 232.159 12.772C231.983 12.948 231.751 13.036 231.463 13.036ZM237.187 20.584C236.475 20.584 235.851 20.444 235.315 20.164C234.787 19.876 234.375 19.484 234.079 18.988C233.791 18.492 233.647 17.928 233.647 17.296C233.647 16.656 233.787 16.092 234.067 15.604C234.355 15.108 234.747 14.72 235.243 14.44C235.747 14.16 236.319 14.02 236.959 14.02C237.583 14.02 238.139 14.156 238.627 14.428C239.115 14.7 239.499 15.084 239.779 15.58C240.059 16.076 240.199 16.66 240.199 17.332C240.199 17.396 240.195 17.468 240.187 17.548C240.187 17.628 240.183 17.704 240.175 17.776H234.835V16.78H239.383L238.795 17.092C238.803 16.724 238.727 16.4 238.567 16.12C238.407 15.84 238.187 15.62 237.907 15.46C237.635 15.3 237.319 15.22 236.959 15.22C236.591 15.22 236.267 15.3 235.987 15.46C235.715 15.62 235.499 15.844 235.339 16.132C235.187 16.412 235.111 16.744 235.111 17.128V17.368C235.111 17.752 235.199 18.092 235.375 18.388C235.551 18.684 235.799 18.912 236.119 19.072C236.439 19.232 236.807 19.312 237.223 19.312C237.583 19.312 237.907 19.256 238.195 19.144C238.483 19.032 238.739 18.856 238.963 18.616L239.767 19.54C239.479 19.876 239.115 20.136 238.675 20.32C238.243 20.496 237.747 20.584 237.187 20.584ZM241.64 20.5V14.092H243.068V15.856L242.9 15.34C243.092 14.908 243.392 14.58 243.8 14.356C244.216 14.132 244.732 14.02 245.348 14.02V15.448C245.284 15.432 245.224 15.424 245.168 15.424C245.112 15.416 245.056 15.412 245 15.412C244.432 15.412 243.98 15.58 243.644 15.916C243.308 16.244 243.14 16.736 243.14 17.392V20.5H241.64ZM252.876 20.584C252.22 20.584 251.636 20.444 251.124 20.164C250.612 19.876 250.208 19.484 249.912 18.988C249.616 18.492 249.468 17.928 249.468 17.296C249.468 16.656 249.616 16.092 249.912 15.604C250.208 15.108 250.612 14.72 251.124 14.44C251.636 14.16 252.22 14.02 252.876 14.02C253.54 14.02 254.128 14.16 254.64 14.44C255.16 14.72 255.564 15.104 255.852 15.592C256.148 16.08 256.296 16.648 256.296 17.296C256.296 17.928 256.148 18.492 255.852 18.988C255.564 19.484 255.16 19.876 254.64 20.164C254.128 20.444 253.54 20.584 252.876 20.584ZM252.876 19.3C253.244 19.3 253.572 19.22 253.86 19.06C254.148 18.9 254.372 18.668 254.532 18.364C254.7 18.06 254.784 17.704 254.784 17.296C254.784 16.88 254.7 16.524 254.532 16.228C254.372 15.924 254.148 15.692 253.86 15.532C253.572 15.372 253.248 15.292 252.888 15.292C252.52 15.292 252.192 15.372 251.904 15.532C251.624 15.692 251.4 15.924 251.232 16.228C251.064 16.524 250.98 16.88 250.98 17.296C250.98 17.704 251.064 18.06 251.232 18.364C251.4 18.668 251.624 18.9 251.904 19.06C252.192 19.22 252.516 19.3 252.876 19.3ZM261.366 14.02C261.878 14.02 262.334 14.12 262.734 14.32C263.142 14.52 263.462 14.828 263.694 15.244C263.926 15.652 264.042 16.18 264.042 16.828V20.5H262.542V17.02C262.542 16.452 262.406 16.028 262.134 15.748C261.87 15.468 261.498 15.328 261.018 15.328C260.666 15.328 260.354 15.4 260.082 15.544C259.81 15.688 259.598 15.904 259.446 16.192C259.302 16.472 259.23 16.828 259.23 17.26V20.5H257.73V14.092H259.158V15.82L258.906 15.292C259.13 14.884 259.454 14.572 259.878 14.356C260.31 14.132 260.806 14.02 261.366 14.02ZM271.109 20.5V13.42H268.325V12.1H275.453V13.42H272.669V20.5H271.109ZM276.328 20.5V14.092H277.756V15.856L277.588 15.34C277.78 14.908 278.08 14.58 278.488 14.356C278.904 14.132 279.42 14.02 280.036 14.02V15.448C279.972 15.432 279.912 15.424 279.856 15.424C279.8 15.416 279.744 15.412 279.688 15.412C279.12 15.412 278.668 15.58 278.332 15.916C277.996 16.244 277.828 16.736 277.828 17.392V20.5H276.328ZM284.799 20.5V19.204L284.715 18.928V16.66C284.715 16.22 284.583 15.88 284.319 15.64C284.055 15.392 283.655 15.268 283.119 15.268C282.759 15.268 282.403 15.324 282.051 15.436C281.707 15.548 281.415 15.704 281.175 15.904L280.587 14.812C280.931 14.548 281.339 14.352 281.811 14.224C282.291 14.088 282.787 14.02 283.299 14.02C284.227 14.02 284.943 14.244 285.447 14.692C285.959 15.132 286.215 15.816 286.215 16.744V20.5H284.799ZM282.783 20.584C282.303 20.584 281.883 20.504 281.523 20.344C281.163 20.176 280.883 19.948 280.683 19.66C280.491 19.364 280.395 19.032 280.395 18.664C280.395 18.304 280.479 17.98 280.647 17.692C280.823 17.404 281.107 17.176 281.499 17.008C281.891 16.84 282.411 16.756 283.059 16.756H284.919V17.752H283.167C282.655 17.752 282.311 17.836 282.135 18.004C281.959 18.164 281.871 18.364 281.871 18.604C281.871 18.876 281.979 19.092 282.195 19.252C282.411 19.412 282.711 19.492 283.095 19.492C283.463 19.492 283.791 19.408 284.079 19.24C284.375 19.072 284.587 18.824 284.715 18.496L284.967 19.396C284.823 19.772 284.563 20.064 284.187 20.272C283.819 20.48 283.351 20.584 282.783 20.584ZM290.864 20.584C290.248 20.584 289.692 20.448 289.196 20.176C288.708 19.896 288.324 19.512 288.044 19.024C287.764 18.536 287.624 17.96 287.624 17.296C287.624 16.632 287.764 16.056 288.044 15.568C288.324 15.08 288.708 14.7 289.196 14.428C289.692 14.156 290.248 14.02 290.864 14.02C291.4 14.02 291.88 14.14 292.304 14.38C292.728 14.612 293.064 14.968 293.312 15.448C293.56 15.928 293.684 16.544 293.684 17.296C293.684 18.04 293.564 18.656 293.324 19.144C293.084 19.624 292.752 19.984 292.328 20.224C291.904 20.464 291.416 20.584 290.864 20.584ZM291.044 19.3C291.404 19.3 291.724 19.22 292.004 19.06C292.292 18.9 292.52 18.668 292.688 18.364C292.864 18.06 292.952 17.704 292.952 17.296C292.952 16.88 292.864 16.524 292.688 16.228C292.52 15.924 292.292 15.692 292.004 15.532C291.724 15.372 291.404 15.292 291.044 15.292C290.684 15.292 290.36 15.372 290.072 15.532C289.792 15.692 289.564 15.924 289.388 16.228C289.22 16.524 289.136 16.88 289.136 17.296C289.136 17.704 289.22 18.06 289.388 18.364C289.564 18.668 289.792 18.9 290.072 19.06C290.36 19.22 290.684 19.3 291.044 19.3ZM292.988 20.5V18.988L293.048 17.284L292.928 15.58V11.596H294.416V20.5H292.988ZM296.39 20.5V14.092H297.89V20.5H296.39ZM297.146 13.036C296.866 13.036 296.634 12.948 296.45 12.772C296.274 12.596 296.186 12.384 296.186 12.136C296.186 11.88 296.274 11.668 296.45 11.5C296.634 11.324 296.866 11.236 297.146 11.236C297.426 11.236 297.654 11.32 297.83 11.488C298.014 11.648 298.106 11.852 298.106 12.1C298.106 12.364 298.018 12.588 297.842 12.772C297.666 12.948 297.434 13.036 297.146 13.036ZM303.495 14.02C304.007 14.02 304.463 14.12 304.863 14.32C305.271 14.52 305.591 14.828 305.823 15.244C306.055 15.652 306.171 16.18 306.171 16.828V20.5H304.671V17.02C304.671 16.452 304.535 16.028 304.263 15.748C303.999 15.468 303.627 15.328 303.147 15.328C302.795 15.328 302.483 15.4 302.211 15.544C301.939 15.688 301.727 15.904 301.575 16.192C301.431 16.472 301.359 16.828 301.359 17.26V20.5H299.859V14.092H301.287V15.82L301.035 15.292C301.259 14.884 301.583 14.572 302.007 14.356C302.439 14.132 302.935 14.02 303.495 14.02ZM310.99 22.912C310.398 22.912 309.818 22.832 309.25 22.672C308.69 22.52 308.23 22.296 307.87 22L308.542 20.872C308.822 21.104 309.174 21.288 309.598 21.424C310.03 21.568 310.466 21.64 310.906 21.64C311.61 21.64 312.126 21.476 312.454 21.148C312.782 20.828 312.946 20.344 312.946 19.696V18.556L313.066 17.104L313.018 15.652V14.092H314.446V19.528C314.446 20.688 314.15 21.54 313.558 22.084C312.966 22.636 312.11 22.912 310.99 22.912ZM310.798 20.212C310.19 20.212 309.638 20.084 309.142 19.828C308.654 19.564 308.266 19.2 307.978 18.736C307.698 18.272 307.558 17.728 307.558 17.104C307.558 16.488 307.698 15.948 307.978 15.484C308.266 15.02 308.654 14.66 309.142 14.404C309.638 14.148 310.19 14.02 310.798 14.02C311.342 14.02 311.83 14.128 312.262 14.344C312.694 14.56 313.038 14.896 313.294 15.352C313.558 15.808 313.69 16.392 313.69 17.104C313.69 17.816 313.558 18.404 313.294 18.868C313.038 19.324 312.694 19.664 312.262 19.888C311.83 20.104 311.342 20.212 310.798 20.212ZM311.026 18.94C311.402 18.94 311.738 18.864 312.034 18.712C312.33 18.552 312.558 18.336 312.718 18.064C312.886 17.784 312.97 17.464 312.97 17.104C312.97 16.744 312.886 16.428 312.718 16.156C312.558 15.876 312.33 15.664 312.034 15.52C311.738 15.368 311.402 15.292 311.026 15.292C310.65 15.292 310.31 15.368 310.006 15.52C309.71 15.664 309.478 15.876 309.31 16.156C309.15 16.428 309.07 16.744 309.07 17.104C309.07 17.464 309.15 17.784 309.31 18.064C309.478 18.336 309.71 18.552 310.006 18.712C310.31 18.864 310.65 18.94 311.026 18.94ZM322.362 20.5L318.69 12.1H320.382L323.658 19.696H322.686L325.998 12.1H327.558L323.898 20.5H322.362ZM330.7 20.584C330.044 20.584 329.46 20.444 328.948 20.164C328.436 19.876 328.032 19.484 327.736 18.988C327.44 18.492 327.292 17.928 327.292 17.296C327.292 16.656 327.44 16.092 327.736 15.604C328.032 15.108 328.436 14.72 328.948 14.44C329.46 14.16 330.044 14.02 330.7 14.02C331.364 14.02 331.952 14.16 332.464 14.44C332.984 14.72 333.388 15.104 333.676 15.592C333.972 16.08 334.12 16.648 334.12 17.296C334.12 17.928 333.972 18.492 333.676 18.988C333.388 19.484 332.984 19.876 332.464 20.164C331.952 20.444 331.364 20.584 330.7 20.584ZM330.7 19.3C331.068 19.3 331.396 19.22 331.684 19.06C331.972 18.9 332.196 18.668 332.356 18.364C332.524 18.06 332.608 17.704 332.608 17.296C332.608 16.88 332.524 16.524 332.356 16.228C332.196 15.924 331.972 15.692 331.684 15.532C331.396 15.372 331.072 15.292 330.712 15.292C330.344 15.292 330.016 15.372 329.728 15.532C329.448 15.692 329.224 15.924 329.056 16.228C328.888 16.524 328.804 16.88 328.804 17.296C328.804 17.704 328.888 18.06 329.056 18.364C329.224 18.668 329.448 18.9 329.728 19.06C330.016 19.22 330.34 19.3 330.7 19.3ZM335.554 20.5V11.596H337.054V20.5H335.554ZM339.503 20.584C339.231 20.584 338.999 20.492 338.807 20.308C338.615 20.116 338.519 19.876 338.519 19.588C338.519 19.284 338.615 19.044 338.807 18.868C338.999 18.684 339.231 18.592 339.503 18.592C339.775 18.592 340.007 18.684 340.199 18.868C340.391 19.044 340.487 19.284 340.487 19.588C340.487 19.876 340.391 20.116 340.199 20.308C340.007 20.492 339.775 20.584 339.503 20.584ZM345.413 20.5V12.1H348.869C349.613 12.1 350.249 12.22 350.777 12.46C351.313 12.7 351.725 13.044 352.013 13.492C352.301 13.94 352.445 14.472 352.445 15.088C352.445 15.704 352.301 16.236 352.013 16.684C351.725 17.132 351.313 17.476 350.777 17.716C350.249 17.956 349.613 18.076 348.869 18.076H346.277L346.973 17.344V20.5H345.413ZM346.973 17.512L346.277 16.756H348.797C349.485 16.756 350.001 16.612 350.345 16.324C350.697 16.028 350.873 15.616 350.873 15.088C350.873 14.552 350.697 14.14 350.345 13.852C350.001 13.564 349.485 13.42 348.797 13.42H346.277L346.973 12.652V17.512ZM356.447 20.584C355.743 20.584 355.199 20.404 354.815 20.044C354.431 19.676 354.239 19.136 354.239 18.424V12.676H355.739V18.388C355.739 18.692 355.815 18.928 355.967 19.096C356.127 19.264 356.347 19.348 356.627 19.348C356.963 19.348 357.243 19.26 357.467 19.084L357.887 20.152C357.711 20.296 357.495 20.404 357.239 20.476C356.983 20.548 356.719 20.584 356.447 20.584ZM353.183 15.34V14.14H357.455V15.34H353.183ZM361.101 20.584C360.565 20.584 360.049 20.516 359.553 20.38C359.065 20.236 358.677 20.064 358.389 19.864L358.965 18.724C359.253 18.908 359.597 19.06 359.997 19.18C360.397 19.3 360.797 19.36 361.197 19.36C361.669 19.36 362.009 19.296 362.217 19.168C362.433 19.04 362.541 18.868 362.541 18.652C362.541 18.476 362.469 18.344 362.325 18.256C362.181 18.16 361.993 18.088 361.761 18.04C361.529 17.992 361.269 17.948 360.981 17.908C360.701 17.868 360.417 17.816 360.129 17.752C359.849 17.68 359.593 17.58 359.361 17.452C359.129 17.316 358.941 17.136 358.797 16.912C358.653 16.688 358.581 16.392 358.581 16.024C358.581 15.616 358.697 15.264 358.929 14.968C359.161 14.664 359.485 14.432 359.901 14.272C360.325 14.104 360.825 14.02 361.401 14.02C361.833 14.02 362.269 14.068 362.709 14.164C363.149 14.26 363.513 14.396 363.801 14.572L363.225 15.712C362.921 15.528 362.613 15.404 362.301 15.34C361.997 15.268 361.693 15.232 361.389 15.232C360.933 15.232 360.593 15.3 360.369 15.436C360.153 15.572 360.045 15.744 360.045 15.952C360.045 16.144 360.117 16.288 360.261 16.384C360.405 16.48 360.593 16.556 360.825 16.612C361.057 16.668 361.313 16.716 361.593 16.756C361.881 16.788 362.165 16.84 362.445 16.912C362.725 16.984 362.981 17.084 363.213 17.212C363.453 17.332 363.645 17.504 363.789 17.728C363.933 17.952 364.005 18.244 364.005 18.604C364.005 19.004 363.885 19.352 363.645 19.648C363.413 19.944 363.081 20.176 362.649 20.344C362.217 20.504 361.701 20.584 361.101 20.584ZM365.585 20.56C365.409 20.56 365.257 20.496 365.129 20.368C365.009 20.24 364.949 20.084 364.949 19.9C364.949 19.708 365.009 19.552 365.129 19.432C365.257 19.312 365.409 19.252 365.585 19.252C365.761 19.252 365.909 19.312 366.029 19.432C366.157 19.552 366.221 19.708 366.221 19.9C366.221 20.084 366.157 20.24 366.029 20.368C365.909 20.496 365.761 20.56 365.585 20.56Z" fill="url(#paint1_linear_12735_191015)"/>
<rect y="31" width="417" height="1" fill="url(#paint2_linear_12735_191015)"/>
<rect width="417" height="1" fill="url(#paint3_linear_12735_191015)"/>
<defs>
<linearGradient id="paint0_linear_12735_191015" x1="417" y1="16" x2="-1.62919e-09" y2="16" gradientUnits="userSpaceOnUse">
<stop stop-color="#FAA556" stop-opacity="0.2"/>
<stop offset="0.510417" stop-color="#FAA556" stop-opacity="0.5"/>
<stop offset="1" stop-color="#FAA556" stop-opacity="0.2"/>
</linearGradient>
<linearGradient id="paint1_linear_12735_191015" x1="216.5" y1="11.163" x2="216.5" y2="20.4874" gradientUnits="userSpaceOnUse">
<stop stop-color="#F0A45D"/>
<stop offset="1" stop-color="white"/>
</linearGradient>
<linearGradient id="paint2_linear_12735_191015" x1="5.17006e-06" y1="32.0007" x2="416.984" y2="28.8521" gradientUnits="userSpaceOnUse">
<stop stop-color="#D9D9D9" stop-opacity="0"/>
<stop offset="0.505208" stop-color="#D9D9D9" stop-opacity="0.51"/>
<stop offset="1" stop-color="#D9D9D9" stop-opacity="0"/>
</linearGradient>
<linearGradient id="paint3_linear_12735_191015" x1="5.17006e-06" y1="1.00068" x2="416.984" y2="-2.14793" gradientUnits="userSpaceOnUse">
<stop stop-color="#D9D9D9" stop-opacity="0"/>
<stop offset="0.505208" stop-color="#D9D9D9" stop-opacity="0.51"/>
<stop offset="1" stop-color="#D9D9D9" stop-opacity="0"/>
</linearGradient>
</defs>
</svg>
