<svg width="48" height="48" viewBox="0 0 48 48" fill="none" xmlns="http://www.w3.org/2000/svg">
<path fill-rule="evenodd" clip-rule="evenodd" d="M35.5 31.186V41.046C35.5 42.208 34.924 43.294 33.962 43.944C33 44.596 31.778 44.726 30.7 44.296L25.5 42.216V35.436C29.312 35.112 32.776 33.564 35.5 31.186ZM22.5 35.436V42.216L17.3 44.296C16.222 44.726 15 44.596 14.038 43.944C13.076 43.294 12.5 42.208 12.5 41.046V31.186C15.224 33.564 18.688 35.112 22.5 35.436ZM24 2.5C32.554 2.5 39.5 9.446 39.5 18C39.5 26.554 32.554 33.5 24 33.5C15.446 33.5 8.5 26.554 8.5 18C8.5 9.446 15.446 2.5 24 2.5ZM16.64 19.06L20.84 23.26C21.426 23.846 22.374 23.846 22.96 23.26L31.36 14.86C31.946 14.276 31.946 13.324 31.36 12.74C30.776 12.154 29.824 12.154 29.24 12.74L21.9 20.078L18.76 16.94C18.176 16.354 17.224 16.354 16.64 16.94C16.054 17.524 16.054 18.476 16.64 19.06Z" fill="url(#paint0_linear_10097_183486)"/>
<defs>
<linearGradient id="paint0_linear_10097_183486" x1="44.4289" y1="23.5229" x2="3.05746" y2="26.1721" gradientUnits="userSpaceOnUse">
<stop stop-color="#F703D9"/>
<stop offset="0.427083" stop-color="#795AF4"/>
<stop offset="0.921875" stop-color="#04AEFC"/>
</linearGradient>
</defs>
</svg>
