<svg width="32" height="115" viewBox="0 0 32 115" fill="none" xmlns="http://www.w3.org/2000/svg">
<path d="M32.0006 115L25.5518 98.9247L14.8546 112.547L32.0006 115ZM30.1493 0.76492C29.5666 1.16654 28.9922 1.57572 28.4261 1.99224L30.2042 4.40857C30.7453 4.01038 31.2945 3.61915 31.8518 3.23508L30.1493 0.76492ZM25.1101 4.59485C24.0257 5.50193 22.9764 6.43768 21.9624 7.40032L24.028 9.57598C24.9965 8.65653 25.9988 7.7626 27.0349 6.89592L25.1101 4.59485ZM18.9974 10.399C18.037 11.4337 17.1136 12.4945 16.2277 13.5793L18.5514 15.4769C19.3974 14.4409 20.2791 13.428 21.1962 12.4398L18.9974 10.399ZM13.6649 16.9286C12.8442 18.0747 12.0621 19.2435 11.319 20.433L13.8634 22.0224C14.5732 20.8862 15.3201 19.7699 16.104 18.6754L13.6649 16.9286ZM9.19842 24.0776C8.52904 25.3159 7.89953 26.5731 7.31019 27.8473L10.0331 29.1067C10.5963 27.8888 11.1979 26.6874 11.8375 25.5043L9.19842 24.0776ZM5.66 31.7265C5.14999 33.0364 4.68068 34.3614 4.25234 35.6994L7.10951 36.6141C7.51918 35.3344 7.96798 34.0673 8.4556 32.8149L5.66 31.7265ZM3.09058 39.7505C2.74478 41.1114 2.4402 42.4833 2.17712 43.8641L5.1241 44.4256C5.37589 43.1041 5.66735 41.7914 5.99819 40.4893L3.09058 39.7505ZM1.5135 48.0249C1.33427 49.4162 1.19651 50.8144 1.1005 52.2175L4.09351 52.4223C4.18543 51.0788 4.31733 49.7401 4.48891 48.4082L1.5135 48.0249ZM0.938174 56.427C0.925816 57.8283 0.954942 59.2325 1.02584 60.6377L4.02203 60.4865C3.95412 59.1405 3.92622 57.7955 3.93806 56.4534L0.938174 56.427ZM1.3621 64.8356C1.515 66.2274 1.70916 67.6181 1.94488 69.006L4.90253 68.5037C4.67667 67.1739 4.49064 65.8414 4.34416 64.508L1.3621 64.8356ZM2.77133 73.1348C3.08594 74.4978 3.44134 75.8562 3.8378 77.208L6.71655 76.3637C6.33657 75.0681 5.99596 73.7663 5.69447 72.4601L2.77133 73.1348ZM5.13974 81.2117C5.6103 82.5275 6.12087 83.8351 6.67169 85.1329L9.43326 83.9608C8.9051 82.7164 8.41561 81.4628 7.96452 80.2015L5.13974 81.2117ZM8.42721 88.9588C9.04548 90.21 9.70264 91.4501 10.3989 92.6774L13.0082 91.1971C12.3402 90.0195 11.7098 88.8299 11.1168 87.6298L8.42721 88.9588ZM12.5785 96.2777C13.3337 97.4492 14.1264 98.607 14.9567 99.7495L17.3835 97.9858C16.586 96.8885 15.8249 95.7768 15.1 94.6522L12.5785 96.2777ZM17.5216 103.081C18.3995 104.159 19.313 105.221 20.2623 106.266L22.4827 104.249C21.5697 103.244 20.6914 102.223 19.8477 101.187L17.5216 103.081ZM23.168 109.298C24.1541 110.274 25.1737 111.233 26.2271 112.173L28.2245 109.935C27.2096 109.029 26.2277 108.106 25.2785 107.166L23.168 109.298Z" fill="url(#paint0_linear_10141_231854)"/>
<defs>
<linearGradient id="paint0_linear_10141_231854" x1="36.7013" y1="58.5" x2="-2.89639" y2="59.3998" gradientUnits="userSpaceOnUse">
<stop stop-color="#F703D9"/>
<stop offset="0.427083" stop-color="#795AF4"/>
<stop offset="0.921875" stop-color="#04AEFC"/>
</linearGradient>
</defs>
</svg>
