<svg width="26" height="26" viewBox="0 0 26 26" fill="none" xmlns="http://www.w3.org/2000/svg">
<path d="M6.01367 3.00076C5.86242 3.00988 5.71756 3.10129 5.66406 3.27028C5.13222 4.95624 5.02888 7.1718 5.00781 8.0162C3.75361 9.68706 3 11.7551 3 14.0004C3 19.5142 7.486 24 13 24C18.514 24 23 19.5142 23 14.0004C23 11.7551 22.2464 9.68706 20.9922 8.0162C20.9711 7.17183 20.8678 4.95739 20.3359 3.27223C20.2289 2.93424 19.7567 2.90837 19.5977 3.22536L18.4082 5.60223C16.8472 4.59366 14.9928 4.00072 13 4.00072C11.0072 4.00072 9.1528 4.59366 7.5918 5.60223L6.40234 3.22341C6.32284 3.06491 6.16492 2.99163 6.01367 3.00076ZM8.31445 11.2075C8.37023 11.2041 8.42887 11.2149 8.48438 11.2426L11.6445 12.8227C11.8535 12.9277 11.9003 13.2025 11.7383 13.3715C11.4633 13.6555 10.9389 14.0013 10.0059 14.0023C8.90186 14.0023 8 13.1044 8 12.0004V11.5415C8 11.3547 8.14711 11.2176 8.31445 11.2075ZM17.6855 11.2075C17.8529 11.2176 18 11.3547 18 11.5415V12.0004C18 13.0694 17.1559 13.9684 16.0879 13.9984C15.1929 14.0234 14.6226 13.6635 14.3086 13.3695C14.1316 13.2035 14.1678 12.917 14.3848 12.809L17.5156 11.2426C17.5711 11.2149 17.6298 11.2041 17.6855 11.2075ZM11.1035 16.0042C12.0019 16.0602 12.8285 16.3255 13.5312 16.594C16.1462 17.597 18.234 15.8593 18 17.0003C17.837 17.2272 17.6626 17.457 17.4746 17.678C17.4726 17.68 17.4727 17.6818 17.4707 17.6838C17.4557 17.7018 17.4398 17.7166 17.4238 17.7346C17.3368 17.8346 17.2444 17.9316 17.1504 18.0256C17.1204 18.0556 17.0925 18.0845 17.0625 18.1135C16.9435 18.2255 16.8175 18.3319 16.6855 18.4279C16.6635 18.4439 16.6402 18.4569 16.6172 18.4729C16.5032 18.5519 16.3848 18.6218 16.2598 18.6838C16.2198 18.7038 16.1787 18.7244 16.1367 18.7424C15.9837 18.8104 15.8263 18.8684 15.6562 18.9064C14.5953 19.1404 13.8106 18.8994 12.9316 18.5334C12.8096 18.4844 12.6826 18.435 12.5566 18.385C12.3726 18.314 12.1812 18.2421 11.9902 18.1721C11.3672 17.9471 10.7382 17.7659 10.2012 17.7659C9.39017 17.7668 7.922 18.7342 8 18.0002C8.04 17.8242 8.09716 17.6716 8.16016 17.5256C8.16316 17.5156 8.15906 17.5093 8.16406 17.4983C8.16906 17.4863 8.17664 17.4771 8.18164 17.4651C8.19564 17.4351 8.21156 17.4101 8.22656 17.3811C8.76056 16.2701 9.93059 16.0707 10.1836 16.0257C10.4966 15.9904 10.8041 15.9855 11.1035 16.0042Z" fill="url(#paint0_linear_10559_3168)"/>
<defs>
<linearGradient id="paint0_linear_10559_3168" x1="13" y1="3" x2="13" y2="24" gradientUnits="userSpaceOnUse">
<stop stop-color="#FF5656"/>
<stop offset="1" stop-color="#A82020"/>
</linearGradient>
</defs>
</svg>
