<svg width="48" height="48" viewBox="0 0 48 48" fill="none" xmlns="http://www.w3.org/2000/svg">
<path fill-rule="evenodd" clip-rule="evenodd" d="M27.0083 3.69629C27.1214 3.46441 27.3447 3.34961 27.5674 3.34961C27.79 3.34961 28.0139 3.46441 28.1289 3.69629L28.8345 5.12695C28.9257 5.31195 29.1031 5.43875 29.3056 5.46875L30.8828 5.69824C31.3953 5.77324 31.5983 6.40145 31.227 6.7627L30.0869 7.87598C29.9394 8.01973 29.8712 8.22643 29.9062 8.43018L30.1772 10.0024C30.2647 10.5124 29.729 10.9004 29.2715 10.6592L27.8603 9.91699C27.6778 9.82074 27.4605 9.82074 27.2793 9.91699L25.8681 10.6592C25.4094 10.9004 24.8712 10.5124 24.9599 10.0024L25.2309 8.43018C25.2659 8.22768 25.1978 8.01973 25.0503 7.87598L23.9101 6.7627C23.5389 6.40145 23.7443 5.77324 24.2568 5.69824L25.834 5.46875C26.0377 5.43875 26.2127 5.31195 26.3027 5.12695L27.0083 3.69629ZM19.1933 11.7822C19.4033 11.3554 19.8586 11.1427 20.3139 11.1426C20.7693 11.1424 21.2246 11.3547 21.4346 11.7822L23.4048 15.7739L27.8091 16.4136C28.2803 16.4823 28.6711 16.8107 28.8198 17.2632C28.9661 17.7157 28.8437 18.2137 28.5024 18.5449L25.3164 21.6504L26.0683 26.0376C26.1483 26.5063 25.9565 26.9807 25.5727 27.2607C25.354 27.4195 25.0942 27.5 24.8354 27.5C24.6367 27.5 24.4369 27.4522 24.2544 27.356L20.3139 25.2856L16.376 27.356C15.9547 27.5785 15.4475 27.5407 15.06 27.2607C14.675 26.9807 14.4832 26.5063 14.5644 26.0376L15.3164 21.6504L12.1279 18.5449C11.7879 18.2124 11.6667 17.7157 11.813 17.2632C11.9605 16.8119 12.35 16.4823 12.8213 16.4136L17.2256 15.7739L19.1933 11.7822ZM35.0454 12.5439C35.1391 12.3508 35.3223 12.2534 35.5068 12.2534C35.6913 12.2534 35.8775 12.3508 35.9731 12.5439L36.5591 13.7305C36.6341 13.883 36.7785 13.9887 36.9473 14.0137L38.2583 14.2041C38.6833 14.2654 38.8539 14.7879 38.5464 15.0879L37.5991 16.0132C37.4766 16.1319 37.4214 16.3047 37.4502 16.4722L37.6723 17.7759C37.7448 18.1996 37.3004 18.524 36.9204 18.3228L35.7485 17.7051C35.5973 17.6251 35.4188 17.6251 35.2676 17.7051L34.0957 18.3228C33.7157 18.5228 33.2712 18.1996 33.3437 17.7759L33.5659 16.4722C33.5947 16.3034 33.5407 16.1319 33.4194 16.0132L32.4697 15.0879C32.1622 14.7879 32.3328 14.2666 32.7578 14.2041L34.0688 14.0137C34.2376 13.9887 34.3845 13.883 34.4595 13.7305L35.0454 12.5439ZM3.11943 21.2054C3.32243 21.0958 3.53891 21.0321 3.75664 21.0093C4.40982 20.9411 5.07342 21.2495 5.41055 21.8433C5.52655 22.0554 5.59995 22.2795 5.61445 22.5198L6.54336 30.5804L7.35024 32.0026C6.99148 31.3676 7.10841 30.6213 7.58555 30.1137C7.70155 29.9865 7.84802 29.8727 8.00752 29.7879C8.48602 29.5334 9.0462 29.5187 9.52266 29.7354C9.68148 29.8077 9.83033 29.9044 9.96445 30.0281V30.0143L18.3897 36.3048V36.3214C18.7957 36.6042 19.1121 36.9552 19.3441 37.3652C19.5616 37.7328 19.694 38.1454 19.752 38.5554L19.7378 39.2043L19.65 46.5H12.4L12.3264 43.3906C12.2684 42.7968 11.9662 42.2588 11.5022 41.8912L2.96084 35.203V35.1892C2.75784 35.0478 2.58407 34.8628 2.46807 34.6508C2.32307 34.4104 2.25 34.13 2.25 33.8472L2.26416 22.6331C2.26416 22.0392 2.59743 21.4882 3.11943 21.2054ZM42.5895 21.8433C42.9266 21.2495 43.5902 20.9411 44.2434 21.0093C44.4611 21.0321 44.6776 21.0958 44.8806 21.2054C45.4026 21.4882 45.7358 22.0392 45.7358 22.6331L45.75 33.8472C45.75 34.13 45.6769 34.4104 45.5319 34.6508C45.4159 34.8628 45.2422 35.0478 45.0392 35.1892V35.203L36.4978 41.8912C36.0338 42.2588 35.7316 42.7968 35.6736 43.3906L35.6 46.5H28.35L28.2622 39.2043L28.248 38.5554C28.306 38.1454 28.4384 37.7328 28.6559 37.3652C28.8589 37.0118 29.1323 36.6891 29.4658 36.4346C29.5093 36.3922 29.5668 36.3497 29.6103 36.3214V36.3048L38.0355 30.0143V30.0281C38.5575 29.5474 39.3265 29.4489 39.95 29.7741H39.951C39.9651 29.7741 39.9783 29.7741 39.9925 29.7879C40.8042 30.226 41.096 31.2156 40.6472 32.0072L41.4566 30.5804L42.3855 22.5198C42.4 22.2795 42.4735 22.0554 42.5895 21.8433Z" fill="url(#paint0_linear_10097_183467)"/>
<defs>
<linearGradient id="paint0_linear_10097_183467" x1="52.6664" y1="24.9248" x2="-5.1817" y2="29.9896" gradientUnits="userSpaceOnUse">
<stop stop-color="#F703D9"/>
<stop offset="0.427083" stop-color="#795AF4"/>
<stop offset="0.921875" stop-color="#04AEFC"/>
</linearGradient>
</defs>
</svg>
