<svg width="16" height="17" viewBox="0 0 16 17" fill="none" xmlns="http://www.w3.org/2000/svg">
<path fill-rule="evenodd" clip-rule="evenodd" d="M4.58974 9.71098H2.25641C1.56359 9.71098 1 10.2595 1 10.9338V14.7771C1 15.4515 1.56359 16 2.25641 16H4.58974V9.71098ZM9.07692 7.96404H6.92308C6.23026 7.96404 5.66667 8.51258 5.66667 9.1869V16H10.3333V9.1869C10.3333 8.51258 9.76974 7.96404 9.07692 7.96404ZM13.7436 11.4579H11.4103V16H13.7436C14.4364 16 15 15.4515 15 14.7771V12.6808C15 12.0065 14.4364 11.4579 13.7436 11.4579ZM11.1116 3.176C11.0484 2.98663 10.8797 2.84757 10.6772 2.81892L9.16092 2.6051L8.48318 1.26833C8.30226 0.910556 7.69846 0.910556 7.51754 1.26833L6.8398 2.6051L5.32349 2.81892C5.12103 2.84757 4.95231 2.98663 4.88913 3.176C4.82595 3.36537 4.87836 3.5736 5.02554 3.71336L6.12256 4.75384L5.86338 6.22268C5.82892 6.41973 5.91149 6.61889 6.07733 6.73558C6.24318 6.85368 6.46287 6.86835 6.64451 6.77541L8.00072 6.08152L9.3562 6.77541C9.43518 6.81594 9.52062 6.83551 9.60677 6.83551C9.71805 6.83551 9.82933 6.80197 9.92338 6.73558C10.0892 6.61889 10.1718 6.41973 10.1373 6.22268L9.87815 4.75384L10.9752 3.71336C11.1224 3.5736 11.1748 3.36537 11.1116 3.176Z" fill="white" fill-opacity="0.87"/>
</svg>
