<svg width="54" height="54" viewBox="0 0 54 54" fill="none" xmlns="http://www.w3.org/2000/svg">
<path fill-rule="evenodd" clip-rule="evenodd" d="M13.5 15.75C13.5 8.27143 19.5214 2.25 27 2.25C34.4786 2.25 40.5 8.27143 40.5 15.75V18C42.975 18 45 20.025 45 22.5V45C45 47.475 42.975 49.5 40.5 49.5H13.5C11.025 49.5 9 47.475 9 45V22.5C9 20.025 11.025 18 13.5 18V15.75ZM36 15.75C36 10.6286 32.1214 6.75 27 6.75C21.8786 6.75 18 10.6286 18 15.75V18H36V15.75ZM31.5 33.75C31.5 31.275 29.475 29.25 27 29.25C24.525 29.25 22.5 31.275 22.5 33.75C22.5 35.1495 23.1475 36.4051 24.1577 37.2321V40.6316C24.1577 41.7362 25.0531 42.6316 26.1577 42.6316H27.8419C28.9464 42.6316 29.8419 41.7362 29.8419 40.6316V37.2325C30.8523 36.4055 31.5 35.1497 31.5 33.75Z" fill="url(#paint0_linear_10162_184270)"/>
<defs>
<linearGradient id="paint0_linear_10162_184270" x1="27.2313" y1="1.89176" x2="10.1052" y2="44.5608" gradientUnits="userSpaceOnUse">
<stop stop-color="#F703D9"/>
<stop offset="0.427083" stop-color="#795AF4"/>
<stop offset="0.921875" stop-color="#04AEFC"/>
</linearGradient>
</defs>
</svg>
