<svg width="12" height="12" viewBox="0 0 12 12" fill="none" xmlns="http://www.w3.org/2000/svg">
<path fill-rule="evenodd" clip-rule="evenodd" d="M6 12C9.31371 12 12 9.31371 12 6C12 2.68629 9.31371 0 6 0C2.68629 0 0 2.68629 0 6C0 9.31371 2.68629 12 6 12ZM7.14674 2.59126C7.14674 3.17626 6.70799 3.60376 6.05549 3.60376C5.40299 3.60376 4.96424 3.17626 4.96424 2.62501C4.96424 2.07376 5.40299 1.64626 6.05549 1.64626C6.70799 1.64626 7.14674 2.05126 7.14674 2.59126ZM6.93299 4.44751V10.5H5.17799V4.44751H6.93299Z" fill="#6286E3"/>
</svg>
