<svg width="26" height="26" viewBox="0 0 26 26" fill="none" xmlns="http://www.w3.org/2000/svg">
<path d="M15.6693 4.10225L16.4838 3.23576C16.5555 3.15922 16.6416 3.0988 16.7367 3.05827C16.8319 3.01774 16.9341 2.99796 17.0369 3.00017L21.7331 3.09563C21.9222 3.0997 22.1035 3.17476 22.2433 3.30687C22.3831 3.43898 22.472 3.61918 22.4934 3.81403L22.9969 8.66726C23.0058 8.75365 22.9956 8.84101 22.9672 8.92275C22.9388 9.00448 22.8928 9.07844 22.8328 9.13906L18.6784 13.545C18.6345 13.5917 18.5817 13.6287 18.5235 13.6535C18.4652 13.6783 18.4026 13.6905 18.3396 13.6894L12.9422 13.6282C12.8641 13.6272 12.7866 13.6423 12.7141 13.6726C12.6417 13.703 12.5758 13.7479 12.5202 13.8048C12.4647 13.8617 12.4206 13.9295 12.3905 14.0042C12.3604 14.079 12.3449 14.1591 12.3449 14.2401C12.3449 14.6073 12.7096 14.8924 13.065 14.9065L15.4367 14.9549C15.9319 14.9549 16.2353 15.1476 16.3309 15.5184C16.4195 15.8617 16.2395 16.0869 16.0482 16.3139C16.0287 16.3378 11.9559 20.7333 10.8609 21.915C10.7763 22.0062 10.6744 22.0784 10.5617 22.127C10.449 22.1757 10.3278 22.1997 10.2057 22.1977L6.19543 22.0961L3.7045 24.7653C3.57579 24.9032 3.40207 24.9864 3.21735 24.9985C3.03263 25.0106 2.8502 24.9508 2.70576 24.8308C2.56587 24.7145 2.41063 24.586 2.26306 24.4673C2.18758 24.4063 2.12532 24.3295 2.0803 24.2419C2.03528 24.1543 2.00851 24.0579 2.00172 23.9589C1.99493 23.8599 2.00828 23.7605 2.04089 23.6672C2.0735 23.5739 2.12466 23.4887 2.19104 23.4172L4.63358 20.7859L4.23338 16.7123C4.21997 16.5747 4.23638 16.4357 4.28141 16.3055C4.32645 16.1752 4.39897 16.0571 4.49369 15.9596L6.72136 13.6673C6.82989 13.5657 6.96625 13.5015 7.11153 13.4838C7.26119 13.4636 7.41326 13.49 7.54841 13.5597C7.68356 13.6293 7.79571 13.739 7.87062 13.8748L7.87416 13.8803C7.94515 14.0064 7.98904 14.1469 8.00284 14.2921C8.04416 14.7297 8.08311 15.2602 8.0902 15.3324L8.22419 16.7227C8.23236 16.8133 8.25815 16.9012 8.3 16.9811C8.34186 17.061 8.3989 17.1314 8.46769 17.1878C8.53649 17.2443 8.6156 17.2857 8.70026 17.3095C8.78491 17.3334 8.87336 17.3392 8.96025 17.3267C9.35573 17.2716 9.59597 16.8402 9.55052 16.4296L9.05706 11.588C9.04132 11.4689 9.05161 11.3477 9.08716 11.2333C9.12272 11.1189 9.18263 11.0143 9.26247 10.9271L12.9286 7.0383C13.0408 6.91591 13.3218 6.77639 13.5242 6.80087C13.6671 6.81819 13.8034 6.87295 13.9203 6.95997C14.006 7.01897 14.0786 7.09638 14.1329 7.18697C14.1873 7.27755 14.2223 7.37919 14.2355 7.48501V7.48929L14.4976 10.1206C14.5122 10.2672 14.5808 10.4023 14.6891 10.4978C14.7974 10.5933 14.937 10.6419 15.079 10.6334L15.2236 10.6242C15.3084 10.6191 15.3914 10.5961 15.4674 10.5568C15.5435 10.5174 15.611 10.4624 15.6659 10.3952C15.7208 10.328 15.762 10.2499 15.7869 10.1656C15.8119 10.0814 15.82 9.9928 15.8109 9.9052L15.2726 4.72642L15.3753 4.52326C15.4533 4.36901 15.5523 4.22721 15.6693 4.10225Z" fill="#2574FB"/>
</svg>
