<svg width="140" height="120" viewBox="0 0 140 120" fill="none" xmlns="http://www.w3.org/2000/svg">
<g opacity="0.15">
<path d="M114.8 -14.4C103.992 -14.4 95.1996 -5.60802 95.1996 5.19998C95.1996 10.3682 97.2244 15.0602 100.504 18.5656L77.0707 47.2H44.5754C43.2094 37.7175 35.0544 30.4 25.1996 30.4C14.3916 30.4 5.59961 39.192 5.59961 50C5.59961 60.808 14.3916 69.6 25.1996 69.6C35.0544 69.6 43.2094 62.2824 44.5754 52.8H77.0051L99.4926 82.5883C96.8111 85.9415 95.1996 90.1821 95.1996 94.8C95.1996 105.608 103.992 114.4 114.8 114.4C125.608 114.4 134.4 105.608 134.4 94.8C134.4 83.992 125.608 75.2 114.8 75.2C110.636 75.2 106.783 76.5161 103.605 78.7383L81.9598 50.0711L104.868 22.0656C107.786 23.7903 111.172 24.8 114.8 24.8C125.608 24.8 134.4 16.008 134.4 5.19998C134.4 -5.60802 125.608 -14.4 114.8 -14.4Z" fill="#A8CBFF" fill-opacity="0.75"/>
</g>
</svg>
