<svg width="16" height="17" viewBox="0 0 16 17" fill="none" xmlns="http://www.w3.org/2000/svg">
    <path fill-rule="evenodd" clip-rule="evenodd"
        d="M3.48956 6.33405C4.92496 6.33405 6.08859 5.17042 6.08859 3.73502C6.08859 2.29961 4.92496 1.13599 3.48956 1.13599C2.05415 1.13599 0.890527 2.29961 0.890527 3.73502C0.890527 5.17042 2.05415 6.33405 3.48956 6.33405ZM3.48956 7.27156C2.57069 7.27156 1.73262 6.91922 1.10316 6.34266C0.424625 6.97966 0 7.88419 0 8.88613V9.35488H6.97916V8.88613C6.97916 7.88419 6.55456 6.97966 5.876 6.34263C5.24653 6.91919 4.40847 7.27156 3.48956 7.27156ZM11.3972 12.6674C12.4322 12.6674 13.3833 12.3015 14.1282 11.6925C15.2628 12.5316 16 13.8788 16 15.3952V15.8639H6.79443V15.3952C6.79443 13.8788 7.53162 12.5316 8.66625 11.6925C9.41118 12.3015 10.3622 12.6674 11.3972 12.6674ZM13.7877 10.7388C15.109 9.41741 15.109 7.27507 13.7877 5.95371C12.4663 4.63235 10.324 4.63235 9.00259 5.95371C7.68123 7.27507 7.68123 9.41741 9.00259 10.7388C10.3239 12.0601 12.4663 12.0601 13.7877 10.7388ZM3.97423 13.545L3.43381 12.9599L4.03436 12.3097L5.6 14.0048L4.03436 15.7L3.43381 15.0497L3.97423 14.4646H0V10.9H0.849308V13.545H3.97423Z"
        fill="#2574FB" fill-opacity="0.87" />
</svg>