<svg width="32" height="32" viewBox="0 0 32 32" fill="none" xmlns="http://www.w3.org/2000/svg">
<path d="M24.027 16.5408C23.4324 16.4504 22.9043 16.8579 22.8191 17.439C22.6049 18.8985 21.9313 20.2302 20.871 21.2905C18.1724 23.9891 13.7847 23.987 11.0871 21.2905C8.39007 18.5929 8.39007 14.2036 11.0871 11.5066C12.1016 10.4926 13.3824 9.83142 14.8158 9.59075C15.4322 9.47377 16.095 9.45354 16.7826 9.53146C17.7268 9.64014 18.6056 9.95341 19.4076 10.4134L18.0217 10.65C17.4428 10.7493 17.0529 11.2992 17.1527 11.8787C17.2411 12.3974 17.6912 12.7638 18.2006 12.7638C18.2599 12.7638 18.3201 12.7591 18.3814 12.7487L22.0966 12.1135C22.3741 12.0657 22.6226 11.9098 22.7859 11.679C22.949 11.4488 23.0135 11.1629 22.9656 10.8843L22.3294 7.16963C22.2317 6.59067 21.689 6.20289 21.1007 6.30007C20.5217 6.39939 20.1318 6.94982 20.2317 7.52931L20.3991 8.50702C19.3688 7.92902 18.2323 7.55507 17.0248 7.41605C16.1204 7.31312 15.2431 7.34176 14.44 7.49557C12.5913 7.80533 10.9115 8.6718 9.58184 10.0013C6.05475 13.5284 6.05475 19.2676 9.58184 22.7956C11.3453 24.5596 13.6625 25.4412 15.979 25.4412C18.2962 25.4412 20.6121 24.5597 22.3762 22.7956C23.762 21.4099 24.6434 19.6646 24.9251 17.7488C25.0105 17.1666 24.6081 16.626 24.027 16.5408Z" fill="#2574FB"/>
</svg>
