<svg width="128" height="119" viewBox="0 0 128 119" fill="none" xmlns="http://www.w3.org/2000/svg">
<path opacity="0.5" d="M83.3174 6.56318L88.2824 1.4036C88.7191 0.947846 89.2438 0.588075 89.8238 0.346718C90.4038 0.105361 91.0266 -0.0124097 91.6535 0.000748594L120.278 0.569177C121.431 0.59344 122.536 1.04036 123.388 1.82702C124.24 2.61368 124.782 3.68668 124.912 4.84696L127.981 33.7457C128.035 34.2601 127.973 34.7803 127.8 35.267C127.627 35.7537 127.347 36.1941 126.981 36.5551L101.659 62.7902C101.391 63.0687 101.07 63.2887 100.714 63.4365C100.359 63.5844 99.9779 63.6571 99.594 63.6501L66.6954 63.2858C66.2193 63.28 65.7468 63.37 65.3053 63.5505C64.8638 63.731 64.4621 63.9985 64.1234 64.3374C63.7847 64.6763 63.5158 65.08 63.3323 65.5249C63.1488 65.9699 63.0543 66.4473 63.0544 66.9295C63.0544 69.1158 65.2778 70.8138 67.4437 70.8976L81.8998 71.1855C84.9184 71.1855 86.7677 72.3333 87.3505 74.5414C87.8902 76.5855 86.7929 77.9264 85.6272 79.2783C85.5085 79.4204 60.6834 105.594 54.0094 112.63C53.4936 113.173 52.8728 113.603 52.1857 113.893C51.4986 114.182 50.76 114.325 50.0158 114.313L25.5722 113.708L10.3893 129.602C9.60478 130.423 8.54595 130.918 7.42004 130.991C6.29413 131.063 5.18218 130.707 4.30178 129.992C3.44909 129.3 2.50286 128.535 1.60341 127.828C1.14337 127.464 0.763852 127.007 0.489448 126.485C0.215043 125.964 0.0518706 125.39 0.0104907 124.8C-0.0308892 124.211 0.0504424 123.619 0.249234 123.064C0.448025 122.508 0.759828 122.001 1.16446 121.575L16.0523 105.907L13.613 81.6504C13.5312 80.8308 13.6313 80.0031 13.9058 79.2277C14.1803 78.4523 14.6223 77.7488 15.1996 77.1685L28.7778 63.519C29.4393 62.9135 30.2705 62.5314 31.156 62.4258C32.0682 62.3059 32.9951 62.4632 33.8189 62.8777C34.6427 63.2923 35.3262 63.9454 35.7828 64.7542L35.8044 64.787C36.2371 65.5377 36.5046 66.3742 36.5887 67.2393C36.8406 69.8445 37.078 73.0037 37.1212 73.4337L37.9379 81.7123C37.9877 82.2515 38.1449 82.7749 38.4 83.2509C38.6551 83.7269 39.0028 84.1456 39.4221 84.4817C39.8414 84.8179 40.3236 85.0644 40.8397 85.2066C41.3557 85.3487 41.8948 85.3834 42.4244 85.3087C44.8349 84.9808 46.2993 82.4119 46.0222 79.9669L43.0144 51.1374C42.9185 50.4284 42.9812 49.7066 43.1979 49.0254C43.4147 48.3442 43.7799 47.7211 44.2665 47.2022L66.6126 24.046C67.2962 23.3172 69.0088 22.4865 70.2428 22.6322C71.1139 22.7354 71.9447 23.0614 72.657 23.5796C73.1797 23.9309 73.6217 24.3919 73.9532 24.9312C74.2847 25.4706 74.4978 26.0759 74.5782 26.7059V26.7315L76.1757 42.3997C76.265 43.2727 76.6831 44.0772 77.3432 44.6459C78.0032 45.2146 78.8544 45.5038 79.7195 45.4531L80.601 45.3985C81.1182 45.3679 81.6238 45.2313 82.0872 44.9969C82.5506 44.7625 82.9622 44.4352 83.297 44.0348C83.6317 43.6344 83.8827 43.1694 84.0346 42.6678C84.1866 42.1663 84.2363 41.6387 84.1808 41.1171L80.8996 10.2798L81.5256 9.0701C82.0008 8.15157 82.6042 7.30724 83.3174 6.56318Z" fill="url(#paint0_linear_14679_230934)" fill-opacity="0.3"/>
<defs>
<linearGradient id="paint0_linear_14679_230934" x1="123.489" y1="4.46567" x2="11.5826" y2="9.1631" gradientUnits="userSpaceOnUse">
<stop stop-color="#F703D9"/>
<stop offset="0.427083" stop-color="#795AF4"/>
<stop offset="0.921875" stop-color="#04AEFC"/>
</linearGradient>
</defs>
</svg>
