<svg width="24" height="24" viewBox="0 0 24 24" fill="none" xmlns="http://www.w3.org/2000/svg">
<path d="M10.5267 10.503L16.3357 6.59048C16.6111 6.40648 16.6861 6.03444 16.5021 5.75844C16.3169 5.48128 15.9431 5.40924 15.67 5.59204L9.86103 9.50452C9.58563 9.68852 9.51063 10.0606 9.69463 10.3366C9.88031 10.6141 10.2527 10.6856 10.5267 10.503ZM16.3356 17.4096L10.5266 13.4971C10.2524 13.3143 9.87975 13.3875 9.69459 13.6635C9.51059 13.9394 9.58559 14.3115 9.86099 14.4955L15.67 18.408C15.9435 18.5903 16.3161 18.5196 16.502 18.2416C16.686 17.9656 16.611 17.5936 16.3356 17.4096Z" fill="white" fill-opacity="0.87"/>
<path d="M7.2 7.80001C4.88436 7.80001 3 9.68437 3 12C3 14.3156 4.88436 16.2 7.2 16.2C9.51564 16.2 11.4 14.3156 11.4 12C11.4 9.68437 9.51564 7.80001 7.2 7.80001ZM18 7.76001C19.6547 7.76001 21 6.41413 21 4.76001C21 3.10589 19.6547 1.76001 18 1.76001C16.3453 1.76001 15 3.10589 15 4.76001C15 6.41413 16.3453 7.76001 18 7.76001ZM18 16.24C16.3453 16.24 15 17.5859 15 19.24C15 20.8941 16.3453 22.24 18 22.24C19.6547 22.24 21 20.8941 21 19.24C21 17.5859 19.6547 16.24 18 16.24Z" fill="white" fill-opacity="0.87"/>
</svg>
