<svg width="26" height="26" viewBox="0 0 26 26" fill="none" xmlns="http://www.w3.org/2000/svg">
<path d="M20.7188 5.28125C21.1672 5.28125 21.5312 5.64525 21.5312 6.09375V21.125C21.5312 21.5735 21.1672 21.9375 20.7188 21.9375H17.4688C17.0203 21.9375 16.6562 21.5735 16.6562 21.125V6.09375C16.6562 5.64525 17.0203 5.28125 17.4688 5.28125H20.7188ZM14.625 11.375C15.0735 11.375 15.4375 11.739 15.4375 12.1875V21.125C15.4375 21.5735 15.0735 21.9375 14.625 21.9375H11.375C10.9265 21.9375 10.5625 21.5735 10.5625 21.125V12.1875C10.5625 11.739 10.9265 11.375 11.375 11.375H14.625ZM8.53125 9.34375C8.97975 9.34375 9.34375 9.70775 9.34375 10.1562V21.125C9.34375 21.5735 8.97975 21.9375 8.53125 21.9375H5.28125C4.83275 21.9375 4.46875 21.5735 4.46875 21.125V10.1562C4.46875 9.70775 4.83275 9.34375 5.28125 9.34375H8.53125Z" fill="#2574FB"/>
</svg>
