<svg width="28" height="30" viewBox="0 0 28 30" fill="none" xmlns="http://www.w3.org/2000/svg">
<path d="M18.2738 2.09182L19.3082 0.971508C19.3992 0.872549 19.5085 0.794431 19.6293 0.742024C19.7501 0.689617 19.8799 0.664045 20.0105 0.666903L25.9739 0.790327C26.2141 0.795595 26.4443 0.892636 26.6218 1.06345C26.7994 1.23426 26.9122 1.46724 26.9393 1.71918L27.5787 7.99405C27.59 8.10575 27.5771 8.2187 27.541 8.32438C27.5049 8.43005 27.4466 8.52569 27.3703 8.60406L22.095 14.3006C22.0392 14.361 21.9722 14.4088 21.8982 14.4409C21.8242 14.473 21.7447 14.4888 21.6648 14.4873L14.8109 14.4082C14.7117 14.4069 14.6133 14.4265 14.5213 14.4657C14.4293 14.5049 14.3456 14.5629 14.2751 14.6365C14.2045 14.7101 14.1485 14.7978 14.1102 14.8944C14.072 14.991 14.0523 15.0947 14.0523 15.1994C14.0523 15.6741 14.5156 16.0428 14.9668 16.061L17.9785 16.1235C18.6073 16.1235 18.9926 16.3727 19.114 16.8521C19.2265 17.296 18.9979 17.5872 18.755 17.8807C18.7303 17.9115 13.5584 23.5946 12.168 25.1224C12.0605 25.2404 11.9312 25.3337 11.788 25.3966C11.6449 25.4595 11.491 25.4906 11.336 25.4879L6.24355 25.3566L3.08045 28.8077C2.91701 28.986 2.69642 29.0935 2.46186 29.1091C2.22729 29.1248 1.99564 29.0475 1.81222 28.8924C1.63458 28.742 1.43745 28.5759 1.25006 28.4224C1.15422 28.3435 1.07515 28.2442 1.01798 28.1309C0.960816 28.0177 0.926822 27.893 0.918201 27.765C0.90958 27.6371 0.926524 27.5086 0.967939 27.3879C1.00935 27.2673 1.07431 27.1572 1.15861 27.0647L4.26024 23.6626L3.75205 18.3957C3.73502 18.2178 3.75586 18.0381 3.81305 17.8697C3.87024 17.7013 3.96233 17.5486 4.0826 17.4226L6.9114 14.4588C7.04921 14.3273 7.22236 14.2444 7.40685 14.2215C7.59689 14.1954 7.78999 14.2296 7.96161 14.3196C8.13324 14.4096 8.27565 14.5514 8.37077 14.727L8.37527 14.7341C8.46541 14.8971 8.52115 15.0788 8.53867 15.2666C8.59113 15.8323 8.6406 16.5183 8.6496 16.6116L8.81975 18.4092C8.83013 18.5263 8.86288 18.6399 8.91602 18.7433C8.96917 18.8466 9.0416 18.9375 9.12896 19.0105C9.21631 19.0835 9.31677 19.137 9.42428 19.1679C9.53178 19.1988 9.64409 19.2063 9.75443 19.1901C10.2566 19.1189 10.5617 18.5611 10.504 18.0302L9.87736 11.7704C9.85737 11.6164 9.87043 11.4597 9.91559 11.3118C9.96074 11.1639 10.0368 11.0286 10.1382 10.9159L14.7936 5.88792C14.9361 5.72969 15.2928 5.5493 15.5499 5.58094C15.7314 5.60334 15.9045 5.67414 16.0529 5.78665C16.1618 5.86293 16.2539 5.96302 16.3229 6.08014C16.392 6.19726 16.4364 6.32867 16.4531 6.46549V6.47102L16.7859 9.87311C16.8045 10.0627 16.8917 10.2374 17.0292 10.3609C17.1667 10.4843 17.344 10.5471 17.5243 10.5361L17.7079 10.5243C17.8156 10.5176 17.921 10.488 18.0175 10.4371C18.1141 10.3862 18.1998 10.3151 18.2695 10.2282C18.3393 10.1412 18.3916 10.0402 18.4232 9.93134C18.4549 9.82243 18.4652 9.70788 18.4537 9.59462L17.7701 2.89883L17.9005 2.63616C17.9995 2.43672 18.1252 2.25338 18.2738 2.09182Z" fill="url(#paint0_linear_12320_185809)"/>
<defs>
<linearGradient id="paint0_linear_12320_185809" x1="31.8226" y1="14.8889" x2="-3.67632" y2="17.7793" gradientUnits="userSpaceOnUse">
<stop stop-color="#F703D9"/>
<stop offset="0.427083" stop-color="#795AF4"/>
<stop offset="0.921875" stop-color="#04AEFC"/>
</linearGradient>
</defs>
</svg>
