<svg width="45" height="44" viewBox="0 0 45 44" fill="none" xmlns="http://www.w3.org/2000/svg">
<g clip-path="url(#clip0_5585_100082)">
<circle cx="22.7827" cy="22" r="22" fill="#2574FB"/>
<path d="M33.7826 15.6408C32.9558 16.008 32.0814 16.2507 31.1866 16.3615C32.1306 15.7842 32.838 14.876 33.1776 13.8053C32.2905 14.3459 31.3195 14.7268 30.3066 14.9314C29.6296 14.1798 28.7281 13.6796 27.7434 13.509C26.7587 13.3385 25.7466 13.5073 24.8658 13.9891C23.985 14.4709 23.2852 15.2383 22.8764 16.171C22.4675 17.1037 22.3726 18.1489 22.6066 19.1428C20.813 19.0499 19.0585 18.5718 17.4571 17.7396C15.8558 16.9073 14.4434 15.7395 13.3116 14.3121C12.9147 15.0217 12.7061 15.8253 12.7066 16.643C12.7052 17.4024 12.8873 18.1503 13.2366 18.8202C13.5858 19.4902 14.0915 20.0613 14.7086 20.4828C13.9914 20.4628 13.2895 20.2658 12.6626 19.9085V19.9648C12.668 21.0288 13.0322 22.0582 13.6937 22.8789C14.3551 23.6997 15.2732 24.2614 16.2926 24.469C15.9002 24.5912 15.4928 24.6557 15.0826 24.6604C14.7987 24.657 14.5155 24.6306 14.2356 24.5816C14.5259 25.4968 15.0877 26.2967 15.8428 26.8699C16.5979 27.443 17.5088 27.761 18.4486 27.7795C16.8615 29.0579 14.9021 29.7556 12.8826 29.7614C12.5149 29.7626 12.1475 29.74 11.7826 29.6938C13.8445 31.0566 16.2473 31.78 18.7016 31.777C20.3953 31.795 22.0755 31.4673 23.6441 30.8132C25.2126 30.159 26.6381 29.1914 27.8373 27.967C29.0365 26.7426 29.9854 25.2858 30.6284 23.6817C31.2715 22.0777 31.5959 20.3586 31.5826 18.6248C31.5826 18.4334 31.5826 18.2307 31.5826 18.028C32.4458 17.3691 33.1902 16.5612 33.7826 15.6408Z" fill="white" fill-opacity="0.87"/>
</g>
<defs>
<clipPath id="clip0_5585_100082">
<rect width="44" height="44" fill="white" transform="translate(0.782715)"/>
</clipPath>
</defs>
</svg>
