<svg width="27" height="12" viewBox="0 0 27 12" fill="none" xmlns="http://www.w3.org/2000/svg">
<rect width="27" height="12" rx="2" fill="#E06732"/>
<path d="M6.29631 9V6.632L6.66431 7.584L4.16031 3.4H5.83231L7.64031 6.432H6.67231L8.48831 3.4H10.0243L7.52831 7.584L7.88031 6.632V9H6.29631ZM13.009 9.112C12.561 9.112 12.1477 9.04 11.769 8.896C11.3903 8.752 11.0597 8.54933 10.777 8.288C10.4997 8.02133 10.2837 7.712 10.129 7.36C9.97433 7.008 9.897 6.62133 9.897 6.2C9.897 5.77867 9.97433 5.392 10.129 5.04C10.2837 4.688 10.4997 4.38133 10.777 4.12C11.0597 3.85333 11.3903 3.648 11.769 3.504C12.1477 3.36 12.561 3.288 13.009 3.288C13.4623 3.288 13.8757 3.36 14.249 3.504C14.6277 3.648 14.9557 3.85333 15.233 4.12C15.5103 4.38133 15.7263 4.688 15.881 5.04C16.041 5.392 16.121 5.77867 16.121 6.2C16.121 6.62133 16.041 7.01067 15.881 7.368C15.7263 7.72 15.5103 8.02667 15.233 8.288C14.9557 8.54933 14.6277 8.752 14.249 8.896C13.8757 9.04 13.4623 9.112 13.009 9.112ZM13.009 7.8C13.2223 7.8 13.4197 7.76267 13.601 7.688C13.7877 7.61333 13.9477 7.50667 14.081 7.368C14.2197 7.224 14.3263 7.05333 14.401 6.856C14.481 6.65867 14.521 6.44 14.521 6.2C14.521 5.95467 14.481 5.736 14.401 5.544C14.3263 5.34667 14.2197 5.17867 14.081 5.04C13.9477 4.896 13.7877 4.78667 13.601 4.712C13.4197 4.63733 13.2223 4.6 13.009 4.6C12.7957 4.6 12.5957 4.63733 12.409 4.712C12.2277 4.78667 12.0677 4.896 11.929 5.04C11.7957 5.17867 11.689 5.34667 11.609 5.544C11.5343 5.736 11.497 5.95467 11.497 6.2C11.497 6.44 11.5343 6.65867 11.609 6.856C11.689 7.05333 11.7957 7.224 11.929 7.368C12.0677 7.50667 12.2277 7.61333 12.409 7.688C12.5957 7.76267 12.7957 7.8 13.009 7.8ZM19.5346 9.112C18.708 9.112 18.0626 8.88533 17.5986 8.432C17.1346 7.97867 16.9026 7.336 16.9026 6.504V3.4H18.4866V6.456C18.4866 6.936 18.58 7.28 18.7666 7.488C18.9586 7.696 19.22 7.8 19.5506 7.8C19.8813 7.8 20.14 7.696 20.3266 7.488C20.5133 7.28 20.6066 6.936 20.6066 6.456V3.4H22.1666V6.504C22.1666 7.336 21.9346 7.97867 21.4706 8.432C21.0066 8.88533 20.3613 9.112 19.5346 9.112Z" fill="white" fill-opacity="0.87"/>
</svg>
