<svg width="60" height="41" viewBox="0 0 60 41" fill="none" xmlns="http://www.w3.org/2000/svg">
<path d="M51.966 17.102C51.976 16.874 52 16.65 52 16.418C52 7.58197 44.836 0.417969 36 0.417969C29.78 0.417969 24.4 3.97597 21.754 9.15997C20.592 8.68997 19.33 8.41797 18 8.41797C12.94 8.41797 8.802 12.188 8.136 17.066C3.406 18.676 0 23.144 0 28.418C0 35.046 5.372 40.418 12 40.418H48C54.628 40.418 60 35.046 60 28.418C60 23.182 56.642 18.742 51.966 17.102ZM39 16.418C40.656 16.418 42 17.762 42 19.418C42 21.074 40.656 22.418 39 22.418C37.344 22.418 36 21.074 36 19.418C36 17.762 37.344 16.418 39 16.418ZM23 16.418C24.656 16.418 26 17.762 26 19.418C26 21.074 24.656 22.418 23 22.418C21.344 22.418 20 21.074 20 19.418C20 17.762 21.344 16.418 23 16.418ZM43.25 34.98C42.88 35.276 42.44 35.418 42.002 35.418C41.414 35.418 40.834 35.162 40.438 34.668C40.302 34.502 36.9 30.418 31 30.418C25.032 30.418 21.596 34.626 21.562 34.668C20.87 35.528 19.614 35.674 18.75 34.98C17.888 34.288 17.748 33.03 18.438 32.168C18.626 31.934 23.128 26.418 31 26.418C38.872 26.418 43.374 31.934 43.562 32.168C44.252 33.032 44.112 34.29 43.25 34.98Z" fill="url(#paint0_linear_10754_10650)"/>
<defs>
<linearGradient id="paint0_linear_10754_10650" x1="69.5399" y1="20.418" x2="-9.52048" y2="30.7176" gradientUnits="userSpaceOnUse">
<stop stop-color="#F703D9"/>
<stop offset="0.427083" stop-color="#795AF4"/>
<stop offset="0.921875" stop-color="#04AEFC"/>
</linearGradient>
</defs>
</svg>
