<svg width="21" height="20" viewBox="0 0 21 20" fill="none" xmlns="http://www.w3.org/2000/svg">
<g id="icons8-live 1" clip-path="url(#clip0_15049_257294)">
<path id="Vector" d="M10.9116 12.5C12.2923 12.5 13.4116 11.3807 13.4116 10C13.4116 8.61929 12.2923 7.5 10.9116 7.5C9.53091 7.5 8.41162 8.61929 8.41162 10C8.41162 11.3807 9.53091 12.5 10.9116 12.5Z" fill="#FF5656"/>
<path id="Vector_2" d="M8.03244 6.99525L6.87869 5.7915C5.77119 6.85317 5.07828 8.34442 5.07828 9.99984C5.07828 11.6553 5.77119 13.1465 6.87869 14.2082L8.03244 13.0044C7.24078 12.2453 6.74494 11.1803 6.74494 9.99984C6.74494 8.81942 7.24078 7.754 8.03244 6.99525Z" fill="#FF5656"/>
<path id="Vector_3" d="M14.9446 5.7915L13.7908 6.99525C14.5825 7.75442 15.0783 8.81942 15.0783 9.99984C15.0783 11.1803 14.5825 12.2453 13.7908 13.0044L14.9446 14.2082C16.0521 13.1465 16.745 11.6553 16.745 9.99984C16.745 8.34442 16.0521 6.85317 14.9446 5.7915Z" fill="#FF5656"/>
<g id="Group">
<path id="Vector_4" d="M5.72871 4.59212L4.5708 3.38379C2.83038 5.05212 1.74496 7.39879 1.74496 10C1.74496 12.6013 2.83038 14.948 4.5708 16.6163L5.72871 15.408C4.30413 14.0421 3.41163 12.125 3.41163 10C3.41163 7.87504 4.30413 5.95796 5.72871 4.59212Z" fill="#FF5656"/>
<path id="Vector_5" d="M17.2525 3.38379L16.0945 4.59212C17.5191 5.95796 18.4116 7.87504 18.4116 10C18.4116 12.125 17.5191 14.0421 16.0945 15.408L17.2525 16.6163C18.9929 14.948 20.0783 12.6013 20.0783 10C20.0783 7.39879 18.9929 5.05212 17.2525 3.38379Z" fill="#FF5656"/>
</g>
</g>
<defs>
<clipPath id="clip0_15049_257294">
<rect width="20" height="20" fill="white" transform="translate(0.911621)"/>
</clipPath>
</defs>
</svg>
