<svg width="14" height="16" viewBox="0 0 14 16" fill="none" xmlns="http://www.w3.org/2000/svg">
<path d="M9.11173 1.60769L9.64508 1.04807C9.69199 0.998643 9.74835 0.959622 9.81066 0.933445C9.87296 0.907267 9.93987 0.894494 10.0072 0.895921L13.0821 0.957573C13.2059 0.960204 13.3246 1.00868 13.4162 1.094C13.5077 1.17932 13.5659 1.2957 13.5799 1.42154L13.9096 4.55592C13.9154 4.61171 13.9088 4.66813 13.8902 4.72092C13.8715 4.77371 13.8414 4.82148 13.8021 4.86062L11.082 7.7061C11.0532 7.73631 11.0187 7.76016 10.9805 7.7762C10.9424 7.79224 10.9014 7.80013 10.8602 7.79937L7.32616 7.75985C7.27502 7.75922 7.22426 7.76898 7.17684 7.78856C7.12941 7.80814 7.08626 7.83715 7.04988 7.87391C7.01349 7.91067 6.98461 7.95445 6.9649 8.00271C6.94519 8.05097 6.93504 8.10275 6.93504 8.15505C6.93504 8.39218 7.17389 8.57634 7.40655 8.58543L8.95945 8.61665C9.28372 8.61665 9.48237 8.74114 9.54498 8.98064C9.60295 9.20235 9.48507 9.34778 9.35985 9.49441C9.3471 9.50982 6.68035 12.3486 5.96341 13.1117C5.908 13.1706 5.84131 13.2173 5.76751 13.2487C5.6937 13.2801 5.61435 13.2956 5.53442 13.2943L2.90863 13.2287L1.27766 14.9526C1.19339 15.0416 1.07964 15.0953 0.958696 15.1032C0.837748 15.111 0.718301 15.0724 0.623726 14.9949C0.532129 14.9198 0.430483 14.8368 0.333862 14.7601C0.284444 14.7207 0.243676 14.6711 0.214198 14.6145C0.184721 14.558 0.167193 14.4957 0.162748 14.4318C0.158303 14.3678 0.16704 14.3037 0.188394 14.2434C0.209749 14.1831 0.243243 14.1281 0.286709 14.0819L1.88599 12.3826L1.62395 9.75168C1.61517 9.66279 1.62592 9.57302 1.6554 9.48892C1.68489 9.40482 1.73238 9.32852 1.79439 9.26558L3.25299 7.78514C3.32405 7.71947 3.41333 7.67803 3.50846 7.66658C3.60645 7.65357 3.70601 7.67063 3.79451 7.71559C3.883 7.76056 3.95643 7.8314 4.00548 7.91912L4.0078 7.92267C4.05428 8.0041 4.08302 8.09482 4.09205 8.18865C4.1191 8.47122 4.14461 8.81386 4.14925 8.8605L4.23698 9.7584C4.24233 9.81689 4.25922 9.87366 4.28662 9.92528C4.31403 9.97691 4.35138 10.0223 4.39642 10.0588C4.44146 10.0952 4.49326 10.122 4.54869 10.1374C4.60412 10.1528 4.66203 10.1566 4.71893 10.1485C4.97788 10.1129 5.13517 9.83428 5.10542 9.5691L4.78231 6.44223C4.77201 6.36533 4.77874 6.28704 4.80202 6.21316C4.82531 6.13928 4.86453 6.07169 4.91681 6.01541L7.31728 3.50388C7.39071 3.42484 7.57467 3.33473 7.70724 3.35054C7.80081 3.36173 7.89006 3.39709 7.96657 3.4533C8.02272 3.4914 8.0702 3.54139 8.10581 3.5999C8.14142 3.6584 8.16432 3.72404 8.17295 3.79238V3.79515L8.34455 5.49453C8.35415 5.58922 8.39907 5.67648 8.46997 5.73816C8.54087 5.79985 8.63231 5.8312 8.72524 5.82571L8.81993 5.81979C8.87549 5.81647 8.9298 5.80165 8.97958 5.77623C9.02936 5.7508 9.07358 5.7153 9.10954 5.67188C9.1455 5.62846 9.17245 5.57801 9.18878 5.52362C9.2051 5.46922 9.21044 5.41199 9.20448 5.35542L8.85201 2.0108L8.91926 1.87959C8.9703 1.77996 9.03512 1.68839 9.11173 1.60769Z" fill="#D0FF4B"/>
</svg>
