<svg width="14" height="16" viewBox="0 0 14 16" fill="none" xmlns="http://www.w3.org/2000/svg">
<path d="M9.11222 1.6077L9.64557 1.04809C9.69248 0.998659 9.74884 0.959638 9.81115 0.93346C9.87345 0.907282 9.94036 0.894509 10.0077 0.895936L13.0826 0.957588C13.2064 0.96022 13.3251 1.00869 13.4167 1.09401C13.5082 1.17934 13.5664 1.29571 13.5804 1.42156L13.9101 4.55593C13.9159 4.61173 13.9093 4.66815 13.8906 4.72093C13.872 4.77372 13.8419 4.82149 13.8026 4.86064L11.0825 7.70612C11.0537 7.73632 11.0192 7.76018 10.981 7.77622C10.9429 7.79226 10.9019 7.80014 10.8607 7.79938L7.32665 7.75986C7.27551 7.75924 7.22475 7.769 7.17733 7.78858C7.1299 7.80815 7.08674 7.83717 7.05036 7.87393C7.01398 7.91069 6.9851 7.95447 6.96539 8.00273C6.94567 8.05099 6.93553 8.10277 6.93553 8.15507C6.93553 8.39219 7.17438 8.57636 7.40704 8.58545L8.95994 8.61667C9.2842 8.61667 9.48286 8.74116 9.54547 8.98065C9.60344 9.20236 9.48556 9.3478 9.36034 9.49442C9.34759 9.50983 6.68083 12.3486 5.9639 13.1117C5.90849 13.1707 5.8418 13.2173 5.76799 13.2487C5.69419 13.2801 5.61484 13.2956 5.5349 13.2943L2.90912 13.2287L1.27815 14.9526C1.19387 15.0417 1.08013 15.0953 0.959184 15.1032C0.838236 15.111 0.718789 15.0724 0.624215 14.9949C0.532617 14.9198 0.430972 14.8368 0.33435 14.7601C0.284932 14.7207 0.244164 14.6711 0.214687 14.6145C0.18521 14.558 0.167681 14.4957 0.163236 14.4318C0.158791 14.3678 0.167528 14.3037 0.188883 14.2434C0.210237 14.1831 0.243732 14.1281 0.287198 14.082L1.88648 12.3826L1.62444 9.7517C1.61566 9.66281 1.6264 9.57304 1.65589 9.48894C1.68538 9.40484 1.73287 9.32853 1.79488 9.2656L3.25348 7.78516C3.32454 7.71948 3.41382 7.67805 3.50894 7.6666C3.60694 7.65358 3.7065 7.67064 3.795 7.71561C3.88349 7.76057 3.95692 7.83141 4.00597 7.91913L4.00829 7.92269C4.05477 8.00411 4.08351 8.09484 4.09254 8.18866C4.11959 8.47123 4.1451 8.81388 4.14974 8.86051L4.23747 9.75842C4.24282 9.8169 4.25971 9.87367 4.28711 9.9253C4.31452 9.97692 4.35187 10.0223 4.39691 10.0588C4.44195 10.0952 4.49375 10.122 4.54918 10.1374C4.60461 10.1528 4.66252 10.1566 4.71942 10.1485C4.97836 10.1129 5.13566 9.8343 5.1059 9.56911L4.7828 6.44225C4.7725 6.36535 4.77923 6.28706 4.80251 6.21318C4.82579 6.13929 4.86502 6.07171 4.9173 6.01543L7.31776 3.5039C7.3912 3.42486 7.57516 3.33475 7.70773 3.35056C7.8013 3.36175 7.89055 3.39711 7.96706 3.45331C8.02321 3.49141 8.07069 3.54141 8.1063 3.59991C8.14191 3.65841 8.1648 3.72406 8.17344 3.7924V3.79516L8.34504 5.49455C8.35463 5.58923 8.39955 5.67649 8.47046 5.73818C8.54136 5.79986 8.63279 5.83122 8.72573 5.82573L8.82042 5.8198C8.87597 5.81649 8.93029 5.80167 8.98007 5.77624C9.02985 5.75082 9.07406 5.71532 9.11002 5.67189C9.14598 5.62847 9.17294 5.57803 9.18927 5.52363C9.20559 5.46923 9.21093 5.41201 9.20497 5.35543L8.8525 2.01081L8.91975 1.8796C8.97079 1.77998 9.03561 1.6884 9.11222 1.6077Z" fill="#FFC24B" fill-opacity="0.87"/>
</svg>
