<svg width="24" height="25" viewBox="0 0 24 25" fill="none" xmlns="http://www.w3.org/2000/svg">
<g id="icons8-crown 1">
<path id="Vector" d="M18 18.5H6L3.5 8.5L8.5 12.5L12 6L15.5 12.5L20.5 8.5L18 18.5Z" fill="#FFC107"/>
<path id="Vector_2" d="M6 18.5H18V21H6V18.5ZM12 4C11.7348 4 11.4804 4.10536 11.2929 4.29289C11.1054 4.48043 11 4.73478 11 5C11 5.26522 11.1054 5.51957 11.2929 5.70711C11.4804 5.89464 11.7348 6 12 6C12.2652 6 12.5196 5.89464 12.7071 5.70711C12.8946 5.51957 13 5.26522 13 5C13 4.73478 12.8946 4.48043 12.7071 4.29289C12.5196 4.10536 12.2652 4 12 4ZM21 6.5C20.7348 6.5 20.4804 6.60536 20.2929 6.79289C20.1054 6.98043 20 7.23478 20 7.5C20 7.76522 20.1054 8.01957 20.2929 8.20711C20.4804 8.39464 20.7348 8.5 21 8.5C21.2652 8.5 21.5196 8.39464 21.7071 8.20711C21.8946 8.01957 22 7.76522 22 7.5C22 7.23478 21.8946 6.98043 21.7071 6.79289C21.5196 6.60536 21.2652 6.5 21 6.5ZM3 6.5C2.73478 6.5 2.48043 6.60536 2.29289 6.79289C2.10536 6.98043 2 7.23478 2 7.5C2 7.76522 2.10536 8.01957 2.29289 8.20711C2.48043 8.39464 2.73478 8.5 3 8.5C3.26522 8.5 3.51957 8.39464 3.70711 8.20711C3.89464 8.01957 4 7.76522 4 7.5C4 7.23478 3.89464 6.98043 3.70711 6.79289C3.51957 6.60536 3.26522 6.5 3 6.5Z" fill="#FF9800"/>
</g>
</svg>
