<svg width="16" height="17" viewBox="0 0 16 17" fill="none" xmlns="http://www.w3.org/2000/svg">
<g id="icons8-detail 1" clip-path="url(#clip0_17168_74955)">
<path id="Vector" d="M2 3.5C1.73478 3.5 1.48043 3.60536 1.29289 3.79289C1.10536 3.98043 1 4.23478 1 4.5C1 4.76522 1.10536 5.01957 1.29289 5.20711C1.48043 5.39464 1.73478 5.5 2 5.5C2.26522 5.5 2.51957 5.39464 2.70711 5.20711C2.89464 5.01957 3 4.76522 3 4.5C3 4.23478 2.89464 3.98043 2.70711 3.79289C2.51957 3.60536 2.26522 3.5 2 3.5ZM4.66667 3.83333V5.16667H14.6667V3.83333H4.66667ZM2 7.5C1.73478 7.5 1.48043 7.60536 1.29289 7.79289C1.10536 7.98043 1 8.23478 1 8.5C1 8.76522 1.10536 9.01957 1.29289 9.20711C1.48043 9.39464 1.73478 9.5 2 9.5C2.26522 9.5 2.51957 9.39464 2.70711 9.20711C2.89464 9.01957 3 8.76522 3 8.5C3 8.23478 2.89464 7.98043 2.70711 7.79289C2.51957 7.60536 2.26522 7.5 2 7.5ZM4.66667 7.83333V9.16667H8.73698C9.57831 8.34267 10.7293 7.83333 12 7.83333H4.66667ZM12 9.16667C10.1333 9.16667 8.66667 10.6333 8.66667 12.5C8.66667 14.3667 10.1333 15.8333 12 15.8333C12.6667 15.8333 13.3339 15.6328 13.8672 15.2995L15.0664 16.5L16 15.5664L14.7995 14.3672C15.1328 13.8339 15.3333 13.1667 15.3333 12.5C15.3333 10.6333 13.8667 9.16667 12 9.16667ZM12 10.5C13.1333 10.5 14 11.3667 14 12.5C14 13.6333 13.1333 14.5 12 14.5C10.8667 14.5 10 13.6333 10 12.5C10 11.3667 10.8667 10.5 12 10.5ZM2 11.5C1.73478 11.5 1.48043 11.6054 1.29289 11.7929C1.10536 11.9804 1 12.2348 1 12.5C1 12.7652 1.10536 13.0196 1.29289 13.2071C1.48043 13.3946 1.73478 13.5 2 13.5C2.26522 13.5 2.51957 13.3946 2.70711 13.2071C2.89464 13.0196 3 12.7652 3 12.5C3 12.2348 2.89464 11.9804 2.70711 11.7929C2.51957 11.6054 2.26522 11.5 2 11.5ZM4.66667 11.8333V13.1667H7.38672C7.35539 12.9487 7.33333 12.7267 7.33333 12.5C7.33333 12.2733 7.35539 12.0513 7.38672 11.8333H4.66667Z" fill="#2574FB"/>
</g>
<defs>
<clipPath id="clip0_17168_74955">
<rect width="16" height="16" fill="white" transform="translate(0 0.5)"/>
</clipPath>
</defs>
</svg>
