<svg width="43" height="57" viewBox="0 0 43 57" fill="none" xmlns="http://www.w3.org/2000/svg">
<g id="Group 13043">
<path id="Vector" d="M21.5 11C12.8649 11 5.86364 17.8656 5.86364 26.3333C5.86364 34.8011 12.8649 41.6667 21.5 41.6667C30.1351 41.6667 37.1364 34.8011 37.1364 26.3333C37.1364 17.8656 30.1351 11 21.5 11ZM11.0554 31.4245H31.9446C30.0206 35.1979 26.0962 37.8333 21.5 37.8333C16.9038 37.8333 12.9794 35.1979 11.0554 31.4245ZM12.4602 44.3021C6.97127 45.7148 2.61048 48.967 0.378121 55.7436C0.171669 56.3703 0.650938 57 1.31078 57H41.6892C42.3491 57 42.8283 56.3703 42.6219 55.7436C40.3895 48.967 36.0287 45.7148 30.5398 44.3021C27.8446 45.7171 24.7678 46.5182 21.5 46.5182C18.2322 46.5182 15.1554 45.7171 12.4602 44.3021Z" fill="url(#paint0_linear_17160_68694)"/>
<path id="Vector_2" d="M27.5 12.5H15.5L13 2.5L18 6.5L21.5 0L25 6.5L30 2.5L27.5 12.5Z" fill="#FFC107"/>
</g>
<defs>
<linearGradient id="paint0_linear_17160_68694" x1="49.8369" y1="34" x2="-7.40732" y2="38.6474" gradientUnits="userSpaceOnUse">
<stop stop-color="#F703D9"/>
<stop offset="0.427083" stop-color="#795AF4"/>
<stop offset="0.921875" stop-color="#04AEFC"/>
</linearGradient>
</defs>
</svg>
