<svg width="16" height="16" viewBox="0 0 16 16" fill="none" xmlns="http://www.w3.org/2000/svg">
<g id="icons8-gift (1) 1">
<path id="Vector" d="M6.00065 1.33331C4.90398 1.33331 4.00065 2.23664 4.00065 3.33331C4.00065 3.56788 4.04995 3.79005 4.12565 3.99998H1.33398V6.66665H2.00065V12.6666C2.00065 13.4 2.60065 14 3.33398 14H7.33398V6.66665H8.66732V14H12.6673C13.4007 14 14.0007 13.4 14.0007 12.6666V6.66665H14.6673V3.99998H11.8757C11.9514 3.79005 12.0007 3.56788 12.0007 3.33331C12.0007 2.23664 11.0973 1.33331 10.0007 1.33331C9.48825 1.33331 9.02288 1.53607 8.66732 1.85805V1.84373L8.58919 1.92185L8.00065 2.5104L7.41211 1.92185L7.33398 1.84373V1.85805C6.97842 1.53607 6.51305 1.33331 6.00065 1.33331ZM6.00065 2.66665C6.37674 2.66665 6.66732 2.95723 6.66732 3.33331C6.66732 3.7094 6.37674 3.99998 6.00065 3.99998C5.62456 3.99998 5.33398 3.7094 5.33398 3.33331C5.33398 2.95723 5.62456 2.66665 6.00065 2.66665ZM10.0007 2.66665C10.3767 2.66665 10.6673 2.95723 10.6673 3.33331C10.6673 3.7094 10.3767 3.99998 10.0007 3.99998C9.62456 3.99998 9.33398 3.7094 9.33398 3.33331C9.33398 2.95723 9.62456 2.66665 10.0007 2.66665Z" fill="#A8CBFF" fill-opacity="0.75"/>
</g>
</svg>
