<svg width="16" height="18" viewBox="0 0 16 18" fill="none" xmlns="http://www.w3.org/2000/svg">
<g id="Group">
<g id="Group_2">
<g id="Group_3">
<path id="Vector" d="M6.77157 7.75246L11.6124 4.49206C11.8419 4.33872 11.9044 4.02869 11.7511 3.79869C11.5968 3.56772 11.2852 3.50769 11.0577 3.66002L6.21687 6.92042C5.98737 7.07376 5.92487 7.38379 6.07821 7.61379C6.23294 7.84509 6.54331 7.90462 6.77157 7.75246ZM11.6124 13.508L6.77154 10.2476C6.54304 10.0952 6.23247 10.1563 6.07817 10.3862C5.92484 10.6162 5.98734 10.9263 6.21684 11.0796L11.0577 14.34C11.2856 14.4919 11.5961 14.433 11.751 14.2013C11.9044 13.9714 11.8419 13.6613 11.6124 13.508Z" fill="white" fill-opacity="0.87"/>
</g>
</g>
<g id="Group_4">
<g id="Group_5">
<path id="Vector_2" d="M4 5.50001C2.0703 5.50001 0.5 7.07031 0.5 9.00001C0.5 10.9297 2.0703 12.5 4 12.5C5.9297 12.5 7.5 10.9297 7.5 9.00001C7.5 7.07031 5.9297 5.50001 4 5.50001ZM13 5.46667C14.3789 5.46667 15.5 4.34511 15.5 2.96667C15.5 1.58824 14.3789 0.466675 13 0.466675C11.6211 0.466675 10.5 1.58824 10.5 2.96667C10.5 4.34511 11.6211 5.46667 13 5.46667ZM13 12.5333C11.6211 12.5333 10.5 13.6549 10.5 15.0333C10.5 16.4118 11.6211 17.5333 13 17.5333C14.3789 17.5333 15.5 16.4118 15.5 15.0333C15.5 13.6549 14.3789 12.5333 13 12.5333Z" fill="white" fill-opacity="0.87"/>
</g>
</g>
</g>
</svg>
