<svg width="126" height="126" viewBox="0 0 126 126" fill="none" xmlns="http://www.w3.org/2000/svg">
<circle cx="62.6087" cy="63" r="62.6087" fill="url(#paint0_linear_4813_92835)"/>
<path d="M74.4196 27.9213L77.4553 24.7362C77.7223 24.4548 78.0431 24.2328 78.3977 24.0838C78.7523 23.9348 79.1331 23.8621 79.5164 23.8702L97.0177 24.2211C97.7226 24.2361 98.3982 24.512 98.9192 24.9976C99.4402 25.4832 99.7713 26.1456 99.851 26.8619L101.727 44.7018C101.761 45.0194 101.723 45.3405 101.617 45.6409C101.511 45.9414 101.34 46.2133 101.116 46.4361L85.634 62.6317C85.4701 62.8036 85.2735 62.9394 85.0564 63.0307C84.8392 63.122 84.6061 63.1669 84.3713 63.1625L64.2567 62.9376C63.9656 62.934 63.6767 62.9896 63.4068 63.101C63.1368 63.2125 62.8912 63.3776 62.6841 63.5868C62.4771 63.796 62.3127 64.0452 62.2005 64.3199C62.0883 64.5946 62.0305 64.8893 62.0305 65.187C62.0305 66.5366 63.39 67.5848 64.7143 67.6366L73.5529 67.8143C75.3985 67.8143 76.5292 68.5228 76.8855 69.886C77.2155 71.1479 76.5446 71.9757 75.8318 72.8102C75.7593 72.8979 60.5809 89.0553 56.5003 93.3988C56.185 93.7343 55.8054 93.9996 55.3853 94.1784C54.9652 94.3572 54.5136 94.4456 54.0586 94.4381L39.1134 94.0647L29.8304 103.877C29.3508 104.383 28.7034 104.689 28.015 104.733C27.3266 104.778 26.6467 104.558 26.1084 104.117C25.5871 103.69 25.0086 103.217 24.4586 102.781C24.1773 102.557 23.9453 102.274 23.7775 101.952C23.6098 101.63 23.51 101.276 23.4847 100.912C23.4594 100.548 23.5091 100.183 23.6307 99.84C23.7522 99.497 23.9428 99.1839 24.1902 98.9211L33.2929 89.2487L31.8014 74.2745C31.7514 73.7686 31.8126 73.2576 31.9804 72.779C32.1483 72.3003 32.4185 71.866 32.7715 71.5078L41.0734 63.0816C41.4779 62.7078 41.986 62.4719 42.5274 62.4067C43.0852 62.3327 43.6519 62.4298 44.1556 62.6857C44.6593 62.9416 45.0772 63.3448 45.3564 63.8441L45.3695 63.8643C45.6341 64.3278 45.7977 64.8442 45.8491 65.3782C46.0031 66.9865 46.1483 68.9367 46.1747 69.2022L46.674 74.3128C46.7045 74.6456 46.8006 74.9688 46.9565 75.2626C47.1125 75.5564 47.3251 75.8149 47.5815 76.0224C47.8378 76.2299 48.1327 76.3821 48.4482 76.4698C48.7637 76.5576 49.0933 76.579 49.4171 76.5329C50.8909 76.3305 51.7862 74.7446 51.6169 73.2353L49.7779 55.4381C49.7192 55.0004 49.7575 54.5548 49.8901 54.1343C50.0226 53.7138 50.2458 53.3291 50.5434 53.0088L64.2061 38.7139C64.6241 38.264 65.6711 37.7512 66.4257 37.8411C66.9582 37.9048 67.4662 38.1061 67.9017 38.426C68.2213 38.6429 68.4916 38.9274 68.6942 39.2604C68.8969 39.5934 69.0272 39.967 69.0764 40.356V40.3717L70.0531 50.0441C70.1077 50.583 70.3633 51.0797 70.7669 51.4308C71.1705 51.7818 71.6909 51.9603 72.2198 51.9291L72.7588 51.8953C73.075 51.8765 73.3841 51.7921 73.6674 51.6474C73.9508 51.5027 74.2024 51.3007 74.4071 51.0535C74.6118 50.8063 74.7652 50.5193 74.8581 50.2096C74.951 49.9 74.9814 49.5743 74.9475 49.2523L72.9414 30.2157L73.3241 29.4689C73.6146 28.9019 73.9836 28.3807 74.4196 27.9213Z" fill="white"/>
<defs>
<linearGradient id="paint0_linear_4813_92835" x1="107.609" y1="35.6087" x2="-21.5217" y2="178.435" gradientUnits="userSpaceOnUse">
<stop stop-color="#C187D0"/>
<stop offset="0.248815" stop-color="#2574FB"/>
<stop offset="0.526241" stop-color="#8C04F7"/>
</linearGradient>
</defs>
</svg>
