<svg width="48" height="48" viewBox="0 0 48 48" fill="none" xmlns="http://www.w3.org/2000/svg">
<path d="M24 6C14.046 6 6 14.046 6 24C6 33.954 14.046 42 24 42C33.954 42 42 33.954 42 24C42 14.046 33.954 6 24 6ZM32.4726 29.9274C33.1764 30.6312 33.1764 31.7688 32.4726 32.4726C32.1216 32.8236 31.6608 33 31.2 33C30.7392 33 30.2784 32.8236 29.9274 32.4726L24 26.5452L18.0726 32.4726C17.7216 32.8236 17.2608 33 16.8 33C16.3392 33 15.8784 32.8236 15.5274 32.4726C14.8236 31.7688 14.8236 30.6312 15.5274 29.9274L21.4548 24L15.5274 18.0726C14.8236 17.3688 14.8236 16.2312 15.5274 15.5274C16.2312 14.8236 17.3688 14.8236 18.0726 15.5274L24 21.4548L29.9274 15.5274C30.6312 14.8236 31.7688 14.8236 32.4726 15.5274C33.1764 16.2312 33.1764 17.3688 32.4726 18.0726L26.5452 24L32.4726 29.9274Z" fill="#FF5656"/>
</svg>
