<svg width="48" height="48" viewBox="0 0 48 48" fill="none" xmlns="http://www.w3.org/2000/svg">
<path d="M24 6C14.0586 6 6 14.0586 6 24C6 33.9414 14.0586 42 24 42C33.9414 42 42 33.9414 42 24C42 14.0586 33.9414 6 24 6ZM34.2726 19.8726L21.6726 32.4726C21.3216 32.8236 20.8608 33 20.4 33C19.9392 33 19.4784 32.8236 19.1274 32.4726L13.7274 27.0726C13.0236 26.3688 13.0236 25.2312 13.7274 24.5274C14.4312 23.8236 15.5688 23.8236 16.2726 24.5274L20.4 28.6548L31.7274 17.3274C32.4312 16.6236 33.5688 16.6236 34.2726 17.3274C34.9764 18.0312 34.9764 19.1688 34.2726 19.8726Z" fill="#FFC24B" fill-opacity="0.87"/>
</svg>
