<svg width="93" height="46" viewBox="0 0 93 46" fill="none" xmlns="http://www.w3.org/2000/svg">
<circle cx="11" cy="23" r="11" fill="url(#paint0_linear_8276_23868)"/>
<path d="M13.0751 16.8369L13.6085 16.2773C13.6554 16.2278 13.7117 16.1888 13.774 16.1626C13.8363 16.1365 13.9033 16.1237 13.9706 16.1251L17.0455 16.1868C17.1693 16.1894 17.288 16.2379 17.3796 16.3232C17.4711 16.4085 17.5293 16.5249 17.5433 16.6507L17.8729 19.7851C17.8788 19.8409 17.8721 19.8973 17.8535 19.9501C17.8349 20.0029 17.8048 20.0507 17.7655 20.0898L15.0454 22.9353C15.0166 22.9655 14.9821 22.9893 14.9439 23.0054C14.9058 23.0214 14.8648 23.0293 14.8236 23.0286L11.2895 22.989C11.2384 22.9884 11.1876 22.9982 11.1402 23.0177C11.0928 23.0373 11.0496 23.0663 11.0133 23.1031C10.9769 23.1399 10.948 23.1836 10.9283 23.2319C10.9086 23.2802 10.8984 23.3319 10.8984 23.3842C10.8984 23.6214 11.1373 23.8055 11.3699 23.8146L12.9228 23.8458C13.2471 23.8458 13.4457 23.9703 13.5084 24.2098C13.5663 24.4315 13.4485 24.577 13.3232 24.7236C13.3105 24.739 10.6437 27.5778 9.92679 28.3409C9.87138 28.3998 9.80469 28.4465 9.73089 28.4779C9.65708 28.5093 9.57773 28.5248 9.4978 28.5235L6.87201 28.4579L5.24104 30.1818C5.15676 30.2708 5.04302 30.3245 4.92207 30.3323C4.80113 30.3402 4.68168 30.3015 4.58711 30.2241C4.49551 30.149 4.39386 30.066 4.29724 29.9893C4.24782 29.9499 4.20705 29.9003 4.17758 29.8437C4.1481 29.7871 4.13057 29.7249 4.12613 29.6609C4.12168 29.597 4.13042 29.5328 4.15177 29.4726C4.17313 29.4123 4.20662 29.3573 4.25009 29.3111L5.84937 27.6118L5.58733 24.9809C5.57855 24.892 5.58929 24.8022 5.61878 24.7181C5.64827 24.634 5.69576 24.5577 5.75777 24.4948L7.21637 23.0143C7.28743 22.9487 7.37671 22.9072 7.47183 22.8958C7.56983 22.8828 7.66939 22.8998 7.75789 22.9448C7.84638 22.9897 7.91981 23.0606 7.96886 23.1483L7.97118 23.1519C8.01766 23.2333 8.0464 23.324 8.05543 23.4178C8.08248 23.7004 8.10799 24.043 8.11263 24.0897L8.20036 24.9876C8.20571 25.0461 8.2226 25.1028 8.25 25.1545C8.27741 25.2061 8.31476 25.2515 8.3598 25.288C8.40484 25.3244 8.45664 25.3512 8.51207 25.3666C8.5675 25.382 8.62541 25.3858 8.68231 25.3777C8.94125 25.3421 9.09855 25.0635 9.06879 24.7983L8.74569 21.6714C8.73539 21.5945 8.74212 21.5162 8.7654 21.4423C8.78868 21.3685 8.82791 21.3009 8.88019 21.2446L11.2807 18.7331C11.3541 18.654 11.5381 18.5639 11.6706 18.5797C11.7642 18.5909 11.8534 18.6263 11.93 18.6825C11.9861 18.7206 12.0336 18.7706 12.0692 18.8291C12.1048 18.8876 12.1277 18.9532 12.1363 19.0216V19.0243L12.3079 20.7237C12.3175 20.8184 12.3624 20.9057 12.4333 20.9673C12.5043 21.029 12.5957 21.0604 12.6886 21.0549L12.7833 21.049C12.8389 21.0457 12.8932 21.0308 12.943 21.0054C12.9927 20.98 13.037 20.9445 13.0729 20.9011C13.1089 20.8576 13.1358 20.8072 13.1522 20.7528C13.1685 20.6984 13.1738 20.6412 13.1679 20.5846L12.8154 17.24L12.8826 17.1088C12.9337 17.0092 12.9985 16.9176 13.0751 16.8369Z" fill="white"/>
<path d="M32.56 30V18.64H28.08V16H40.28V18.64H35.8V30H32.56ZM41.5689 30V19.24H44.5489V22.28L44.1289 21.4C44.4489 20.64 44.9622 20.0667 45.6689 19.68C46.3756 19.28 47.2356 19.08 48.2489 19.08V21.96C48.1156 21.9467 47.9956 21.94 47.8889 21.94C47.7822 21.9267 47.6689 21.92 47.5489 21.92C46.6956 21.92 46.0022 22.1667 45.4689 22.66C44.9489 23.14 44.6889 23.8933 44.6889 24.92V30H41.5689ZM50.1236 30V19.24H53.2436V30H50.1236ZM51.6836 17.74C51.1103 17.74 50.6436 17.5733 50.2836 17.24C49.9236 16.9067 49.7436 16.4933 49.7436 16C49.7436 15.5067 49.9236 15.0933 50.2836 14.76C50.6436 14.4267 51.1103 14.26 51.6836 14.26C52.2569 14.26 52.7236 14.42 53.0836 14.74C53.4436 15.0467 53.6236 15.4467 53.6236 15.94C53.6236 16.46 53.4436 16.8933 53.0836 17.24C52.7369 17.5733 52.2703 17.74 51.6836 17.74ZM62.4992 30.16C61.5526 30.16 60.7392 29.96 60.0592 29.56C59.3792 29.16 58.8592 28.5533 58.4992 27.74C58.1392 26.9133 57.9592 25.8733 57.9592 24.62C57.9592 23.3533 58.1459 22.3133 58.5192 21.5C58.9059 20.6867 59.4392 20.08 60.1192 19.68C60.7992 19.28 61.5926 19.08 62.4992 19.08C63.5126 19.08 64.4192 19.3067 65.2192 19.76C66.0326 20.2133 66.6726 20.8533 67.1392 21.68C67.6192 22.5067 67.8592 23.4867 67.8592 24.62C67.8592 25.74 67.6192 26.7133 67.1392 27.54C66.6726 28.3667 66.0326 29.0133 65.2192 29.48C64.4192 29.9333 63.5126 30.16 62.4992 30.16ZM56.1392 30V15.16H59.2592V21.42L59.0592 24.6L59.1192 27.8V30H56.1392ZM61.9592 27.6C62.4792 27.6 62.9392 27.48 63.3392 27.24C63.7526 27 64.0792 26.66 64.3192 26.22C64.5726 25.7667 64.6992 25.2333 64.6992 24.62C64.6992 23.9933 64.5726 23.46 64.3192 23.02C64.0792 22.58 63.7526 22.24 63.3392 22C62.9392 21.76 62.4792 21.64 61.9592 21.64C61.4392 21.64 60.9726 21.76 60.5592 22C60.1459 22.24 59.8192 22.58 59.5792 23.02C59.3392 23.46 59.2192 23.9933 59.2192 24.62C59.2192 25.2333 59.3392 25.7667 59.5792 26.22C59.8192 26.66 60.1459 27 60.5592 27.24C60.9726 27.48 61.4392 27.6 61.9592 27.6ZM75.2878 30.16C74.0611 30.16 72.9811 29.92 72.0478 29.44C71.1278 28.96 70.4145 28.3067 69.9078 27.48C69.4011 26.64 69.1478 25.6867 69.1478 24.62C69.1478 23.54 69.3945 22.5867 69.8878 21.76C70.3945 20.92 71.0811 20.2667 71.9478 19.8C72.8145 19.32 73.7945 19.08 74.8878 19.08C75.9411 19.08 76.8878 19.3067 77.7278 19.76C78.5811 20.2 79.2545 20.84 79.7478 21.68C80.2411 22.5067 80.4878 23.5 80.4878 24.66C80.4878 24.78 80.4811 24.92 80.4678 25.08C80.4545 25.2267 80.4411 25.3667 80.4278 25.5H71.6878V23.68H78.7878L77.5878 24.22C77.5878 23.66 77.4745 23.1733 77.2478 22.76C77.0211 22.3467 76.7078 22.0267 76.3078 21.8C75.9078 21.56 75.4411 21.44 74.9078 21.44C74.3745 21.44 73.9011 21.56 73.4878 21.8C73.0878 22.0267 72.7745 22.3533 72.5478 22.78C72.3211 23.1933 72.2078 23.6867 72.2078 24.26V24.74C72.2078 25.3267 72.3345 25.8467 72.5878 26.3C72.8545 26.74 73.2211 27.08 73.6878 27.32C74.1678 27.5467 74.7278 27.66 75.3678 27.66C75.9411 27.66 76.4411 27.5733 76.8678 27.4C77.3078 27.2267 77.7078 26.9667 78.0678 26.62L79.7278 28.42C79.2345 28.98 78.6145 29.4133 77.8678 29.72C77.1211 30.0133 76.2611 30.16 75.2878 30.16ZM86.0544 30.24C85.081 30.24 84.1144 30.1133 83.1544 29.86C82.1944 29.5933 81.381 29.22 80.7144 28.74L81.9744 26.26C82.5077 26.6467 83.1277 26.9533 83.8344 27.18C84.541 27.4067 85.2544 27.52 85.9744 27.52C86.7877 27.52 87.4277 27.36 87.8944 27.04C88.361 26.72 88.5944 26.28 88.5944 25.72C88.5944 25.1867 88.3877 24.7667 87.9744 24.46C87.561 24.1533 86.8944 24 85.9744 24H84.4944V21.86L88.3944 17.44L88.7544 18.6H81.4144V16H91.2144V18.1L87.3344 22.52L85.6944 21.58H86.6344C88.3544 21.58 89.6544 21.9667 90.5344 22.74C91.4144 23.5133 91.8544 24.5067 91.8544 25.72C91.8544 26.5067 91.6477 27.2467 91.2344 27.94C90.821 28.62 90.1877 29.1733 89.3344 29.6C88.481 30.0267 87.3877 30.24 86.0544 30.24Z" fill="white" fill-opacity="0.87"/>
<defs>
<linearGradient id="paint0_linear_8276_23868" x1="18.9062" y1="18.1875" x2="-3.78125" y2="43.2812" gradientUnits="userSpaceOnUse">
<stop stop-color="#C187D0"/>
<stop offset="0.248815" stop-color="#2574FB"/>
<stop offset="0.526241" stop-color="#8C04F7"/>
</linearGradient>
</defs>
</svg>
