<svg width="92" height="22" xmlns="http://www.w3.org/2000/svg" fill="none">
 <defs>
  <linearGradient y2="1.42187" x2="-0.17188" y1="0.28125" x1="0.85937" id="paint0_linear_8276_23868">
   <stop stop-color="#C187D0"/>
   <stop stop-color="#2574FB" offset="0.24882"/>
   <stop stop-color="#8C04F7" offset="0.52624"/>
  </linearGradient>
 </defs>
 <g>
  <title>Layer 1</title>
  <circle id="svg_1" fill="url(#paint0_linear_8276_23868)" r="11" cy="11" cx="11"/>
  <path id="svg_2" fill="white" d="m13.0751,4.8369l0.5334,-0.5596c0.0469,-0.0495 0.1032,-0.0885 0.1655,-0.1147c0.0623,-0.0261 0.1293,-0.0389 0.1966,-0.0375l3.0749,0.0617c0.1238,0.0026 0.2425,0.0511 0.3341,0.1364c0.0915,0.0853 0.1497,0.2017 0.1637,0.3275l0.3296,3.1344c0.0059,0.0558 -0.0008,0.1122 -0.0194,0.165c-0.0186,0.0528 -0.0487,0.1006 -0.088,0.1397l-2.7201,2.8455c-0.0288,0.0302 -0.0633,0.054 -0.1015,0.0701c-0.0381,0.016 -0.0791,0.0239 -0.1203,0.0232l-3.5341,-0.0396c-0.0511,-0.0006 -0.1019,0.0092 -0.1493,0.0287c-0.0474,0.0196 -0.0906,0.0486 -0.1269,0.0854c-0.0364,0.0368 -0.0653,0.0805 -0.085,0.1288c-0.0197,0.0483 -0.0299,0.1 -0.0299,0.1523c0,0.2372 0.2389,0.4213 0.4715,0.4304l1.5529,0.0312c0.3243,0 0.5229,0.1245 0.5856,0.364c0.0579,0.2217 -0.0599,0.3672 -0.1852,0.5138c-0.0127,0.0154 -2.6795,2.8542 -3.39641,3.6173c-0.05541,0.0589 -0.1221,0.1056 -0.1959,0.137c-0.07381,0.0314 -0.15316,0.0469 -0.23309,0.0456l-2.62579,-0.0656l-1.63097,1.7239c-0.08428,0.089 -0.19802,0.1427 -0.31897,0.1505c-0.12094,0.0079 -0.24039,-0.0308 -0.33496,-0.1082c-0.0916,-0.0751 -0.19325,-0.1581 -0.28987,-0.2348c-0.04942,-0.0394 -0.09019,-0.089 -0.11966,-0.1456c-0.02948,-0.0566 -0.04701,-0.1188 -0.05145,-0.1828c-0.00445,-0.0639 0.00429,-0.1281 0.02564,-0.1883c0.02136,-0.0603 0.05485,-0.1153 0.09832,-0.1615l1.59928,-1.6993l-0.26204,-2.6309c-0.00878,-0.0889 0.00196,-0.1787 0.03145,-0.2628c0.02949,-0.0841 0.07698,-0.1604 0.13899,-0.2233l1.4586,-1.4805c0.07106,-0.0656 0.16034,-0.1071 0.25546,-0.1185c0.098,-0.013 0.19756,0.004 0.28606,0.049c0.08849,0.0449 0.16192,0.1158 0.21097,0.2035l0.00232,0.0036c0.04648,0.0814 0.07522,0.1721 0.08425,0.2659c0.02705,0.2826 0.05256,0.6252 0.0572,0.6719l0.08773,0.8979c0.00535,0.0585 0.02224,0.1152 0.04964,0.1669c0.02741,0.0516 0.06476,0.097 0.1098,0.1335c0.04504,0.0364 0.09684,0.0632 0.15227,0.0786c0.05543,0.0154 0.11334,0.0192 0.17024,0.0111c0.25894,-0.0356 0.41624,-0.3142 0.38648,-0.5794l-0.3231,-3.1269c-0.0103,-0.0769 -0.00357,-0.1552 0.01971,-0.2291c0.02328,-0.0738 0.06251,-0.1414 0.11479,-0.1977l2.40051,-2.5115c0.0734,-0.0791 0.2574,-0.1692 0.3899,-0.1534c0.0936,0.0112 0.1828,0.0466 0.2594,0.1028c0.0561,0.0381 0.1036,0.0881 0.1392,0.1466c0.0356,0.0585 0.0585,0.1241 0.0671,0.1925l0,0.0027l0.1716,1.6994c0.0096,0.0947 0.0545,0.182 0.1254,0.2436c0.071,0.0617 0.1624,0.0931 0.2553,0.0876l0.0947,-0.0059c0.0556,-0.0033 0.1099,-0.0182 0.1597,-0.0436c0.0497,-0.0254 0.094,-0.0609 0.1299,-0.1043c0.036,-0.0435 0.0629,-0.0939 0.0793,-0.1483c0.0163,-0.0544 0.0216,-0.1116 0.0157,-0.1682l-0.3525,-3.3446l0.0672,-0.1312c0.0511,-0.0996 0.1159,-0.1912 0.1925,-0.2719z"/>
  <path id="svg_3" fill-opacity="0.87" fill="white" d="m32.56,18l0,-11.36l-4.48,0l0,-2.64l12.2,0l0,2.64l-4.48,0l0,11.36l-3.24,0zm9.0089,0l0,-10.76l2.98,0l0,3.04l-0.42,-0.88c0.32,-0.76 0.8333,-1.3333 1.54,-1.72c0.7067,-0.4 1.5667,-0.6 2.58,-0.6l0,2.88c-0.1333,-0.0133 -0.2533,-0.02 -0.36,-0.02c-0.1067,-0.0133 -0.22,-0.02 -0.34,-0.02c-0.8533,0 -1.5467,0.2467 -2.08,0.74c-0.52,0.48 -0.78,1.2333 -0.78,2.26l0,5.08l-3.12,0zm8.5547,0l0,-10.76l3.12,0l0,10.76l-3.12,0zm1.56,-12.26c-0.5733,0 -1.04,-0.1667 -1.4,-0.5c-0.36,-0.3333 -0.54,-0.7467 -0.54,-1.24c0,-0.4933 0.18,-0.9067 0.54,-1.24c0.36,-0.3333 0.8267,-0.5 1.4,-0.5c0.5733,0 1.04,0.16 1.4,0.48c0.36,0.3067 0.54,0.7067 0.54,1.2c0,0.52 -0.18,0.9533 -0.54,1.3c-0.3467,0.3333 -0.8133,0.5 -1.4,0.5zm10.8156,12.42c-0.9466,0 -1.76,-0.2 -2.44,-0.6c-0.68,-0.4 -1.2,-1.0067 -1.56,-1.82c-0.36,-0.8267 -0.54,-1.8667 -0.54,-3.12c0,-1.2667 0.1867,-2.3067 0.56,-3.12c0.3867,-0.8133 0.92,-1.42 1.6,-1.82c0.68,-0.4 1.4734,-0.6 2.38,-0.6c1.0134,0 1.92,0.2267 2.72,0.68c0.8134,0.4533 1.4534,1.0933 1.92,1.92c0.48,0.8267 0.72,1.8067 0.72,2.94c0,1.12 -0.24,2.0933 -0.72,2.92c-0.4666,0.8267 -1.1066,1.4733 -1.92,1.94c-0.8,0.4533 -1.7066,0.68 -2.72,0.68zm-6.36,-0.16l0,-14.84l3.12,0l0,6.26l-0.2,3.18l0.06,3.2l0,2.2l-2.98,0zm5.82,-2.4c0.52,0 0.98,-0.12 1.38,-0.36c0.4134,-0.24 0.74,-0.58 0.98,-1.02c0.2534,-0.4533 0.38,-0.9867 0.38,-1.6c0,-0.6267 -0.1266,-1.16 -0.38,-1.6c-0.24,-0.44 -0.5666,-0.78 -0.98,-1.02c-0.4,-0.24 -0.86,-0.36 -1.38,-0.36c-0.52,0 -0.9866,0.12 -1.4,0.36c-0.4133,0.24 -0.74,0.58 -0.98,1.02c-0.24,0.44 -0.36,0.9733 -0.36,1.6c0,0.6133 0.12,1.1467 0.36,1.6c0.24,0.44 0.5667,0.78 0.98,1.02c0.4134,0.24 0.88,0.36 1.4,0.36zm13.3286,2.56c-1.2267,0 -2.3067,-0.24 -3.24,-0.72c-0.92,-0.48 -1.6333,-1.1333 -2.14,-1.96c-0.5067,-0.84 -0.76,-1.7933 -0.76,-2.86c0,-1.08 0.2467,-2.0333 0.74,-2.86c0.5067,-0.84 1.1933,-1.4933 2.06,-1.96c0.8667,-0.48 1.8467,-0.72 2.94,-0.72c1.0533,0 2,0.2267 2.84,0.68c0.8533,0.44 1.5267,1.08 2.02,1.92c0.4933,0.8267 0.74,1.82 0.74,2.98c0,0.12 -0.0067,0.26 -0.02,0.42c-0.0133,0.1467 -0.0267,0.2867 -0.04,0.42l-8.74,0l0,-1.82l7.1,0l-1.2,0.54c0,-0.56 -0.1133,-1.0467 -0.34,-1.46c-0.2267,-0.4133 -0.54,-0.7333 -0.94,-0.96c-0.4,-0.24 -0.8667,-0.36 -1.4,-0.36c-0.5333,0 -1.0067,0.12 -1.42,0.36c-0.4,0.2267 -0.7133,0.5533 -0.94,0.98c-0.2267,0.4133 -0.34,0.9067 -0.34,1.48l0,0.48c0,0.5867 0.1267,1.1067 0.38,1.56c0.2667,0.44 0.6333,0.78 1.1,1.02c0.48,0.2267 1.04,0.34 1.68,0.34c0.5733,0 1.0733,-0.0867 1.5,-0.26c0.44,-0.1733 0.84,-0.4333 1.2,-0.78l1.66,1.8c-0.4933,0.56 -1.1133,0.9933 -1.86,1.3c-0.7467,0.2933 -1.6067,0.44 -2.58,0.44zm10.7666,0.08c-0.9734,0 -1.94,-0.1267 -2.9,-0.38c-0.96,-0.2667 -1.7734,-0.64 -2.44,-1.12l1.26,-2.48c0.5333,0.3867 1.1533,0.6933 1.86,0.92c0.7066,0.2267 1.42,0.34 2.14,0.34c0.8133,0 1.4533,-0.16 1.92,-0.48c0.4666,-0.32 0.7,-0.76 0.7,-1.32c0,-0.5333 -0.2067,-0.9533 -0.62,-1.26c-0.4134,-0.3067 -1.08,-0.46 -2,-0.46l-1.48,0l0,-2.14l3.9,-4.42l0.36,1.16l-7.34,0l0,-2.6l9.8,0l0,2.1l-3.88,4.42l-1.64,-0.94l0.94,0c1.72,0 3.02,0.3867 3.9,1.16c0.88,0.7733 1.32,1.7667 1.32,2.98c0,0.7867 -0.2067,1.5267 -0.62,2.22c-0.4134,0.68 -1.0467,1.2333 -1.9,1.66c-0.8534,0.4267 -1.9467,0.64 -3.28,0.64z"/>
 </g>
</svg>