<svg width="16" height="16" viewBox="0 0 16 16" fill="none" xmlns="http://www.w3.org/2000/svg">
<path fill-rule="evenodd" clip-rule="evenodd" d="M8 16C12.4183 16 16 12.4183 16 8C16 3.58172 12.4183 0 8 0C3.58172 0 0 3.58172 0 8C0 12.4183 3.58172 16 8 16ZM9.52899 3.45501C9.52899 4.23501 8.94399 4.80501 8.07399 4.80501C7.20399 4.80501 6.61899 4.23501 6.61899 3.50001C6.61899 2.76501 7.20399 2.19501 8.07399 2.19501C8.94399 2.19501 9.52899 2.73501 9.52899 3.45501ZM9.24399 5.93001V14H6.90399V5.93001H9.24399Z" fill="#6286E3"/>
</svg>
