<svg width="24" height="24" viewBox="0 0 24 24" fill="none" xmlns="http://www.w3.org/2000/svg">
<path d="M19.0807 5.50645C17.7602 4.8961 16.3482 4.45253 14.8721 4.19995C14.6908 4.52374 14.479 4.95925 14.3329 5.3057C12.7637 5.07257 11.2089 5.07257 9.66859 5.3057C9.52259 4.95925 9.30597 4.52374 9.12306 4.19995C7.64529 4.45253 6.2317 4.89773 4.91117 5.50968C2.24765 9.48577 1.52561 13.3631 1.88663 17.1854C3.65322 18.4886 5.36525 19.2803 7.04839 19.7983C7.46397 19.2333 7.83461 18.6327 8.1539 17.9997C7.54579 17.7714 6.96335 17.4898 6.41302 17.1627C6.55902 17.0559 6.70183 16.9442 6.83981 16.8292C10.1965 18.3802 13.8436 18.3802 17.1601 16.8292C17.2997 16.9442 17.4425 17.0559 17.5869 17.1627C17.035 17.4914 16.4509 17.7731 15.8428 18.0013C16.1621 18.6327 16.5312 19.235 16.9483 19.8C18.6331 19.2819 20.3467 18.4903 22.1133 17.1854C22.5369 12.7544 21.3897 8.91266 19.0807 5.50645ZM8.6112 14.8347C7.60357 14.8347 6.77722 13.9054 6.77722 12.7738C6.77722 11.6422 7.58592 10.7113 8.6112 10.7113C9.63651 10.7113 10.4628 11.6406 10.4452 12.7738C10.4468 13.9054 9.63651 14.8347 8.6112 14.8347ZM15.3887 14.8347C14.3811 14.8347 13.5548 13.9054 13.5548 12.7738C13.5548 11.6422 14.3634 10.7113 15.3887 10.7113C16.414 10.7113 17.2404 11.6406 17.2227 12.7738C17.2227 13.9054 16.414 14.8347 15.3887 14.8347Z" fill="white" fillOpacity="0.87" />
</svg>