<svg width="24" height="24" viewBox="0 0 24 24" fill="none" xmlns="http://www.w3.org/2000/svg">
<path d="M2.65546 10.1379C9.30211 7.21072 17.9034 3.64188 19.0907 3.14793C22.2051 1.85508 23.1607 2.10285 22.6842 4.96597C22.3421 7.02384 21.3547 13.837 20.5678 18.0777C20.1008 20.5924 19.0531 20.8905 17.4057 19.8025C16.6135 19.2789 12.6149 16.6318 11.747 16.0103C10.9548 15.4438 9.86216 14.7624 11.2324 13.4203C11.72 12.9423 14.9164 9.88696 17.4068 7.50879C17.7331 7.19643 17.3232 6.68342 16.9467 6.93384C13.5901 9.16218 8.93614 12.2551 8.34382 12.658C7.449 13.2663 6.58961 13.5453 5.04694 13.1016C3.88135 12.7665 2.74272 12.3668 2.29954 12.2143C0.592929 11.6277 0.998031 10.868 2.65546 10.1379Z" fill="white" fillOpacity="0.87" />
</svg>