<svg width="24" height="24" viewBox="0 0 24 24" fill="none" xmlns="http://www.w3.org/2000/svg">
<path d="M22 5.79997C21.2484 6.12606 20.4534 6.34163 19.64 6.43997C20.4982 5.92729 21.1413 5.12075 21.45 4.16997C20.6436 4.65003 19.7608 4.98826 18.84 5.16997C18.2246 4.50254 17.405 4.05826 16.5098 3.90682C15.6147 3.75537 14.6946 3.90532 13.8938 4.33315C13.0931 4.76099 12.457 5.4425 12.0853 6.2708C11.7136 7.09911 11.6273 8.02735 11.84 8.90996C10.2094 8.82749 8.61446 8.40292 7.15868 7.66383C5.70289 6.92474 4.41887 5.88766 3.39002 4.61997C3.02916 5.25013 2.83954 5.96379 2.84002 6.68997C2.83874 7.36435 3.00424 8.02858 3.32178 8.62353C3.63932 9.21848 4.09904 9.72568 4.66002 10.1C4.008 10.0822 3.36991 9.90726 2.80002 9.58996V9.63997C2.80491 10.5849 3.13602 11.4991 3.73734 12.2279C4.33866 12.9568 5.17328 13.4556 6.10002 13.64C5.74328 13.7485 5.3729 13.8058 5.00002 13.81C4.74191 13.8069 4.48445 13.7835 4.23002 13.74C4.49393 14.5528 5.00465 15.2631 5.6911 15.7721C6.37755 16.2811 7.2056 16.5635 8.06002 16.58C6.61723 17.7152 4.83591 18.3348 3.00002 18.34C2.66576 18.3411 2.33176 18.321 2.00002 18.28C3.87445 19.4902 6.05884 20.1327 8.29002 20.13C9.82971 20.146 11.3572 19.855 12.7831 19.274C14.2091 18.6931 15.505 17.8338 16.5952 16.7465C17.6854 15.6591 18.548 14.3654 19.1326 12.9409C19.7172 11.5164 20.0121 9.98969 20 8.44996C20 8.27996 20 8.09996 20 7.91996C20.7847 7.33478 21.4615 6.61739 22 5.79997Z" fill="white" fillOpacity="0.87" />
</svg>