<svg width="16" height="16" viewBox="0 0 16 16" fill="none" xmlns="http://www.w3.org/2000/svg">
<path d="M15.4142 0.58586C15.2284 0.400127 15.0079 0.252813 14.7653 0.152294C14.5226 0.0517761 14.2625 0 13.9998 0C13.7372 0 13.4771 0.0517761 13.2344 0.152294C12.9917 0.252813 12.7712 0.400127 12.5855 0.58586L8 5.17135L3.4145 0.58586C3.22877 0.400127 3.00827 0.252813 2.7656 0.152294C2.52293 0.0517761 2.26284 0 2.00017 0C1.7375 0 1.47741 0.0517761 1.23474 0.152294C0.992067 0.252813 0.77157 0.400127 0.585838 0.58586C0.400105 0.771592 0.252773 0.992104 0.152255 1.23477C0.0517362 1.47745 0 1.73755 0 2.00021C0 2.26288 0.0517362 2.52298 0.152255 2.76565C0.252773 3.00832 0.400105 3.22877 0.585838 3.41451L5.17136 8L0.585838 12.5855C0.400105 12.7712 0.252773 12.9917 0.152255 13.2344C0.0517362 13.4771 0 13.7372 0 13.9998C0 14.2625 0.0517362 14.5226 0.152255 14.7653C0.252773 15.008 0.400105 15.2284 0.585838 15.4141C0.77157 15.5999 0.992067 15.7472 1.23474 15.8478C1.47741 15.9483 1.7375 16 2.00017 16C2.26284 16 2.52293 15.9483 2.7656 15.8478C3.00827 15.7472 3.22877 15.5999 3.4145 15.4141L8 10.8286L12.5855 15.4141C12.9606 15.7892 13.4694 16 13.9998 16C14.5303 16 15.0391 15.7892 15.4142 15.4141C15.5999 15.2284 15.7472 15.008 15.8477 14.7653C15.9483 14.5226 16 14.2625 16 13.9998C16 13.7372 15.9483 13.4771 15.8477 13.2344C15.7472 12.9917 15.5999 12.7712 15.4142 12.5855L10.8286 8L15.4142 3.41451C15.5999 3.22877 15.7472 3.00832 15.8477 2.76565C15.9483 2.52298 16 2.26288 16 2.00021C16 1.73755 15.9483 1.47745 15.8477 1.23477C15.7472 0.992104 15.5999 0.771592 15.4142 0.58586Z" fill="#384F8A"/>
</svg>
