<svg width="170" height="165" viewBox="0 0 170 165" fill="none" xmlns="http://www.w3.org/2000/svg">
<path opacity="0.2" d="M110.656 8.71783L117.25 1.86465C117.83 1.2593 118.527 0.781432 119.297 0.460851C120.067 0.140269 120.895 -0.0161588 121.727 0.00131859L159.744 0.756331C161.275 0.788557 162.743 1.38217 163.874 2.42705C165.006 3.47193 165.725 4.89714 165.899 6.43828L169.975 44.8229C170.047 45.5061 169.965 46.1971 169.735 46.8435C169.504 47.49 169.132 48.075 168.646 48.5544L135.016 83.4011C134.66 83.771 134.233 84.0631 133.761 84.2596C133.29 84.456 132.783 84.5525 132.273 84.5433L88.5798 84.0593C87.9475 84.0516 87.32 84.1711 86.7336 84.4109C86.1472 84.6507 85.6137 85.0059 85.1639 85.4561C84.7141 85.9063 84.3569 86.4425 84.1132 87.0335C83.8695 87.6245 83.744 88.2586 83.7441 88.8991C83.7441 91.803 86.6971 94.0583 89.5737 94.1697L108.773 94.552C112.782 94.552 115.238 96.0766 116.012 99.0095C116.729 101.725 115.272 103.506 113.724 105.301C113.566 105.49 80.5951 140.254 71.7313 149.6C71.0462 150.322 70.2217 150.893 69.3091 151.277C68.3966 151.662 67.4156 151.852 66.4273 151.836L33.963 151.033L13.7983 172.144C12.7564 173.235 11.3501 173.892 9.85474 173.988C8.35939 174.084 6.88258 173.611 5.7133 172.662C4.58083 171.742 3.32412 170.726 2.12952 169.787C1.51853 169.304 1.01449 168.697 0.650048 168.004C0.285604 167.311 0.0688906 166.549 0.0139329 165.766C-0.0410247 164.983 0.0669939 164.197 0.331013 163.459C0.595033 162.721 1.00915 162.047 1.54655 161.482L21.3194 140.671L18.0797 108.452C17.9712 107.363 18.104 106.264 18.4686 105.234C18.8332 104.204 19.4203 103.27 20.187 102.499L38.2205 84.369C39.0991 83.5648 40.2029 83.0573 41.379 82.9171C42.5906 82.7577 43.8216 82.9667 44.9157 83.5173C46.0098 84.0679 46.9177 84.9355 47.524 86.0097L47.5527 86.0533C48.1274 87.0504 48.4827 88.1615 48.5944 89.3105C48.9289 92.771 49.2442 96.9671 49.3016 97.5382L50.3863 108.534C50.4525 109.25 50.6612 109.946 51 110.578C51.3388 111.21 51.8006 111.766 52.3575 112.213C52.9144 112.659 53.5548 112.987 54.2402 113.175C54.9255 113.364 55.6415 113.41 56.3449 113.311C59.5464 112.876 61.4912 109.463 61.1233 106.216L57.1286 67.9233C57.0011 66.9815 57.0844 66.0228 57.3723 65.118C57.6601 64.2132 58.1451 63.3856 58.7914 62.6963L88.4699 31.9393C89.3778 30.9713 91.6523 29.8678 93.2913 30.0614C94.4482 30.1985 95.5516 30.6315 96.4976 31.3198C97.1918 31.7864 97.7788 32.3987 98.2191 33.1151C98.6593 33.8316 98.9424 34.6354 99.0492 35.4723V35.5062L101.171 56.3174C101.289 57.477 101.845 58.5456 102.721 59.301C103.598 60.0564 104.728 60.4404 105.878 60.3732L107.048 60.3006C107.735 60.26 108.407 60.0786 109.022 59.7672C109.638 59.4558 110.184 59.0211 110.629 58.4893C111.073 57.9575 111.407 57.3398 111.608 56.6736C111.81 56.0074 111.876 55.3067 111.803 54.6138L107.445 13.6544L108.276 12.0476C108.907 10.8276 109.709 9.70613 110.656 8.71783Z" fill="url(#paint0_linear_935_12463)" fill-opacity="0.3"/>
<defs>
<linearGradient id="paint0_linear_935_12463" x1="164.009" y1="5.93183" x2="15.3831" y2="12.17" gradientUnits="userSpaceOnUse">
<stop stop-color="#F703D9"/>
<stop offset="0.427083" stop-color="#795AF4"/>
<stop offset="0.921875" stop-color="#04AEFC"/>
</linearGradient>
</defs>
</svg>
