<svg width="16" height="17" viewBox="0 0 16 17" fill="none" xmlns="http://www.w3.org/2000/svg">
<path d="M7.99984 1.16667C5.41108 1.16667 3.14158 2.5115 1.83669 4.53685L0.666504 3.36667V7.03334H4.33317L2.90661 5.60678C3.91516 3.83319 5.81402 2.63334 7.99984 2.63334C11.2397 2.63334 13.8665 5.26014 13.8665 8.5C13.8665 11.7399 11.2397 14.3667 7.99984 14.3667C7.56277 14.3667 7.12814 14.3188 6.70648 14.2234L6.38421 15.6543C6.91148 15.7731 7.45497 15.8333 7.99984 15.8333C12.05 15.8333 15.3332 12.5502 15.3332 8.5C15.3332 4.44981 12.05 1.16667 7.99984 1.16667ZM7.78929 4.1V4.89063C7.54069 4.92216 6.14932 5.18356 6.14932 6.8629C6.14932 9.31296 8.6859 8.58845 8.6859 10.2231C8.6859 11.0415 8.15633 11.0609 8.04853 11.0609C7.95027 11.0609 7.30518 11.1132 7.30518 9.86068H5.91872C5.91872 11.9815 7.45737 12.1495 7.68616 12.181V12.9H8.42093V12.181C8.6688 12.1502 10.0709 11.9202 10.0709 10.213C10.0709 7.86196 7.53508 8.31179 7.53434 6.87006C7.53434 6.04359 7.98894 6.01784 8.08721 6.01784C8.26687 6.01784 8.6945 6.17543 8.6945 7.1823H10.081C10.081 5.25583 8.76375 4.95542 8.52835 4.91068V4.1H7.78929ZM0.666504 8.5L0.667936 8.61602C0.676003 9.16015 0.744455 9.70228 0.871322 10.2273L2.29788 9.88503C2.19595 9.46483 2.1412 9.02944 2.1346 8.5931L2.13317 8.5H0.666504ZM2.74046 11.1053L1.42705 11.7585C1.66905 12.2432 1.96471 12.7039 2.30791 13.1249L3.44515 12.1996C3.17088 11.8623 2.93406 11.494 2.74046 11.1053ZM4.37327 13.112L3.4652 14.2635C3.89274 14.6001 4.3568 14.8897 4.84593 15.1229L5.47757 13.7995C5.08597 13.6125 4.71501 13.3811 4.37327 13.112Z" fill="url(#paint0_linear_9235_4325)"/>
<defs>
<linearGradient id="paint0_linear_9235_4325" x1="17.6651" y1="8.5" x2="-1.84158" y2="10.1942" gradientUnits="userSpaceOnUse">
<stop stop-color="#F703D9"/>
<stop offset="0.427083" stop-color="#795AF4"/>
<stop offset="0.921875" stop-color="#04AEFC"/>
</linearGradient>
</defs>
</svg>
