<svg width="20" height="20" viewBox="0 0 20 20" fill="none" xmlns="http://www.w3.org/2000/svg">
<g clip-path="url(#clip0_7797_134026)">
<path d="M3.33332 2.5V12.5H1.66666V15C1.66666 16.3783 2.78832 17.5 4.16666 17.5H10.8333V16.6667V15.8333L12.5 14.1667L10.8333 12.5H4.99999V4.16667H15.8333V7.5H17.5V2.5H3.33332ZM6.66666 5.83333V7.5H8.33332V5.83333H6.66666ZM9.99999 5.83333V7.5H14.1667V5.83333H9.99999ZM6.66666 9.16667V10.8333H8.33332V9.16667H6.66666ZM12.5 9.16667V10.8333H13.3333V12.4284L15.0716 14.1667L13.3333 15.9049V17.5H12.5V19.1667H20V17.5H19.1667V15.9049L17.4284 14.1667L19.1667 12.4284V10.8333H20V9.16667H12.5ZM15 10.8333H17.5V11.7383L16.25 12.9883L15 11.7383V10.8333ZM16.25 15.3451L17.5 16.5951V17.5H15V16.5951L16.25 15.3451Z" fill="url(#paint0_linear_7797_134026)"/>
</g>
<defs>
<linearGradient id="paint0_linear_7797_134026" x1="22.9149" y1="10.8333" x2="-1.43017" y2="13.1592" gradientUnits="userSpaceOnUse">
<stop stop-color="#F703D9"/>
<stop offset="0.427083" stop-color="#795AF4"/>
<stop offset="0.921875" stop-color="#04AEFC"/>
</linearGradient>
<clipPath id="clip0_7797_134026">
<rect width="20" height="20" fill="white"/>
</clipPath>
</defs>
</svg>
