<svg width="20" height="20" viewBox="0 0 20 20" fill="none" xmlns="http://www.w3.org/2000/svg">
<path d="M8.75 15.25C8.75 15.9409 9.30908 16.5 10 16.5C10.6909 16.5 11.25 15.9409 11.25 15.25C11.25 14.5591 10.6909 14 10 14C9.30908 14 8.75 14.5591 8.75 15.25ZM8.75 10C8.75 10.6909 9.30908 11.25 10 11.25C10.6909 11.25 11.25 10.6909 11.25 10C11.25 9.30908 10.6909 8.75 10 8.75C9.30908 8.75 8.75 9.30908 8.75 10ZM8.75 4.75C8.75 5.44092 9.30908 6 10 6C10.6909 6 11.25 5.44092 11.25 4.75C11.25 4.05908 10.6909 3.5 10 3.5C9.30908 3.5 8.75 4.05908 8.75 4.75Z" fill="white" fill-opacity="0.87"/>
</svg>
