<svg width="16" height="17" viewBox="0 0 16 17" fill="none" xmlns="http://www.w3.org/2000/svg">
<g clip-path="url(#clip0_9235_4316)">
<path d="M2.66683 2.5V10.5H1.3335V12.5C1.3335 13.6027 2.23083 14.5 3.3335 14.5H8.66683V13.8333V13.1667L10.0002 11.8333L8.66683 10.5H4.00016V3.83333H12.6668V6.5H14.0002V2.5H2.66683ZM5.3335 5.16667V6.5H6.66683V5.16667H5.3335ZM8.00016 5.16667V6.5H11.3335V5.16667H8.00016ZM5.3335 7.83333V9.16667H6.66683V7.83333H5.3335ZM10.0002 7.83333V9.16667H10.6668V10.4427L12.0575 11.8333L10.6668 13.224V14.5H10.0002V15.8333H16.0002V14.5H15.3335V13.224L13.9429 11.8333L15.3335 10.4427V9.16667H16.0002V7.83333H10.0002ZM12.0002 9.16667H14.0002V9.89062L13.0002 10.8906L12.0002 9.89062V9.16667ZM13.0002 12.776L14.0002 13.776V14.5H12.0002V13.776L13.0002 12.776Z" fill="url(#paint0_linear_9235_4316)"/>
</g>
<defs>
<linearGradient id="paint0_linear_9235_4316" x1="18.3321" y1="9.16666" x2="-1.14397" y2="11.0273" gradientUnits="userSpaceOnUse">
<stop stop-color="#F703D9"/>
<stop offset="0.427083" stop-color="#795AF4"/>
<stop offset="0.921875" stop-color="#04AEFC"/>
</linearGradient>
<clipPath id="clip0_9235_4316">
<rect width="16" height="16" fill="white" transform="translate(0 0.5)"/>
</clipPath>
</defs>
</svg>
