<svg width="24" height="24" viewBox="0 0 24 24" fill="none" xmlns="http://www.w3.org/2000/svg">
<circle cx="12" cy="12" r="12" fill="url(#paint0_linear_14638_18566)"/>
<path d="M14.2638 5.27659L14.8456 4.6661C14.8968 4.61218 14.9583 4.56961 15.0262 4.54105C15.0942 4.5125 15.1672 4.49856 15.2407 4.50012L18.5951 4.56737C18.7302 4.57025 18.8597 4.62312 18.9595 4.7162C19.0594 4.80928 19.1228 4.93624 19.1381 5.07352L19.4978 8.49284C19.5041 8.55371 19.4969 8.61526 19.4766 8.67284C19.4563 8.73043 19.4234 8.78254 19.3805 8.82525L16.4132 11.9294C16.3818 11.9624 16.3441 11.9884 16.3025 12.0059C16.2608 12.0234 16.2162 12.032 16.1712 12.0312L12.3159 11.988C12.2601 11.9874 12.2047 11.998 12.153 12.0194C12.1012 12.0407 12.0541 12.0724 12.0145 12.1125C11.9748 12.1526 11.9433 12.2003 11.9218 12.253C11.9003 12.3056 11.8892 12.3621 11.8892 12.4192C11.8892 12.6779 12.1497 12.8788 12.4036 12.8887L14.0976 12.9227C14.4514 12.9227 14.6681 13.0585 14.7364 13.3198C14.7996 13.5617 14.671 13.7203 14.5344 13.8803C14.5205 13.8971 11.6113 16.9939 10.8292 17.8264C10.7688 17.8907 10.696 17.9416 10.6155 17.9759C10.535 18.0101 10.4484 18.0271 10.3612 18.0256L7.49674 17.9541L5.7175 19.8347C5.62556 19.9318 5.50148 19.9904 5.36954 19.9989C5.23759 20.0074 5.10729 19.9653 5.00411 19.8808C4.90419 19.7989 4.7933 19.7083 4.6879 19.6247C4.63399 19.5817 4.58951 19.5276 4.55736 19.4659C4.5252 19.4042 4.50608 19.3362 4.50123 19.2665C4.49638 19.1967 4.50591 19.1267 4.52921 19.061C4.5525 18.9953 4.58904 18.9353 4.63646 18.8849L6.38113 17.031L6.09527 14.1609C6.08569 14.064 6.09741 13.966 6.12958 13.8743C6.16175 13.7826 6.21355 13.6993 6.2812 13.6307L7.8724 12.0156C7.94992 11.944 8.04732 11.8988 8.15109 11.8863C8.25799 11.8721 8.36661 11.8907 8.46315 11.9398C8.55969 11.9888 8.63979 12.0661 8.6933 12.1618L8.69583 12.1657C8.74653 12.2545 8.77789 12.3535 8.78774 12.4558C8.81725 12.7641 8.84508 13.1379 8.85014 13.1887L8.94585 14.1683C8.95169 14.2321 8.97011 14.294 9 14.3503C9.0299 14.4066 9.07064 14.4562 9.11978 14.496C9.16892 14.5357 9.22543 14.5649 9.2859 14.5817C9.34637 14.5985 9.40954 14.6026 9.47161 14.5938C9.7541 14.555 9.92569 14.2511 9.89323 13.9618L9.54076 10.5506C9.52951 10.4667 9.53686 10.3813 9.56226 10.3007C9.58766 10.2201 9.63045 10.1464 9.68748 10.085L12.3062 7.34517C12.3863 7.25894 12.587 7.16064 12.7316 7.17789C12.8337 7.19009 12.931 7.22867 13.0145 7.28998C13.0757 7.33155 13.1275 7.38609 13.1664 7.44991C13.2052 7.51373 13.2302 7.58534 13.2396 7.65989V7.66291L13.4268 9.51678C13.4373 9.62008 13.4863 9.71527 13.5637 9.78256C13.641 9.84985 13.7407 9.88406 13.8421 9.87807L13.9454 9.87161C14.006 9.86799 14.0653 9.85183 14.1196 9.82409C14.1739 9.79635 14.2221 9.75763 14.2614 9.71025C14.3006 9.66288 14.33 9.60786 14.3478 9.54851C14.3656 9.48917 14.3714 9.42674 14.3649 9.36502L13.9804 5.71634L14.0538 5.57321C14.1095 5.46453 14.1802 5.36463 14.2638 5.27659Z" fill="white" fill-opacity="0.87"/>
<defs>
<linearGradient id="paint0_linear_14638_18566" x1="20.625" y1="6.75" x2="-4.125" y2="34.125" gradientUnits="userSpaceOnUse">
<stop stop-color="#C187D0"/>
<stop offset="0.248815" stop-color="#2574FB"/>
<stop offset="0.526241" stop-color="#8C04F7"/>
</linearGradient>
</defs>
</svg>
