<svg width="16" height="13" viewBox="0 0 16 13" fill="none" xmlns="http://www.w3.org/2000/svg">
<path fill-rule="evenodd" clip-rule="evenodd" d="M2.66665 0C2.52523 0 2.3896 0.0574434 2.28958 0.159698C2.1896 0.261983 2.13343 0.400693 2.13343 0.545324C2.13343 0.689955 2.1896 0.828665 2.28958 0.930951L12.9562 11.8398C13.0054 11.8919 13.0643 11.9334 13.1294 11.962C13.1944 11.9906 13.2644 12.0056 13.3352 12.0063C13.406 12.0069 13.4763 11.9931 13.5418 11.9657C13.6074 11.9382 13.6669 11.8977 13.717 11.8465C13.7671 11.7953 13.8067 11.7344 13.8335 11.6674C13.8603 11.6003 13.8738 11.5285 13.8732 11.4561C13.8726 11.3837 13.8579 11.3121 13.8299 11.2456C13.802 11.179 13.7613 11.1188 13.7104 11.0685L12.2474 9.57237C13.6254 8.70459 14.8547 7.61135 15.8864 6.33627C15.96 6.24024 16 6.12175 16 5.99973C16 5.87771 15.96 5.75922 15.8864 5.66319C15.7434 5.47665 12.3338 1.09076 7.99998 1.09076C6.86794 1.10945 5.75378 1.38263 4.73652 1.89093L3.04372 0.159698C2.9437 0.0574434 2.80807 0 2.66665 0ZM9.88466 4.07226C10.3846 4.58353 10.6658 5.2767 10.6666 5.99973C10.663 6.53152 10.504 7.05005 10.2101 7.48878L6.54398 3.73942C6.97298 3.43888 7.48 3.2763 7.99998 3.27253C8.70697 3.27339 9.38475 3.561 9.88466 4.07226ZM2.84208 3.03854C1.82823 3.79256 0.911474 4.67441 0.113546 5.6632C0.0399323 5.75923 -7.24792e-05 5.87772 -7.24792e-05 5.99974C-7.24792e-05 6.12176 0.0399323 6.24025 0.113546 6.33628C0.256479 6.52282 3.66608 10.9087 7.99994 10.9087C8.74073 10.9021 9.47611 10.7788 10.1802 10.5433L8.36688 8.68876C8.2456 8.71036 8.12298 8.72312 7.99994 8.72694C7.29296 8.72608 6.61517 8.43847 6.11526 7.92721C5.61535 7.41595 5.33412 6.72277 5.33328 5.99974C5.33702 5.87391 5.34949 5.7485 5.37061 5.62448L2.84208 3.03854Z" fill="white"/>
</svg>
