<svg width="76" height="76" viewBox="0 0 76 76" fill="none" xmlns="http://www.w3.org/2000/svg">
<g id="logo">
<circle id="Ellipse 40" cx="38" cy="38" r="37" stroke="url(#paint0_linear_13840_208028)" stroke-width="2"/>
<path id="Vector" d="M44.8422 17.6043L46.6007 15.8188C46.7553 15.6611 46.9411 15.5366 47.1466 15.4531C47.352 15.3696 47.5726 15.3288 47.7946 15.3334L57.9324 15.5301C58.3407 15.5385 58.732 15.6931 59.0338 15.9653C59.3357 16.2376 59.5274 16.6089 59.5736 17.0104L60.6605 27.011C60.6798 27.189 60.6579 27.369 60.5965 27.5375C60.5352 27.7059 60.4359 27.8583 60.3063 27.9832L51.3383 37.062C51.2433 37.1584 51.1294 37.2345 51.0037 37.2857C50.8779 37.3369 50.7428 37.362 50.6068 37.3596L38.9553 37.2335C38.7866 37.2315 38.6193 37.2626 38.4629 37.3251C38.3066 37.3876 38.1643 37.4801 38.0443 37.5974C37.9244 37.7147 37.8292 37.8544 37.7642 38.0084C37.6992 38.1624 37.6657 38.3276 37.6657 38.4945C37.6657 39.251 38.4532 39.8386 39.2203 39.8676L44.3402 39.9672C45.4093 39.9672 46.0642 40.3644 46.2706 41.1286C46.4618 41.836 46.0731 42.3 45.6603 42.7678C45.6182 42.817 36.826 51.8744 34.4623 54.3093C34.2796 54.4973 34.0598 54.6461 33.8164 54.7463C33.5731 54.8465 33.3115 54.8961 33.0479 54.8918L24.3908 54.6825L19.0135 60.1828C18.7357 60.4669 18.3607 60.6382 17.9619 60.6632C17.5632 60.6881 17.1693 60.5649 16.8575 60.3177C16.5555 60.0781 16.2204 59.8133 15.9019 59.5687C15.7389 59.4429 15.6045 59.2846 15.5073 59.1041C15.4101 58.9237 15.3524 58.725 15.3377 58.521C15.323 58.317 15.3518 58.1123 15.4223 57.92C15.4927 57.7277 15.6031 57.5522 15.7464 57.4049L21.0192 51.9828L20.1552 43.5887C20.1263 43.3051 20.1617 43.0186 20.2589 42.7503C20.3562 42.482 20.5127 42.2385 20.7172 42.0377L25.5261 37.3142C25.7604 37.1047 26.0548 36.9725 26.3684 36.9359C26.6915 36.8944 27.0197 36.9488 27.3115 37.0923C27.6033 37.2358 27.8454 37.4618 28.0071 37.7417L28.0147 37.753C28.168 38.0128 28.2627 38.3023 28.2925 38.6016C28.3817 39.5032 28.4658 40.5965 28.4811 40.7453L28.7703 43.6101C28.788 43.7967 28.8436 43.9779 28.934 44.1426C29.0243 44.3073 29.1475 44.4522 29.296 44.5685C29.4445 44.6848 29.6153 44.7701 29.798 44.8193C29.9808 44.8685 30.1717 44.8805 30.3593 44.8547C31.213 44.7412 31.7316 43.8522 31.6335 43.0061L30.5683 33.0295C30.5343 32.7841 30.5565 32.5343 30.6333 32.2986C30.71 32.0629 30.8393 31.8473 31.0117 31.6677L38.926 23.6544C39.1681 23.4022 39.7746 23.1147 40.2117 23.1651C40.5202 23.2008 40.8144 23.3136 41.0667 23.493C41.2518 23.6145 41.4083 23.774 41.5257 23.9607C41.6431 24.1474 41.7186 24.3568 41.7471 24.5748V24.5837L42.3129 30.0058C42.3445 30.3079 42.4926 30.5863 42.7264 30.7831C42.9601 30.9799 43.2616 31.0799 43.568 31.0624L43.8802 31.0435C44.0633 31.0329 44.2424 30.9857 44.4065 30.9045C44.5707 30.8234 44.7164 30.7101 44.835 30.5716C44.9535 30.4331 45.0424 30.2721 45.0962 30.0985C45.1501 29.925 45.1677 29.7424 45.148 29.5619L43.9859 18.8905L44.2076 18.4719C44.3759 18.154 44.5897 17.8618 44.8422 17.6043Z" fill="url(#paint1_linear_13840_208028)"/>
</g>
<defs>
<linearGradient id="paint0_linear_13840_208028" x1="85.4478" y1="38" x2="-10.3124" y2="46.3168" gradientUnits="userSpaceOnUse">
<stop stop-color="#F703D9"/>
<stop offset="0.427083" stop-color="#795AF4"/>
<stop offset="0.921875" stop-color="#04AEFC"/>
</linearGradient>
<linearGradient id="paint1_linear_13840_208028" x1="67.8752" y1="37.9997" x2="7.58173" y2="43.2362" gradientUnits="userSpaceOnUse">
<stop stop-color="#F703D9"/>
<stop offset="0.427083" stop-color="#795AF4"/>
<stop offset="0.921875" stop-color="#04AEFC"/>
</linearGradient>
</defs>
</svg>
