<svg width="16" height="10" viewBox="0 0 16 10" fill="none" xmlns="http://www.w3.org/2000/svg">
<path d="M8 0.231201C4.94303 0.231201 2.17081 1.9037 0.125192 4.62028C-0.0417306 4.84284 -0.0417306 5.15378 0.125192 5.37634C2.17081 8.09619 4.94303 9.76869 8 9.76869C11.057 9.76869 13.8292 8.09619 15.8748 5.37961C16.0417 5.15705 16.0417 4.84611 15.8748 4.62355C13.8292 1.9037 11.057 0.231201 8 0.231201ZM8.21929 8.35803C6.19004 8.48568 4.51427 6.81318 4.64191 4.78065C4.74665 3.10488 6.10494 1.74659 7.78071 1.64186C9.80996 1.51421 11.4857 3.18671 11.3581 5.21923C11.2501 6.89173 9.89179 8.25002 8.21929 8.35803ZM8.11783 6.80663C7.02465 6.87537 6.1213 5.9753 6.19331 4.88212C6.24895 3.97877 6.9821 3.2489 7.88545 3.18998C8.97862 3.12125 9.88197 4.02132 9.80996 5.1145C9.75105 6.02112 9.0179 6.75099 8.11783 6.80663Z" fill="white"/>
</svg>
