<svg width="16" height="17" viewBox="0 0 16 17" fill="none" xmlns="http://www.w3.org/2000/svg">
<circle cx="8" cy="8.5" r="7.36" stroke="#FFC24B" stroke-opacity="0.87" stroke-width="1.28"/>
<path d="M8.4991 12.4073C8.4991 12.595 8.43937 12.7529 8.3199 12.8809C8.20044 13.0003 8.04684 13.0601 7.8591 13.0601C7.6799 13.0601 7.5263 13.0003 7.3983 12.8809C7.27884 12.7529 7.2191 12.595 7.2191 12.4073V6.92886C7.2191 6.74113 7.27884 6.58753 7.3983 6.46806C7.5263 6.34006 7.6799 6.27606 7.8591 6.27606C8.04684 6.27606 8.20044 6.34006 8.3199 6.46806C8.43937 6.58753 8.4991 6.74113 8.4991 6.92886V12.4073ZM7.8463 5.43126C7.59884 5.43126 7.41964 5.38859 7.3087 5.30326C7.19777 5.20939 7.1423 5.05579 7.1423 4.84246V4.63766C7.1423 4.42433 7.20204 4.27499 7.3215 4.18966C7.44097 4.10433 7.62017 4.06166 7.8591 4.06166C8.1151 4.06166 8.29857 4.10859 8.4095 4.20246C8.52044 4.28779 8.5759 4.43286 8.5759 4.63766V4.84246C8.5759 5.06433 8.51617 5.21793 8.3967 5.30326C8.28577 5.38859 8.1023 5.43126 7.8463 5.43126Z" fill="#FFC24B" fill-opacity="0.87"/>
</svg>
