<svg width="100" height="100" viewBox="0 0 100 100" fill="none" xmlns="http://www.w3.org/2000/svg">
<path d="M49.992 5.13291e-07C28.9032 0.00293593 10.8648 13.062 3.5196 31.5344C3.4969 31.5916 3.4742 31.6487 3.4517 31.7061C-0.30075 41.2464 3.13995 52.1155 11.6433 57.8421L40.3016 80.418C52.6668 90.1589 69.6224 91.9475 83.5991 84.7065C86.5139 83.1963 88.9249 81.4808 90.384 79.4859C96.4603 71.1777 100.035 60.9243 99.9989 49.8344C99.9098 22.3755 77.4507 -0.00391338 49.992 5.13291e-07Z" fill="url(#paint0_linear_14058_223094)" fill-opacity="0.3"/>
<path d="M64.9913 81.2967C65.4073 80.293 64.9309 79.1422 63.9273 78.7262C62.9237 78.3101 61.7728 78.7865 61.3568 79.7902C60.9408 80.7938 61.4171 81.9447 62.4208 82.3607C63.4244 82.7767 64.5753 82.3003 64.9913 81.2967Z" fill="#526C93"/>
<path d="M63.6263 60.3702C63.9762 60.7211 71.8318 68.5988 72.1882 68.8704C75.2798 71.2996 79.9939 69.8363 81.0475 65.8939L85.9461 47.5641C90.0481 43.1403 93.8485 37.9524 96.9201 32.687C93.0248 22.1338 85.6704 13.2577 76.233 7.42969C72.2631 9.52695 68.2874 12.0722 64.6128 14.8559C61.1537 17.4759 59.0136 19.5033 58.7905 19.6956L39.8982 24.7448C35.7123 25.8633 34.3418 31.0853 37.3813 34.1252L41.5299 38.2737L45.6128 42.3567C45.6062 43.6401 45.742 44.8428 46.0185 46.0453L39.9694 52.0945C35.9806 51.859 31.913 53.2622 28.8653 56.3099C27.4404 57.7348 25.0522 57.2522 24.2424 55.4072C24.1905 55.2892 24.1369 55.1722 24.0811 55.0561C24.0639 55.0203 24.0453 54.987 24.0263 54.9545C23.2432 53.3614 22.1115 51.9708 20.7246 50.889C19.3663 49.8299 18.8093 48.0087 19.3948 46.389C19.8533 45.1207 20.0635 43.7336 19.9659 42.2859C19.3395 33.0023 7.02106 29.3179 1.60305 37.3978C-6.64293 70.7477 42.222 107.205 68.8205 96.3649C76.5172 93.2281 83.6373 88.0391 89.1674 81.0516C92.8784 76.3626 86.3817 70.4594 82.0649 74.5974C79.9191 76.6541 77.5886 78.5213 75.1009 80.1729C74.0898 80.8442 72.815 80.8469 71.7309 80.3013C70.8367 79.8514 69.7901 80.4635 69.696 81.4183C69.5768 82.6332 68.868 83.7142 67.7524 84.2097C65.7398 85.1037 63.6557 85.8669 61.5111 86.4915C60.3258 86.8369 59.0575 86.4379 58.2727 85.4849C58.2684 85.4796 58.2639 85.4741 58.2594 85.4688C56.3866 83.206 53.7038 81.598 50.7189 81.0553C48.7087 80.69 47.9115 78.2455 49.3561 76.8007C52.4038 73.753 53.807 69.6855 53.5716 65.6966L59.4293 59.8389C60.7671 60.1935 62.1667 60.3778 63.6263 60.3702Z" fill="#202249"/>
<path d="M27.7612 49.2214C29.1632 49.2214 30.2998 48.085 30.2998 46.6831C30.2998 45.2811 29.1632 44.1445 27.7612 44.1445C26.3592 44.1445 25.2227 45.2811 25.2227 46.6831C25.2227 48.085 26.3592 49.2214 27.7612 49.2214Z" fill="#526C93"/>
<path d="M26.4919 38.4897C27.1929 38.4897 27.7612 37.9214 27.7612 37.2204C27.7612 36.5195 27.1929 35.9512 26.4919 35.9512C25.791 35.9512 25.2227 36.5195 25.2227 37.2204C25.2227 37.9214 25.791 38.4897 26.4919 38.4897Z" fill="#526C93"/>
<path d="M57.6822 86.6737C55.8763 87.012 54.0491 86.2326 52.9495 84.7608C51.0135 82.1696 48.162 80.4252 45.0202 79.8539C43.01 79.4886 42.2127 77.0441 43.6573 75.5993C49.3157 69.941 49.3157 60.767 43.6573 55.1087C37.999 49.4504 28.8251 49.4504 23.1667 55.1087C21.7419 56.5336 19.3536 56.051 18.5438 54.206C17.7526 52.4032 16.5184 50.839 14.9787 49.6512C13.6164 48.6001 13.1143 46.8005 13.6982 45.1821C14.1554 43.9154 14.3648 42.5302 14.2671 41.0846C13.9335 36.1392 9.9546 32.131 5.01135 31.7661C4.47436 31.7263 3.94579 31.73 3.42798 31.7719C1.21566 37.4199 0 43.568 0 50.0001C0 77.6144 22.3857 100 50 100C56.6538 100 63.0025 98.6972 68.8092 96.3377C68.8313 95.8713 68.8209 95.3981 68.7714 94.9201C68.1918 89.3261 62.8648 85.7025 57.6822 86.6737Z" fill="#9CB5DA"/>
<path d="M18.3842 53.8552C17.7654 52.5653 15.7908 53.446 16.3364 54.7683C16.494 55.1503 16.7008 55.4706 16.9707 55.679C18.5104 56.8669 19.7447 58.4311 20.5358 60.2338C21.3456 62.079 23.7339 62.5614 25.1587 61.1366C30.8171 55.4782 39.991 55.4782 45.6494 61.1366C46.5079 61.9951 47.2341 62.9356 47.8321 63.9315C47.5163 60.7109 46.1257 57.5759 43.6587 55.109C38.0004 49.4507 28.8265 49.4507 23.1681 55.109C21.7433 56.5338 19.355 56.0512 18.5452 54.2062C18.4934 54.088 18.4398 53.971 18.3842 53.8552Z" fill="#526C93"/>
<path d="M45.6493 81.6264C44.2045 83.0712 45.0018 85.5155 47.0121 85.881C50.1787 86.4566 53.0503 88.2243 54.9871 90.8493C56.0638 92.3086 57.892 93.0348 59.6746 92.7008C61.9219 92.2796 64.1955 92.7235 66.0977 93.8172C67.2446 94.4767 68.5597 93.2998 68.0198 92.0922C66.293 88.2303 62.0245 85.8781 57.7211 86.6663C55.9198 86.9963 54.0836 86.2951 52.9963 84.8213C51.8491 83.2665 50.3738 82.0131 48.7033 81.1299C47.7006 80.5996 46.465 80.8098 45.6634 81.6125L45.6493 81.6264Z" fill="#526C93"/>
<path d="M4.36147 31.7408C4.25521 31.7396 4.14934 31.7404 4.04386 31.7425C3.98123 31.7439 3.91822 31.7445 3.85579 31.747C3.71255 31.7525 3.57008 31.7607 3.42859 31.7721C2.50061 34.1412 1.75051 36.5995 1.18945 39.1286C2.87595 38.1451 4.87438 37.6367 7.00256 37.7938C7.8693 37.8578 8.70628 38.0339 9.49904 38.3073C11.4671 38.9864 13.0472 36.5543 11.6599 35.0142C11.6 34.9486 11.5378 34.885 11.4761 34.821C11.435 34.7784 11.3949 34.7349 11.3532 34.693C11.293 34.6326 11.2307 34.5742 11.1691 34.5153C11.121 34.4693 11.0734 34.423 11.0243 34.378C10.9652 34.3238 10.9045 34.2715 10.8441 34.2187C10.7898 34.1713 10.7358 34.1234 10.6805 34.0772C10.6225 34.0286 10.5632 33.9817 10.5043 33.9345C10.4439 33.8862 10.3836 33.8378 10.3221 33.7911C10.2656 33.7478 10.2078 33.7059 10.1503 33.6639C10.084 33.6155 10.0176 33.5674 9.95012 33.5206C9.89474 33.4823 9.83857 33.4447 9.78221 33.4073C9.71039 33.3596 9.63818 33.3126 9.56519 33.2668C9.51098 33.2328 9.45618 33.1993 9.40119 33.1662C9.32389 33.1198 9.2462 33.0742 9.16773 33.0298C9.1147 32.9997 9.06127 32.9701 9.00765 32.9412C8.92546 32.8967 8.84268 32.8535 8.75932 32.8112C8.70707 32.7848 8.65442 32.7584 8.60159 32.7328C8.51509 32.6909 8.42781 32.6506 8.33994 32.6112C8.28828 32.5879 8.23661 32.5647 8.18436 32.5423C8.09376 32.5036 8.00237 32.4666 7.91059 32.4304C7.85931 32.4103 7.80824 32.3897 7.75658 32.3703C7.66264 32.3351 7.56773 32.3022 7.47262 32.2697C7.42135 32.2523 7.37027 32.2341 7.31842 32.2175C7.22194 32.1864 7.12429 32.1578 7.02663 32.1296C6.97478 32.1148 6.92331 32.0989 6.87125 32.0846C6.77223 32.0578 6.67243 32.0339 6.57223 32.0101C6.52018 31.9977 6.46851 31.984 6.41607 31.9725C6.31391 31.95 6.21059 31.9306 6.10746 31.9112C6.05618 31.9016 6.0053 31.8905 5.95364 31.8817C5.84386 31.8629 5.73309 31.8476 5.62213 31.8326C5.57634 31.8263 5.53114 31.8185 5.48515 31.8128C5.3282 31.7936 5.17047 31.7778 5.01176 31.7662C4.84934 31.7543 4.68789 31.7476 4.52683 31.7433C4.47184 31.7418 4.41665 31.7414 4.36147 31.7408Z" fill="#526C93"/>
<path d="M81.1353 43.0447L72.8405 34.75L61.1777 55.1404L65.9691 67.2101C69.022 70.2629 74.2349 68.8643 75.3497 64.6932L81.1353 43.0447Z" fill="#F75E54"/>
<path d="M66.4406 67.6326C68.3396 69.1576 70.6273 66.3723 68.828 64.7306C68.7619 64.6704 68.6967 64.6081 68.6325 64.5437C67.2781 63.1893 67.5989 60.9265 69.265 59.9813C69.3061 59.958 69.347 59.9347 69.3881 59.9111C74.8907 56.7625 78.8725 51.5056 80.5094 45.3807L81.1343 43.0428L72.8396 34.748L55.8384 51.7492L53.1738 54.4138L61.8194 63.0594L65.968 67.2079C66.1202 67.3608 66.2781 67.5021 66.4406 67.6326Z" fill="#E04339"/>
<path d="M55.848 17.7578L64.1427 26.0525L42.3288 34.7494L31.6826 32.924C28.6298 29.8711 30.0284 24.6582 34.1994 23.5433L55.848 17.7578Z" fill="#F75E54"/>
<path d="M31.258 32.4515C29.7327 30.5525 32.5183 28.2649 34.1599 30.0641C34.2202 30.1302 34.2824 30.1954 34.3468 30.2596C35.7012 31.614 37.964 31.2932 38.9093 29.6271C38.9325 29.586 38.9558 29.5451 38.9795 29.504C42.128 24.0015 47.385 20.0197 53.5098 18.3827L55.8478 17.7578L64.1425 26.0525L47.1413 43.0537L44.4768 45.7183L35.8312 37.0727L31.6826 32.9242C31.5296 32.7717 31.3883 32.614 31.258 32.4515Z" fill="#E04339"/>
<path d="M78.395 48.2882C64.3756 62.3075 53.0492 61.2766 45.4274 53.6549C37.8057 46.0332 39.1539 38.949 53.1734 24.9297C67.193 10.9103 88.5746 -4.73571 96.1963 2.88621C103.818 10.5081 92.4143 34.2686 78.395 48.2882Z" fill="#2F76E0"/>
<path d="M79.167 24.1901C78.5498 23.1682 77.8251 22.28 77.021 21.525C74.8907 19.5248 76.8868 15.9753 79.6729 16.8574C81.4022 17.405 83.0073 18.3639 84.3337 19.6903L84.55 19.9066C88.86 24.2166 96.2492 22.2226 97.7582 16.3171C98.914 11.7942 99.1588 7.28817 97.2067 4.16117C92.6044 -3.19559 78.9255 1.90128 71.2196 5.86919C71.0648 5.94903 70.9099 6.02927 70.7551 6.11048C70.7549 6.11068 70.7547 6.11068 70.7543 6.11087C63.648 9.83553 56.4339 15.0496 50.7954 20.6882C36.776 34.7075 37.8069 46.034 45.4286 53.6557C46.6838 54.9109 48.0402 55.986 49.492 56.8459C46.7652 52.2428 46.2159 46.6749 49.0486 40.2862C51.012 35.8582 56.9063 34.8066 60.2247 38.3349C60.3093 38.4248 60.3954 38.5136 60.483 38.6013C65.7298 43.8481 74.6607 43.1649 78.9482 36.5522C81.3664 32.8224 81.4654 27.995 79.167 24.1901Z" fill="#1849C6"/>
<path d="M94.6447 24.9291C98.9145 15.6079 100.263 6.95078 96.1975 2.88542C92.1322 -1.17994 86.1944 2.88757 76.873 7.15743L94.6447 24.9291Z" fill="#F75E54"/>
<path d="M91.5005 18.1245L88.8152 15.4392C86.4956 13.1196 87.469 9.16167 90.6015 8.18769C92.0754 7.72938 93.5042 7.37028 94.8692 7.12214C96.8345 6.7648 97.63 4.3374 96.2263 2.91627C96.2161 2.90609 96.2062 2.89591 96.196 2.88574C92.1306 -1.17963 83.4737 0.168711 74.1523 4.43857L91.5005 21.7867C92.5118 20.7754 92.5118 19.1358 91.5005 18.1245Z" fill="#E04339"/>
<path d="M70.5 43C78.5081 43 85 36.5081 85 28.5C85 20.4919 78.5081 14 70.5 14C62.4919 14 56 20.4919 56 28.5C56 36.5081 62.4919 43 70.5 43Z" fill="#FFE9F9" fill-opacity="0.87"/>
<path fill-rule="evenodd" clip-rule="evenodd" d="M84.0005 24.5006C84.0005 32.5087 77.5086 39.0006 69.5005 39.0006C63.4356 39.0006 58.2404 35.2771 56.0762 29.9914C56.8225 37.2991 62.9957 43.0006 70.5005 43.0006C78.5086 43.0006 85.0005 36.5087 85.0005 28.5006C85.0005 26.5573 84.6182 24.7034 83.9248 23.0098C83.9748 23.4999 84.0005 23.9972 84.0005 24.5006Z" fill="#B8A2E8" fill-opacity="0.87"/>
<path d="M65.807 26.9568C65.8331 27.2096 65.9578 27.442 66.154 27.6036C66.3502 27.7652 66.6022 27.8431 66.8553 27.8203C67.1085 27.7975 67.3425 27.6759 67.5067 27.4818C67.6709 27.2878 67.7521 27.0369 67.7326 26.7834L67.5441 24.6915L69.636 24.5031C69.8888 24.4769 70.1212 24.3522 70.2828 24.156C70.4444 23.9598 70.5222 23.7078 70.4993 23.4546C70.4765 23.2015 70.3549 22.9675 70.1608 22.8033C69.9667 22.6391 69.7158 22.558 69.4623 22.5775L67.3707 22.7659L67.1822 20.6743C67.1561 20.4214 67.0314 20.1891 66.8352 20.0274C66.639 19.8658 66.387 19.788 66.1338 19.8108C65.8806 19.8336 65.6466 19.9551 65.4824 20.1492C65.3182 20.3433 65.2371 20.5942 65.2566 20.8477L65.4451 22.9395L63.3532 23.128C63.2255 23.1378 63.1011 23.1729 62.9871 23.2312C62.8731 23.2894 62.7719 23.3698 62.6892 23.4676C62.6065 23.5653 62.5441 23.6785 62.5055 23.8006C62.4669 23.9227 62.453 24.0512 62.4645 24.1787C62.476 24.3062 62.5127 24.4302 62.5725 24.5434C62.6323 24.6566 62.714 24.7568 62.8128 24.8382C62.9116 24.9196 63.0256 24.9805 63.1482 25.0175C63.2708 25.0545 63.3995 25.0667 63.5269 25.0536L65.6185 24.8651L65.807 26.9568Z" fill="#202249"/>
<path d="M77.1348 32.7089L79.2188 32.5211C79.3463 32.5119 79.4708 32.4773 79.5848 32.4194C79.6989 32.3616 79.8002 32.2816 79.883 32.1841C79.9658 32.0866 80.0284 31.9736 80.0671 31.8517C80.1057 31.7298 80.1197 31.6015 80.1083 31.4741C80.0968 31.3467 80.0601 31.2229 80.0002 31.1099C79.9404 30.9969 79.8586 30.8969 79.7597 30.8158C79.6609 30.7347 79.5468 30.6741 79.4243 30.6376C79.3017 30.601 79.1731 30.5892 79.0459 30.6029L76.962 30.7907L76.7742 28.7067C76.765 28.5792 76.7304 28.4548 76.6725 28.3407C76.6147 28.2267 76.5347 28.1253 76.4372 28.0425C76.3397 27.9597 76.2268 27.8971 76.1049 27.8585C75.983 27.8198 75.8546 27.8058 75.7272 27.8173C75.5998 27.8287 75.476 27.8655 75.363 27.9253C75.25 27.9851 75.15 28.0669 75.0689 28.1658C74.9878 28.2647 74.9272 28.3787 74.8907 28.5013C74.8541 28.6238 74.8424 28.7524 74.856 28.8796L75.0438 30.9635L72.9599 31.1513C72.8323 31.1605 72.7079 31.1951 72.5938 31.253C72.4798 31.3109 72.3784 31.3908 72.2956 31.4883C72.2128 31.5858 72.1502 31.6988 72.1116 31.8207C72.0729 31.9426 72.0589 32.0709 72.0704 32.1983C72.0818 32.3257 72.1186 32.4495 72.1784 32.5625C72.2382 32.6756 72.32 32.7755 72.4189 32.8566C72.5178 32.9377 72.6318 32.9983 72.7544 33.0348C72.8769 33.0714 73.0055 33.0832 73.1327 33.0695L75.2166 32.8817L75.4044 34.9657C75.4314 35.2167 75.556 35.4472 75.7513 35.6073C75.9465 35.7674 76.1969 35.8445 76.4484 35.8218C76.6999 35.7992 76.9325 35.6786 77.096 35.4861C77.2595 35.2937 77.3409 35.0447 77.3226 34.7928L77.1348 32.7089Z" fill="#202249"/>
<path d="M67.6572 32.7342C66.8856 32.0896 65.9794 31.6355 65.0352 31.4205C64.091 31.2054 63.1443 31.2375 62.2961 31.5131C62.1833 31.5471 62.0822 31.604 61.9987 31.6804C61.9153 31.7568 61.8512 31.8512 61.8102 31.9581C61.7692 32.065 61.7521 32.1823 61.7599 32.303C61.7677 32.4238 61.8003 32.5456 61.8557 32.6613C61.9111 32.7771 61.9883 32.8845 62.0826 32.9772C62.177 33.0699 62.2867 33.1461 62.4053 33.2013C62.5239 33.2565 62.6491 33.2896 62.7734 33.2987C62.8978 33.3078 63.0189 33.2927 63.1296 33.2543C63.6739 33.0776 64.2812 33.0571 64.887 33.195C65.4927 33.3329 66.0742 33.624 66.5693 34.0374C67.0645 34.4507 67.4549 34.9707 67.6988 35.5421C67.9428 36.1134 68.0312 36.7147 67.9546 37.2817C67.9285 37.5124 67.9993 37.7583 68.1518 37.9666C68.3043 38.1749 68.5264 38.3289 68.7703 38.3955C69.0142 38.4621 69.2604 38.4361 69.4561 38.323C69.6518 38.2099 69.7813 38.0187 69.8168 37.7906C69.9364 36.9068 69.7987 35.9696 69.4183 35.0791C69.038 34.1886 68.4293 33.3781 67.6572 32.7342Z" fill="#202249"/>
<path d="M40.3223 44.8359L49.0791 53.5928L43.0133 59.6586L34.2565 50.9017L40.3223 44.8359Z" fill="#E04339"/>
<path d="M47.856 64.5126L41.2018 57.8584C39.5265 56.1831 39.5265 53.467 41.2018 51.7917C42.8772 50.1163 45.5932 50.1163 47.2686 51.7917L53.9228 58.4459L47.856 64.5126Z" fill="#F75E54"/>
<path d="M57.4433 81.2928C58.5295 81.2928 59.41 80.4123 59.41 79.3261C59.41 78.2399 58.5295 77.3594 57.4433 77.3594C56.3571 77.3594 55.4766 78.2399 55.4766 79.3261C55.4766 80.4123 56.3571 81.2928 57.4433 81.2928Z" fill="#0D2548"/>
<path d="M65.1609 81.2925C65.8074 81.2925 66.3315 80.7683 66.3315 80.1218C66.3315 79.4753 65.8074 78.9512 65.1609 78.9512C64.5143 78.9512 63.9902 79.4753 63.9902 80.1218C63.9902 80.7683 64.5143 81.2925 65.1609 81.2925Z" fill="#0D2548"/>
<path d="M22.062 48.0205C23.464 48.0205 24.6005 46.8839 24.6005 45.4819C24.6005 44.0799 23.464 42.9434 22.062 42.9434C20.66 42.9434 19.5234 44.0799 19.5234 45.4819C19.5234 46.8839 20.66 48.0205 22.062 48.0205Z" fill="#0D2548"/>
<path d="M20.7927 37.2886C21.4937 37.2886 22.062 36.7203 22.062 36.0193C22.062 35.3183 21.4937 34.75 20.7927 34.75C20.0917 34.75 19.5234 35.3183 19.5234 36.0193C19.5234 36.7203 20.0917 37.2886 20.7927 37.2886Z" fill="#0D2548"/>
<defs>
<linearGradient id="paint0_linear_14058_223094" x1="96.5434" y1="3.03865" x2="10.8567" y2="7.08825" gradientUnits="userSpaceOnUse">
<stop stop-color="#F703D9"/>
<stop offset="0.427083" stop-color="#795AF4"/>
<stop offset="0.921875" stop-color="#04AEFC"/>
</linearGradient>
</defs>
</svg>
