<svg width="38" height="38" viewBox="0 0 38 38" fill="none" xmlns="http://www.w3.org/2000/svg">
<path d="M26.7726 8.70721C26.7607 7.99711 26.4825 7.32032 25.9979 6.82256C25.5133 6.32481 24.8611 6.0459 24.1817 6.0459C23.5024 6.0459 22.8502 6.32481 22.3656 6.82256C21.881 7.32032 21.6028 7.99711 21.5908 8.70721V25.8744C21.5908 25.8936 21.6056 25.9095 21.624 25.9095H26.7394C26.7438 25.9095 26.7482 25.9086 26.7522 25.9069C26.7563 25.9051 26.76 25.9025 26.7631 25.8992C26.7661 25.896 26.7686 25.8921 26.7702 25.8878C26.7719 25.8836 26.7727 25.879 26.7726 25.8744V8.70721Z" fill="url(#paint0_linear_7187_245686)"/>
<path d="M19 13.0569C18.9861 12.3382 18.6615 11.6532 18.0962 11.1494C17.5308 10.6456 16.7699 10.3633 15.9773 10.3633C15.1847 10.3633 14.4238 10.6456 13.8585 11.1494C13.2931 11.6532 12.9685 12.3382 12.9546 13.0569V25.885C12.9546 25.8982 12.9663 25.9087 12.9807 25.9087H18.9739C18.9808 25.9086 18.9874 25.9061 18.9923 25.9017C18.9971 25.8973 18.9999 25.8913 19 25.885V13.0569Z" fill="url(#paint1_linear_7187_245686)"/>
<path d="M10.3635 19.1203C10.3678 18.7659 10.3039 18.4141 10.1756 18.0854C10.0473 17.7566 9.85718 17.4575 9.61619 17.2053C9.37519 16.9531 9.08816 16.7529 8.77172 16.6162C8.45528 16.4796 8.11575 16.4092 7.77279 16.4092C7.42984 16.4092 7.0903 16.4796 6.77387 16.6162C6.45743 16.7529 6.17039 16.9531 5.9294 17.2053C5.68841 17.4575 5.49826 17.7566 5.36997 18.0854C5.24169 18.4141 5.17782 18.7659 5.18208 19.1203V25.8984C5.18208 25.9042 5.18688 25.9092 5.19248 25.9092H10.3531C10.3559 25.9092 10.3585 25.908 10.3605 25.906C10.3624 25.904 10.3635 25.9013 10.3635 25.8984V19.1203Z" fill="url(#paint2_linear_7187_245686)"/>
<path fill-rule="evenodd" clip-rule="evenodd" d="M23.347 17.5503C22.713 17.5437 22.084 17.663 21.4964 17.9011C20.9088 18.1392 20.3742 18.4914 19.9236 18.9374C19.4729 19.3834 19.1152 19.9144 18.8711 20.4995C18.6269 21.0847 18.5012 21.7124 18.5012 22.3465C18.5012 22.9805 18.6269 23.6083 18.8711 24.1934C19.1152 24.7786 19.4729 25.3095 19.9236 25.7555C20.3742 26.2016 20.9088 26.5538 21.4964 26.7919C22.084 27.03 22.713 27.1492 23.347 27.1427C24.6068 27.1243 25.8088 26.611 26.6932 25.7135C27.5776 24.8161 28.0734 23.6067 28.0734 22.3467C28.0734 21.0868 27.5776 19.8774 26.6932 18.9799C25.8088 18.0825 24.6068 17.5691 23.347 17.5508V17.5503ZM16 22.3467C16 18.289 19.2894 15 23.347 15C27.4047 15 30.6941 18.289 30.6941 22.3467C30.6941 23.915 30.2023 25.3684 29.3651 26.5616L32.6106 29.8072C32.7325 29.9249 32.8296 30.0656 32.8965 30.2212C32.9633 30.3768 32.9985 30.5442 33 30.7135C33.0014 30.8829 32.9692 31.0508 32.905 31.2076C32.8409 31.3643 32.7462 31.5067 32.6265 31.6264C32.5067 31.7462 32.3643 31.8409 32.2076 31.905C32.0508 31.9692 31.8829 32.0014 31.7136 32C31.5442 31.9985 31.3769 31.9633 31.2213 31.8965C31.0657 31.8296 30.925 31.7324 30.8073 31.6106L27.5618 28.3655C26.3275 29.2324 24.8553 29.6964 23.347 29.694C19.2894 29.694 16 26.4045 16 22.3467Z" fill="url(#paint3_linear_7187_245686)"/>
<defs>
<linearGradient id="paint0_linear_7187_245686" x1="24.1817" y1="5.99831" x2="24.1817" y2="25.9095" gradientUnits="userSpaceOnUse">
<stop stop-color="#3976F2"/>
<stop offset="1" stop-color="#3976F2" stop-opacity="0"/>
</linearGradient>
<linearGradient id="paint1_linear_7187_245686" x1="15.9773" y1="10.3155" x2="15.9773" y2="25.9087" gradientUnits="userSpaceOnUse">
<stop stop-color="#3976F2"/>
<stop offset="1" stop-color="#3976F2" stop-opacity="0"/>
</linearGradient>
<linearGradient id="paint2_linear_7187_245686" x1="7.77299" y1="16.4424" x2="7.77299" y2="25.9092" gradientUnits="userSpaceOnUse">
<stop stop-color="#3976F2"/>
<stop offset="1" stop-color="#3976F2" stop-opacity="0"/>
</linearGradient>
<linearGradient id="paint3_linear_7187_245686" x1="19.825" y1="15" x2="27.9" y2="32" gradientUnits="userSpaceOnUse">
<stop stop-color="#E03BD3"/>
<stop offset="0.489583" stop-color="#6C6EED"/>
<stop offset="1" stop-color="#4BAEF6"/>
</linearGradient>
</defs>
</svg>
