<svg width="60" height="60" viewBox="0 0 60 60" fill="none" xmlns="http://www.w3.org/2000/svg">
<path fill-rule="evenodd" clip-rule="evenodd" d="M30 3.125C15.1675 3.125 3.125 15.1675 3.125 30C3.125 36.2703 5.29612 42.0275 8.90137 46.6016C8.89096 46.6106 8.89229 46.6071 8.88184 46.6162C8.94679 46.6986 9.0259 46.769 9.0918 46.8506C9.5054 47.363 9.94607 47.8496 10.3955 48.3301C10.5774 48.5245 10.7451 48.732 10.9326 48.9209C11.5831 49.5764 12.2638 50.2 12.9785 50.7861C13.1963 50.9648 13.4338 51.1172 13.6572 51.2891C14.1661 51.6804 14.6782 52.0671 15.2148 52.4219C15.5281 52.6289 15.8546 52.8137 16.1768 53.0078C16.674 53.3074 17.1729 53.5995 17.6904 53.8672C18.0179 54.0366 18.3514 54.1944 18.6865 54.3506C19.204 54.5916 19.729 54.816 20.2637 55.0244C20.6443 55.1729 21.0272 55.313 21.416 55.4443C21.9346 55.6195 22.461 55.7742 22.9932 55.918C23.3843 56.0237 23.772 56.1325 24.1699 56.2207C24.8125 56.3632 25.469 56.4719 26.1279 56.5674C26.4202 56.6097 26.7067 56.6664 27.002 56.6992C27.988 56.8091 28.9848 56.875 30 56.875C31.0152 56.875 32.012 56.8091 32.998 56.6992C33.2933 56.6664 33.5798 56.6097 33.8721 56.5674C34.531 56.4719 35.1875 56.3632 35.8301 56.2207C36.228 56.1325 36.6157 56.0237 37.0068 55.918C37.539 55.7742 38.0654 55.6195 38.584 55.4443C38.9728 55.313 39.3557 55.1729 39.7363 55.0244C40.271 54.816 40.796 54.5916 41.3135 54.3506C41.6486 54.1944 41.9821 54.0366 42.3096 53.8672C42.8271 53.5995 43.326 53.3074 43.8232 53.0078C44.1454 52.8137 44.4719 52.6289 44.7852 52.4219C45.3218 52.0671 45.8339 51.6804 46.3428 51.2891C46.5662 51.1172 46.8037 50.9648 47.0215 50.7861C47.7362 50.2 48.4169 49.5764 49.0674 48.9209C49.2549 48.732 49.4226 48.5245 49.6045 48.3301C50.0539 47.8496 50.4946 47.363 50.9082 46.8506C50.9741 46.769 51.0532 46.6986 51.1182 46.6162L51.0986 46.6016C54.7039 42.0275 56.875 36.2703 56.875 30C56.875 15.1675 44.8325 3.125 30 3.125ZM30 6.875C42.7625 6.875 53.125 17.2375 53.125 30C53.125 35.3148 51.3101 40.1991 48.291 44.1064C43.4902 39.6339 37.0738 36.875 30 36.875C22.9287 36.875 16.5085 39.6336 11.709 44.1064C8.68988 40.1991 6.875 35.3148 6.875 30C6.875 17.2375 17.2375 6.875 30 6.875ZM30 13.125C27.1821 13.125 24.4796 14.2444 22.487 16.237C20.4944 18.2296 19.375 20.9321 19.375 23.75C19.375 26.5679 20.4944 29.2704 22.487 31.263C24.4796 33.2556 27.1821 34.375 30 34.375C32.8179 34.375 35.5204 33.2556 37.513 31.263C39.5056 29.2704 40.625 26.5679 40.625 23.75C40.625 20.9321 39.5056 18.2296 37.513 16.237C35.5204 14.2444 32.8179 13.125 30 13.125Z" fill="#2E4371"/>
</svg>
