<svg width="41" height="40" viewBox="0 0 41 40" fill="none" xmlns="http://www.w3.org/2000/svg">
<circle cx="20.5" cy="20" r="20" fill="#2574FB"/>
<path d="M25.6325 10.4712C24.505 10.4712 23.3778 10.8998 22.5216 11.756L21.0549 13.2226C19.8026 14.475 19.4733 16.3012 20.0552 17.8604C20.0868 17.9533 20.1367 18.039 20.2019 18.1123C20.2672 18.1856 20.3465 18.2451 20.4352 18.2872C20.5239 18.3292 20.6201 18.3531 20.7182 18.3573C20.8163 18.3615 20.9142 18.346 21.0062 18.3117C21.0981 18.2773 21.1823 18.2249 21.2536 18.1575C21.3249 18.09 21.382 18.0089 21.4214 17.919C21.4608 17.8291 21.4817 17.7322 21.483 17.6341C21.4843 17.5359 21.4658 17.4385 21.4288 17.3476C21.0397 16.305 21.2514 15.1002 22.0919 14.2596L23.5586 12.7929C24.7107 11.6409 26.5544 11.6409 27.7065 12.7929C28.8586 13.945 28.8586 15.7888 27.7065 16.9409L26.2398 18.4075C25.3993 19.2481 24.193 19.4583 23.1504 19.0692C23.0601 19.0356 22.9641 19.02 22.8678 19.0234C22.7714 19.0269 22.6768 19.0492 22.5891 19.0893C22.5014 19.1293 22.4225 19.1862 22.3569 19.2567C22.2912 19.3273 22.2401 19.41 22.2064 19.5003C22.1727 19.5906 22.1572 19.6867 22.1606 19.783C22.1641 19.8793 22.1865 19.9739 22.2265 20.0616C22.2665 20.1492 22.3235 20.2282 22.394 20.2938C22.4645 20.3595 22.5473 20.4106 22.6376 20.4442C24.1969 21.0261 26.0244 20.6969 27.2768 19.4445L28.7435 17.9778C30.4558 16.2655 30.4558 13.4683 28.7435 11.756C27.8873 10.8998 26.7601 10.4712 25.6325 10.4712ZM17.5544 11.9235C17.3602 11.9266 17.1751 12.0065 17.0397 12.1459C16.9044 12.2853 16.8299 12.4726 16.8325 12.6669V14.8669C16.8312 14.9641 16.8491 15.0605 16.8854 15.1507C16.9216 15.2409 16.9754 15.323 17.0436 15.3922C17.1119 15.4614 17.1932 15.5163 17.2828 15.5538C17.3725 15.5914 17.4687 15.6107 17.5659 15.6107C17.6631 15.6107 17.7593 15.5914 17.8489 15.5538C17.9386 15.5163 18.0199 15.4614 18.0881 15.3922C18.1564 15.323 18.2102 15.2409 18.2464 15.1507C18.2826 15.0605 18.3006 14.9641 18.2992 14.8669V12.6669C18.3006 12.5688 18.2822 12.4714 18.2452 12.3805C18.2083 12.2896 18.1534 12.2071 18.084 12.1378C18.0145 12.0684 17.9319 12.0138 17.8409 11.977C17.7499 11.9402 17.6525 11.922 17.5544 11.9235ZM13.1659 16.3336C13.0687 16.3322 12.9722 16.3501 12.882 16.3864C12.7919 16.4226 12.7098 16.4764 12.6406 16.5446C12.5714 16.6129 12.5164 16.6942 12.4789 16.7838C12.4414 16.8735 12.4221 16.9697 12.4221 17.0669C12.4221 17.1641 12.4414 17.2603 12.4789 17.35C12.5164 17.4396 12.5714 17.5209 12.6406 17.5891C12.7098 17.6574 12.7919 17.7112 12.882 17.7474C12.9722 17.7836 13.0687 17.8016 13.1659 17.8002H15.3659C15.4631 17.8016 15.5595 17.7836 15.6497 17.7474C15.7399 17.7112 15.822 17.6574 15.8912 17.5891C15.9604 17.5209 16.0153 17.4396 16.0528 17.35C16.0903 17.2603 16.1097 17.1641 16.1097 17.0669C16.1097 16.9697 16.0903 16.8735 16.0528 16.7838C16.0153 16.6942 15.9604 16.6129 15.8912 16.5446C15.822 16.4764 15.7399 16.4226 15.6497 16.3864C15.5595 16.3501 15.4631 16.3322 15.3659 16.3336H13.1659ZM16.5375 19.2869C16.3322 19.2999 16.128 19.3271 15.9259 19.3686C15.1176 19.5346 14.3478 19.9298 13.7216 20.556L12.2549 22.0226C10.5426 23.7349 10.5426 26.5322 12.2549 28.2445C13.9673 29.9568 16.7645 29.9568 18.4768 28.2445L19.9435 26.7778C21.1959 25.5254 21.5251 23.6993 20.9432 22.1401C20.9117 22.0471 20.8618 21.9615 20.7965 21.8881C20.7312 21.8148 20.6519 21.7554 20.5632 21.7133C20.4745 21.6712 20.3783 21.6474 20.2802 21.6431C20.1821 21.6389 20.0842 21.6545 19.9923 21.6888C19.9003 21.7231 19.8162 21.7756 19.7448 21.843C19.6735 21.9104 19.6165 21.9915 19.5771 22.0814C19.5376 22.1713 19.5167 22.2682 19.5154 22.3664C19.5141 22.4645 19.5326 22.5619 19.5697 22.6528C19.9587 23.6955 19.7471 24.9003 18.9065 25.7409L17.4398 27.2075C16.2878 28.3596 14.444 28.3596 13.2919 27.2075C12.1398 26.0554 12.1398 24.2117 13.2919 23.0596L14.7586 21.5929C15.5991 20.7524 16.8054 20.5421 17.848 20.9312C17.9383 20.9649 18.0344 20.9805 18.1307 20.977C18.227 20.9736 18.3217 20.9512 18.4093 20.9112C18.497 20.8712 18.5759 20.8143 18.6415 20.7437C18.7072 20.6732 18.7583 20.5904 18.792 20.5001C18.8257 20.4098 18.8412 20.3138 18.8378 20.2175C18.8343 20.1212 18.812 20.0265 18.7719 19.9389C18.7319 19.8512 18.675 19.7723 18.6044 19.7066C18.5339 19.641 18.4511 19.5899 18.3608 19.5562C17.7761 19.338 17.1532 19.2482 16.5375 19.2869ZM25.6325 22.2002C25.5354 22.1989 25.4389 22.2168 25.3487 22.253C25.2585 22.2893 25.1765 22.3431 25.1073 22.4113C25.038 22.4795 24.9831 22.5608 24.9456 22.6505C24.9081 22.7402 24.8888 22.8364 24.8888 22.9336C24.8888 23.0307 24.9081 23.127 24.9456 23.2166C24.9831 23.3063 25.038 23.3876 25.1073 23.4558C25.1765 23.524 25.2585 23.5778 25.3487 23.6141C25.4389 23.6503 25.5354 23.6683 25.6325 23.6669H27.8325C27.9297 23.6683 28.0262 23.6503 28.1164 23.6141C28.2066 23.5778 28.2886 23.524 28.3578 23.4558C28.427 23.3876 28.482 23.3063 28.5195 23.2166C28.557 23.127 28.5763 23.0307 28.5763 22.9336C28.5763 22.8364 28.557 22.7402 28.5195 22.6505C28.482 22.5608 28.427 22.4795 28.3578 22.4113C28.2886 22.3431 28.2066 22.2893 28.1164 22.253C28.0262 22.2168 27.9297 22.1989 27.8325 22.2002H25.6325ZM23.4211 24.3902C23.2268 24.3932 23.0417 24.4732 22.9064 24.6126C22.7711 24.7519 22.6965 24.9393 22.6992 25.1336V27.3336C22.6978 27.4307 22.7158 27.5272 22.752 27.6174C22.7883 27.7076 22.8421 27.7896 22.9103 27.8589C22.9785 27.9281 23.0598 27.983 23.1495 28.0205C23.2391 28.058 23.3354 28.0773 23.4325 28.0773C23.5297 28.0773 23.6259 28.058 23.7156 28.0205C23.8053 27.983 23.8866 27.9281 23.9548 27.8589C24.023 27.7896 24.0768 27.7076 24.1131 27.6174C24.1493 27.5272 24.1673 27.4307 24.1659 27.3336V25.1336C24.1672 25.0354 24.1489 24.9381 24.1119 24.8472C24.0749 24.7563 24.0201 24.6737 23.9506 24.6044C23.8812 24.5351 23.7985 24.4804 23.7076 24.4436C23.6166 24.4068 23.5192 24.3887 23.4211 24.3902Z" fill="white" fill-opacity="0.87"/>
</svg>
