<svg width="41" height="40" viewBox="0 0 41 40" fill="none" xmlns="http://www.w3.org/2000/svg">
<circle cx="20.5" cy="20" r="20" fill="#2574FB"/>
<path d="M13.6473 20.1686L20.3951 8.84743C20.4928 8.68349 20.7308 8.68509 20.8263 8.85033L27.3589 20.153C27.4271 20.2711 27.3882 20.4221 27.2713 20.4924L20.5138 24.5568C20.4335 24.6051 20.3328 24.6044 20.2532 24.555L13.7302 20.5091C13.6144 20.4372 13.5774 20.2857 13.6473 20.1686ZM21.2592 27.871L25.6462 24.8157L20.4215 32.5892C20.4142 32.6001 20.4083 32.6039 20.4042 32.606C20.3986 32.6089 20.3902 32.6113 20.3799 32.6113C20.3696 32.6113 20.3612 32.6088 20.3557 32.6059C20.3515 32.6037 20.3457 32.5999 20.3384 32.589L15.2722 24.9812L19.4969 27.8775C20.0285 28.2419 20.7302 28.2393 21.2592 27.871Z" stroke="white" stroke-opacity="0.87" stroke-width="1.5"/>
</svg>
