<svg width="25" height="24" viewBox="0 0 25 24" fill="none" xmlns="http://www.w3.org/2000/svg">
<g clip-path="url(#clip0_6089_12337)">
<path d="M2.25673 10.333L2.40688 12.1997L2.78227 17.7997C2.85735 18.733 3.53304 19.5997 4.50905 19.933C12.242 22.5997 12.0168 22.5997 12.3171 22.6663C12.6925 22.733 13.143 22.733 13.5934 22.6663C13.9688 22.5997 13.6685 22.6663 21.4015 19.933C22.3775 19.5997 23.0532 18.733 23.1283 17.7997L23.5037 12.1997L23.6538 10.333L12.9928 13.333L2.25673 10.333Z" fill="#E9412A"/>
<path d="M12.3924 14.5332V22.5999C12.7678 22.6665 13.2182 22.6665 13.6687 22.5999V14.5332C13.2182 14.7332 12.7678 14.7332 12.3924 14.5332Z" fill="#FA7B5F"/>
<path d="M23.729 10.333L23.5788 12.1997L13.5935 15.9997C13.2182 16.133 12.7677 16.133 12.3172 15.9997L2.33193 12.1997L2.18177 10.333L12.9929 13.333L23.729 10.333Z" fill="#CC1010"/>
<g opacity="0.5">
<path d="M13.5933 14.5332V15.9332C13.2179 16.0665 12.7674 16.0665 12.3169 15.9332V14.5332C12.7674 14.7332 13.2179 14.7332 13.5933 14.5332Z" fill="#93073A"/>
</g>
<path d="M1.73113 10.6661L12.3171 14.6661C12.4672 14.7328 12.6924 14.7995 12.9177 14.7995C13.1429 14.7995 13.2931 14.7328 13.5183 14.6661L24.2544 10.6661C25.0051 10.3995 25.1553 8.46615 24.855 7.19948C24.7799 6.93281 24.7048 6.73281 24.6298 6.53281C24.4796 6.33281 24.4045 6.19948 24.2544 6.13281H1.73113C1.58097 6.19948 1.5059 6.26615 1.43082 6.39948C1.28066 6.59948 1.20559 6.86615 1.13051 7.13281C0.830202 8.46615 1.05543 10.3995 1.73113 10.6661Z" fill="#E94035"/>
<path d="M1.13062 7.19987C1.28078 6.79987 1.95647 6.99987 1.95647 6.99987L11.8667 10.7332C12.167 10.8665 12.3922 11.1332 12.3922 11.4665V14.6665C12.5424 14.7332 12.7676 14.7999 12.9929 14.7999C13.2181 14.7999 13.3682 14.7332 13.5935 14.6665V11.3999C13.5935 11.0665 13.8187 10.7999 14.119 10.6665L24.1043 6.9332C24.3296 6.86654 24.78 6.79987 24.9302 7.1332C24.8551 6.86654 24.78 6.66654 24.7049 6.46654C24.5548 6.3332 24.4046 6.19987 24.2545 6.1332L13.6686 2.1332C13.2932 1.99987 12.8427 1.99987 12.3922 2.1332L1.80632 6.1332C1.65616 6.19987 1.58109 6.26654 1.50601 6.39987C1.28078 6.59987 1.2057 6.86654 1.13062 7.19987Z" fill="#FA7B5F"/>
<path d="M12.6925 10.3336L2.78223 6.66693C2.63207 6.60026 2.63207 6.40026 2.78223 6.33359L12.6925 2.73359C12.9177 2.66693 13.1429 2.66693 13.3682 2.73359L23.2033 6.33359C23.3535 6.40026 23.3535 6.60026 23.2033 6.66693L13.3682 10.2669C13.1429 10.4003 12.8426 10.4003 12.6925 10.3336Z" fill="#E93535"/>
<path d="M7.73746 9.13366L8.63839 9.46699C8.78854 9.33366 8.9387 9.26699 9.38916 9.06699L8.33807 8.66699C8.11284 8.86699 7.88761 9.00033 7.73746 9.13366Z" fill="#DF3260"/>
<path d="M17.3474 9.53366L18.2483 9.13366C18.0981 8.93366 17.8729 8.80033 17.6477 8.66699L16.5966 9.06699C16.972 9.26699 17.1972 9.40033 17.3474 9.53366Z" fill="#DF3260"/>
<path d="M12.9927 6.4668C11.9416 6.93346 9.68925 8.00013 8.33786 8.73346L9.38894 9.13346C10.44 8.60013 11.8665 8.00013 12.9927 7.60013C14.3441 8.13346 15.5453 8.60013 16.5964 9.13346L17.6475 8.73346C16.4462 8.0668 14.269 7.00013 12.9927 6.4668Z" fill="#CC1010"/>
<path d="M16.5964 4.7998C18.2481 5.5998 19.8248 6.33314 21.2512 7.06647C22.0771 7.53314 22.6026 8.33314 22.5276 9.19981L21.6266 19.6665C21.5515 20.1998 21.2512 20.7331 20.8008 20.9998C19.6746 21.7331 17.7977 22.7331 16.8967 22.0665L17.8728 21.4665L18.098 8.93314L12.9927 6.39981V4.7998H16.5964Z" fill="#FFE071"/>
<g opacity="0.5">
<path d="M17.6475 10.7328L17.5724 20.9995L18.098 20.1995C18.5484 10.4661 18.8487 9.93281 18.2481 9.13281L17.3472 9.46615C17.6475 9.79948 17.6475 10.2661 17.6475 10.7328Z" fill="#93073A"/>
</g>
<path d="M18.9238 10.3333L18.3982 21.4C18.3982 21.9333 17.7976 22.4 17.197 22.2667C16.8967 22.2 16.5964 22 16.3711 21.7333L17.3471 21.3333C17.4973 21.2667 17.5724 21.1333 17.5724 21L17.9478 10.2C17.9478 9.66667 17.6475 9.06667 17.1219 8.8C15.8456 8.13333 14.5693 7.6 13.0677 7V6C14.4942 6.6 16.3711 7.53333 17.7225 8.26667C18.4733 8.66667 18.9989 9.46667 18.9238 10.3333Z" fill="#F3A250"/>
<path d="M9.38896 4.7998C7.73725 5.53314 6.16063 6.33314 4.73415 7.06647C3.9083 7.53314 3.38276 8.33314 3.45784 9.19981L4.35877 19.6665C4.43384 20.1998 4.73415 20.7331 5.18462 20.9998C6.31078 21.7331 8.18772 22.7331 9.08865 22.0665L8.11264 21.4665L7.88741 8.93314L12.9927 6.39981V4.7998H9.38896Z" fill="#FFE071"/>
<g opacity="0.5">
<path d="M8.33787 10.7335L8.41295 21.0669L7.81233 20.2002C7.51202 10.4669 7.13663 10.0002 7.73725 9.2002L8.63818 9.53353C8.33787 9.8002 8.33787 10.2669 8.33787 10.7335Z" fill="#93073A"/>
</g>
<path d="M7.06168 10.3333L7.58722 21.4C7.58722 21.9333 8.18784 22.4 8.78846 22.2667C9.08877 22.2 9.38908 22 9.61432 21.7333L8.63831 21.4C8.48815 21.3333 8.41308 21.2667 8.41308 21.1333L8.03769 10.3333C8.03769 9.8 8.338 9.2 8.86354 8.93333C9.23893 8.73333 9.68939 8.53333 10.0648 8.33333C10.8906 7.93333 11.7916 7.6 12.6174 7.26667C12.7676 7.2 12.8426 7.2 12.9177 7.13333V6C12.5423 6.2 12.1669 6.33333 11.7916 6.53333C10.5903 7.06667 9.53924 7.6 8.26292 8.26667C8.18784 8.33333 8.11277 8.4 8.03769 8.4C7.43707 8.86667 6.9866 9.6 7.06168 10.3333Z" fill="#F3A250"/>
<path d="M14.1939 5.13398C14.1939 5.20065 14.269 5.33398 14.269 5.40065C14.6444 6.40065 15.1699 6.93398 16.3712 6.66732C17.122 6.46732 20.1251 7.06732 20.3503 7.00065C21.026 6.73398 21.2512 6.06732 21.1761 5.33398C21.1761 4.40065 20.7257 3.33398 20.3503 2.66732C19.9749 2.00065 19.3743 1.46732 18.6986 1.33398H18.3983C17.3472 1.33398 15.5453 2.86732 14.9447 3.53398C14.3441 4.20065 14.8696 3.60065 14.8696 3.60065C14.4942 4.00065 14.269 4.40065 14.1939 4.73398V5.13398Z" fill="#FFEDAB"/>
<path d="M14.1938 5.13398C14.1938 5.20065 14.2689 5.33398 14.2689 5.40065C14.4191 5.00065 14.8695 4.40065 15.0197 4.26732C15.6954 3.53398 17.4222 2.06732 18.4732 2.06732C19.9748 2.06732 20.9508 4.00065 21.176 5.33398C21.176 4.40065 20.7256 3.33398 20.3502 2.66732C20.0499 2.06732 19.2991 1.46732 18.6985 1.33398H18.3982C17.3471 1.33398 15.5452 2.86732 14.9446 3.53398C14.344 4.20065 14.8695 3.60065 14.8695 3.60065C14.4191 4.13398 14.2689 4.46732 14.1938 4.73398V5.13398Z" fill="#FFCD66"/>
<g opacity="0.5">
<path d="M13.3682 7.20065C13.5934 7.26732 13.8937 7.40065 14.1189 7.46732C15.0199 7.40065 15.17 7.40065 15.3953 7.26732C15.3202 7.26732 15.2451 7.20065 15.2451 7.13398C14.9448 6.86732 15.095 6.60065 15.3202 6.33398H14.3442L14.194 6.46732L13.3682 7.20065Z" fill="#DD8536"/>
</g>
<path d="M21.176 5.93379C21.176 6.33379 21.176 7.60046 19.5243 7.80046C18.9237 7.86712 17.7225 7.86712 17.0468 7.86712C16.0708 7.80046 14.6443 7.66712 14.6443 6.80046C14.6443 6.66712 14.7194 6.46712 14.7944 6.33379C14.9446 6.06712 15.4701 5.66712 15.5452 5.66712C16.7465 4.86712 18.6234 4.20046 19.4492 4.13379C20.5003 4.13379 21.176 5.00046 21.176 5.93379Z" fill="#FFB961"/>
<path d="M17.7976 7.60039C11.3409 7.60039 17.7225 4.46706 19.4493 4.40039C20.2751 4.40039 20.8757 5.06706 20.8757 5.93372C20.8757 7.66706 19.7496 7.60039 17.7976 7.60039Z" fill="#F3A250"/>
<path d="M15.0196 6.93359C15.0196 7.00026 15.0947 7.06693 15.0947 7.06693C15.0947 7.06693 15.0196 7.00026 15.0196 6.93359Z" fill="#F3A250"/>
<path d="M15.1697 7.20053C15.0946 7.20053 15.0946 7.13386 15.1697 7.20053C15.0946 7.13386 15.1697 7.20053 15.1697 7.20053Z" fill="#F3A250"/>
<path d="M20.8757 5.93372C20.8757 6.26706 20.8007 6.73372 20.5754 7.00039C20.5003 6.26706 19.8997 5.60039 19.149 5.60039C18.3982 5.60039 16.4462 6.26706 15.2449 7.20039C14.0437 8.13372 15.2449 7.20039 15.1698 7.13372C14.1938 6.26706 18.0979 4.46706 19.5243 4.40039C20.2751 4.46706 20.8757 5.06706 20.8757 5.93372Z" fill="#D77218"/>
<path d="M11.7915 5.1332C11.4912 6.19986 10.8906 6.99986 9.61426 6.59986C8.86349 6.39986 5.86039 6.99986 5.63516 6.9332C5.10961 6.7332 4.88438 6.26653 4.8093 5.7332C4.65915 4.26653 5.86039 0.933196 8.03763 1.39986C8.78841 1.59986 10.2149 2.59986 11.1158 3.59986C12.0167 4.59986 11.1909 3.66653 11.1909 3.66653C11.6414 4.19986 11.9417 4.7332 11.7915 5.1332Z" fill="#FFEDAB"/>
<path d="M4.80907 5.33354C5.10938 3.8002 6.23554 1.73354 7.96232 2.06687C9.08848 2.4002 11.4159 4.26687 11.7162 5.33354C11.8663 4.93354 12.0165 4.53354 11.1907 3.6002L11.1156 3.53354C10.2146 2.53354 8.78817 1.6002 8.0374 1.33354C5.93523 0.933536 4.80907 4.0002 4.80907 5.33354Z" fill="#FFCD66"/>
<g opacity="0.5">
<path d="M4.5087 7.20065C5.10932 8.33398 6.53579 8.40065 8.03734 8.40065C8.41272 8.40065 8.71303 8.40065 9.08842 8.40065C9.68904 8.40065 9.91427 8.33398 10.1395 8.26732C10.9654 7.86732 11.8663 7.53398 12.6921 7.20065L11.9414 6.46732L11.7912 6.33398H6.23548C5.70993 6.60065 4.73393 7.06732 4.5087 7.20065Z" fill="#DD8536"/>
</g>
<path d="M11.3408 6.86686C11.3408 7.73353 9.91435 7.86686 8.93834 7.93353C6.46079 8.00019 4.80908 8.06686 4.80908 6.0002C4.80908 5.06686 5.48478 4.2002 6.53586 4.2002C7.81218 4.2002 11.3408 5.66686 11.3408 6.86686Z" fill="#FFB961"/>
<path d="M8.18774 7.60039C14.6444 7.60039 8.18774 4.46706 6.53603 4.40039C5.71018 4.40039 5.10956 5.06706 5.10956 5.93372C5.10956 7.66706 6.3108 7.60039 8.18774 7.60039Z" fill="#F3A250"/>
<path d="M5.10958 5.93372C5.10958 6.26706 5.18466 6.66706 5.40989 7.00039C5.48497 6.20039 6.08559 5.60039 6.83636 5.60039C7.58714 5.60039 9.53915 6.26706 10.7404 7.20039C11.9416 8.13372 10.7404 7.20039 10.8155 7.13372C11.7915 6.26706 7.88745 4.46706 6.46097 4.40039C5.7102 4.46706 5.10958 5.06706 5.10958 5.93372Z" fill="#D77218"/>
<g opacity="0.1">
<path d="M10.3649 5.99972C10.3649 5.99972 10.3649 6.06639 10.3649 5.99972C10.5902 6.13305 10.8905 6.46639 10.9656 6.73305C10.9656 6.86639 10.9656 6.99972 10.8154 7.13305C10.8154 7.13305 10.8154 7.19972 10.7403 7.19972C10.6652 7.26639 10.6652 7.26639 10.5902 7.33305C10.7403 7.46639 10.9656 7.46639 11.8665 7.53305C12.2419 7.33305 12.6173 7.19972 12.9926 7.06639C13.1428 7.13305 13.2179 7.13305 13.293 7.19972C13.5182 7.26639 13.8185 7.39972 14.0437 7.46639C14.9447 7.39972 15.0948 7.39972 15.3201 7.26639C15.0197 7.13305 14.7945 6.79972 15.245 6.33305C15.3951 6.19972 15.4702 6.06639 15.6204 5.99972C15.6204 5.86639 15.245 4.06639 15.245 3.99972C15.1699 3.79972 15.0948 3.66639 14.9447 3.59972C14.7945 3.53305 14.8696 3.66639 14.8696 3.66639C14.4191 4.19972 14.1188 4.73305 14.269 5.13305C14.4191 5.59972 14.5693 6.06639 14.9447 6.33305C14.8696 6.46639 14.7945 6.59972 14.7945 6.73305C14.6444 6.66639 14.4191 6.53305 14.1939 6.46639C13.7434 6.33305 13.368 6.13305 12.9926 5.99972C12.392 6.26639 11.8665 6.53305 11.2659 6.79972C11.2659 6.66639 11.1908 6.53305 11.1157 6.39972C11.416 6.06639 11.6413 5.66639 11.7914 5.19972C11.9416 4.79972 11.6413 4.26639 11.1157 3.73305C11.1157 3.73305 11.1157 3.66639 11.0406 3.66639C10.8905 3.66639 10.8154 3.79972 10.7403 3.99972C10.7403 4.13305 10.3649 5.93305 10.3649 5.99972Z" fill="#111D33"/>
</g>
<path d="M15.3952 6.59983C15.4703 6.8665 15.245 7.0665 15.0198 7.0665C13.293 7.2665 12.8426 7.2665 11.0407 7.0665C10.7404 7.0665 10.5902 6.79983 10.6653 6.59983L11.0407 4.99983C11.0407 4.79983 11.2659 4.73316 11.4912 4.73316C12.4672 4.93316 13.7435 4.93316 14.7195 4.73316C14.9447 4.6665 15.0949 4.79983 15.17 4.99983L15.3952 6.59983Z" fill="#FFB961"/>
<path d="M15.1698 5.53401C15.2449 5.73401 15.0197 6.00068 14.7945 6.00068C13.2929 6.20068 12.6923 6.20068 11.1907 6.00068C10.9655 6.00068 10.7403 5.80068 10.8154 5.53401L11.1157 4.06734C11.1157 3.93401 11.3409 3.80068 11.491 3.86734C12.3169 4.06734 13.5932 4.06734 14.4191 3.86734C14.5692 3.80068 14.7945 3.93401 14.7945 4.06734L15.1698 5.53401Z" fill="#FFD475"/>
</g>
<defs>
<clipPath id="clip0_6089_12337">
<rect width="24" height="24" fill="white" transform="matrix(-1 0 0 1 24.9116 0)"/>
</clipPath>
</defs>
</svg>
