<svg width="24" height="24" viewBox="0 0 24 24" fill="none" xmlns="http://www.w3.org/2000/svg">
<g clip-path="url(#clip0_13258_4225)">
<circle cx="12" cy="12" r="11.5" fill="#202249" stroke="url(#paint0_linear_13258_4225)"/>
<g filter="url(#filter0_d_13258_4225)">
<path d="M7.71401 7.71436C7.48683 7.71436 7.26895 7.80466 7.10831 7.96541C6.94767 8.12615 6.85742 8.34417 6.85742 8.5715C6.85742 8.79883 6.94767 9.01684 7.10831 9.17759C7.26895 9.33834 7.48683 9.42864 7.71401 9.42864C7.94119 9.42864 8.15907 9.33834 8.31971 9.17759C8.48035 9.01684 8.5706 8.79883 8.5706 8.5715C8.5706 8.34417 8.48035 8.12615 8.31971 7.96541C8.15907 7.80466 7.94119 7.71436 7.71401 7.71436ZM10.2838 8.14293C10.227 8.14212 10.1707 8.15262 10.118 8.17379C10.0653 8.19497 10.0174 8.22641 9.97699 8.26629C9.93657 8.30616 9.90447 8.35368 9.88257 8.40608C9.86066 8.45847 9.84938 8.5147 9.84938 8.5715C9.84938 8.62829 9.86066 8.68452 9.88257 8.73692C9.90447 8.78932 9.93657 8.83683 9.97699 8.87671C10.0174 8.91659 10.0653 8.94803 10.118 8.9692C10.1707 8.99038 10.227 9.00087 10.2838 9.00007H15.8516C15.9084 9.00087 15.9647 8.99038 16.0174 8.9692C16.07 8.94803 16.118 8.91659 16.1584 8.87671C16.1988 8.83683 16.2309 8.78932 16.2528 8.73692C16.2747 8.68452 16.286 8.62829 16.286 8.5715C16.286 8.5147 16.2747 8.45847 16.2528 8.40608C16.2309 8.35368 16.1988 8.30616 16.1584 8.26629C16.118 8.22641 16.07 8.19497 16.0174 8.17379C15.9647 8.15262 15.9084 8.14212 15.8516 8.14293H10.2838ZM7.71401 11.1429C7.48683 11.1429 7.26895 11.2332 7.10831 11.394C6.94767 11.5547 6.85742 11.7727 6.85742 12.0001C6.85742 12.2274 6.94767 12.4454 7.10831 12.6062C7.26895 12.7669 7.48683 12.8572 7.71401 12.8572C7.94119 12.8572 8.15907 12.7669 8.31971 12.6062C8.48035 12.4454 8.5706 12.2274 8.5706 12.0001C8.5706 11.7727 8.48035 11.5547 8.31971 11.394C8.15907 11.2332 7.94119 11.1429 7.71401 11.1429ZM10.2838 11.5715C10.227 11.5707 10.1707 11.5812 10.118 11.6024C10.0653 11.6235 10.0174 11.655 9.97699 11.6949C9.93657 11.7347 9.90447 11.7823 9.88257 11.8346C9.86066 11.887 9.84938 11.9433 9.84938 12.0001C9.84938 12.0569 9.86066 12.1131 9.88257 12.1655C9.90447 12.2179 9.93657 12.2654 9.97699 12.3053C10.0174 12.3452 10.0653 12.3766 10.118 12.3978C10.1707 12.419 10.227 12.4294 10.2838 12.4286H15.8516C15.9084 12.4294 15.9647 12.419 16.0174 12.3978C16.07 12.3766 16.118 12.3452 16.1584 12.3053C16.1988 12.2654 16.2309 12.2179 16.2528 12.1655C16.2747 12.1131 16.286 12.0569 16.286 12.0001C16.286 11.9433 16.2747 11.887 16.2528 11.8346C16.2309 11.7823 16.1988 11.7347 16.1584 11.6949C16.118 11.655 16.07 11.6235 16.0174 11.6024C15.9647 11.5812 15.9084 11.5707 15.8516 11.5715H10.2838ZM7.71401 14.5715C7.48683 14.5715 7.26895 14.6618 7.10831 14.8225C6.94767 14.9833 6.85742 15.2013 6.85742 15.4286C6.85742 15.656 6.94767 15.874 7.10831 16.0347C7.26895 16.1955 7.48683 16.2858 7.71401 16.2858C7.94119 16.2858 8.15907 16.1955 8.31971 16.0347C8.48035 15.874 8.5706 15.656 8.5706 15.4286C8.5706 15.2013 8.48035 14.9833 8.31971 14.8225C8.15907 14.6618 7.94119 14.5715 7.71401 14.5715ZM10.2838 15.0001C10.227 14.9993 10.1707 15.0098 10.118 15.0309C10.0653 15.0521 10.0174 15.0836 9.97699 15.1234C9.93657 15.1633 9.90447 15.2108 9.88257 15.2632C9.86066 15.3156 9.84938 15.3718 9.84938 15.4286C9.84938 15.4854 9.86066 15.5417 9.88257 15.5941C9.90447 15.6465 9.93657 15.694 9.97699 15.7339C10.0174 15.7737 10.0653 15.8052 10.118 15.8263C10.1707 15.8475 10.227 15.858 10.2838 15.8572H15.8516C15.9084 15.858 15.9647 15.8475 16.0174 15.8263C16.07 15.8052 16.118 15.7737 16.1584 15.7339C16.1988 15.694 16.2309 15.6465 16.2528 15.5941C16.2747 15.5417 16.286 15.4854 16.286 15.4286C16.286 15.3718 16.2747 15.3156 16.2528 15.2632C16.2309 15.2108 16.1988 15.1633 16.1584 15.1234C16.118 15.0836 16.07 15.0521 16.0174 15.0309C15.9647 15.0098 15.9084 14.9993 15.8516 15.0001H10.2838Z" fill="white"/>
</g>
</g>
<defs>
<filter id="filter0_d_13258_4225" x="2.85742" y="7.71436" width="17.4277" height="16.5715" filterUnits="userSpaceOnUse" color-interpolation-filters="sRGB">
<feFlood flood-opacity="0" result="BackgroundImageFix"/>
<feColorMatrix in="SourceAlpha" type="matrix" values="0 0 0 0 0 0 0 0 0 0 0 0 0 0 0 0 0 0 127 0" result="hardAlpha"/>
<feOffset dy="4"/>
<feGaussianBlur stdDeviation="2"/>
<feComposite in2="hardAlpha" operator="out"/>
<feColorMatrix type="matrix" values="0 0 0 0 0 0 0 0 0 0 0 0 0 0 0 0 0 0 0.25 0"/>
<feBlend mode="normal" in2="BackgroundImageFix" result="effect1_dropShadow_13258_4225"/>
<feBlend mode="normal" in="SourceGraphic" in2="effect1_dropShadow_13258_4225" result="shape"/>
</filter>
<linearGradient id="paint0_linear_13258_4225" x1="27.8159" y1="12" x2="-4.10414" y2="14.7723" gradientUnits="userSpaceOnUse">
<stop stop-color="#F703D9"/>
<stop offset="0.427083" stop-color="#795AF4"/>
<stop offset="0.921875" stop-color="#04AEFC"/>
</linearGradient>
<clipPath id="clip0_13258_4225">
<rect width="24" height="24" fill="white"/>
</clipPath>
</defs>
</svg>
