<svg width="16" height="16" viewBox="0 0 16 16" fill="none" xmlns="http://www.w3.org/2000/svg">
<g clip-path="url(#clip0_15274_247295)">
<path d="M2.66659 2V10H1.33325V12C1.33325 13.1027 2.23059 14 3.33325 14H8.66659V13.3333V12.6667L9.99992 11.3333L8.66659 10H3.99992V3.33333H12.6666V6H13.9999V2H2.66659ZM5.33325 4.66667V6H6.66659V4.66667H5.33325ZM7.99992 4.66667V6H11.3333V4.66667H7.99992ZM5.33325 7.33333V8.66667H6.66659V7.33333H5.33325ZM9.99992 7.33333V8.66667H10.6666V9.94271L12.0572 11.3333L10.6666 12.724V14H9.99992V15.3333H15.9999V14H15.3333V12.724L13.9426 11.3333L15.3333 9.94271V8.66667H15.9999V7.33333H9.99992ZM11.9999 8.66667H13.9999V9.39062L12.9999 10.3906L11.9999 9.39062V8.66667ZM12.9999 12.276L13.9999 13.276V14H11.9999V13.276L12.9999 12.276Z" fill="white" fill-opacity="0.87"/>
</g>
<defs>
<clipPath id="clip0_15274_247295">
<rect width="16" height="16" fill="white"/>
</clipPath>
</defs>
</svg>
