<svg width="16" height="16" viewBox="0 0 16 16" fill="none" xmlns="http://www.w3.org/2000/svg">
<path d="M4.00033 1.33325C3.26699 1.33325 2.66699 1.93325 2.66699 2.66659V13.3333C2.66699 14.0666 3.26699 14.6666 4.00033 14.6666H7.68001C7.36668 14.2666 7.12663 13.8199 6.95996 13.3333H4.00033V2.66659H12.0003V6.68612L13.3337 6.95955V2.66659C13.3337 1.93325 12.7337 1.33325 12.0003 1.33325H4.00033ZM5.33366 4.66658V5.99992H10.667V4.66658H5.33366ZM5.33366 7.33325V8.66658H7.68001C8.08001 8.11992 8.59319 7.66658 9.18652 7.33325H5.33366ZM11.667 7.99992C10.801 7.99992 9.99607 8.3029 9.36751 8.81632C8.53039 9.48526 8.00033 10.5188 8.00033 11.6666C8.00033 11.8039 8.00847 11.9416 8.02507 12.0767C8.22982 13.9061 9.78609 15.3333 11.667 15.3333C12.4367 15.3333 13.1514 15.0931 13.7425 14.6848L15.029 15.9713L15.9717 15.0286L14.6852 13.7421C15.0935 13.151 15.3337 12.4363 15.3337 11.6666C15.3337 9.64782 13.6858 7.99992 11.667 7.99992ZM12.0003 9.3658C13.1386 9.52592 14.0003 10.4797 14.0003 11.6666C14.0003 12.9678 12.9682 13.9999 11.667 13.9999C10.4821 13.9999 9.52792 13.132 9.36491 11.9999H12.0003V9.3658ZM5.33366 9.99992V11.3333H6.68652C6.70652 10.8666 6.79996 10.4199 6.95996 9.99992H5.33366Z" fill="white" fill-opacity="0.87"/>
</svg>
