<svg width="20" height="20" viewBox="0 0 20 20" fill="none" xmlns="http://www.w3.org/2000/svg">
<path d="M16 3H16.75V2.25H16V3ZM7.46967 10.4697C7.17678 10.7626 7.17678 11.2374 7.46967 11.5303C7.76256 11.8232 8.23744 11.8232 8.53033 11.5303L7.46967 10.4697ZM9.6 3.75L16 3.75V2.25L9.6 2.25V3.75ZM15.25 3V9.4H16.75V3H15.25ZM15.4697 2.46967L7.46967 10.4697L8.53033 11.5303L16.5303 3.53033L15.4697 2.46967Z" fill="#2574FB"/>
<path d="M5.375 3V3C4.08935 3 3.44653 3 2.97179 3.28454C2.68969 3.45363 2.45363 3.68969 2.28454 3.97179C2 4.44653 2 5.08935 2 6.375V13C2 14.8856 2 15.8284 2.58579 16.4142C3.17157 17 4.11438 17 6 17H12.625C13.9106 17 14.5535 17 15.0282 16.7155C15.3103 16.5464 15.5464 16.3103 15.7155 16.0282C16 15.5535 16 14.9106 16 13.625V13.625" stroke="#2574FB" stroke-width="1.5" stroke-linecap="round"/>
</svg>
