<svg width="20" height="20" viewBox="0 0 20 20" fill="none" xmlns="http://www.w3.org/2000/svg">
<path d="M14.2592 7.18085L16.9107 1.96405C16.9689 1.86328 16.9995 1.74897 16.9995 1.63262C16.9995 1.51626 16.9689 1.40195 16.9107 1.30118C16.8488 1.20715 16.764 1.13042 16.6643 1.07823C16.5645 1.02604 16.4532 1.00011 16.3406 1.00289H12.8407C12.7183 1.00326 12.5983 1.03752 12.4942 1.10187C12.3901 1.16622 12.3058 1.25815 12.2507 1.36747L10.282 5.23864L8.29337 1.36747C8.23985 1.2611 8.15867 1.17111 8.05836 1.10695C7.95804 1.0428 7.8423 1.00685 7.7233 1.00289H4.22333C4.10893 1.00222 3.99631 1.03117 3.89641 1.08693C3.79651 1.14268 3.71275 1.22335 3.65326 1.32107C3.59508 1.42183 3.56445 1.53614 3.56445 1.6525C3.56445 1.76886 3.59508 1.88317 3.65326 1.98394L6.30475 7.20074C6.36074 7.30882 6.44541 7.3994 6.54948 7.46254C6.65354 7.52568 6.77298 7.55894 6.89471 7.55869H8.3928C8.29668 7.85184 8.24746 8.15832 8.24697 8.46683C8.24041 8.59048 8.24041 8.71439 8.24697 8.83803C7.03145 9.31382 6.02027 10.1992 5.38809 11.3412C4.75591 12.4832 4.54243 13.8101 4.78452 15.0928C5.02661 16.3755 5.70907 17.5333 6.71402 18.3663C7.71897 19.1994 8.9833 19.6552 10.2886 19.6552C11.5939 19.6552 12.8583 19.1994 13.8632 18.3663C14.8681 17.5333 15.5506 16.3755 15.7927 15.0928C16.0348 13.8101 15.8213 12.4832 15.1891 11.3412C14.5569 10.1992 13.5458 9.31382 12.3303 8.83803C12.3482 8.71056 12.3592 8.58222 12.3634 8.45357C12.3781 8.14573 12.3468 7.83742 12.2706 7.53881H13.7223C13.8349 7.52982 13.9433 7.49222 14.0372 7.42958C14.1312 7.36693 14.2076 7.28132 14.2592 7.18085ZM13.6494 13.1467L11.959 14.7973L12.3568 17.1306L10.282 16.0169L8.18731 17.1173L8.58503 14.784L6.89471 13.1334L9.23464 12.7954L10.282 10.6676L11.3293 12.7954L13.6494 13.1467ZM11.031 8.4602C11.031 8.4602 11.031 8.4602 11.031 8.5066C10.7832 8.4659 10.533 8.44154 10.282 8.43368C10.0402 8.43438 9.79875 8.4521 9.55945 8.48671C9.55635 8.47364 9.55635 8.46002 9.55945 8.44694C9.55073 8.12094 9.65104 7.80135 9.84449 7.53881H10.7725C10.9636 7.80219 11.0615 8.12171 11.0509 8.44694L11.031 8.4602Z" fill="#FFC24B" fill-opacity="0.87"/>
</svg>
