<svg width="20" height="20" viewBox="0 0 20 20" fill="none" xmlns="http://www.w3.org/2000/svg">
<g clip-path="url(#clip0_15274_245996)">
<path d="M9.10568 2.5C5.46341 2.5 2.5 5.46341 2.5 9.10568C2.5 12.7482 5.46341 15.7114 9.10568 15.7114C12.7482 15.7114 15.7114 12.7482 15.7114 9.10568C15.7114 5.46341 12.7482 2.5 9.10568 2.5ZM9.10568 14.4919C6.13577 14.4919 3.71951 12.0756 3.71951 9.10571C3.71951 6.1358 6.13577 3.71951 9.10568 3.71951C12.0756 3.71951 14.4919 6.13577 14.4919 9.10568C14.4919 12.0756 12.0756 14.4919 9.10568 14.4919Z" fill="white" fill-opacity="0.87"/>
<path d="M17.3215 16.459L13.8255 12.9631C13.5873 12.7249 13.2015 12.7249 12.9633 12.9631C12.7251 13.2011 12.7251 13.5873 12.9633 13.8253L16.4593 17.3212C16.5784 17.4403 16.7343 17.4999 16.8904 17.4999C17.0463 17.4999 17.2024 17.4403 17.3215 17.3212C17.5597 17.0832 17.5597 16.697 17.3215 16.459Z" fill="white" fill-opacity="0.87"/>
</g>
<defs>
<clipPath id="clip0_15274_245996">
<rect width="15" height="15" fill="white" transform="translate(2.5 2.5)"/>
</clipPath>
</defs>
</svg>
