<svg width="20" height="20" viewBox="0 0 20 20" fill="none" xmlns="http://www.w3.org/2000/svg">
<path d="M8.77255 8.75233L13.6134 5.49193C13.8429 5.3386 13.9054 5.02857 13.752 4.79857C13.5977 4.5676 13.2862 4.50757 13.0587 4.6599L8.21785 7.9203C7.98835 8.07363 7.92585 8.38367 8.07918 8.61367C8.23392 8.84497 8.54428 8.9045 8.77255 8.75233ZM13.6133 14.5078L8.77252 11.2474C8.54402 11.0951 8.23345 11.1561 8.07915 11.3861C7.92581 11.6161 7.98832 11.9261 8.21782 12.0795L13.0586 15.3399C13.2865 15.4918 13.597 15.4329 13.752 15.2012C13.9053 14.9712 13.8428 14.6612 13.6133 14.5078Z" fill="white" fill-opacity="0.87"/>
<path d="M6 6.49989C4.0703 6.49989 2.5 8.07019 2.5 9.99989C2.5 11.9296 4.0703 13.4999 6 13.4999C7.9297 13.4999 9.5 11.9296 9.5 9.99989C9.5 8.07019 7.9297 6.49989 6 6.49989ZM15 6.46655C16.3789 6.46655 17.5 5.34499 17.5 3.96655C17.5 2.58812 16.3789 1.46655 15 1.46655C13.6211 1.46655 12.5 2.58812 12.5 3.96655C12.5 5.34499 13.6211 6.46655 15 6.46655ZM15 13.5332C13.6211 13.5332 12.5 14.6548 12.5 16.0332C12.5 17.4117 13.6211 18.5332 15 18.5332C16.3789 18.5332 17.5 17.4117 17.5 16.0332C17.5 14.6548 16.3789 13.5332 15 13.5332Z" fill="white" fill-opacity="0.87"/>
</svg>
