<svg width="16" height="16" viewBox="0 0 16 16" fill="none" xmlns="http://www.w3.org/2000/svg">
<path d="M8 2C6.52933 2 5.33333 3.196 5.33333 4.66667C5.33333 6.13733 6.52933 7.33333 8 7.33333C9.47067 7.33333 10.6667 6.13733 10.6667 4.66667C10.6667 3.196 9.47067 2 8 2ZM12 8C10.7908 8 9.70489 8.54435 8.97005 9.39844C8.63147 9.35989 8.30307 9.33333 8 9.33333C5.906 9.33333 2 10.364 2 12.3333V13.3333C2 13.7013 2.29867 14 2.66667 14H8.54297C9.23709 15.1927 10.5269 16 12 16C14.2012 16 16 14.2012 16 12C16 9.79876 14.2012 8 12 8ZM12 9.33333C12.6692 9.33333 13.2704 9.58469 13.737 9.98698L12 11.724L11.6094 11.3333C11.3494 11.0733 10.9267 11.0733 10.6667 11.3333C10.4067 11.5933 10.4067 12.016 10.6667 12.276L11.5286 13.138C11.7886 13.3987 12.2114 13.3987 12.4714 13.138L14.5039 11.1055C14.6033 11.3859 14.6667 11.684 14.6667 12C14.6667 13.4807 13.4807 14.6667 12 14.6667C10.5193 14.6667 9.33333 13.4807 9.33333 12C9.33333 10.5193 10.5193 9.33333 12 9.33333Z" fill="white" fill-opacity="0.87"/>
</svg>
