<svg width="14" height="14" viewBox="0 0 14 14" fill="none" xmlns="http://www.w3.org/2000/svg">
<path d="M0.875 1.75V2.20652C0.875 3.32464 1.43199 4.26087 2.26464 4.88859C2.97079 5.42179 3.86764 5.74278 4.81736 5.83016C4.76071 7.75255 4.55302 9.29866 4.43973 9.96739H5.42155C5.56504 9.09893 5.81427 7.26571 5.81427 4.94565H5.33092C4.3982 4.94565 3.50701 4.65676 2.86883 4.17527C2.41191 3.8311 2.1438 3.37458 1.99276 2.84851C2.06262 2.86455 2.03429 2.86277 2.11359 2.87704C2.75744 2.9983 3.77701 3.11957 5.33092 3.11957C6.12392 3.11957 6.31273 3.73302 6.31273 3.73302L6.41846 4.03261H7.12839L7.24923 3.73302C7.24923 3.73302 7.43804 3.11957 8.23104 3.11957C10.2135 3.11957 11.2935 2.94837 11.977 2.80571C11.8014 3.33178 11.4805 3.80256 10.9348 4.16101C10.1852 4.65498 9.16376 4.94565 8.23104 4.94565H7.74769C7.74769 7.26571 7.99692 9.09893 8.14041 9.96739H9.12223C9.00894 9.30758 8.80125 7.77395 8.74461 5.83016C9.71698 5.74813 10.7007 5.43962 11.4937 4.91712C12.4283 4.30189 13.125 3.35496 13.125 2.20652V1.75H12.5208L12.4453 1.77853C12.4453 1.77853 11.2388 2.20652 8.23104 2.20652C7.54566 2.20652 7.06797 2.50255 6.76588 2.80571C6.46378 2.50611 6.00497 2.20652 5.33092 2.20652C3.82799 2.20652 2.86317 2.09952 2.29485 1.99253C1.72653 1.88553 1.60003 1.80707 1.60003 1.80707L1.4943 1.75H0.875ZM1.94744 10.8804C1.94744 10.9072 1.90779 11.0249 1.73597 11.1372C1.56416 11.2496 1.28849 11.337 0.980734 11.337V12.25C1.48108 12.25 1.92856 12.1091 2.27975 11.8791C2.3345 11.8434 2.37982 11.806 2.4308 11.7649C2.47989 11.8042 2.52898 11.8452 2.58184 11.8791C2.93114 12.1091 3.37862 12.25 3.88086 12.25C4.3812 12.25 4.82868 12.1091 5.17987 11.8791C5.23463 11.8434 5.27994 11.806 5.33092 11.7649C5.38001 11.8042 5.4291 11.8452 5.48197 11.8791C5.83127 12.1091 6.27875 12.25 6.78098 12.25C7.28133 12.25 7.72881 12.1091 8.07999 11.8791C8.13475 11.8434 8.18006 11.806 8.23104 11.7649C8.28013 11.8042 8.32922 11.8452 8.38209 11.8791C8.73139 12.1091 9.17887 12.25 9.6811 12.25C10.1814 12.25 10.6289 12.1091 10.9801 11.8791C11.0349 11.8434 11.0802 11.806 11.1312 11.7649C11.1803 11.8042 11.2293 11.8452 11.2822 11.8791C11.6315 12.1091 12.079 12.25 12.5812 12.25V11.337C12.2754 11.337 11.9997 11.2514 11.826 11.1372C11.6523 11.0231 11.6145 10.9001 11.6145 10.8804H10.6478C10.6478 10.9072 10.6082 11.0249 10.4363 11.1372C10.2645 11.2496 9.98886 11.337 9.6811 11.337C9.37523 11.337 9.09957 11.2514 8.92586 11.1372C8.75216 11.0231 8.7144 10.9001 8.7144 10.8804H7.74769C7.74769 10.9072 7.70804 11.0249 7.53622 11.1372C7.3644 11.2496 7.08874 11.337 6.78098 11.337C6.47511 11.337 6.19945 11.2514 6.02574 11.1372C5.85203 11.0231 5.81427 10.9001 5.81427 10.8804H4.84756C4.84756 10.9072 4.80791 11.0249 4.6361 11.1372C4.46428 11.2496 4.18862 11.337 3.88086 11.337C3.57498 11.337 3.29932 11.2514 3.12562 11.1372C2.95191 11.0231 2.91415 10.9001 2.91415 10.8804H1.94744Z" fill="#43F4FF"/>
</svg>
