<svg width="16" height="16" viewBox="0 0 16 16" fill="none" xmlns="http://www.w3.org/2000/svg">
<path d="M7.99935 1.33334C7.11529 1.33334 6.26745 1.68453 5.64233 2.30965C5.0172 2.93478 4.66602 3.78262 4.66602 4.66668C4.66602 5.55073 5.0172 6.39858 5.64233 7.0237C6.26745 7.64882 7.11529 8.00001 7.99935 8.00001C8.8834 8.00001 9.73125 7.64882 10.3564 7.0237C10.9815 6.39858 11.3327 5.55073 11.3327 4.66668C11.3327 3.78262 10.9815 2.93478 10.3564 2.30965C9.73125 1.68453 8.8834 1.33334 7.99935 1.33334ZM12.0063 9.33334H3.99235C3.26102 9.33334 2.66602 9.92834 2.66602 10.6597V11.1667C2.66602 12.2707 3.29435 13.2253 4.43502 13.8543C5.38402 14.3783 6.65002 14.6667 7.99935 14.6667C10.568 14.6667 13.3327 13.5713 13.3327 11.1667V10.6597C13.3327 9.92834 12.7377 9.33334 12.0063 9.33334Z" fill="#2574FB"/>
</svg>
