<svg width="28" height="28" viewBox="0 0 28 28" fill="none" xmlns="http://www.w3.org/2000/svg">
<path d="M24.64 5.60001V7.84001H23.52C22.9031 7.84001 22.4 8.34313 22.4 8.96001V14.56C22.4 15.1769 22.9031 15.68 23.52 15.68H26.88C27.4969 15.68 28 15.1769 28 14.56V8.96001C28 8.34313 27.4969 7.84001 26.88 7.84001H25.76V5.60001H24.64ZM8.96 8.96001V11.2H7.84C7.22313 11.2 6.72 11.7031 6.72 12.32V17.92C6.72 18.5369 7.22313 19.04 7.84 19.04H11.2C11.8169 19.04 12.32 18.5369 12.32 17.92V12.32C12.32 11.7031 11.8169 11.2 11.2 11.2H10.08V8.96001H8.96ZM16.8 10.08V12.32H15.68C15.0631 12.32 14.56 12.8231 14.56 13.44V19.04C14.56 19.6569 15.0631 20.16 15.68 20.16H19.04C19.6569 20.16 20.16 19.6569 20.16 19.04V13.44C20.16 12.8231 19.6569 12.32 19.04 12.32H17.92V10.08H16.8ZM24.64 16.24V17.92H25.76V16.24H24.64ZM2.24 15.68V17.92H1.12C0.503125 17.92 0 18.4231 0 19.04V24.64C0 25.2569 0.503125 25.76 1.12 25.76H4.48C5.09688 25.76 5.6 25.2569 5.6 24.64V19.04C5.6 18.4231 5.09688 17.92 4.48 17.92H3.36V15.68H2.24ZM8.96 19.6V21.28H10.08V19.6H8.96ZM1.12 19.04H4.48V24.64H1.12V19.04ZM16.8 20.72V22.4H17.92V20.72H16.8ZM2.24 26.32V28H3.36V26.32H2.24Z" fill="url(#paint0_linear_12333_186112)"/>
<defs>
<linearGradient id="paint0_linear_12333_186112" x1="32.4519" y1="16.8" x2="-4.63199" y2="20.826" gradientUnits="userSpaceOnUse">
<stop stop-color="#F703D9"/>
<stop offset="0.427083" stop-color="#795AF4"/>
<stop offset="0.921875" stop-color="#04AEFC"/>
</linearGradient>
</defs>
</svg>
