<svg width="28" height="28" viewBox="0 0 28 28" fill="none" xmlns="http://www.w3.org/2000/svg">
<path d="M17.2729 1.30266L18.2427 0.278626C18.3279 0.188171 18.4304 0.116766 18.5437 0.0688627C18.657 0.0209597 18.7786 -0.00241454 18.9011 0.000197031L24.4918 0.113015C24.7169 0.11783 24.9328 0.206532 25.0992 0.362663C25.2656 0.518794 25.3714 0.731756 25.3969 0.962041L25.9963 6.69767C26.0069 6.79977 25.9948 6.90301 25.961 6.99961C25.9271 7.0962 25.8724 7.18362 25.8009 7.25525L20.8553 12.4622C20.8029 12.5175 20.7401 12.5612 20.6708 12.5905C20.6014 12.6199 20.5269 12.6343 20.4519 12.6329L14.0264 12.5606C13.9335 12.5594 13.8412 12.5773 13.7549 12.6131C13.6687 12.6489 13.5902 12.702 13.5241 12.7693C13.458 12.8366 13.4054 12.9167 13.3696 13.005C13.3338 13.0933 13.3153 13.1881 13.3153 13.2838C13.3153 13.7177 13.7496 14.0547 14.1726 14.0713L16.9961 14.1285C17.5856 14.1285 17.9468 14.3563 18.0606 14.7945C18.1661 15.2002 17.9517 15.4664 17.7241 15.7347C17.7009 15.7629 12.8522 20.9576 11.5487 22.354C11.448 22.4619 11.3267 22.5472 11.1925 22.6047C11.0583 22.6622 10.9141 22.6906 10.7687 22.6881L5.99456 22.5681L3.02916 25.7227C2.87593 25.8856 2.66913 25.9839 2.44923 25.9982C2.22932 26.0125 2.01214 25.9418 1.84019 25.8C1.67365 25.6626 1.48884 25.5108 1.31317 25.3705C1.22331 25.2983 1.14919 25.2075 1.0956 25.104C1.042 25.0005 1.01013 24.8866 1.00205 24.7696C0.993967 24.6526 1.00985 24.5352 1.04868 24.4249C1.0875 24.3146 1.1484 24.214 1.22743 24.1295L4.13521 21.0197L3.65878 16.2055C3.64282 16.0428 3.66235 15.8785 3.71597 15.7246C3.76958 15.5707 3.85592 15.4311 3.96867 15.3159L6.62067 12.6069C6.74987 12.4867 6.9122 12.4109 7.08515 12.3899C7.26332 12.3661 7.44435 12.3973 7.60525 12.4796C7.76615 12.5619 7.89966 12.6915 7.98883 12.852L7.99305 12.8585C8.07756 13.0075 8.12981 13.1735 8.14624 13.3452C8.19542 13.8623 8.2418 14.4893 8.25023 14.5747L8.40975 16.2178C8.41948 16.3248 8.45018 16.4287 8.50001 16.5231C8.54983 16.6176 8.61774 16.7007 8.69963 16.7674C8.78153 16.8341 8.87571 16.8831 8.97649 16.9113C9.07728 16.9395 9.18257 16.9464 9.28602 16.9315C9.75683 16.8665 10.0428 16.3566 9.98872 15.8713L9.40126 10.1495C9.38252 10.0087 9.39477 9.86547 9.4371 9.73028C9.47943 9.59508 9.55075 9.47141 9.6458 9.36841L14.0103 4.77254C14.1438 4.6279 14.4783 4.46301 14.7193 4.49194C14.8894 4.51241 15.0517 4.57712 15.1908 4.67997C15.2929 4.74969 15.3792 4.84118 15.444 4.94823C15.5087 5.05529 15.5504 5.17541 15.5661 5.30046V5.30553L15.8781 8.41525C15.8955 8.58852 15.9772 8.7482 16.1061 8.86107C16.235 8.97395 16.4012 9.03133 16.5702 9.02128L16.7424 9.01044C16.8434 9.00437 16.9421 8.97726 17.0327 8.93073C17.1232 8.88421 17.2036 8.81924 17.2689 8.73978C17.3343 8.66032 17.3833 8.56802 17.413 8.46847C17.4427 8.36893 17.4524 8.26421 17.4416 8.16069L16.8007 2.04032L16.923 1.80022C17.0158 1.61792 17.1336 1.45034 17.2729 1.30266Z" fill="url(#paint0_linear_12333_186089)"/>
<defs>
<linearGradient id="paint0_linear_12333_186089" x1="29.9749" y1="13" x2="-3.29393" y2="15.7783" gradientUnits="userSpaceOnUse">
<stop stop-color="#F703D9"/>
<stop offset="0.427083" stop-color="#795AF4"/>
<stop offset="0.921875" stop-color="#04AEFC"/>
</linearGradient>
</defs>
</svg>
