<svg width="28" height="28" viewBox="0 0 28 28" fill="none" xmlns="http://www.w3.org/2000/svg">
<path d="M21.3478 1C19.3339 1 17.6957 2.63826 17.6957 4.65217C17.6957 5.61519 18.073 6.48949 18.6841 7.14266L14.3176 12.4783H8.26257C8.00803 10.7113 6.48846 9.34783 4.65217 9.34783C2.63826 9.34783 1 10.9861 1 13C1 15.0139 2.63826 16.6522 4.65217 16.6522C6.48846 16.6522 8.00803 15.2887 8.26257 13.5217H14.3054L18.4956 19.0723C17.9959 19.6972 17.6957 20.4874 17.6957 21.3478C17.6957 23.3617 19.3339 25 21.3478 25C23.3617 25 25 23.3617 25 21.3478C25 19.3339 23.3617 17.6957 21.3478 17.6957C20.572 17.6957 19.854 17.9409 19.2619 18.355L15.2286 13.0132L19.4973 7.79484C20.0409 8.11621 20.6719 8.30435 21.3478 8.30435C23.3617 8.30435 25 6.66609 25 4.65217C25 2.63826 23.3617 1 21.3478 1Z" fill="url(#paint0_linear_12333_186114)"/>
<defs>
<linearGradient id="paint0_linear_12333_186114" x1="28.8159" y1="13" x2="-3.10414" y2="15.7723" gradientUnits="userSpaceOnUse">
<stop stop-color="#F703D9"/>
<stop offset="0.427083" stop-color="#795AF4"/>
<stop offset="0.921875" stop-color="#04AEFC"/>
</linearGradient>
</defs>
</svg>
