<svg width="16" height="16" viewBox="0 0 16 16" fill="none" xmlns="http://www.w3.org/2000/svg">
<path d="M6.00016 1.33334C4.90349 1.33334 4.00016 2.23667 4.00016 3.33334C4.00016 3.56791 4.04946 3.79008 4.12516 4.00001H1.3335V6.66668H2.00016V12.6667C2.00016 13.4 2.60016 14 3.3335 14H7.3335V6.66668H8.66683V14H12.6668C13.4002 14 14.0002 13.4 14.0002 12.6667V6.66668H14.6668V4.00001H11.8752C11.9509 3.79008 12.0002 3.56791 12.0002 3.33334C12.0002 2.23667 11.0968 1.33334 10.0002 1.33334C9.48776 1.33334 9.0224 1.5361 8.66683 1.85808V1.84376L8.5887 1.92189L8.00016 2.51043L7.41162 1.92189L7.3335 1.84376V1.85808C6.97793 1.5361 6.51256 1.33334 6.00016 1.33334ZM6.00016 2.66668C6.37625 2.66668 6.66683 2.95726 6.66683 3.33334C6.66683 3.70943 6.37625 4.00001 6.00016 4.00001C5.62408 4.00001 5.3335 3.70943 5.3335 3.33334C5.3335 2.95726 5.62408 2.66668 6.00016 2.66668ZM10.0002 2.66668C10.3762 2.66668 10.6668 2.95726 10.6668 3.33334C10.6668 3.70943 10.3762 4.00001 10.0002 4.00001C9.62408 4.00001 9.3335 3.70943 9.3335 3.33334C9.3335 2.95726 9.62408 2.66668 10.0002 2.66668Z" fill="#A8CBFF" fill-opacity="0.75"/>
</svg>
