<svg width="17" height="16" viewBox="0 0 17 16" fill="none" xmlns="http://www.w3.org/2000/svg">
<path fill-rule="evenodd" clip-rule="evenodd" d="M5.08974 9.21098H2.75641C2.06359 9.21098 1.5 9.75953 1.5 10.4338V14.2771C1.5 14.9515 2.06359 15.5 2.75641 15.5H5.08974V9.21098ZM9.57692 7.46404H7.42308C6.73026 7.46404 6.16667 8.01258 6.16667 8.6869V15.5H10.8333V8.6869C10.8333 8.01258 10.2697 7.46404 9.57692 7.46404ZM14.2436 10.9579H11.9103V15.5H14.2436C14.9364 15.5 15.5 14.9515 15.5 14.2771V12.1808C15.5 11.5065 14.9364 10.9579 14.2436 10.9579ZM11.6116 2.676C11.5484 2.48663 11.3797 2.34757 11.1772 2.31892L9.66092 2.1051L8.98318 0.768331C8.80226 0.410556 8.19846 0.410556 8.01754 0.768331L7.3398 2.1051L5.82349 2.31892C5.62103 2.34757 5.45231 2.48663 5.38913 2.676C5.32595 2.86537 5.37836 3.0736 5.52554 3.21336L6.62256 4.25384L6.36338 5.72268C6.32892 5.91973 6.41149 6.11889 6.57733 6.23558C6.74318 6.35368 6.96287 6.36835 7.14451 6.27541L8.50072 5.58152L9.8562 6.27541C9.93518 6.31594 10.0206 6.33551 10.1068 6.33551C10.2181 6.33551 10.3293 6.30197 10.4234 6.23558C10.5892 6.11889 10.6718 5.91973 10.6373 5.72268L10.3782 4.25384L11.4752 3.21336C11.6224 3.0736 11.6748 2.86537 11.6116 2.676Z" fill="white" fill-opacity="0.87"/>
</svg>
