<svg width="16" height="16" viewBox="0 0 16 16" fill="none" xmlns="http://www.w3.org/2000/svg">
<path d="M7.98958 1.32422C7.813 1.32698 7.64473 1.39969 7.52169 1.52639C7.39866 1.65308 7.33092 1.82342 7.33333 2.00001V2.70573C4.33839 3.03896 2 5.58377 2 8.66667C2 11.9753 4.692 14.6667 8 14.6667C11.308 14.6667 14 11.9753 14 8.66667C14 5.58377 11.6616 3.03896 8.66667 2.70573V2.00001C8.66789 1.91081 8.6512 1.82228 8.61759 1.73965C8.58398 1.65703 8.53413 1.58198 8.47099 1.51897C8.40786 1.45596 8.33272 1.40625 8.25003 1.3728C8.16734 1.33935 8.07877 1.32283 7.98958 1.32422ZM8 4.66667C8.368 4.66667 8.66667 4.96534 8.66667 5.33334V8.39063L10.2943 10.0182C10.5543 10.2782 10.5543 10.7009 10.2943 10.9609C10.0343 11.2216 9.61223 11.2216 9.35156 10.9609L7.52865 9.13803C7.40331 9.01269 7.33333 8.84334 7.33333 8.66667V5.33334C7.33333 4.96534 7.632 4.66667 8 4.66667Z" fill="white" fill-opacity="0.87"/>
</svg>
