<svg width="24" height="24" viewBox="0 0 24 24" fill="none" xmlns="http://www.w3.org/2000/svg">
<g clip-path="url(#clip0_8617_149826)">
<circle cx="12" cy="12" r="11.5" stroke="url(#paint0_linear_8617_149826)"/>
<g filter="url(#filter0_d_8617_149826)">
<path d="M7.71371 7.71429C7.48652 7.71429 7.26865 7.8046 7.10801 7.96535C6.94736 8.12609 6.85712 8.34411 6.85712 8.57144C6.85712 8.79877 6.94736 9.01678 7.10801 9.17753C7.26865 9.33827 7.48652 9.42858 7.71371 9.42858C7.94089 9.42858 8.15876 9.33827 8.3194 9.17753C8.48005 9.01678 8.57029 8.79877 8.57029 8.57144C8.57029 8.34411 8.48005 8.12609 8.3194 7.96535C8.15876 7.8046 7.94089 7.71429 7.71371 7.71429ZM10.2835 8.14287C10.2267 8.14206 10.1704 8.15255 10.1177 8.17373C10.065 8.19491 10.0171 8.22635 9.97668 8.26623C9.93626 8.3061 9.90417 8.35362 9.88226 8.40601C9.86036 8.45841 9.84908 8.51464 9.84908 8.57144C9.84908 8.62823 9.86036 8.68446 9.88226 8.73686C9.90417 8.78926 9.93626 8.83677 9.97668 8.87665C10.0171 8.91652 10.065 8.94797 10.1177 8.96914C10.1704 8.99032 10.2267 9.00081 10.2835 9.00001H15.8513C15.908 9.00081 15.9644 8.99032 16.0171 8.96914C16.0697 8.94797 16.1177 8.91652 16.1581 8.87665C16.1985 8.83677 16.2306 8.78926 16.2525 8.73686C16.2744 8.68446 16.2857 8.62823 16.2857 8.57144C16.2857 8.51464 16.2744 8.45841 16.2525 8.40601C16.2306 8.35362 16.1985 8.3061 16.1581 8.26623C16.1177 8.22635 16.0697 8.19491 16.0171 8.17373C15.9644 8.15255 15.908 8.14206 15.8513 8.14287H10.2835ZM7.71371 11.1429C7.48652 11.1429 7.26865 11.2332 7.10801 11.3939C6.94736 11.5547 6.85712 11.7727 6.85712 12C6.85712 12.2273 6.94736 12.4454 7.10801 12.6061C7.26865 12.7668 7.48652 12.8572 7.71371 12.8572C7.94089 12.8572 8.15876 12.7668 8.3194 12.6061C8.48005 12.4454 8.57029 12.2273 8.57029 12C8.57029 11.7727 8.48005 11.5547 8.3194 11.3939C8.15876 11.2332 7.94089 11.1429 7.71371 11.1429ZM10.2835 11.5714C10.2267 11.5706 10.1704 11.5811 10.1177 11.6023C10.065 11.6235 10.0171 11.6549 9.97668 11.6948C9.93626 11.7347 9.90417 11.7822 9.88226 11.8346C9.86036 11.887 9.84908 11.9432 9.84908 12C9.84908 12.0568 9.86036 12.113 9.88226 12.1654C9.90417 12.2178 9.93626 12.2653 9.97668 12.3052C10.0171 12.3451 10.065 12.3765 10.1177 12.3977C10.1704 12.4189 10.2267 12.4294 10.2835 12.4286H15.8513C15.908 12.4294 15.9644 12.4189 16.0171 12.3977C16.0697 12.3765 16.1177 12.3451 16.1581 12.3052C16.1985 12.2653 16.2306 12.2178 16.2525 12.1654C16.2744 12.113 16.2857 12.0568 16.2857 12C16.2857 11.9432 16.2744 11.887 16.2525 11.8346C16.2306 11.7822 16.1985 11.7347 16.1581 11.6948C16.1177 11.6549 16.0697 11.6235 16.0171 11.6023C15.9644 11.5811 15.908 11.5706 15.8513 11.5714H10.2835ZM7.71371 14.5714C7.48652 14.5714 7.26865 14.6617 7.10801 14.8225C6.94736 14.9832 6.85712 15.2013 6.85712 15.4286C6.85712 15.6559 6.94736 15.8739 7.10801 16.0347C7.26865 16.1954 7.48652 16.2857 7.71371 16.2857C7.94089 16.2857 8.15876 16.1954 8.3194 16.0347C8.48005 15.8739 8.57029 15.6559 8.57029 15.4286C8.57029 15.2013 8.48005 14.9832 8.3194 14.8225C8.15876 14.6617 7.94089 14.5714 7.71371 14.5714ZM10.2835 15C10.2267 14.9992 10.1704 15.0097 10.1177 15.0309C10.065 15.0521 10.0171 15.0835 9.97668 15.1234C9.93626 15.1632 9.90417 15.2108 9.88226 15.2632C9.86036 15.3156 9.84908 15.3718 9.84908 15.4286C9.84908 15.4854 9.86036 15.5416 9.88226 15.594C9.90417 15.6464 9.93626 15.6939 9.97668 15.7338C10.0171 15.7737 10.065 15.8051 10.1177 15.8263C10.1704 15.8475 10.2267 15.858 10.2835 15.8572H15.8513C15.908 15.858 15.9644 15.8475 16.0171 15.8263C16.0697 15.8051 16.1177 15.7737 16.1581 15.7338C16.1985 15.6939 16.2306 15.6464 16.2525 15.594C16.2744 15.5416 16.2857 15.4854 16.2857 15.4286C16.2857 15.3718 16.2744 15.3156 16.2525 15.2632C16.2306 15.2108 16.1985 15.1632 16.1581 15.1234C16.1177 15.0835 16.0697 15.0521 16.0171 15.0309C15.9644 15.0097 15.908 14.9992 15.8513 15H10.2835Z" fill="white"/>
</g>
</g>
<defs>
<filter id="filter0_d_8617_149826" x="2.85712" y="7.71429" width="17.4286" height="16.5714" filterUnits="userSpaceOnUse" color-interpolation-filters="sRGB">
<feFlood flood-opacity="0" result="BackgroundImageFix"/>
<feColorMatrix in="SourceAlpha" type="matrix" values="0 0 0 0 0 0 0 0 0 0 0 0 0 0 0 0 0 0 127 0" result="hardAlpha"/>
<feOffset dy="4"/>
<feGaussianBlur stdDeviation="2"/>
<feComposite in2="hardAlpha" operator="out"/>
<feColorMatrix type="matrix" values="0 0 0 0 0 0 0 0 0 0 0 0 0 0 0 0 0 0 0.25 0"/>
<feBlend mode="normal" in2="BackgroundImageFix" result="effect1_dropShadow_8617_149826"/>
<feBlend mode="normal" in="SourceGraphic" in2="effect1_dropShadow_8617_149826" result="shape"/>
</filter>
<linearGradient id="paint0_linear_8617_149826" x1="27.8159" y1="12" x2="-4.10414" y2="14.7723" gradientUnits="userSpaceOnUse">
<stop stop-color="#F703D9"/>
<stop offset="0.427083" stop-color="#795AF4"/>
<stop offset="0.921875" stop-color="#04AEFC"/>
</linearGradient>
<clipPath id="clip0_8617_149826">
<rect width="24" height="24" fill="white"/>
</clipPath>
</defs>
</svg>
