<svg width="27" height="13" viewBox="0 0 27 13" fill="none" xmlns="http://www.w3.org/2000/svg">
<path d="M0 6.01162C0 2.69149 2.6915 0 6.01163 0H25.2602C25.6752 0 26.0116 0.336437 26.0116 0.751453V6.4971C26.0116 9.81722 23.3201 12.5087 20 12.5087H0.751455C0.336438 12.5087 0 12.1723 0 11.7573V6.01162Z" fill="url(#paint0_linear_13165_19895)"/>
<path d="M3.2238 9.25439L4.27583 3.99422H5.28278L7.54465 7.80409L7.14638 7.78155L7.89783 3.99422H9.10016L8.04812 9.25439H7.04869L4.7793 5.44453L5.18509 5.46707L4.42612 9.25439H3.2238ZM11.0435 6.11332H13.5759L13.3881 7.06015H10.8557L11.0435 6.11332ZM10.6979 8.27751H13.5684L13.3655 9.25439H9.29266L10.3447 3.99422H14.3199L14.117 4.97111H11.3592L10.6979 8.27751ZM15.5232 9.25439L14.8544 3.99422H16.0567L16.6429 8.64572H16.0116L18.499 3.99422H19.6261L20.1897 8.64572H19.5886L22.0608 3.99422H23.2707L20.4903 9.25439H19.1903L18.6643 5.16649H19.0325L16.8307 9.25439H15.5232Z" fill="white" fill-opacity="0.87"/>
<defs>
<linearGradient id="paint0_linear_13165_19895" x1="13.0058" y1="0" x2="13.0058" y2="12.5087" gradientUnits="userSpaceOnUse">
<stop stop-color="#FF9D56"/>
<stop offset="1" stop-color="#B33333"/>
</linearGradient>
</defs>
</svg>
